<svg id="Layer_1" data-name="Layer 1" xmlns="http://www.w3.org/2000/svg" viewBox="0 0 145.39 103.64"><defs><style>.cls-1{fill:#dbcdb8;}.cls-2,.cls-4{fill:#beb7b0;}.cls-3{fill:#ede5dc;}.cls-4{opacity:0.2;}</style></defs><title>Artboard 3</title><path class="cls-1" d="M29.11,22S11.87,37.29,15.26,58.77s38.16,24.31,47.2,14.42"/><path class="cls-2" d="M29.3,22.58c.21-.28-.31-.06.09-.24C29.43,22.47,29.45,22.58,29.3,22.58Z"/><path class="cls-2" d="M61.35,73.74A2.48,2.48,0,0,1,60,75.14a7.24,7.24,0,0,0-1.71,1.1c-.12.1-.14-.39-.4-.15-.88,1-2.91,1.38-4.45,1.25l.06-.14c-.29,0-.55.43-.85.44,0-.08.07-.13,0-.22,0,.25-.51.21-.6.41-.13-.07-.16-.25-.32-.33l-.12.29c-.37.7-1.16.13-1.76.54,0-.06.08-.12,0-.17a6.4,6.4,0,0,1-1.7.48c-.61.08-1.24.12-1.83.22a.43.43,0,0,0,0-.38c-.05.28-.42.36-.74.41-.14-.29-.55.27-.92.1l0-.06c-.28.31-.41-.18-.64.17l-.17-.24c-.14.4-.39-.23-.63,0v.08c-.22.09-.32-.12-.53-.06l0,0c-.48.09-.73-.18-.74.14-.14-.27.46-.07.23-.47a14.66,14.66,0,0,1-4.65-.34c-.15-.16-.25-.22-.27-.34-.16,0-.58,0-.75.08.05,0-.06-.18-.14-.22-.25-.18-.38.27-.65.06a.25.25,0,0,0,.19-.27c-.31.18-.65.06-1,.07.06,0,.14-.05.15-.15-.4.2-.58-.21-.92-.12l.16-.15c-.4-.35-.24.33-.6.09.11,0,.1-.11.14-.17-.46.21-1-.05-1.44-.08a.11.11,0,0,0,0-.07,5.85,5.85,0,0,0-1.29-.35c-.13-.14.21-.4-.23-.49-.12.35-.76-.14-.67.35-.34-.2-.84-.56-1.13-.54.22-.06,0-.49.31-.4l-.13-.3c.09-.13.2.14.21-.06a2.23,2.23,0,0,1-.72-.22c-.36.08-.78.35-1.24.18.27,0,.07-.42.23-.41-.31.12-.61.23-.92.33-.15-.06.11-.28-.14-.3,0,.09-.15.1-.25.13s-.63-.25-.51-.6c0-.16.27.06.18-.14-.26-.14-.34,0-.59-.18l0,0c-.13-.15-.57-.18-.49.11.11.08.07-.21.19,0a1,1,0,0,1-.81-.19c.12,0,.16-.08.25-.15a3.06,3.06,0,0,1-1.34-.3c-.11.14.32-.16.32,0-.32-.54-1.16-.44-1.34-1,.08,0-.12.22-.09.18-.21-.18,0-.38-.24-.42.08-.13-.2-.11-.37-.2s0-.09.14,0a3,3,0,0,1-1.51-1.19c-.06.08-.52,0-.61-.13l.2-.12c0-.19-.34-.32-.22-.47-.41,0,1,.66.53.52.07-.21-.65-.15-.37-.3-.2-.2-.59-.21-.61-.56,0,.09.38,0,.23-.2s-.15,0-.42-.21l-.2-.1c-.18.13-.2-.3-.3,0,.11-.15-.46-.39-.14-.58l.26-.14c-.12-.12-.42,0-.61-.06,0,0,0-.1.07-.13-.38.25-.2-.36-.6-.33-.08-.39-.51-.78-.38-1.08a1,1,0,0,1-.61-.64c.07,0,.12.11.21.07,0-.24-.11-.23-.26-.35.08,0,0-.48.07-.74-.25-.18-.42,0-.56.05.26-.41-.59-.6-.36-1.06.09.07.36.28.37,0,.3-.4-.5-.34-.46-.8l-.3.23c.14-.25-.44-.49-.07-.58-.17-.09,0-.5-.35-.34.09-.74-.7-1.54-.13-2.1-.08-.08-.07-.33-.24-.24s.18.19.06.28c0-.08-.13-.08-.18-.08,0-.23,0-.39.36-.26.12-.49-.69-.35-.67-1,.15,0,.2-.05.14-.22L14,58.68c0-.39.31-.26.55-.31-.06-.19-.08-.44-.27-.5l.29-.28c-.21.2-.17-.14-.24-.23l.07.09c.1,0,0-.27,0-.38-.15,0-.19.29-.22.42-.12-.09-.11-.25-.25-.37.25,0,.14-.34.15-.51s-.24-.19-.24-.24,0-.3.18-.17-.11.15,0,.25c.08-.13.3-.13.12-.37s-.48.09-.36-.28c.07.09.17.1.26.17l.09-.34h-.22c.05,0,.07,0,.1,0-.24-.08-.12-.5-.39-.57,0-.17.15-.37.17-.53l0,0a.52.52,0,0,0-.1-.62h0a.69.69,0,0,0-.15-.5c.17-.28.84-.09.56-.39,0-.27-.41-.44-.55-.33.15-.49-.21-1.08.14-1.53-.09-.08-.15,0-.2-.19.16-.72-.1-1.57.4-2.11.07.22.22,0,.35,0-.18-.2.23-.18-.1-.29s-.3,0-.4.16A2,2,0,0,1,14,47.44c-.11.11-.16,0-.21-.1.31.08.4-.23.35-.49l-.19-.07.23-.12c0-.1-.38-.17-.15-.38a.46.46,0,0,0,.22,0c-.11-.28-.3-.68-.08-.92l.33-.16c0-.12-.13-.35-.26-.17.26-.42.35-.71.62-.8a4.11,4.11,0,0,1,.23-3l.13.07c.2-.2-.21-.2-.06-.34.11.12.34-.09.45.15.25-.29-.11-.52-.1-.77-.17-.1.06.22-.16.1-.06-.06.29-.43,0-.57.14,0,.32.09.41.18l-.05-.25c.42-.13.35.77.85.65l0-.2c.36-.07.13.6.41.18-.06-.25-.39-.56-.58-.43.09-.45-.58-.43-.37-.88.21-.06-.11.38.15.38s0-.48.2-.64c-.19.17-.39-.11-.38-.27.22-.18.2.25.35-.07-.14-.12-.13-.47-.34-.25-.31-.26.23-.31,0-.6.29,0,.44.58.7.27-.26,0-.15-.58-.58-.54.13-.12.32-.05.42.12.22-.14-.24-.68.27-.54l-.21-.17c.11,0,.21-.09.39-.13s-.06-.71.3-.53c0-.07.19-.46-.13-.43s0,.37-.36.35c.36,0,.13-.37.11-.56l.15,0c0-.11.11-.29,0-.42a.15.15,0,0,0,.22.06L17.21,35c.06-.4.41.1.51-.27l0,.34c0-.07.24-.09.25-.28-.16-.16-.33-.39-.46-.52s.26,0,.15-.26l.11.36c0,.07.38,0,.52-.25s-.12-.58-.36-.38c.07-.13.28-.24.36-.07.09-.31-.22-.07-.21-.38.18,0,.53-.24.81-.32l.17.42.09-.16c.13.35.25,0,.45.26.1-.09.09-.27.08-.42-.61.09-.37-.69-.81-.82.15-.52,1.09.26.76-.57-.14,0-.31-.38-.36,0,.2-.26-.27-.42.09-.65,0,.33.55,0,.55.46-.11-.1-.22.13-.21.21.21,0,.37.25.54,0s.21-.43,0-.51-.14.27-.29,0c.14-.39.5-.24.21-.62-.11.23-.36.15-.51.05l.07-.31.11.14c.36-.34-.18-.28.11-.65h.4c.18.25-.47.5,0,.68.18-.24,0-.45.28-.63,0,.07,0,.15,0,.23.07-.08.64.17.57-.39,0-.26-.11-.14-.25-.24.21-.44.16-.64.31-.92.24.25.34-.43.43,0-.25,0-.65.59-.46.92.43.08-.25.29,0,.6.21-.32.53-.08.78,0,.07-.08,0-.23,0-.3-.18-.17-.25-.06-.46-.19a1.26,1.26,0,0,0,.36-1c.18,0,.35.13.28.28a5.26,5.26,0,0,1,.91-1.22c-.51,0,.24-.48-.14-.51-.23.15-.59.16-.65-.06.12-.12.14.11.25.1-.05-.3.48,0,.33-.41-.18.44.33.36.53.62.06-.37.17.15.37-.11a4,4,0,0,1,.38-1.1c.51-.18.74-.9,1-1.22.26-.06.43.28.63.14s-.42-.1,0-.3l0,.08c0-.15.66-.4.37-.83l.2.35c.08,0,.06-.14.07-.22.09.08.24.09.22.24.36,0,.32-.41.49-.62l-.28,0c.18-.47.56-.54.82-.91l.15.17.09-.28a.18.18,0,0,0,.35-.1l-.1.87c-.23,0,0-.34-.29-.4s-.46.28-.35.47c.13-.1.1-.13.13-.28.26.18.08.34.15.57,0-.07.2-.08.14-.16a.83.83,0,0,1-.27.55c0-.22-.21-.06-.22-.17.18.2.07.45-.2.64-.39,0-.27.59-.58.82a1.36,1.36,0,0,1-.07-.84c-.27.09-.17.21-.44.3a1.18,1.18,0,0,1,.15.81l-.17-.12c-.11.28.12.48-.15.72a11.25,11.25,0,0,0-1.17,1.27l-.17-.11c.18.47-.42.78-.46,1.19-.51.38-.6,1.17-1.06,1.22a16.74,16.74,0,0,1-1.48,2.71l-.15-.31c.08.28-.21,0-.28.21.32-.07.13.39.22.6a1.92,1.92,0,0,0-.55,1.45l-.19-.08c.12.56-.43.85-.71,1.32-.1,0-.32,0-.36.18a2,2,0,0,1,.08,1,3.69,3.69,0,0,1-.68.94c0,1.28-.74,2.27-.88,3.52H18a4.4,4.4,0,0,1-.31,1.88l-.29.88a3.13,3.13,0,0,0-.09.83l-.38-.19c-.19.28,0,.73.26.71-.19.28,0,.81-.34.94-.14.3.1.42.1.69a2.57,2.57,0,0,0-.24,1.46l0-.15c-.08-.08-.25-.11-.29,0s-.2.82.31.65c-.34.62,0,1.51-.36,2.11.13,0,.16.11.25.18,0,.56-.27,1.15,0,1.6-.07.09-.22-.14-.24.09s.17,0,.25.17a3.07,3.07,0,0,1,0,1.37,5.1,5.1,0,0,0,0,1.31,13.41,13.41,0,0,1,.39,2.21c.11.72.26,1.41.42,2.07h-.1c.5.33,0,1.14.6,1.31-.06.13.08.4-.12.39.39.23.17,1,.68,1.38,0,0,0-.06-.1-.1,0,.59.54.84.62,1.44-.06,0-.14-.11-.23-.07-.06.29.6.24.26.59.08.1.25,0,.2-.11a6.68,6.68,0,0,0,1.09,1.56c.48.45.92.92,1.42,1.33.44.86-.53.59.23.87,0,.11.16-.1.1,0,.29.11-.06.71.27.66.13-.27.21,0,.33-.16.3.51.23.79.71.93l-.12.09c.67,0,1,.55,1.69.43a29.81,29.81,0,0,0,7.78,3.5,53.27,53.27,0,0,0,8.25,2,1.42,1.42,0,0,0,1.45.36c0,.06-.08.07,0,.14.06-.32.53,0,.62-.3.53.06,1,.07,1.57.08s1,0,1.59,0c-.17,0-.26.3-.05.28l.21-.21,0,.09c.14-.05.29-.22.14-.32,2.71-.36,5.47-.07,8-.87a5.86,5.86,0,0,0,2-.77,7.1,7.1,0,0,0,4.94-2.62A1.46,1.46,0,0,1,61.35,73.74Z"/><path class="cls-2" d="M29,22.9c-.17-.07-.41,0-.42-.25C28.72,22.74,28.94,22.78,29,22.9Z"/><path class="cls-2" d="M23.29,26.88s-.11,0-.15,0,0-.22.09-.22C23.19,26.77,23.26,26.8,23.29,26.88Z"/><path class="cls-2" d="M22.17,28.24c-.1-.11,0-.48.14-.68Z"/><path class="cls-2" d="M20.72,29.26c-.18.05-.22,0-.11-.18C20.69,29.11,20.69,29.19,20.72,29.26Z"/><path class="cls-2" d="M20.94,29.54a.32.32,0,0,1-.29.14C20.76,29.75,20.76,29.37,20.94,29.54Z"/><path class="cls-2" d="M18.7,32.4c0,.08,0,.31-.2.3C18.64,32.68,18.54,32.24,18.7,32.4Z"/><path class="cls-2" d="M18.07,34S18,34,18,34.1s-.15-.08-.12-.17Z"/><polygon class="cls-2" points="15.53 63.71 15.39 63.57 15.54 63.54 15.53 63.71"/><path class="cls-2" d="M24.24,73.87c.2,0,0,.18,0,.22C24.14,74,24.44,74,24.24,73.87Z"/><polygon class="cls-2" points="30.93 76.44 30.88 76.42 31 76.15 30.93 76.44"/><path class="cls-3" d="M67.27,33.33S47.48,14.26,35.21,18.82,24.35,47.91,32.76,56,48.66,71.83,63,70.08"/><path class="cls-2" d="M66.7,33.54c.34.23,0-.34.27.1C66.85,33.69,66.73,33.7,66.7,33.54Z"/><path class="cls-2" d="M61.62,69.82a3.33,3.33,0,0,1-2.21.45,9.71,9.71,0,0,0-2.34.07c-.17,0,.07-.41-.32-.34-1.47.55-3.7-.28-5.2-1.18l.13-.09c-.29-.16-.77.06-1.09-.1,0-.08.14-.07.1-.2-.16.19-.62-.1-.82,0-.1-.13,0-.3-.14-.46l-.28.18c-.75.36-1.21-.58-2-.6.06,0,.15,0,.12-.13a8.49,8.49,0,0,1-1.91-.66c-.62-.33-1.25-.7-1.87-1,.1,0,.24-.16.23-.3-.21.2-.6,0-.93-.15,0-.33-.67-.15-.93-.53l.07,0c-.44.06-.27-.43-.7-.29l0-.31c-.36.24-.23-.45-.57-.45l0,.07c-.26-.08-.23-.31-.46-.4v-.05c-.48-.26-.57-.64-.77-.39,0-.32.47.25.49-.23a22.16,22.16,0,0,1-4.18-3.37c-.06-.23-.13-.35-.08-.47-.17-.08-.52-.42-.75-.41,0,0,0-.2,0-.27-.15-.31-.5,0-.66-.34.16,0,.27,0,.32-.12-.39,0-.66-.34-1-.53.08,0,.16,0,.22,0-.48-.07-.47-.54-.85-.65l.22,0c-.24-.54-.39.17-.64-.26.12,0,.14,0,.21-.08-.55-.07-1-.67-1.36-1a.1.1,0,0,0,.07,0c-.35-.36-.59-.81-1-1.18,0-.21.41-.21.06-.59-.31.23-.59-.66-.79-.18a5.29,5.29,0,0,0-.66-1.3c.22.11.3-.4.5-.09l.07-.35c.15,0,.08.27.21.11-.09-.15-.48-.54-.48-.72-.34-.2-.86-.31-1.13-.8.23.18.32-.3.45-.16l-.94-.45c-.09-.17.26-.14.07-.36-.09,0-.19,0-.29-.09s-.34-.7,0-.9c.11-.12.17.26.23,0-.11-.32-.24-.29-.35-.61l0,0c0-.23-.34-.59-.46-.29,0,.15.19-.12.16.13-.25-.09-.42-.46-.52-.79.09.1.18.06.29.07a4,4,0,0,1-.85-1.29c-.17,0,.35.11.28.21.06-.69-.63-1.26-.4-1.87,0,.08-.23.09-.19.08,0-.32.21-.35.08-.54.14,0-.09-.25-.17-.45s.06-.07.11.11a3.92,3.92,0,0,1-.44-2.14c-.1,0-.4-.39-.4-.55l.23,0c.12-.16-.07-.53.13-.57-.31-.31.35,1.28.09.84.18-.14-.42-.6-.1-.53,0-.32-.32-.61-.13-.93,0,.09.33.24.3,0-.06-.45-.11-.12-.21-.48l-.1-.23c-.22,0,0-.41-.23-.23.18-.06-.14-.66.23-.62l.29.06c0-.19-.31-.31-.44-.47,0,0,.09-.08.13-.07-.44,0,0-.47-.31-.7.15-.41,0-1.05.33-1.24a1.32,1.32,0,0,1-.14-1c0,.08,0,.18.13.2.15-.22,0-.28,0-.49.06.05.29-.43.48-.66-.09-.32-.34-.25-.49-.29.47-.23-.17-.93.28-1.23,0,.12.15.49.29.24.47-.21-.22-.62.07-1l-.38,0c.26-.16-.09-.72.27-.6-.09-.18.24-.51-.12-.54.44-.68.31-1.89,1.06-2.15,0-.12.13-.36-.06-.37s0,.29-.1.31c0-.1-.06-.15-.1-.17.16-.2.25-.37.45-.06.39-.42-.4-.73,0-1.32.12.08.2.06.25-.14l-.08-.45c.23-.39.41-.09.64,0,0-.24.2-.48.08-.66l.41-.11c-.3.08,0-.24,0-.37v.13c.11,0,.18-.26.22-.4-.15-.05-.34.17-.45.28,0-.16.07-.32,0-.52.18.17.36-.25.48-.4s-.05-.33,0-.38.21-.29.27,0c0,.09-.19.08-.17.24.16-.07.33.06.36-.28s-.44-.23,0-.49c0,.13,0,.2.07.32l.34-.25-.17-.15c.08,0,.07,0,.11,0-.12-.24.31-.54.16-.78.12-.18.41-.23.56-.36v0a.77.77,0,0,0,.44-.64l0,0a1,1,0,0,0,.35-.52c.36-.1.64.55.73.1.23-.23.16-.64,0-.67.58-.25,1-1,1.65-.94,0-.12,0-.14.09-.28.83-.36,1.69-1.06,2.53-.83-.23.17,0,.22.08.34.15-.25.29.13.28-.23-.07-.19-.07-.29-.34-.29A2.64,2.64,0,0,1,37.41,17c-.16-.06-.06-.15.06-.22,0,.32.4.34.68.2l0-.2.21.18c.11-.07.1-.42.41-.26a.42.42,0,0,0,.09.21c.3-.16.74-.43,1.08-.26.09.1.18.19.26.29s.39-.17.15-.27c.55.22.91.28,1.06.54a5,5,0,0,1,3.49.13l-.07.13c.25.21.22-.2.39,0-.13.11.13.35-.14.45.36.27.6-.1.88-.07.1-.17-.25,0-.12-.17.07-.05.51.33.66.08.06.14-.08.32-.18.41l.29,0c.18.42-.87.34-.69.85l.23,0c.1.36-.68.13-.18.41.28-.05.62-.38.46-.58.52.1.47-.58,1-.35.09.22-.44-.13-.42.14.17.31.55.07.74.24-.21-.2.11-.39.29-.38.22.24-.28.19.09.37.13-.13.53-.1.27-.34.29-.3.36.26.68.08,0,.3-.63.4-.27.7,0-.27.65-.09.59-.54a.26.26,0,0,1-.12.43c.17.25.76-.18.62.32l.19-.2c0,.11.11.22.16.41s.8,0,.61.34c.08,0,.53.23.48-.1-.21-.29-.42,0-.41-.39.07.37.43.17.64.16l0,.15c.12,0,.33.14.47,0A.14.14,0,0,0,52,20l.21-.15c.45.1-.1.41.31.55H52.1c.08,0,.11.26.32.29.17-.15.43-.31.57-.42s0,.26.29.19l-.4.07c-.07,0,0,.41.29.57s.65-.07.42-.34c.14.08.28.3.09.37.36.12.07-.22.41-.18,0,.19.29.57.39.87L54,22l.18.11c-.39.1,0,.26-.28.44.1.12.31.12.47.12-.12-.64.76-.32.88-.76.58.21-.25,1.11.64.85,0-.15.4-.28,0-.37.29.24.45-.24.72.15-.37,0,.05.56-.49.53.11-.11-.16-.23-.24-.24,0,.22-.26.36.05.56s.49.25.57,0-.31-.17,0-.3c.43.18.28.54.69.27-.26-.13-.18-.39-.08-.53l.34.1-.15.1c.39.4.3-.17.72.17l0,.41c-.26.17-.57-.53-.75-.09.27.21.5.07.7.35-.08,0-.17-.05-.25-.06.09.08-.15.66.45.64.29,0,.15-.1.25-.24.48.27.72.21,1,.4-.26.24.49.39,0,.45a1,1,0,0,0-1-.55c-.07.44-.32-.29-.65,0,.35.26.11.57,0,.82.09.08.25.06.33.07.18-.17.05-.26.19-.47a1.62,1.62,0,0,0,1.18.46.21.21,0,0,1-.29.27,6.33,6.33,0,0,1,1.39,1.06c0-.53.55.29.55-.12-.18-.25-.22-.63,0-.67.13.13-.11.14-.1.25.32,0,.08.5.47.37-.5-.22-.38.33-.64.52.41.09-.15.17.15.4a4.75,4.75,0,0,1,1.23.47c.23.56,1,.84,1.42,1.13.09.28-.26.45-.1.66s.06-.44.32,0l-.08,0c.16,0,.5.73.93.43l-.36.2c0,.08.16.07.24.08-.08.1-.07.25-.23.22,0,.38.48.36.72.55v-.3c.52.21.64.62,1.08.9l-.16.16.32.11a.21.21,0,0,0,.16.38l-1-.13c-.08-.24.36,0,.4-.3s-.36-.49-.56-.38c.12.14.16.11.32.14-.16.27-.36.08-.6.14.08.05.12.21.2.15a1,1,0,0,1-.63-.31c.24,0,0-.22.16-.23-.2.19-.47.06-.72-.25,0-.42-.68-.31-1-.66a1.52,1.52,0,0,1,.91,0c-.12-.29-.24-.19-.37-.48a1.2,1.2,0,0,1-.87.12L63,30.1c-.32-.13-.51.11-.8-.2a16.66,16.66,0,0,0-1.49-1.34l.11-.17c-.51.16-.9-.49-1.35-.58-.44-.58-1.33-.73-1.42-1.23a25,25,0,0,1-3.09-1.8l.34-.13c-.31.06,0-.22-.25-.31.09.34-.43.09-.65.16a2.46,2.46,0,0,0-1.64-.73l.09-.18c-.63.09-1-.51-1.5-.86,0-.11,0-.33-.21-.4-.46.13-.6,0-1.13,0a5.16,5.16,0,0,1-1.09-.76c-1.42-.15-2.59-.92-4-1.09l0-.26c-1.41.07-2.89-.69-4-.54l.15-.4c-.34-.16-.81,0-.73.33-.34-.16-.85.19-1.07-.16-.36-.09-.42.2-.69.28a2.64,2.64,0,0,0-1.54.18h.16c0-.1,0-.27-.14-.27s-.87.14-.52.52a1.64,1.64,0,0,0-1,.33,2.38,2.38,0,0,1-1,.39c.11.09,0,.19,0,.3-.25.13-.52.26-.77.39a1.07,1.07,0,0,0-.57.54c-.11,0,0-.27-.23-.12s.11.13,0,.3a4.53,4.53,0,0,1-1,1,4.2,4.2,0,0,0-1,1A31.22,31.22,0,0,0,29,28.86l-.09,0c.2.6-.7,1.12-.25,1.67-.12.1-.15.46-.31.33.19.47-.48,1.14-.21,1.82,0-.06,0-.09,0-.16-.3.6-.07,1.19-.31,1.84,0-.07-.06-.2-.15-.22-.21.25.36.64-.12.75,0,.15.23.12.22,0A14.25,14.25,0,0,0,28,39.42c-.19,1.12-.79.14-.36,1-.08.08.19,0,.09.05.17.32-.46.59-.18.79.27-.13.18.13.35.12-.1.69-.32.87,0,1.37h-.16c.52.55.46,1.3,1,1.7A24,24,0,0,0,33,53.07c.23.29.44.6.69.86s.46.51.8.82l1.86,1.76c1.24,1.17,2.46,2.33,3.66,3.56.33.84.4.85,1.17,1.3-.07,0-.12,0-.11.09.24-.22.49.38.75.19.47.41.95.77,1.43,1.13l1.51,1c-.18-.09-.42.08-.21.2l.32,0,0,.1c.16.05.4,0,.32-.17,2.75,1.47,5.24,3.33,8.26,4a8.16,8.16,0,0,0,2.5.39,13,13,0,0,0,6.9.43A1.73,1.73,0,0,1,61.62,69.82Z"/><path class="cls-2" d="M66.31,33.23c0-.18-.11-.44.21-.45C66.44,32.91,66.44,33.14,66.31,33.23Z"/><path class="cls-2" d="M61.4,26.93s0-.12-.05-.16.24,0,.25.11C61.51,26.84,61.48,26.91,61.4,26.93Z"/><path class="cls-2" d="M59.84,25.65c.11-.1.53.06.74.2Z"/><path class="cls-2" d="M58.65,24.07c-.07-.19,0-.22.19-.1C58.81,24,58.72,24,58.65,24.07Z"/><path class="cls-2" d="M58.35,24.26a.39.39,0,0,1-.16-.31C58.12,24.06,58.53,24.09,58.35,24.26Z"/><path class="cls-2" d="M55.11,21.67c-.09,0-.34,0-.34-.24C54.81,21.58,55.29,21.52,55.11,21.67Z"/><path class="cls-2" d="M53.33,20.89s-.06-.08-.14-.08.09-.15.18-.11Z"/><polygon class="cls-2" points="25.59 31.15 25.55 30.93 25.69 30.98 25.59 31.15"/><path class="cls-2" d="M26.44,46.41c.15.18-.09.18-.1.22C26.27,46.45,26.53,46.65,26.44,46.41Z"/><polygon class="cls-2" points="30.4 53.67 30.36 53.62 30.63 53.47 30.4 53.67"/><path class="cls-1" d="M59.63,69s22.7,32.26,47,13.66S123,36,117.56,31.18s-21.35-18.06-46.84.24"/><path class="cls-2" d="M60.3,69c-.4-.44,0,.41-.32-.24A.27.27,0,0,1,60.3,69Z"/><path class="cls-2" d="M72.61,30.63a8.23,8.23,0,0,1,2.52-2.07A16.15,16.15,0,0,0,78,26.81c.2-.15.14.4.58,0A6.58,6.58,0,0,1,80,25.8,17.07,17.07,0,0,1,81.89,25c.65-.24,1.33-.45,2-.63a18.9,18.9,0,0,1,2-.3l-.11.16c.48-.05.92-.6,1.42-.69,0,.07-.12.15,0,.22.06-.26.84-.38,1-.59.22.05.24.24.51.29l.22-.31c.66-.77,1.92-.32,2.95-.83,0,.06-.15.13-.05.18A17.43,17.43,0,0,1,94.7,22a8.85,8.85,0,0,1,1.55-.07c.52,0,1,0,1.53,0-.09.09-.17.26-.06.37.11-.26.74-.36,1.27-.32.2.33.94-.13,1.54.13l-.06.06c.51-.23.65.28,1.09,0,.08.09.17.17.24.28.29-.35.6.38,1,.27v-.09c.38,0,.51.24.85.26l0,.05c.8.08,1.16.45,1.24.15.18.32-.76-.13-.46.36a22.65,22.65,0,0,1,7.18,3c.18.27.31.41.3.54a5,5,0,0,0,1.13.48c-.08,0,0,.23.15.31.32.36.62,0,1,.43-.22-.05-.33,0-.35.13a4.38,4.38,0,0,1,1.41.7c-.1,0-.21-.06-.26,0,.62.13.77.7,1.27.88l-.26,0c.47.68.44-.15.88.4-.16-.07-.17,0-.24.07a3,3,0,0,1,1,.58c.33.28.65.6.89.83a.08.08,0,0,0-.08,0c.5.53.8,1.22,1.32,1.83.07.29-.42.13,0,.76.33-.2.7,1.07.88.49a11.63,11.63,0,0,0,.74,2c-.24-.22-.31.45-.53,0l-.07.45c-.16,0-.1-.4-.23-.21a5.56,5.56,0,0,1,.51,1.15,3.67,3.67,0,0,1,1.17,1.46c-.24-.32-.34.31-.47.09.34.29.64.59,1,.9.08.26-.27.12-.09.48.09,0,.19.11.29.21s.31,1.08,0,1.26c-.12.14-.16-.41-.23-.1.1.48.23.48.31,1l0,0c0,.33.3.92.45.54,0-.23-.2.12-.15-.23a2.11,2.11,0,0,1,.46,1.25c-.08-.16-.17-.13-.28-.18a7.12,7.12,0,0,1,.71,2.06c.17,0-.34-.25-.25-.37-.16,1,.48,2,.14,2.77,0-.13.24-.08.2-.07,0,.46-.25.44-.16.74-.15,0,0,.38.08.69s-.07.08-.09-.19a7.5,7.5,0,0,1,.17,1.37,6.83,6.83,0,0,1-.17,1.79c.1,0,.29.64.26.87l-.22-.11c-.16.19-.06.77-.26.78.22.52,0-1.9.11-1.22-.21.15.26,1,0,.78,0,.46.17.94-.12,1.34.06-.12-.26-.41-.3,0-.06.65.08.2.07.73l0,.34c.22.06-.12.57.16.38-.18,0-.08,1-.43.82l-.27-.15c0,.28.21.51.29.76,0,0-.11.09-.15.07.42.14-.17.66.07,1.06-.3.54-.4,1.47-.75,1.66a2.83,2.83,0,0,1-.24,1.39c0-.11,0-.25-.06-.31-.23.27-.14.38-.16.69,0-.08-.46.53-.75.81,0,.47.24.41.36.51-.56.23-.2,1.31-.79,1.63,0-.17.07-.69-.18-.39-.57.2,0,.89-.51,1.41h.4c-.32.18-.24,1-.55.76,0,.26-.47.65-.12.74-.74.85-1.18,2.44-2.06,2.69,0,.17-.31.46-.1.49s.09-.38.25-.39a.2.2,0,0,0,0,.24c-.26.24-.43.45-.5,0-.61.5.06,1-.6,1.71-.09-.12-.18-.09-.32.15l-.12.58c-.43.46-.48.08-.69-.06-.17.29-.43.6-.37.84l-.49.12c.35-.09,0,.31-.1.47l.05-.16c-.12,0-.32.31-.42.48.15.06.46-.19.63-.33,0,.2-.22.38-.27.64-.14-.21-.49.3-.68.48s-.06.4-.13.47-.34.36-.32.06c0-.11.25-.1.28-.3-.2.09-.35-.08-.5.34s.42.27-.11.6c.06-.16,0-.24,0-.39l-.48.31.15.17c-.09,0-.07,0-.12,0,.05.28-.54.66-.44.93-.18.22-.53.32-.73.49l0-.05a1.45,1.45,0,0,0-.69.79l0,0a1.73,1.73,0,0,0-.51.67c-.45.18-.67-.52-.86,0-.33.31-.27.79,0,.77-.73.41-1.24,1.28-2.05,1.49,0,.15.06.14-.1.34-1.06.63-2,1.76-3.05,1.88.26-.26-.1-.2-.17-.31-.15.32-.41,0-.32.35.13.16.15.26.5.15a5,5,0,0,1-2,1.05c.23,0,.11.12,0,.24-.1-.31-.61-.12-.94.15l0,.2-.33-.07c-.12.12,0,.45-.44.45a.34.34,0,0,0-.19-.14,2.15,2.15,0,0,1-1.31.78l-.45-.14c-.18.1-.44.37-.08.33a3,3,0,0,1-1.62,0,5.57,5.57,0,0,1-2.23,1c-.43.11-.87.19-1.3.26s-.87.06-1.27.08l0-.15c-.44-.11-.21.27-.52.19.13-.15-.34-.28,0-.47-.61-.11-.78.3-1.19.35-.06.19.32-.11.25.13-.07.07-.85-.17-1,.11-.15-.12,0-.33.06-.44l-.38.13c-.43-.35,1.06-.58.59-1l-.34,0c-.3-.31.88-.32.06-.45-.36.13-.7.54-.38.68-.77.05-.4.7-1.24.58-.21-.2.67,0,.53-.22-.37-.28-.8,0-1.14-.08.37.15,0,.41-.25.43-.41-.19.31-.24-.29-.34-.12.15-.7.21-.23.39-.28.36-.61-.21-1,0-.14-.3.72-.49.1-.75.06.28-.87.18-.6.63-.25-.13-.23-.33,0-.45-.33-.23-1,.29-1-.25l-.19.22c-.09-.11-.24-.22-.38-.41-.31-.09-1.12.06-1-.31-.12,0-.82-.24-.63.12.39.32.57,0,.72.39-.23-.38-.66-.14-1-.15v-.16c-.17,0-.51-.15-.66,0,.15,0,.12-.16,0-.24l-.24.16c-.66-.11,0-.44-.63-.59H81c-.11,0-.24-.27-.54-.31-.19.15-.48.31-.64.42-.37-.05-.06-.29-.47-.22l.52-.06c.09,0-.15-.45-.59-.63s-.87,0-.47.34c-.22-.09-.48-.34-.24-.41-.52-.17,0,.24-.51.16-.11-.21-.56-.66-.78-1l.59-.11-.28-.14c.5-.07-.09-.29.26-.46a1.32,1.32,0,0,0-.67-.18c.34.72-.94.26-1,.72-.83-.33.05-1.2-1.09-1.05.07.17-.48.25.07.41-.45-.31-.55.2-1-.3.5.1-.2-.65.52-.51-.11.1.26.3.38.31-.11-.26.26-.35-.2-.64-.31-.14-.7-.38-.77-.15s.45.25.13.35c-.62-.28-.5-.67-1-.44.38.2.33.47.23.62L73,84.57l.17-.09c-.61-.54-.37.13-1-.35l-.11-.48c.31-.13.86.74,1,.28-.4-.3-.67-.2-1-.57.11,0,.23.1.34.12-.14-.12.07-.72-.72-.83-.38-.1-.18.08-.28.21-.67-.44-1-.44-1.4-.73.29-.2-.7-.59,0-.51a2,2,0,0,0,1.45.9c0-.5.47.42.85.18-.52-.37-.26-.68-.19-.95a1,1,0,0,0-.44-.16c-.2.15,0,.29-.16.5a3.31,3.31,0,0,0-1.61-.84c-.11-.24.1-.39.33-.23a11.7,11.7,0,0,1-1.94-1.64c.13.64-.74-.51-.69,0,.27.35.36.81.07.79-.19-.2.12-.13.09-.27-.4-.06-.17-.61-.66-.57.67.41.44-.27.75-.41-.53-.23.16-.15-.24-.51a9,9,0,0,1-1.61-1c-.35-.74-1.39-1.36-1.88-1.85-.14-.37.28-.44.06-.76s0,.51-.39-.09h.1c-.2-.09-.67-1.06-1.17-.87l.42-.1c-.06-.12-.2-.14-.3-.19.09-.09.08-.27.27-.17-.08-.48-.61-.62-.91-1l0,.37c-.64-.47-.81-1-1.34-1.53l.19-.12-.38-.26c.23-.05.09-.45-.2-.52l1.14.55c.1.33-.43-.1-.47.19s.45.75.68.69c-.15-.22-.2-.2-.39-.3.18-.26.43.05.71.07-.1-.1-.15-.31-.24-.27a2.05,2.05,0,0,1,.78.63c-.29-.15,0,.25-.18.22.23-.15.57.12.88.58,0,.51.84.64,1.22,1.16a2.13,2.13,0,0,1-1.12-.31c.17.39.31.32.49.72a1.52,1.52,0,0,1,1.06.18l-.13.16c.41.27.62.06,1,.53a25.34,25.34,0,0,0,2,2.09l-.11.17c.61,0,1.2.86,1.78,1.09.65.8,1.8,1.23,2,1.81C73.14,81.27,74.5,82,76,83l-.41.09c.39,0,.09.26.39.39-.2-.38.55,0,.83-.09a4.38,4.38,0,0,0,2.37,1l-.06.2a5.31,5.31,0,0,1,2.27,1,.69.69,0,0,0,.41.41,4.23,4.23,0,0,1,1.54,0,9.53,9.53,0,0,1,1.76.7c2,0,3.89.53,5.89.25l.15.24c1.9-.55,4.27-.47,5.79-1.2l0,.43c.55,0,1.1-.48.88-.69.53-.06,1.14-.62,1.57-.41.51-.16.51-.45.89-.68a8.6,8.6,0,0,0,1.18-.43c.31-.18.6-.38,1-.66l-.23.1c-.05.13,0,.29.26.19.27-.29,1.25-.6.67-.83a4.35,4.35,0,0,0,1.49-1,5.59,5.59,0,0,1,1.5-1c-.15,0,0-.24.07-.38.73-.61,1.71-1,2.11-1.71.16-.05,0,.33.27.08.14-.19-.11-.13,0-.38a12.37,12.37,0,0,1,1.69-1.58,9.76,9.76,0,0,0,1.64-1.49,66.36,66.36,0,0,0,4.3-6.09l.07.07a2.35,2.35,0,0,1,.65-1.14,1.38,1.38,0,0,0,.41-1.13c.17-.12.37-.61.48-.41,0-.68,1-1.51,1-2.49a.4.4,0,0,0,0,.23c.52-.79.59-1.64,1-2.51,0,.11,0,.29.07.35.29-.31-.12-1,.4-1,.06-.21-.18-.22-.21-.09a22.2,22.2,0,0,0,1.16-6.55c.45-1.56.8,0,.59-1.31.1-.1-.17-.09-.07-.1-.1-.5.57-.73.35-1.09-.3.12-.15-.24-.32-.25.24-1,.48-1.17.28-2l.15.06c-.44-.91-.22-2-.79-2.71a34.29,34.29,0,0,0-1.4-7.16,25.69,25.69,0,0,0-2.84-6.29,6.8,6.8,0,0,0-.87-1.15c-.08-.08-.12-.14-.23-.23l-.34-.3-.68-.59-1.38-1.12-1.42-1a48.59,48.59,0,0,0-6.09-3.54,3.59,3.59,0,0,0-2.2-1c.07,0,.14,0,.08-.12-.15.28-.85-.19-1,.08A23,23,0,0,0,98,24.14c.29,0,.46-.29.11-.28l-.37.19L97.67,24c-.24,0-.5.19-.27.3-4.46,0-9,.25-13.3,1.9a23.79,23.79,0,0,0-3.48,1.52c-1.63.65-3.22,1.24-4.75,2a35.66,35.66,0,0,0-4.33,2.89A2.47,2.47,0,0,1,72.61,30.63Z"/><path class="cls-2" d="M60.75,69.51c-.05.2.14.59-.24.46C60.61,69.84,60.61,69.56,60.75,69.51Z"/><path class="cls-2" d="M67.25,78.93s.08.16.09.2-.3-.07-.33-.21C67.12,79,67.16,78.93,67.25,78.93Z"/><path class="cls-2" d="M69.43,80.9c-.13.09-.69-.22-1-.45Z"/><path class="cls-2" d="M71.26,83.06c.12.24,0,.26-.23.06C71.06,83,71.17,83.08,71.26,83.06Z"/><path class="cls-2" d="M71.62,82.91a.66.66,0,0,1,.28.4C72,83.2,71.41,83.07,71.62,82.91Z"/><path class="cls-2" d="M76.54,86.48c.14.06.48.09.53.3C77,86.6,76.34,86.62,76.54,86.48Z"/><path class="cls-2" d="M79.2,87.5c.08,0,.1.08.22.09s-.08.16-.21.11Z"/><polygon class="cls-2" points="120.73 67.01 120.67 67.32 120.56 67.22 120.73 67.01"/><path class="cls-2" d="M124.05,45.31c-.13-.29.11-.22.13-.28C124.23,45.3,124,45,124.05,45.31Z"/><polygon class="cls-2" points="120.1 34.11 120.14 34.19 119.87 34.3 120.1 34.11"/><path class="cls-3" d="M116.2,46.17c-3.26,14-7.21,24.42-23.29,26.08-19.72,2-37.08-3.09-37.08-18.39S79.37,22.12,95.24,25.21,119.67,31.28,116.2,46.17Z"/><path class="cls-2" d="M116.49,46.67c.1-.63-.27.29,0-.43A.36.36,0,0,1,116.49,46.67Z"/><path class="cls-2" d="M116.88,44.14c0-.53-.05-1.09,0-1.67s.14-1.17.12-1.78,0-1.22,0-1.82a11.63,11.63,0,0,0-.39-1.71c-.08-.25.33,0,.08-.56-.14-.25-.27-.52-.39-.8l-.18-.43-.25-.42q-.25-.43-.49-.9a9.74,9.74,0,0,0-.61-.88,16.48,16.48,0,0,0-3-3.16l.18,0c-.4-.35-1.11-.36-1.56-.67,0-.05.19,0,.12-.12-.1,0-.33-.05-.56-.16a1.94,1.94,0,0,0-.62-.17c-.17-.15-.09-.27-.32-.45l-.36.06a3.35,3.35,0,0,1-1.48-.36,5.5,5.5,0,0,0-1.65-.54c.07,0,.19,0,.11-.1-1.88-.26-4.11-.91-6.18-1.23.1-.05.2-.16.1-.27-.15.19-.79.1-1.34,0-.2-.27-1,0-1.6-.24l.06,0c-.52.13-.68-.27-1.12-.08l-.27-.23c-.26.26-.66-.26-1.08-.17v.06c-.38,0-.55-.17-.9-.14l0,0c-.82,0-1.28-.19-1.27.06-.28-.21.79,0,.36-.35a41.64,41.64,0,0,0-8.09,1.06c-.32,0-.52,0-.61-.06a7.05,7.05,0,0,0-1.18.5c.09,0-.2-.07-.34,0-.5.07-.43.42-1,.49.18-.13.23-.22.13-.29a8.89,8.89,0,0,1-1.46.76c.06-.07.18-.14.13-.2-.48.41-1,.34-1.47.68l.13-.21c-.84.18-.12.37-.83.56.14-.11.06-.13.07-.2a16.47,16.47,0,0,1-2.12,1.28,0,0,0,0,0,0-.06,15.79,15.79,0,0,0-2,1.16c-.29.09-.08-.34-.74.09.16.21-1.08.79-.52.81a9.05,9.05,0,0,0-1.84,1.13c.19-.26-.46-.1,0-.43l-.44.1c0-.13.38-.21.19-.26-.22.17-.84.72-1.06.83a5.84,5.84,0,0,1-1.14,1.52c.24-.33-.36-.1-.18-.31l-.57,1.15c-.21.18-.19-.13-.45.18.06,0,0,.19-.09.32s-.81.81-1.09.68.3-.34,0-.21c-.39.34-.33.43-.7.78l0,0c-.27.21-.64.77-.27.63.18-.16-.18-.06.13-.24a3.57,3.57,0,0,1-.8,1.09c.09-.16,0-.19,0-.3A17.94,17.94,0,0,1,63,39.66c.09.1,0-.37.13-.41-.79.61-1.1,1.69-1.8,2.16.06-.12.19.06.16,0-.3.36-.43.24-.55.52-.11,0-.19.33-.35.61s-.09,0,.06-.19A22.34,22.34,0,0,1,59,45.14c.08,0-.07.66-.16.86l-.12-.16c-.18.14-.32.7-.46.67,0,.53.67-1.78.52-1.11-.22.08-.16,1-.31.72A4.8,4.8,0,0,1,58,47.37c.07-.11-.08-.44-.21-.09-.21.62,0,.21-.13.72l-.06.33c.15.08-.19.55.05.38-.15,0-.2.92-.44.78L57,49.35c-.08.28.09.51.14.74,0,0-.09.09-.12.07.32.12-.18.65,0,1a13.73,13.73,0,0,1-.42,1.71,4.82,4.82,0,0,1,.12,1.37c0-.1,0-.24-.12-.27-.09.33,0,.4.07.7a3.68,3.68,0,0,0-.24,1c.15.44.31.26.43.3-.3.46.41,1.2.21,1.75-.08-.14-.28-.61-.29-.22-.25.49.45.75.46,1.42l.22-.24c-.08.33.47.84.18.88.15.17.2.75.42.58.19,1.11,1.35,2.18,1.35,3,.13.09.34.42.4.28s-.31-.21-.29-.35a.18.18,0,0,0,.21.07c.16.3.31.52-.06.41.34.7.84.3,1.4,1.05-.11,0-.09.13.13.31l.52.22c.42.44.09.43,0,.58.28.19.6.45.8.43l.18.44c-.14-.31.29.07.45.12L63,66.66c0,.1.35.28.53.37,0-.12-.27-.38-.43-.53.19,0,.39.2.63.24-.17.12.37.41.6.56s.38,0,.45.09.41.27.15.26c-.1,0-.16-.2-.34-.22.14.16,0,.3.45.4s.1-.35.57,0c-.16,0-.22,0-.36,0l.45.35.1-.14c0,.07,0,.06,0,.1.22-.07.79.33,1,.2.26.1.48.36.73.48h-.05a1.74,1.74,0,0,0,1,.32l0,0a2,2,0,0,0,.82.18c.39.27-.06.65.48.62.45.14.79-.08.64-.23a22.58,22.58,0,0,1,2.43.77c.13,0,.07-.1.32-.08a24.61,24.61,0,0,1,3.48.77c-.36,0,0,.16-.05.26.31-.11.33.21.47,0s0-.22-.3-.33a8.28,8.28,0,0,1,2.23.33c-.2-.09,0-.12.13-.15-.08.23.46.32.88.27l.07-.14.25.17c.16,0,.19-.29.59-.13a.25.25,0,0,0,.11.16,3.17,3.17,0,0,1,1.49-.12l.37.22c.2,0,.53-.14.19-.21a5.38,5.38,0,0,1,1.54.36,20.58,20.58,0,0,1,4.88-.57l0,.11c.43.07.21-.21.51-.15-.13.11.34.2,0,.36.61.07.77-.24,1.15-.32,0-.15-.31.12-.25-.07s.84,0,.92-.19c.16.07.06.24,0,.34l.36-.14c.48.21-1,.55-.49.82l.34-.07c.35.2-.89.34,0,.34.37-.14.65-.49.31-.55.77-.14.31-.54,1.13-.64.24.1-.64.12-.47.28.4.12.76-.21,1.11-.2-.39,0-.1-.29.14-.37.43,0-.24.24.35.18.08-.14.6-.31.12-.33.16-.31.62,0,.89-.27.23.17-.52.54.14.55-.13-.16.72-.44.34-.64.25,0,.31.14.16.3.38,0,.77-.54,1-.2l.07-.22c.12,0,.29,0,.5.11s.9-.53,1-.24c.09-.06.77-.28.44-.39s-.44.31-.75.12c.36.12.59-.23.81-.39l.08.1c.13-.09.47-.18.51-.33-.09.1,0,.15.12.14l.09-.22c.55-.28.25.25.78,0-.12.1-.24.22-.36.31.08-.06.33,0,.57-.17,0-.2.15-.46.18-.61.27-.2.21.1.44-.19l-.31.36c0,.08.38.12.79-.08.24-.17.53-.57.08-.45.21-.08.51-.19.42,0,.41-.31-.14-.12.18-.43.2,0,.76-.16,1.14-.21l-.25.47.27-.16c-.23.39.27,0,.19.34a1.58,1.58,0,0,0,.53-.45c-.71.06.28-.82-.08-1,.59-.58.91.31,1.28-.63-.17,0,0-.42-.36,0,.44-.29.05-.47.58-.79-.23.42.58-.1.24.51,0-.11-.32.2-.37.29.24-.05.19.28.58-.1.22-.26.54-.58.37-.66s-.35.37-.33.08c.42-.5.71-.38.66-.8-.28.3-.49.24-.58.14l.28-.38,0,.15c.58-.49,0-.32.48-.85l.41-.1c.05.27-.75.76-.41.9.32-.37.29-.6.65-.9,0,.1-.12.21-.16.31.12-.12.59,0,.82-.68.13-.36,0-.15-.14-.24.4-.67.42-.94.69-1.36.16.23.51-.72.43-.12a2.46,2.46,0,0,0-.85,1.45c.2,0,.11.09,0,.26s-.32.36-.26.52c.42-.48.63-.29.84-.26a1.3,1.3,0,0,0,.18-.44c-.11-.17-.24,0-.4-.07a3.73,3.73,0,0,0,.8-1.62c.19-.16.31,0,.19.26.36-.78.87-1.54,1.25-2.26-.49.34.32-.85-.06-.64s-.59.61-.61.33c.13-.23.11.07.22,0,0-.38.46-.37.37-.79-.24.74.27.29.42.52.12-.57.14.09.38-.42s.27-1.26.46-1.86a8.47,8.47,0,0,0,.91-2.55c.23-.31.4,0,.58-.36s-.37.25-.05-.38l0,.08c0-.22.54-1.19.23-1.49l.21.29a.77.77,0,0,0,0-.37c.09,0,.22-.1.21.12.32-.36.23-.89.34-1.35l-.24.25a20.65,20.65,0,0,1,.52-2.07l.16.06v-.48c.13.15.33-.24.26-.51l.1,1.28c-.18.3-.1-.41-.31-.24a1.2,1.2,0,0,0-.2,1,1,1,0,0,0,.05-.51c.25,0,.13.37.23.62,0-.14.15-.33.09-.38a2.85,2.85,0,0,1-.14,1.05c0-.34-.18.13-.22,0,.18.09.14.55-.09,1.1-.35.34-.17,1.11-.43,1.75a2.67,2.67,0,0,1-.14-1.14c-.22.38-.13.46-.35.84a1.5,1.5,0,0,1,.18,1l-.15,0c-.09.51.12.58-.12,1.18-.41,1-.88,2.09-1.2,2.88l-.15,0c.1.56-.56,1.48-.7,2.13-.67.88-1,2.17-1.58,2.48l-.72,1.22c-.26.39-.54.75-.82,1.12a13.83,13.83,0,0,1-2,2.09l.09-.4c-.15.37-.25.07-.48.34.42-.13-.23.48-.35.74a5.56,5.56,0,0,0-1.19.87c-.4.3-.78.63-1.08.9l-.1-.11c-.53.71-1.56.87-2.48,1.25a1,1,0,0,0-.62.07,6,6,0,0,1-1.41.88,7.86,7.86,0,0,1-2.09.42,11.85,11.85,0,0,1-1.58.53c-.54.11-1.09.2-1.64.29-1.11.19-2.21.28-3.32.47l-.18-.17c-2.14.55-4.84.29-6.7.45l.18-.31c-.58-.1-1.33,0-1.19.27-.58-.1-1.47.09-1.83-.18-.59-.09-.74.1-1.24.1a20.27,20.27,0,0,0-2.77-.31l.28.05c.13-.05.16-.18-.12-.23-.43,0-1.53-.3-1.16.12-1.17-.37-2.84-.32-3.94-.87.08.12-.22.07-.36.1-1-.25-2.08-.77-2.94-.89-.15-.1.31-.07-.1-.23-.26-.05,0,.12-.37.07a19.64,19.64,0,0,1-4.64-2.28,16.9,16.9,0,0,1-6.47-5.78h.08a3.39,3.39,0,0,1-.81-1.33,2.66,2.66,0,0,0-.72-1.23c0-.24-.27-.82-.08-.71-.48-.64-.45-2-.88-3.06a.69.69,0,0,0,.09.26,20.55,20.55,0,0,1-.22-3.17c0,.11.07.32.14.35.11-.43-.32-1,0-1.28,0-.25-.17-.19-.17,0a24.6,24.6,0,0,1,1.75-7.52c1-1.57.56.15,1-1.25.12-.07-.08-.14,0-.12.19-.53.75-.56.79-1-.27,0,0-.28-.07-.36.71-.87,1-.94,1.36-1.74l.05.12c.32-1,1.2-1.84,1.48-2.74A45.18,45.18,0,0,1,73.83,28.13a49,49,0,0,1,7.49-3.21,28.63,28.63,0,0,1,8.15-1.5,8.71,8.71,0,0,0,2.88.14c-.06,0-.15,0-.06.1.09-.24,1,.06,1.19-.17,2.16.29,3.88.64,5.92,1.06-.32,0-.53.12-.14.18l.43-.07,0,.08c.27,0,.58,0,.32-.17a38.14,38.14,0,0,1,7.52,2.13,22.82,22.82,0,0,1,7,4.1c.22.25.48.51.76.78l.75,1,.39.49c.12.17.21.36.31.53l.58,1a15.3,15.3,0,0,1,.41,1.56,7.18,7.18,0,0,1,.22,1.52,13.38,13.38,0,0,1,.09,1.49L118,40.63c0,1-.22,1.9-.29,2.87s-.33,1.9-.46,2.91A3.32,3.32,0,0,1,116.88,44.14Z"/><path class="cls-2" d="M116.34,47.42c-.15.1-.32.52-.4.14C116.06,47.54,116.24,47.35,116.34,47.42Z"/><path class="cls-2" d="M111.56,58.3s-.12.13-.15.15c.05-.13,0-.3.12-.37C111.48,58.22,111.54,58.22,111.56,58.3Z"/><path class="cls-2" d="M110.16,60.91c-.07-.09.16-.68.32-1Z"/><path class="cls-2" d="M108.32,62.94c-.21.13-.21.05,0-.2C108.35,62.75,108.31,62.85,108.32,62.94Z"/><path class="cls-2" d="M108.4,63.24a.77.77,0,0,1-.38.26C108.1,63.55,108.31,63.07,108.4,63.24Z"/><path class="cls-2" d="M104.08,67c-.09.1-.31.32-.48.29C103.77,67.31,104.08,66.83,104.08,67Z"/><path class="cls-2" d="M101.87,68.51a.45.45,0,0,0-.2.1c-.17,0,0-.12.07-.19Z"/><polygon class="cls-2" points="57.24 58.29 57.37 58.56 57.25 58.55 57.24 58.29"/><path class="cls-2" d="M64.09,38.47c.16-.27.22-.08.27-.11C64.17,38.57,64.33,38.2,64.09,38.47Z"/><polygon class="cls-2" points="73.29 30.57 73.21 30.62 73.12 30.41 73.29 30.57"/><path class="cls-4" d="M28.81,41s17.59-18.79,32.38-3.6c0,0-14.32,14.87-2.52,29.59C58.67,67,41.1,68.7,28.81,41Z"/><path class="cls-4" d="M58.43,58.7C57.65,54,64.91,48.68,69,46.32c17.42-10,45.49-10.85,44.82,3.1-.84,17.71-22.21,21.65-25,21.36C86.32,70.54,60.84,73.19,58.43,58.7Z"/></svg>