<svg id="Layer_1" data-name="Layer 1" xmlns="http://www.w3.org/2000/svg" viewBox="0 0 258.51 118.01"><defs><style>.cls-1{fill:#dbcdb8;}.cls-2,.cls-4{fill:#beb7b0;}.cls-3{fill:#ede5dc;}.cls-4{opacity:0.2;}</style></defs><title>Artboard 3</title><path class="cls-1" d="M87.55,31.83s-9.5,8.41-7.63,20.24,21,13.39,26,7.94"/><path class="cls-2" d="M87.82,32.32c.09-.17-.25-.12,0-.16C87.9,32.26,87.93,32.35,87.82,32.32Z"/><path class="cls-2" d="M105.21,60.2a.92.92,0,0,1-.63.89c-.34.18-.7.29-.91.66-.06.07-.16-.39-.28-.21-.38.82-1.58.86-2.46.59l0-.13c-.16,0-.27.37-.44.35,0-.08,0-.12,0-.22,0,.24-.27.16-.3.35-.08-.08-.11-.26-.21-.35l0,.28c-.16.67-.64.05-.95.42,0-.06,0-.12,0-.17a4.4,4.4,0,0,1-1.93.59.74.74,0,0,0,0-.38c0,.28-.23.36-.4.41-.08-.29-.3.27-.51.1l0-.06c-.16.31-.22-.18-.36.18l-.09-.23c-.08.41-.21-.22-.35,0v.08c-.13.09-.18-.11-.29-.05v0c-.27.1-.4-.15-.42.17-.07-.26.26-.09.15-.48a5.38,5.38,0,0,1-2.58-.07c-.07-.14-.12-.19-.12-.32-.1,0-.33,0-.43.14s0-.17-.06-.2-.24.3-.38.13a.36.36,0,0,0,.14-.28c-.2.21-.38.13-.57.17,0,0,.09-.07.11-.17-.25.23-.31-.14-.52,0l.11-.16c-.19-.29-.18.35-.36.16.07,0,.07-.12.1-.19-.3.26-.61.07-.84.1a.19.19,0,0,0,0-.07c-.24,0-.43-.22-.73-.16-.06-.11.18-.41-.07-.43-.12.35-.44,0-.46.43-.18-.14-.43-.39-.62-.33.14-.09.09-.45.26-.42l0-.26c.08-.13.1.1.14-.09-.09,0-.37,0-.41-.08-.24.14-.56.46-.82.38.18-.08.12-.4.22-.42l-.65.46c-.09,0,.12-.27,0-.25s-.12.12-.19.17-.38-.1-.23-.44c0-.14.16,0,.14-.16s-.21,0-.36,0l0,0c-.06-.1-.35,0-.36.2.06.05.09-.2.13-.05a.43.43,0,0,1-.52,0c.08,0,.13-.1.2-.18a1.48,1.48,0,0,1-.88,0c-.1.14.26-.2.24-.1-.12-.39-.75-.13-.75-.58.05,0-.13.21-.11.17s.05-.31-.08-.3c.09-.12-.13,0-.24-.08s0-.07.11,0c-.18,0-.81-.21-.9-.63a.51.51,0,0,1-.45,0l.19-.14c0-.15-.2-.18-.07-.32-.32.07.63.3.31.29.1-.17-.48,0-.23-.16-.11-.11-.42,0-.36-.3,0,.06.32-.11.23-.2s-.12,0-.3-.07l-.15,0c-.18.14-.11-.18-.24,0,.12-.14-.3-.19,0-.4l.25-.15c-.08-.06-.34.06-.5.08a.27.27,0,0,1,.08-.11c-.37.25-.1-.22-.45-.11,0-.26-.29-.46-.11-.69-.21-.06-.41-.11-.42-.32.05,0,.09,0,.18,0s-.06-.13-.17-.19c.07,0,.12-.33.2-.51-.19-.08-.38.08-.52.13.32-.32-.45-.3-.16-.63.08,0,.29.13.34,0,.35-.3-.41-.14-.31-.43l-.32.19c.17-.18-.34-.25,0-.36-.15,0,0-.3-.3-.16.17-.46-.48-.87.11-1.26-.07,0,0-.19-.21-.12s.16.09,0,.16-.12,0-.17,0,.06-.23.37-.19c.16-.3-.65-.14-.58-.51.15,0,.2,0,.16-.14l-.27-.14c0-.22.32-.17.56-.21-.05-.1-.06-.24-.25-.27l.3-.17c-.22.13-.16-.07-.22-.12l.07,0c.1,0,0-.15,0-.21s-.2.17-.24.25-.1-.14-.23-.2c.25,0,.15-.2.17-.29s-.23-.1-.22-.13,0-.17.19-.1-.11.09,0,.14.31-.09.13-.21-.48.06-.34-.15a1.09,1.09,0,0,0,.26.09l.11-.2h-.22c.05,0,.07,0,.1,0-.24,0-.1-.28-.37-.31,0-.1.15-.21.17-.3l0,0c.13-.12,0-.26-.1-.35h0a.28.28,0,0,0-.15-.28c.17-.16.84-.05.56-.22,0-.15-.41-.25-.55-.19.15-.28-.21-.62.14-.86-.09,0-.15,0-.2-.11.13-.4-.17-.9.3-1.19.08.13.22,0,.35,0-.19-.12.22-.09-.12-.17s-.3,0-.39.07c-.08-.26,0-.64.16-.75-.1.05-.15,0-.21-.07.31.07.38-.11.31-.26l-.19-.05.22-.05c-.05-.06-.39-.13-.18-.23a.71.71,0,0,0,.21,0c-.13-.17-.35-.42-.16-.54l.31-.07c0-.07-.16-.22-.27-.12.22-.22.28-.39.54-.41a1.61,1.61,0,0,1-.11-1.74l.14.06c.17-.09-.22-.15-.1-.21.12.09.32,0,.45.15.2-.14-.17-.33-.19-.48-.18-.08.09.14-.14,0-.06,0,.23-.22,0-.35a.86.86,0,0,1,.41.16l-.09-.16c.37,0,.45.52.9.51v-.12c.32,0,.22.38.42.16-.09-.16-.45-.4-.61-.34,0-.26-.61-.35-.49-.6.19,0,0,.22.2.26s0-.29.09-.37c-.15.08-.38-.13-.4-.23.18-.08.22.19.32,0-.14-.09-.19-.31-.36-.21-.33-.21.17-.16-.06-.37.27,0,.5.43.7.28-.25-.07-.22-.39-.62-.43.1-.05.29,0,.41.14.19-.05-.32-.47.17-.3L80,39.67c.1,0,.18,0,.34,0s-.17-.47.18-.29c0,0,.1-.26-.19-.3s.11.25-.27.17c.32,0,.06-.22,0-.35l.15.05c0-.07.05-.17-.08-.28a.21.21,0,0,0,.22.08l-.19-.15c0-.25.39.13.42-.09l.09.23s.21,0,.18-.14c-.17-.13-.37-.31-.5-.42s.24.06.09-.15l.16.26c.06.05.35.06.43-.07s-.21-.4-.39-.32a.2.2,0,0,1,.31,0c0-.19-.21-.09-.26-.29.16,0,.43-.07.67-.07l.24.31.05-.09c.18.26.23,0,.45.26.08,0,0-.16,0-.26-.52-.05-.46-.53-.87-.7,0-.32,1,.38.57-.24-.12,0-.34-.31-.32-.09.13-.14-.32-.34,0-.43.07.23.47.09.58.42-.12-.09-.16.05-.15.1.18,0,.37.24.47.09s.1-.25-.11-.35-.07.16-.25,0c0-.24.39-.07.06-.38,0,.14-.29,0-.43-.06v-.2l.12.12c.25-.16-.21-.23,0-.43l.35.08c.21.21-.31.25.11.46.11-.13-.06-.31.12-.38,0,.05,0,.1,0,.15s.59.24.42-.15c-.05-.18-.12-.12-.26-.22.1-.26,0-.42.09-.58.26.22.21-.23.38.12-.21,0-.43.29-.21.55.39.14-.16.15.15.42.12-.17.45.05.68.17,0,0,0-.15,0-.2-.19-.16-.23-.09-.44-.23a.53.53,0,0,0,.09-.66c.15,0,.33.17.3.26a1.66,1.66,0,0,1,.52-.67c-.42-.1.1-.3-.23-.4a.52.52,0,0,1-.56-.18c.07-.06.14.11.23.13-.1-.22.39.07.19-.23-.06.28.36.33.58.56,0-.25.17.14.28,0a1.68,1.68,0,0,1,.08-.72c.38,0,.42-.5.56-.69.2,0,.41.3.54.24s-.36-.16-.09-.23l0,.06c0-.11.45-.15.12-.54L86,33c.05,0,0-.09,0-.15s.21.12.23.23c.29.08.16-.24.26-.36l-.23-.08c0-.31.33-.28.44-.51l.15.16v-.2c.13.18.32.18.25,0l.12.65c-.17,0-.11-.27-.31-.38s-.29.11-.16.29c.08,0,0-.08,0-.19.24.19.14.28.25.47,0,0,.13,0,.07-.1a.34.34,0,0,1-.09.36c0-.15-.18-.09-.22-.18.19.19.16.35,0,.43-.32-.11-.08.38-.28.48a1.31,1.31,0,0,1-.24-.64c-.19,0-.09.12-.28.13.11.18.32.43.3.64L86.09,34c0,.19.21.38,0,.49a3.9,3.9,0,0,0-.68.66L85.28,35c.26.38-.17.47-.12.75-.35.15-.25.69-.64.63a4.65,4.65,0,0,1-.72,1.53l-.2-.24c.13.2-.18,0-.2.08.26,0,.19.28.31.44-.33.12-.28.54-.21.84l-.18-.09c.22.39-.22.47-.39.71-.09,0-.28,0-.3,0,.23.29.17.35.25.65a1.23,1.23,0,0,1-.46.47c.19.77-.33,1.26-.28,2l-.24,0c.32.76-.4,1.36-.23,2l-.39-.14c-.16.14,0,.4.32.42-.16.14.11.45-.24.49-.11.16.14.24.17.39-.23.31-.18.45-.15.77l0-.08c-.09,0-.26-.07-.29,0s-.16.43.34.37c-.31.31.13.81-.26,1.11.13,0,.16.06.25.1,0,.29-.27.61,0,.85-.07,0-.23-.08-.24,0s.17,0,.25.09a.88.88,0,0,1,0,.72,1.51,1.51,0,0,0-.09.7,3.86,3.86,0,0,1,.28,1.16c.06.38.13.72.22,1.06l-.1,0c.43.11-.2.64.39.64-.07.08,0,.21-.17.24.32.07,0,.58.39.69,0,0,0,0-.07,0-.09.35.31.41.27.76a.28.28,0,0,0-.19,0c-.11.2.48,0,.11.32,0,.05.23-.09.19-.11.2.64.85,1,1.38,1.42.13.54-.55.57,0,.6,0,.09.14-.11.08,0,.19,0-.2.55,0,.44s.16-.07.28-.2c.1.33,0,.58.3.57l-.11.1c.48-.14.62.22,1.09,0a16.18,16.18,0,0,0,4.15,1.65,41.92,41.92,0,0,0,4.33,1.12c.31.43.35.42.76.3,0,.06,0,.08,0,.14,0-.32.28,0,.34-.32a8.77,8.77,0,0,0,1.67,0c-.09,0-.13.3,0,.28l.11-.21,0,.09a.25.25,0,0,0,.07-.32c1.41-.32,2.89.14,4.21-.32a1.78,1.78,0,0,0,1-.42,2.54,2.54,0,0,0,2.57-1.08S105.42,59.71,105.21,60.2Z"/><path class="cls-2" d="M87.68,32.5c-.14-.09-.3-.06-.38-.29A2.74,2.74,0,0,1,87.68,32.5Z"/><path class="cls-2" d="M83.95,34.2s-.09,0-.12,0-.06-.16,0-.14S83.91,34.14,83.95,34.2Z"/><path class="cls-2" d="M83.28,34.94c-.11-.1-.08-.34,0-.45Z"/><path class="cls-2" d="M82.26,35.37c-.15,0-.19-.06-.13-.15S82.21,35.31,82.26,35.37Z"/><path class="cls-2" d="M82.5,35.61c0,.07-.13.05-.22,0C82.38,35.71,82.31,35.45,82.5,35.61Z"/><path class="cls-2" d="M81.07,37.13s0,.2-.12.16C81.07,37.3,80.9,37,81.07,37.13Z"/><path class="cls-2" d="M80.8,38.07s-.05,0,0,.07a.13.13,0,0,1-.14-.13Z"/><polygon class="cls-2" points="79.62 54.99 79.51 54.92 79.65 54.88 79.62 54.99"/><path class="cls-2" d="M84.6,60.8c.14,0,0,.15,0,.18S84.72,60.85,84.6,60.8Z"/><polygon class="cls-2" points="88.5 61.96 88.47 61.95 88.58 61.68 88.5 61.96"/><path class="cls-3" d="M108.58,38.06s-10.9-10.51-17.66-8-6,16-1.35,20.47,8.76,8.74,16.67,7.77"/><path class="cls-2" d="M108.1,38.35c.21.1.09-.27.18,0C108.18,38.43,108.08,38.47,108.1,38.35Z"/><path class="cls-2" d="M105.45,58a1.22,1.22,0,0,1-1.2.4,2.49,2.49,0,0,0-1.29.1c-.1,0,.05-.41-.16-.33-.83.57-2.07-.05-2.82-.74l.09-.1c-.14-.12-.46.17-.63.05,0-.07.09-.09.09-.2-.12.21-.35,0-.49.13,0-.11,0-.28,0-.41l-.2.21c-.52.47-.65-.34-1.16-.21,0,0,.1-.07.1-.14a2.78,2.78,0,0,1-1.12-.24c-.36-.16-.71-.36-1.07-.51a.64.64,0,0,0,.22-.3c-.19.21-.42.14-.62.07.09-.29-.44,0-.54-.26l.06,0c-.33.14-.1-.3-.44-.1l.05-.25c-.31.28-.07-.32-.31-.25l0,.07c-.17,0-.1-.21-.24-.24l0,0c-.3-.11-.28-.4-.48-.15.08-.26.3.1.41-.3a7.71,7.71,0,0,1-2.39-1.77c0-.17,0-.25,0-.35-.11,0-.31-.21-.48-.15,0,0,.07-.16,0-.21,0-.21-.38.12-.43-.12a.33.33,0,0,0,.27-.17c-.29.07-.43-.12-.63-.2.06,0,.12,0,.18-.09-.35.05-.24-.32-.5-.32l.18-.08c-.06-.37-.33.22-.43-.06.09,0,.12-.07.18-.11-.4.07-.62-.3-.87-.42a.16.16,0,0,0,.06,0c-.21-.19-.31-.47-.59-.64,0-.14.39-.23.17-.42-.31.22-.38-.33-.65,0-.09-.25-.16-.66-.34-.75.18,0,.35-.32.47-.15l.13-.24c.14-.05,0,.16.17,0-.06-.08-.33-.26-.31-.37-.28-.07-.74,0-.91-.31.19.08.35-.24.44-.17L86.64,47c-.06-.09.26-.13.12-.23s-.17,0-.26,0-.23-.38.1-.54c.12-.09.13.13.21,0-.06-.18-.19-.14-.25-.32l0,0a.23.23,0,0,0-.41-.12c0,.09.2-.1.14.06a.51.51,0,0,1-.41-.41c.08,0,.17,0,.27,0a1.76,1.76,0,0,1-.69-.67c-.17,0,.33,0,.25.09.14-.41-.5-.68-.22-1.05,0,0-.24.07-.19.06,0-.18.24-.22.12-.32.14,0-.07-.14-.13-.25s.07,0,.1.06a1.36,1.36,0,0,1-.31-1.19c-.1,0-.38-.2-.38-.29H85c.13-.09,0-.3.15-.33-.29-.17.3.71.06.47.18-.08-.39-.32-.08-.3,0-.18-.3-.33-.09-.52,0,.05.33.12.3,0s-.11-.06-.2-.27L85,40.8c-.22,0,0-.23-.22-.12.18,0-.13-.37.24-.35l.29,0c0-.11-.31-.17-.44-.26a.26.26,0,0,1,.13,0c-.44,0,0-.26-.31-.4.15-.23,0-.6.31-.7-.13-.18-.28-.36-.16-.56,0,0,0,.1.14.12s0-.16,0-.28c.06,0,.28-.23.45-.35-.11-.19-.36-.16-.5-.19.46-.11-.22-.54.21-.69,0,.07.18.29.31.16.46-.09-.26-.37,0-.6h-.37c.24-.07-.14-.43.22-.33-.11-.11.19-.28-.17-.33.38-.36.1-1.11.79-1.17,0-.08.08-.21-.11-.24s.09.18-.06.18c0-.06-.08-.1-.12-.12.12-.11.18-.2.42,0,.31-.2-.47-.5-.19-.83.13.07.19.07.22,0l-.14-.3c.16-.22.36,0,.59.1,0-.14.1-.28,0-.42h.35c-.26,0-.08-.17-.11-.25l0,.09c.1,0,.12-.14.13-.22-.15-.06-.27.05-.35.11-.06-.11,0-.2-.06-.35.2.15.27-.11.35-.19s-.11-.24-.08-.27.13-.17.22,0-.16,0-.1.14.3.11.26-.12-.42-.25-.14-.36c0,.09.08.16.12.25l.24-.11-.17-.14c.06,0,.07,0,.1,0-.15-.2.16-.33,0-.54.06-.11.29-.1.39-.16v0c.19,0,.25-.21.23-.41l0,0a.42.42,0,0,0,.17-.35c.26,0,.61.58.58.23.13-.13,0-.51-.17-.57.38-.1.53-.65,1-.52,0-.1-.05-.14,0-.24.51-.18,1-.74,1.54-.43-.12.14.05.22.09.34.07-.23.19.16.15-.19-.06-.19-.07-.29-.24-.32a1,1,0,0,1,1-.13c-.1-.08,0-.15,0-.22,0,.32.25.35.42.22v-.2l.13.19c.06-.07.05-.42.24-.24a.6.6,0,0,0,.06.21c.17-.16.44-.43.64-.26l.15.29c.08,0,.23-.18.09-.28.32.2.53.24.6.5a2.05,2.05,0,0,1,2.07-.17l-.06.14c.13.18.16-.22.24-.09-.09.12,0,.33-.14.45.18.22.37-.16.54-.17.08-.18-.16.08-.05-.15,0-.06.27.25.4,0a.73.73,0,0,1-.16.42l.18-.09c.05.38-.58.44-.54.9H97c0,.33-.43.22-.16.42.17-.09.43-.45.35-.61.3,0,.37-.61.66-.47,0,.19-.26-.06-.28.19s.33,0,.43.11c-.1-.16.13-.38.24-.4.1.19-.2.22,0,.33.1-.14.35-.18.22-.35.23-.32.19.19.42,0,0,.28-.46.47-.28.7.06-.25.43-.19.46-.6.06.11,0,.3-.14.41.06.2.52-.29.34.2l.16-.22c0,.1,0,.18,0,.34s.52-.14.33.21c.05,0,.3.12.33-.17s-.27.09-.2-.29c0,.33.25.08.39,0l-.05.14c.08,0,.19.07.3-.06a.19.19,0,0,0-.08.22l.17-.18c.28,0-.14.39.11.45l-.25.07c.05,0,0,.22.16.21.14-.17.34-.35.45-.48s-.06.24.16.12l-.28.14a.38.38,0,0,0,.09.45c.14,0,.45-.19.34-.38a.19.19,0,0,1,0,.32c.22,0,.09-.21.31-.24,0,.16.09.45.1.7l-.34.21.1.07c-.28.17,0,.23-.27.44,0,.08.18,0,.29,0,0-.54.57-.43.75-.84.35.07-.39,1,.27.62,0-.13.33-.32.09-.33.15.15.36-.3.47,0-.25.06-.08.48-.44.56.09-.11-.06-.17-.12-.16,0,.19-.25.37-.08.48s.28.12.39-.09-.18-.08,0-.25c.26.07.09.41.42.1-.15-.06,0-.3.05-.45l.22,0-.12.12c.19.27.24-.2.47,0l-.07.35c-.22.2-.29-.34-.5.07.15.12.33,0,.42.16-.06,0-.11,0-.16,0s-.24.6.18.45c.19,0,.12-.12.23-.26.28.13.46,0,.64.13-.23.25.26.23-.11.39,0-.22-.34-.46-.61-.26-.14.39-.16-.18-.45.12.19.15,0,.47-.16.7,0,.05.16,0,.22,0,.16-.18.09-.23.23-.44a.64.64,0,0,0,.73.14c0,.15-.16.33-.26.29a2.05,2.05,0,0,1,.76.6c.08-.44.33.13.42-.22a.48.48,0,0,1,.16-.57c.07.08-.11.14-.12.23.24-.1,0,.4.26.21-.31-.08-.34.35-.57.57.27,0-.14.17,0,.3a1.94,1.94,0,0,1,.79.13c0,.41.58.47.79.62,0,.21-.29.42-.22.57s.14-.38.24-.09l-.06,0c.11,0,.21.48.59.15l-.31.24c0,.06.1,0,.16,0s-.11.22-.22.23c-.05.3.28.18.42.29l.06-.24c.34.06.34.36.61.49l-.15.16h.21c-.17.13-.15.34,0,.26l-.69.11c0-.18.28-.11.37-.33s-.16-.32-.33-.18c.06.08.09.05.21,0-.18.25-.29.14-.48.25,0,0,0,.14.11.08a.4.4,0,0,1-.4-.11c.17,0,.08-.19.17-.22-.19.2-.36.15-.47,0,.09-.34-.43-.1-.56-.32a1.3,1.3,0,0,1,.68-.23c0-.21-.14-.1-.17-.31-.19.11-.43.32-.66.29l.12-.16c-.21,0-.4.2-.54,0a5.59,5.59,0,0,0-.78-.78l.11-.17c-.4.24-.54-.21-.84-.19-.19-.39-.78-.33-.74-.73a6.56,6.56,0,0,1-1.75-.89l.26-.19c-.22.12,0-.19-.1-.22,0,.27-.31.17-.47.28-.14-.36-.61-.35-.95-.31l.09-.18c-.43.2-.54-.26-.81-.47,0-.09,0-.29-.06-.32-.32.21-.39.13-.72.2a1.6,1.6,0,0,1-.55-.5c-.85.11-1.42-.43-2.21-.39l0-.24c-.81.27-1.53-.34-2.13-.14l.1-.4c-.17-.14-.42.07-.39.36-.17-.14-.42.19-.54-.15-.18-.08-.21.2-.34.26a.76.76,0,0,0-.75.06h.08c0-.09,0-.26-.1-.28s-.44,0-.2.44c-.4-.18-.59.44-1,.27.09.1,0,.16.05.26-.22.13-.62.1-.64.42-.08,0-.09-.22-.19-.15s.11.13.1.24c-.15.46-.82.5-1,.93-.22.8-.66,1.52-.86,2.33l-.09,0c.28.35-.54.54,0,.88-.11,0-.1.23-.27.15.22.27-.37.58-.07,1,0,0,0,0,0-.09-.26.3,0,.63-.22,1,0,0-.06-.11-.16-.13s.38.35-.09.4c0,.08.23.07.22,0a5.05,5.05,0,0,0,.26,2.42c-.23.61-.79.11-.4.54-.09,0,.18,0,.09,0,.15.16-.49.34-.23.44.28-.09.17.06.35,0-.14.38-.38.5-.12.75h-.15c.47.26.34.68.88.84a12.35,12.35,0,0,0,2.33,4.36,4.87,4.87,0,0,0,.32.42c.12.13.2.23.4.41l1,1a24.43,24.43,0,0,1,1.95,2c.06.59.1.6.56.78-.06,0-.09,0-.1.1.23-.24.27.19.51,0a11.09,11.09,0,0,0,1.57,1.13c-.11,0-.3.16-.19.21l.23-.1,0,.09c.1,0,.27-.08.25-.21,1.49.64,2.62,1.88,4.21,2.18a2.49,2.49,0,0,0,1.29.17,4.57,4.57,0,0,0,3.62.45S106,57.75,105.45,58Z"/><path class="cls-2" d="M107.88,38.19c.08-.15,0-.33.26-.4A2.45,2.45,0,0,1,107.88,38.19Z"/><path class="cls-2" d="M105.65,34.14s0-.09,0-.12.17-.06.16,0S105.71,34.1,105.65,34.14Z"/><path class="cls-2" d="M104.8,33.39c.1-.11.36-.06.49,0Z"/><path class="cls-2" d="M104.29,32.29c0-.15.05-.2.15-.12S104.35,32.24,104.29,32.29Z"/><path class="cls-2" d="M104,32.52c-.07,0-.06-.14,0-.24C103.92,32.39,104.2,32.33,104,32.52Z"/><path class="cls-2" d="M102.32,30.9c-.05,0-.22,0-.18-.14C102.13,30.89,102.47,30.74,102.32,30.9Z"/><path class="cls-2" d="M101.27,30.54s0-.06-.08,0,.09-.15.14-.14Z"/><polygon class="cls-2" points="85.13 36.77 85.08 36.65 85.22 36.69 85.13 36.77"/><path class="cls-2" d="M85.61,45.4c.12.09-.11.12-.12.14S85.67,45.53,85.61,45.4Z"/><polygon class="cls-2" points="88.13 49.36 88.11 49.33 88.36 49.17 88.13 49.36"/><path class="cls-1" d="M104.37,57.69s12.51,17.77,25.89,7.53,9-25.7,6-28.34-11.76-9.95-25.8.13"/><path class="cls-2" d="M104.93,57.54c-.24-.22-.11.29-.21-.1C104.83,57.41,104.94,57.41,104.93,57.54Z"/><path class="cls-2" d="M111.61,36.71a2.64,2.64,0,0,1,1.3-1.27,4.58,4.58,0,0,0,1.57-1c.11-.09.16.39.39.15a2.44,2.44,0,0,1,.72-.69,5.2,5.2,0,0,1,1-.43,8.52,8.52,0,0,1,1.13-.27,7.71,7.71,0,0,1,1.13,0l0,.14c.27,0,.46-.46.74-.49,0,.08-.05.13,0,.22,0-.24.44-.26.52-.45.13.07.16.25.32.33l.1-.29c.31-.7,1.05-.16,1.59-.58,0,.06-.07.12,0,.17a5.44,5.44,0,0,1,1.56-.43c.56-.1,1.15,0,1.7-.11a.46.46,0,0,0,0,.37c.07-.27.42-.36.72-.36.1.31.54-.19.86,0l0,.06c.31-.26.35.23.62-.1l.12.25c.2-.37.31.3.57.15V32c.22,0,.27.18.47.16v.05c.46,0,.63.3.71,0,.07.29-.44,0-.32.4a9.73,9.73,0,0,1,4,1.55c.07.2.13.29.1.41.15,0,.48.24.68.18,0,0,0,.19,0,.24.14.24.43-.12.58.16a.26.26,0,0,0-.27.18c.34-.06.58.17.86.28-.07,0-.14,0-.2.08.42,0,.4.41.73.44l-.2.08c.2.45.35-.22.56.14-.11,0-.13.06-.19.11a1.09,1.09,0,0,1,.65.23,5.74,5.74,0,0,0,.52.45.11.11,0,0,0-.07,0c.33.28.4.71.78,1,0,.18-.4.17-.17.5.32-.19.44.57.71.16a3.84,3.84,0,0,0,.39,1.11c-.19-.1-.37.32-.49.06l-.14.28c-.15,0,0-.23-.18-.09.06.13.34.47.33.61.32.17.78.29.94.71-.19-.16-.36.22-.46.1l.85.42c.06.14-.28.1-.13.29.09,0,.18,0,.27.09s.2.6-.15.73c-.13.09-.12-.22-.22,0,.05.27.18.26.23.52h0c0,.18.25.5.41.28,0-.13-.21.08-.14-.12a.79.79,0,0,1,.38.68c-.07-.09-.16-.06-.27-.09a3.09,3.09,0,0,1,.61,1.13c.17,0-.33-.13-.24-.2a1.18,1.18,0,0,0,.11.8.78.78,0,0,1,0,.74c0-.07.25,0,.2,0,0,.26-.27.25-.18.42-.15,0,0,.21.09.39s-.07,0-.09-.11a2.54,2.54,0,0,1,.2.77,2.19,2.19,0,0,1-.14,1c.1,0,.33.38.31.51l-.22-.07c-.15.1,0,.43-.21.43.25.3-.15-1.08,0-.69-.2.08.32.55,0,.44,0,.26.23.54,0,.76,0-.07-.28-.25-.3,0,0,.36.09.12.11.42l.06.2c.22.05-.09.32.18.23-.19,0,0,.55-.34.44l-.28-.11c0,.16.25.32.36.47a.2.2,0,0,1-.14,0c.43.12-.09.37.17.63-.24.29-.26.82-.57.9a1,1,0,0,1,0,.82c0-.07,0-.15-.1-.2-.18.14-.08.22-.06.4,0-.05-.37.26-.6.39,0,.28.28.29.41.36-.5.05,0,.78-.5.9,0-.11-.05-.43-.24-.28-.49,0,.12.56-.22.82l.37.07c-.26.06-.05.6-.37.4.06.17-.32.33,0,.46-.57.4-.59,1.43-1.32,1.42,0,.11-.18.25,0,.32s0-.24.14-.22c0,.08,0,.14.08.17-.18.11-.29.22-.43-.09-.43.22.25.69-.19,1.06-.11-.11-.18-.1-.25,0l0,.39c-.26.25-.39,0-.59-.18-.07.18-.22.35-.12.54h-.38c.27,0,0,.22,0,.32s0-.07,0-.11-.2.16-.25.26c.13.08.34,0,.45-.1,0,.14-.1.23-.09.41-.16-.19-.34.11-.46.21s0,.29,0,.32-.21.19-.25,0,.18,0,.16-.16c-.15,0-.3-.14-.34.14s.39.29,0,.43c0-.11,0-.18-.06-.29L134,63l.15.16c-.07,0-.06,0-.1,0,.11.23-.27.4-.13.64-.09.13-.34.14-.46.23v0a.5.5,0,0,0-.36.47l0,0a.6.6,0,0,0-.25.41c-.31,0-.63-.57-.65-.18a.41.41,0,0,0,.13.61c-.45.19-.62.81-1.17.82,0,.11.07.13,0,.26-.62.33-1.05,1.1-1.77,1,.13-.18-.11-.2-.18-.3,0,.25-.28-.08-.15.25.12.16.15.26.37.23-.31.3-.87.64-1.17.57.15,0,.1.13,0,.22-.12-.3-.42-.21-.58,0l.05.19-.22-.12c-.06.09.08.42-.22.34a.45.45,0,0,0-.14-.16c-.15.26-.4.61-.71.55l-.3-.2c-.1.07-.23.3,0,.31-.48,0-.78,0-1-.16a3.41,3.41,0,0,1-2.73,1l0-.15c-.26-.12-.12.26-.3.17.07-.14-.2-.29,0-.47-.35-.13-.44.28-.68.33,0,.19.19-.12.14.12,0,.07-.49-.16-.56.13-.09-.12,0-.33,0-.44l-.22.13c-.24-.35.61-.59.35-1l-.19,0c-.16-.31.49-.33,0-.45-.2.14-.4.55-.23.69-.44.07-.25.7-.73.62-.11-.19.39,0,.31-.25s-.46.08-.65,0c.21.13,0,.41-.17.44-.23-.16.19-.25-.15-.32-.08.16-.42.25-.16.39-.19.37-.35-.17-.59.09-.06-.28.46-.54.11-.75,0,.27-.53.25-.41.67a.29.29,0,0,1,0-.44c-.17-.2-.62.36-.57-.16l-.13.24c0-.1-.12-.19-.19-.36s-.68.18-.55-.2c-.07,0-.47-.13-.4.19s.35-.1.39.3c-.1-.34-.39-.07-.57,0l0-.15c-.11,0-.3-.08-.41.06a.15.15,0,0,0,0-.23l-.17.19c-.4,0,.06-.42-.31-.48l.32-.08c-.07,0-.11-.23-.29-.22-.14.17-.35.36-.47.49s0-.26-.26-.14l.34-.13c.06,0,0-.4-.28-.5s-.56.18-.36.39c-.13-.05-.25-.25-.09-.34-.31-.07-.06.23-.36.23,0-.18-.25-.51-.34-.79l.4-.2-.16-.08c.33-.15,0-.25.25-.46-.08-.1-.26-.07-.4,0,.09.59-.66.4-.78.83-.5-.14.26-1.09-.54-.74,0,.14-.37.31,0,.36-.25-.19-.41.28-.63-.07.32,0,0-.54.46-.55-.1.11.12.21.2.2,0-.21.25-.37,0-.53s-.4-.19-.49,0,.26.13,0,.28c-.37-.13-.21-.48-.59-.19.22.1.13.35,0,.5l-.3-.06.14-.11c-.32-.35-.28.18-.62-.11l0-.39c.25-.18.46.47.65,0-.22-.18-.43,0-.58-.28.07,0,.14,0,.22,0s.2-.63-.34-.56c-.25,0-.14.1-.25.24-.39-.23-.61-.17-.86-.32.25-.23-.39-.34.08-.42a.7.7,0,0,0,.85.46c.1-.42.25.26.57,0-.29-.21,0-.52.07-.77-.07-.07-.21,0-.28,0-.18.17-.07.25-.22.45a1.16,1.16,0,0,0-1-.36c0-.18.16-.34.29-.26a4,4,0,0,1-1.07-.93c0,.49-.44-.25-.51.12.12.22.1.58-.12.63-.1-.12.12-.13.13-.24-.29,0,0-.46-.37-.33.42.19.39-.31.65-.49-.35-.07.15-.16-.07-.36a3.3,3.3,0,0,1-1-.41c-.11-.51-.77-.76-1-1,0-.25.32-.4.22-.6s-.15.4-.29,0l.08,0c-.14,0-.29-.66-.74-.4l.36-.17c0-.07-.13-.06-.2-.08.09-.09.12-.22.26-.19,0-.35-.35-.33-.52-.51l-.07.27c-.42-.21-.43-.57-.75-.84l.18-.13-.26-.11c.2-.09.17-.35,0-.34l.82.15c0,.22-.33,0-.43.25s.2.45.41.36c-.07-.13-.12-.1-.25-.14.21-.23.34-.06.56-.11-.06,0-.05-.19-.14-.14a.7.7,0,0,1,.49.29c-.2,0-.09.19-.19.2.22-.16.43,0,.58.23-.09.37.53.29.71.6a1.34,1.34,0,0,1-.81,0c0,.26.17.18.23.44a1.16,1.16,0,0,1,.79-.1l-.14.15c.26.12.47-.1.66.18A9.4,9.4,0,0,0,109.15,62l-.12.16c.46-.15.71.41,1.08.48.3.5,1,.6,1,1a20.26,20.26,0,0,1,2.44,1.38l-.29.16c.26-.09,0,.21.18.26-.06-.3.37-.14.56-.24.27.42.89.46,1.32.44l-.07.19c.51-.16.79.3,1.22.55,0,.1,0,.3.18.33.36-.22.48-.15.9-.22a2.87,2.87,0,0,1,.91.47c1.1-.22,2.08.2,3.14-.07l.08.24c1-.53,2.24-.27,3-.77l0,.41a.38.38,0,0,0,.41-.54c.3,0,.56-.41.85-.16.28,0,.24-.32.42-.46a1.89,1.89,0,0,0,1.16-.55l-.13,0c0,.11.07.26.2.22.11-.2.69-.27.26-.59.63-.07,1-.91,1.62-1-.12-.07,0-.19,0-.3.38-.33,1-.48,1.13-.91.11,0,.05.25.22.13s-.11-.13,0-.28c.49-.68,1.35-1,1.84-1.58.18-.29.38-.56.58-.82s.37-.56.56-.83a11.21,11.21,0,0,0,1.09-1.62l.08.06c-.12-.55.82-.68.49-1.24.13,0,.23-.31.36-.16-.08-.41.6-.77.49-1.35,0,0,0,.07,0,.13.37-.38.32-.87.63-1.31,0,.06,0,.17.12.21.24-.14-.26-.59.22-.55,0-.11-.2-.15-.21-.08a8.59,8.59,0,0,0,.53-3.5c.35-.82.79,0,.5-.68.1,0-.18-.06-.08-.06-.11-.27.56-.37.33-.57-.3.06-.15-.13-.33-.14.23-.51.46-.62.24-1l.15,0c-.45-.49-.18-1.06-.73-1.44a16.33,16.33,0,0,0-.85-3.76A13,13,0,0,0,135.3,39a2.25,2.25,0,0,0-.34-.49.63.63,0,0,0-.09-.11l-.18-.16-.37-.32c-.48-.41-1-.77-1.48-1.13-1-.7-2.06-1.29-3.15-1.9-.39-.57-.46-.58-1.11-.65,0-.05.09-.05.06-.13-.13.3-.45-.09-.59.2a10.33,10.33,0,0,0-2.63-.44c.15,0,.25-.29.07-.28l-.2.2,0-.09c-.13,0-.26.2-.15.31-.58,0-1.15,0-1.73.07a15.87,15.87,0,0,0-1.75.07,11.1,11.1,0,0,0-3.49.72,6.82,6.82,0,0,0-1.84.83,20.81,20.81,0,0,0-2.66.86,10.48,10.48,0,0,0-2.34,1.58A1.52,1.52,0,0,1,111.61,36.71Z"/><path class="cls-2" d="M105.19,57.84c-.09.15,0,.39-.3.38C105,58.1,105.06,57.91,105.19,57.84Z"/><path class="cls-2" d="M108.23,63.55s0,.11,0,.15-.21,0-.2-.1C108.12,63.64,108.16,63.58,108.23,63.55Z"/><path class="cls-2" d="M109.43,64.69c-.11.1-.46,0-.64-.16Z"/><path class="cls-2" d="M110.3,66.12c0,.18,0,.21-.18.1C110.16,66.15,110.23,66.15,110.3,66.12Z"/><path class="cls-2" d="M110.58,65.91a.31.31,0,0,1,.12.28C110.77,66.09,110.4,66.09,110.58,65.91Z"/><path class="cls-2" d="M113.28,68.1c.08,0,.3,0,.3.18C113.55,68.14,113.12,68.26,113.28,68.1Z"/><path class="cls-2" d="M114.85,68.6s.05.06.13,0-.07.16-.15.14Z"/><polygon class="cls-2" points="138.46 56.82 138.46 57 138.34 56.92 138.46 56.82"/><path class="cls-2" d="M140.34,44.6c-.11-.16.12-.13.14-.16C140.51,44.59,140.3,44.4,140.34,44.6Z"/><polygon class="cls-2" points="137.82 38.42 137.84 38.46 137.57 38.58 137.82 38.42"/><path class="cls-3" d="M135.53,45.13c-1.8,7.7-4,13.45-12.83,14.37-10.86,1.13-20.43-1.7-20.43-10.13s13-17.49,21.71-15.79S137.45,36.93,135.53,45.13Z"/><path class="cls-2" d="M135.87,45.45c0-.35-.23.14,0-.24C135.92,45.27,136,45.35,135.87,45.45Z"/><path class="cls-2" d="M136,44a5.3,5.3,0,0,1-.06-1.92c0-.33,0-.68,0-1a3.57,3.57,0,0,0-.27-.93c-.05-.14.32,0,.15-.34-.38-.53-.68-1.21-1.15-1.86a12.08,12.08,0,0,0-1.54-1.88l.12,0c-.21-.22-.67-.12-.91-.3,0-.05.12,0,.1-.13-.14.11-.52-.18-.7-.1-.08-.11,0-.23-.12-.37l-.24.12c-.61.24-1.07-.43-1.76-.41,0,0,.12-.05.08-.11-1.07,0-2.29-.4-3.44-.53.06-.06.13-.18.08-.27-.1.2-.46.17-.77.15-.09-.24-.56.09-.89-.1l0,0c-.31.17-.36-.21-.63,0l-.13-.2c-.17.28-.35-.2-.59-.08v.06c-.21.05-.3-.11-.49-.08v0c-.45,0-.69-.17-.69.08-.15-.21.43-.06.2-.36a37.15,37.15,0,0,0-4.43.69c-.19-.05-.3-.05-.36-.13-.13.08-.54.18-.63.33,0,0-.13-.09-.21-.07-.29,0-.2.35-.51.35.09-.1.1-.19,0-.26-.18.26-.51.35-.77.5,0-.05.09-.1.05-.17-.23.31-.58.16-.79.41l0-.17c-.49,0,0,.32-.42.4.07-.08,0-.12,0-.17-.24.39-.82.55-1.12.79a.07.07,0,0,0,0-.06,7.1,7.1,0,0,0-1.08.67c-.17,0-.12-.32-.47-.07.15.22-.57.48-.19.61a3.48,3.48,0,0,0-1,.6c.08-.18-.34-.18-.1-.37h-.29c0-.11.22-.1.08-.18a4.29,4.29,0,0,1-.58.48,2.27,2.27,0,0,1-.48,1c.1-.22-.29-.17-.2-.29l-.17.81c-.11.1-.17-.15-.29,0,.06,0,0,.15,0,.24s-.41.47-.64.31.14-.21,0-.17c-.21.19-.15.27-.35.46l0,0c-.17.1-.32.45-.07.42.1-.08-.15-.09,0-.16,0,.2-.2.45-.37.66,0-.1,0-.14-.06-.23a4,4,0,0,1-.52,1.12c.09.09-.07-.27,0-.27-.51.26-.51,1-1,1.17,0-.07.17.08.14.06-.16.19-.31.07-.35.24-.1-.05-.1.19-.17.34s-.07,0,0-.12a4.49,4.49,0,0,1-.82,1.51c.07,0,.06.41,0,.52l-.13-.12c-.14.06-.15.38-.29.34.07.33.26-1,.26-.61-.19,0,0,.57-.14.4-.09.23,0,.52-.25.68.05-.05-.14-.28-.21-.09s0,.12,0,.41v.19c.15.07-.1.29.11.23-.14,0,0,.5-.3.39l-.2-.11c0,.15.16.3.22.44s-.08,0-.11,0c.32.1-.12.34.09.56-.14.28-.08.76-.3.89a1.46,1.46,0,0,1,.12.72c0-.05-.05-.13-.12-.14-.09.17,0,.22.07.37-.05,0-.17.35-.27.56.12.23.29.13.4.14-.34.27.33.61.09.93-.06-.07-.24-.3-.27-.09-.27.29.33.38.26.75l.24-.16c-.12.2.34.41.06.47.14.07.07.41.3.27a1.36,1.36,0,0,0,.1.45c.08.14.18.27.26.4a1,1,0,0,1,.2.81c.09,0,.19.22.27.1s-.21-.08-.16-.18a.14.14,0,0,0,.16,0c.07.17.15.29-.14.3.14.41.62,0,.86.45-.09.06-.1.12,0,.2l.34,0c.22.24,0,.31-.14.45.16.09.32.24.47.18l0,.33c0-.23.19,0,.29,0h-.1c0,.08.19.16.29.19s-.11-.26-.18-.35c.12,0,.23.07.38.06-.14.13.17.26.28.36s.24,0,.27,0,.21.16,0,.2-.06-.15-.18-.13c.05.12,0,.26.21.27s.14-.34.37-.09c-.1,0-.14.06-.23.09l.23.22.09-.14c0,.06,0,.06,0,.08.16-.12.43.15.58,0,.14,0,.23.25.36.32h0a.55.55,0,0,0,.55.12l0,0a.7.7,0,0,0,.45.05c.19.2-.13.62.2.52.24.07.47-.18.41-.31.4.23,1,.1,1.29.46.08-.05,0-.1.19-.11.64.18,1.39.1,1.87.47-.2,0,0,.16,0,.26.18-.13.17.18.26-.07s0-.22-.15-.31a2.19,2.19,0,0,1,1.2.22c-.1-.08,0-.12.08-.16-.05.24.24.29.47.22l0-.14.13.16c.09,0,.12-.3.33-.14a.3.3,0,0,0,.05.16c.24-.11.57-.28.81-.15l.2.22c.11,0,.29-.15.11-.21.42.14.7.16.83.34a5.62,5.62,0,0,1,2.65-.5l0,.11c.24.08.11-.2.27-.14-.07.11.19.21,0,.36.34.09.41-.22.62-.29,0-.15-.16.11-.14-.08s.46.08.5-.15c.09.08,0,.24,0,.34l.19-.12c.27.23-.52.5-.24.79l.19,0c.2.21-.48.3,0,.34.2-.12.34-.45.15-.53.42-.1.15-.52.59-.57.13.11-.35.08-.24.25s.4-.16.59-.12c-.21-.05-.07-.3.05-.35s-.11.23.2.2c0-.13.3-.27,0-.32.07-.3.33,0,.46-.21.14.18-.24.5.13.55-.09-.18.36-.36.13-.59.14,0,.19.17.11.31.21.07.37-.45.52-.09l0-.21c.07,0,.17.08.29.16s.44-.4.51-.12c0,0,.41-.16.2-.31s-.21.23-.41,0c.22.16.31-.14.41-.25l.06.1c.06-.07.24-.1.25-.24a.11.11,0,0,0,.09.15l0-.19c.27-.18.19.27.45.09l-.17.23s.2.06.32-.06v-.53c.13-.14.15.13.23-.09l-.12.27c0,.06.25.18.47.07s.22-.42,0-.39c.11,0,.28-.06.27.1.2-.19-.11-.13,0-.34.13,0,.45,0,.69.06l-.07.35.14-.08c-.07.29.18.08.2.34.12,0,.2-.17.26-.28-.48-.11,0-.63-.27-.84.28-.33.72.46.75-.22-.12,0-.11-.34-.26-.1.24-.13-.08-.36.24-.48-.08.26.41.07.3.45-.06-.1-.19.08-.21.14.17,0,.2.27.41.06s.28-.32.13-.42-.18.2-.23,0c.2-.28.45-.13.31-.45-.14.17-.31.07-.4,0l.12-.22.06.12c.33-.23-.09-.24.17-.5l.3,0c.11.21-.43.37-.12.55.17-.19.09-.37.31-.49,0,.06-.05.12-.06.18s.49.16.51-.3c0-.22-.07-.12-.17-.2.2-.37.16-.54.29-.77.19.18.28-.37.34,0a.76.76,0,0,0-.41.8c.34.06-.22.24,0,.49.22-.26.45-.07.64,0s.05-.2.06-.27-.2,0-.35-.14a1.21,1.21,0,0,0,.34-.92.16.16,0,0,1,.22.21,8,8,0,0,1,.69-1.22c-.39.13.14-.48-.16-.41s-.43.27-.5.09.12.06.2,0c-.07-.24.36-.15.2-.42-.09.42.3.23.48.4,0-.34.15.08.28-.2a6.52,6.52,0,0,1,.13-1.06c.38-.32.38-1,.49-1.39.18-.15.39.06.5-.14s-.33.1-.1-.23l0,.05c0-.13.37-.63,0-.84l.24.19c0-.06,0-.14,0-.21s.2,0,.22.1c.26-.18.11-.49.17-.75l-.21.12c0-.46.22-.71.27-1.14l.16.05,0-.27c.14.1.3-.1.2-.27l.24.75c-.14.16-.14-.25-.33-.17a.41.41,0,0,0-.08.56c.06-.14,0-.16,0-.29.24,0,.17.23.29.38,0-.08.11-.17,0-.21a.94.94,0,0,1,0,.6c0-.2-.16.06-.21,0,.19.07.19.34,0,.63s0,.63-.2,1a1.32,1.32,0,0,1-.27-.69c-.17.2-.07.25-.24.45a.89.89,0,0,1,.31.63l-.15,0c0,.29.2.36,0,.69-.26.56-.52,1.15-.7,1.59l-.15,0c.19.37-.26.85-.28,1.23-.43.46-.51,1.25-.93,1.36A7.49,7.49,0,0,1,130.7,57v-.3c0,.26-.18,0-.3.16.29,0-.06.35-.09.54a1.8,1.8,0,0,0-.68.48,5.29,5.29,0,0,0-.57.59l-.09-.12c-.24.51-.88.51-1.41.7a.43.43,0,0,0-.38,0c-.2.33-.36.36-.74.66a3.27,3.27,0,0,1-1.2.17,4.85,4.85,0,0,1-1.79.55c-.63.12-1.24.15-1.85.31l-.1-.17a5,5,0,0,1-1.92.29,15.69,15.69,0,0,0-1.81.06l.1-.3c-.32-.1-.74.07-.66.29-.32-.09-.82.12-1-.15-.33-.08-.42.11-.7.13a6.63,6.63,0,0,0-1.55-.19l.15,0c.08-.06.1-.19-.05-.23s-.85-.19-.67.2c-.64-.29-1.61-.12-2.2-.53,0,.11-.14.09-.22.13a7.79,7.79,0,0,0-1.66-.52c-.08-.08.2-.11,0-.2s0,.12-.24.11c-1-.15-1.81-1-2.62-1.35a9.16,9.16,0,0,1-3.77-3.32l.07,0a1.44,1.44,0,0,1-.49-.77c-.09-.3-.16-.59-.44-.71,0-.15-.16-.48,0-.44-.4-.34-.14-1.22-.54-1.77a.26.26,0,0,0,.07.15,17.26,17.26,0,0,1-.1-1.83c0,.07.07.19.14.2.11-.25-.33-.6,0-.73a.08.08,0,1,0-.17,0c.13-.72.15-1.47.34-2.2.08-.36.13-.75.23-1.11l.37-1.05c.63-.87.53.19.68-.65.09,0-.09-.11,0-.08.08-.32.59-.22.54-.5-.23,0,0-.19-.14-.26.44-.47.66-.46.83-.94l.07.1c.09-.64.6-1.09.65-1.69a25.7,25.7,0,0,1,7.1-6,29.6,29.6,0,0,1,4.24-1.83c.73-.26,1.51-.41,2.27-.6a17.15,17.15,0,0,1,2.4-.22,2.34,2.34,0,0,0,1.66.14s-.09,0,0,.1c.06-.24.59,0,.69-.18,1.28.16,2.2.33,3.34.56-.18,0-.31.16-.1.19l.25-.11,0,.07c.15,0,.33-.09.2-.2A16.75,16.75,0,0,1,131,33.75a14.67,14.67,0,0,1,4,2.46,11.32,11.32,0,0,1,1.7,2.3,9.84,9.84,0,0,1,.24,3.58c0,.56-.15,1.08-.19,1.64s-.17,1.08-.22,1.65A1.68,1.68,0,0,1,136,44Z"/><path class="cls-2" d="M135.8,45.87c-.14,0-.26.27-.37,0C135.54,45.91,135.7,45.82,135.8,45.87Z"/><path class="cls-2" d="M132.63,51.66s-.08.06-.11.07,0-.18,0-.21S132.6,51.61,132.63,51.66Z"/><path class="cls-2" d="M131.85,53c-.08-.08,0-.41.09-.59Z"/><path class="cls-2" d="M130.7,54c-.14,0-.16,0-.07-.15C130.68,53.89,130.68,53.95,130.7,54Z"/><path class="cls-2" d="M130.84,54.24a.29.29,0,0,1-.25.1C130.67,54.39,130.72,54.09,130.84,54.24Z"/><path class="cls-2" d="M128.49,56.09c0,.06-.13.2-.25.14C128.35,56.27,128.44,55.93,128.49,56.09Z"/><path class="cls-2" d="M127.38,56.93s-.07,0-.1.05-.05-.12,0-.16Z"/><polygon class="cls-2" points="103.42 51.71 103.51 51.85 103.4 51.85 103.42 51.71"/><path class="cls-2" d="M107.1,41.15c.06-.17.15,0,.18,0S107.22,41,107.1,41.15Z"/><polygon class="cls-2" points="111.96 36.65 111.92 36.68 111.82 36.48 111.96 36.65"/><path class="cls-4" d="M87.39,42.31s9.69-10.35,17.84-2c0,0-7.89,8.19-1.39,16.3C103.84,56.63,94.16,57.55,87.39,42.31Z"/><path class="cls-4" d="M103.7,52c-.43-2.56,3.57-5.52,5.82-6.82,9.6-5.53,25.06-6,24.69,1.71-.46,9.76-12.23,11.93-13.78,11.77C119.07,58.56,105,60,103.7,52Z"/></svg>