<svg id="Layer_1" data-name="Layer 1" xmlns="http://www.w3.org/2000/svg" viewBox="0 0 145.39 103.64"><defs><style>.cls-1{fill:#dbcdb8;}.cls-2,.cls-4{fill:#beb7b0;}.cls-3{fill:#ede5dc;}.cls-4{opacity:0.2;}</style></defs><title>Artboard 3</title><path class="cls-1" d="M45.91,31.15S32.53,43,35.16,59.66,64.77,78.53,71.79,70.85"/><path class="cls-2" d="M46.14,31.67c.15-.23-.28-.09.05-.2C46.24,31.58,46.26,31.68,46.14,31.67Z"/><path class="cls-2" d="M70.87,71.21a1.61,1.61,0,0,1-1,1.15,4,4,0,0,0-1.31.88c-.09.08-.15-.39-.34-.18C67.6,74,66,74.18,64.78,74l0-.13c-.23,0-.41.4-.65.39,0-.08.05-.12,0-.22,0,.24-.39.19-.45.38-.11-.07-.13-.26-.26-.34l-.08.29c-.27.68-.9.09-1.36.48,0-.06.06-.12,0-.17a4,4,0,0,1-1.31.45c-.47.07-1,.11-1.42.2a.54.54,0,0,0,0-.38c0,.28-.32.36-.57.41-.11-.29-.43.27-.72.1l0-.06c-.22.31-.31-.18-.5.18l-.13-.24c-.11.41-.3-.23-.49,0v.08c-.17.09-.25-.12-.41-.06v0c-.37.09-.56-.17-.58.16-.11-.27.36-.08.19-.47a9.63,9.63,0,0,1-3.62-.21c-.11-.15-.19-.21-.19-.33-.13,0-.45,0-.59.11,0,0,0-.18-.1-.21s-.31.29-.51.09a.29.29,0,0,0,.16-.28c-.25.2-.51.1-.77.12.05,0,.11-.06.13-.16-.33.22-.45-.18-.72-.07l.13-.15c-.3-.32-.21.34-.48.12.09,0,.08-.11.12-.18-.38.24-.82,0-1.14,0a.14.14,0,0,0,0-.07,3.56,3.56,0,0,0-1-.26c-.09-.12.19-.41-.15-.46-.12.35-.6-.08-.56.39-.26-.17-.64-.48-.87-.44.18-.08,0-.47.29-.41l-.08-.28c.09-.13.15.12.18-.08-.12,0-.5-.05-.57-.15-.3.11-.67.4-1,.28.22-.05.09-.41.23-.41-.26.14-.52.27-.79.39-.12,0,.11-.27-.09-.27,0,.09-.14.11-.22.15s-.51-.17-.37-.52c0-.15.22,0,.16-.15s-.28,0-.47-.12l0,0c-.1-.13-.46-.11-.43.15.08.07.08-.21.16,0a.66.66,0,0,1-.66-.1c.1,0,.14-.09.23-.16a2.17,2.17,0,0,1-1.11-.14c-.1.14.29-.18.28-.07-.22-.46-1-.29-1-.79.07,0-.13.21-.1.17-.16-.15,0-.34-.16-.36.08-.12-.16-.08-.31-.14s0-.08.12,0c-.22,0-1-.39-1.2-.91a.61.61,0,0,1-.53,0l.19-.13c0-.17-.27-.25-.14-.4-.36,0,.8.48.42.4.08-.19-.57-.06-.3-.23-.16-.15-.5-.13-.48-.43,0,.07.35-.08.23-.2s-.14,0-.36-.14l-.17-.06c-.18.13-.16-.24-.27,0,.12-.15-.38-.29-.07-.49l.26-.15c-.1-.09-.38,0-.55,0a.22.22,0,0,1,.08-.12c-.37.25-.15-.29-.53-.22,0-.33-.4-.62-.24-.88-.24-.11-.47-.21-.51-.48.06,0,.11.08.19,0,0-.2-.08-.18-.22-.27.07,0,.08-.4.13-.63-.22-.13-.4,0-.54.09.29-.36-.52-.45-.26-.85.09,0,.32.21.35,0,.32-.35-.45-.24-.39-.62l-.31.21c.15-.22-.39-.37,0-.47-.16-.06,0-.4-.33-.25.13-.6-.59-1.21,0-1.68-.07-.06-.05-.26-.22-.18s.17.14.05.22S34.3,61,34.25,61c0-.18,0-.31.36-.22.14-.4-.67-.25-.63-.74.15,0,.2,0,.15-.18l-.28-.21c0-.3.31-.21.56-.26-.06-.15-.07-.34-.26-.39l.29-.23c-.21.16-.16-.11-.23-.17l.07.07c.1,0,0-.21,0-.3s-.19.23-.23.33c-.12-.07-.1-.19-.24-.29.25,0,.15-.27.16-.4s-.23-.14-.23-.18,0-.24.19-.14-.11.12,0,.19c.08-.1.31-.11.13-.29s-.48.08-.35-.22c.07.07.17.08.26.13l.1-.27h-.22c.05,0,.07,0,.1,0-.24-.06-.11-.39-.38-.44,0-.13.15-.29.17-.41l0,0a.35.35,0,0,0-.1-.49h0a.46.46,0,0,0-.15-.39c.17-.22.84-.07.56-.31,0-.21-.41-.34-.55-.26.15-.39-.21-.85.14-1.19-.09-.06-.15,0-.2-.15.15-.56-.13-1.24.35-1.65.07.18.22,0,.35,0-.18-.16.22-.14-.11-.23s-.3,0-.4.11a1.26,1.26,0,0,1,.2-1c-.1.08-.16,0-.21-.09.31.07.39-.17.33-.37l-.19-.06.22-.09c0-.08-.39-.15-.16-.3a.54.54,0,0,0,.22,0c-.12-.22-.33-.55-.12-.73l.32-.11c0-.1-.15-.28-.26-.14.24-.32.31-.55.58-.6A2.71,2.71,0,0,1,34.67,46l.13.07c.19-.15-.21-.18-.08-.28.11.1.33,0,.45.15.23-.22-.14-.43-.15-.62-.17-.09.07.18-.15.07-.06-.06.26-.32,0-.46.13,0,.32.1.41.17l-.07-.21c.4-.08.4.65.87.58v-.16c.34,0,.18.49.41.17-.07-.2-.42-.48-.59-.38.05-.36-.59-.39-.43-.74.2,0-.07.3.18.32s0-.38.14-.5c-.17.13-.39-.12-.39-.25.2-.13.21.22.34,0-.14-.1-.16-.39-.35-.23-.32-.24.2-.23,0-.49.28,0,.47.5.7.27-.26-.05-.19-.49-.6-.48.11-.08.3,0,.42.13.21-.1-.28-.58.22-.42l-.22-.16c.1,0,.19-.06.36-.08s-.12-.59.24-.41c0-.06.15-.36-.16-.36s.08.31-.31.26c.34,0,.1-.3.06-.45l.15,0c0-.09.08-.23,0-.35a.17.17,0,0,0,.22.07L36.27,41c0-.33.4.12.47-.18l.07.28c0-.06.22-.05.22-.21-.17-.14-.35-.35-.48-.47s.25,0,.12-.21l.14.31c.05.06.37,0,.47-.16s-.16-.49-.38-.35a.2.2,0,0,1,.34,0c.06-.25-.22-.08-.23-.33.17,0,.48-.15.74-.2l.2.37.07-.13c.16.3.24,0,.45.26.09-.06.06-.22,0-.34-.57,0-.42-.61-.84-.76.1-.42,1.05.32.66-.4-.13,0-.32-.35-.34-.06.17-.2-.29-.38,0-.54,0,.28.51,0,.56.44-.11-.09-.19.09-.18.16.2,0,.37.25.51,0s.15-.34-.06-.43-.11.22-.27,0c.09-.31.45-.15.14-.5-.08.19-.33.09-.47,0l0-.25.12.13c.3-.25-.2-.26,0-.54l.37,0c.19.23-.39.38,0,.57.14-.19,0-.38.2-.5,0,.06,0,.13,0,.19s.62.21.49-.27c0-.22-.11-.13-.26-.23.15-.35.09-.53.2-.75.25.23.27-.33.41.09a.51.51,0,0,0-.33.73c.41.11-.2.22.09.51.17-.25.49,0,.73.09.06-.06,0-.19,0-.25-.18-.17-.24-.08-.45-.21a.85.85,0,0,0,.23-.86c.16,0,.34.15.29.27a3.21,3.21,0,0,1,.71-.94c-.46,0,.17-.39-.19-.46-.2.1-.52.08-.6-.12.09-.09.14.11.24.12-.08-.26.43,0,.26-.32-.12.36.34.35.55.59,0-.31.17.14.33-.06a2.67,2.67,0,0,1,.23-.91c.45-.1.58-.7.78-1,.23,0,.42.29.59.19s-.39-.13-.06-.26l0,.07c0-.13.55-.28.24-.68l.22.33c.07,0,0-.12,0-.18s.22.11.22.23c.33,0,.24-.33.38-.49l-.26-.05c.11-.39.44-.41.63-.71l.15.16.05-.24c.12.19.35.15.3-.05v.76c-.2,0-.08-.3-.3-.39s-.37.2-.26.38c.1-.07.07-.11.08-.23.25.19.11.31.2.52,0-.05.17-.05.1-.13a.54.54,0,0,1-.18.46c0-.19-.19-.07-.22-.17.19.2.12.4-.11.54-.36-.08-.18.48-.43.65a1.27,1.27,0,0,1-.16-.74c-.23,0-.13.16-.36.21.1.2.29.46.23.73L43.72,34c-.06.24.17.43-.06.6a7.22,7.22,0,0,0-.93,1l-.17-.11c.22.43-.3.63-.29,1-.43.26-.42.93-.85.93a9.6,9.6,0,0,1-1.1,2.12l-.18-.27c.1.24-.2,0-.24.15.29,0,.16.34.27.52-.38.21-.4.76-.38,1.15L39.61,41c.17.47-.32.66-.55,1-.1,0-.3,0-.33.11.2.35.12.45.17.83a2.28,2.28,0,0,1-.57.71c.09,1-.54,1.77-.58,2.74H37.5c.25,1-.59,1.94-.46,2.77L36.66,49a.36.36,0,0,0,.29.57c-.17.21.07.63-.29.71-.12.23.12.33.14.54a1.6,1.6,0,0,0-.2,1.12l0-.11c-.08-.06-.25-.09-.29,0s-.18.62.32.51c-.32.47.08,1.16-.31,1.61.13,0,.16.09.25.14,0,.43-.27.88,0,1.22-.07.07-.22-.11-.24.07s.17,0,.25.13a1.8,1.8,0,0,1,0,1,3,3,0,0,0-.06,1,7.91,7.91,0,0,1,.34,1.69c.09.55.19,1.07.32,1.57H37c.46.22-.12.89.5,1-.07.11.05.31-.14.32.35.15.08.81.54,1,0,0,0,0-.09-.07,0,.47.42.63.45,1.1-.06,0-.12-.07-.21,0-.08.24.54.14.18.46.06.08.24-.07.2-.11a4,4,0,0,0,.82,1.18c.38.33.73.67,1.12,1,.29.7-.54.58.1.74,0,.1.15-.1.09,0,.24.06-.13.63.16.55.15-.25.19-.05.31-.18.2.42.1.69.51.75l-.12.1c.58-.06.83.39,1.39.2a23,23,0,0,0,6,2.57,45.92,45.92,0,0,0,6.29,1.56c.47.45.52.44,1.11.33,0,.06-.07.07,0,.14.05-.32.41,0,.48-.31a15.55,15.55,0,0,0,2.41,0c-.13,0-.2.3,0,.28l.16-.21,0,.09c.11-.05.22-.22.11-.32,2.06-.34,4.18,0,6.12-.6a3.6,3.6,0,0,0,1.54-.6,4.67,4.67,0,0,0,3.76-1.85A1.33,1.33,0,0,1,70.87,71.21Z"/><path class="cls-2" d="M45.93,31.92c-.16-.08-.36,0-.4-.27C45.65,31.75,45.84,31.8,45.93,31.92Z"/><path class="cls-2" d="M41.19,34.76s-.1,0-.13,0,0-.19.06-.18S41.15,34.7,41.19,34.76Z"/><path class="cls-2" d="M40.3,35.82c-.11-.1,0-.41.06-.56Z"/><path class="cls-2" d="M39.06,36.54c-.16,0-.2,0-.12-.16C39,36.41,39,36.47,39.06,36.54Z"/><path class="cls-2" d="M39.29,36.8c-.06.09-.16.09-.25.09C39.14,37,39.1,36.63,39.29,36.8Z"/><path class="cls-2" d="M37.46,39c0,.07,0,.25-.16.23C37.43,39.21,37.3,38.84,37.46,39Z"/><path class="cls-2" d="M37,40.25s-.06,0,0,.1-.15-.08-.13-.15Z"/><polygon class="cls-2" points="35.15 63.59 35.02 63.48 35.16 63.45 35.15 63.59"/><path class="cls-2" d="M42,71.58c.17,0,0,.17,0,.2S42.15,71.66,42,71.58Z"/><polygon class="cls-2" points="47.29 73.45 47.25 73.44 47.37 73.16 47.29 73.45"/><path class="cls-3" d="M75.52,39.92S60.16,25.12,50.64,28.66s-8.43,22.57-1.9,28.83S61.08,69.8,72.23,68.44"/><path class="cls-2" d="M75,40.17c.28.17.05-.3.23.06C75.11,40.29,75,40.31,75,40.17Z"/><path class="cls-2" d="M71.13,68.15a2.15,2.15,0,0,1-1.71.42,5.31,5.31,0,0,0-1.82.08c-.14,0,.06-.41-.24-.34-1.15.56-2.89-.17-4-1l.11-.09c-.22-.14-.62.11-.86,0,0-.07.12-.08.09-.2-.14.2-.49-.06-.66.07-.07-.12,0-.29-.08-.43l-.24.2c-.64.41-.93-.46-1.6-.4.05,0,.12-.06.11-.14a5.22,5.22,0,0,1-1.52-.45c-.49-.25-1-.53-1.47-.76a.47.47,0,0,0,.22-.3c-.2.21-.51.08-.77,0,.06-.31-.56-.07-.74-.39l.06,0c-.39.1-.19-.36-.57-.19V63.9c-.34.26-.15-.39-.44-.35l0,.07c-.22,0-.17-.26-.35-.32l0,0c-.39-.19-.43-.52-.63-.27.05-.29.39.17.45-.26a14.21,14.21,0,0,1-3.29-2.57c0-.2-.07-.3,0-.41-.14,0-.42-.32-.62-.28,0,0,0-.18,0-.24-.1-.26-.44.07-.54-.23a.27.27,0,0,0,.29-.15c-.34,0-.54-.23-.8-.36.07,0,.14,0,.2-.07-.42,0-.36-.43-.67-.48l.2-.06c-.15-.46-.36.19-.53-.16.1,0,.13-.05.2-.1-.48,0-.81-.49-1.11-.69a.12.12,0,0,0,.07,0A8.31,8.31,0,0,0,47,56c0-.17.4-.22.12-.5-.31.22-.48-.5-.72-.07-.14-.33-.29-.87-.5-1,.2.07.32-.36.48-.12l.1-.29c.15,0,.06.22.19.07-.07-.12-.4-.4-.4-.55-.31-.13-.8-.18-1-.56.21.13.33-.27.44-.16l-.88-.29c-.07-.13.26-.14.09-.29-.09,0-.18,0-.28,0s-.29-.54,0-.72c.12-.11.15.2.22,0-.09-.25-.21-.22-.3-.47l0,0c0-.18-.3-.45-.43-.21,0,.12.2-.11.15.1-.24-.06-.38-.34-.46-.6.08.07.17,0,.28,0a2.72,2.72,0,0,1-.77-1c-.17,0,.34.07.27.15.1-.55-.57-1-.31-1.46,0,.06-.23.08-.19.07,0-.25.22-.28.1-.43.14,0-.08-.19-.15-.35s.06-.05.1.09a2.49,2.49,0,0,1-.37-1.67c-.1,0-.39-.29-.39-.42l.23,0c.13-.13-.06-.41.14-.45-.3-.24.32,1,.08.66.18-.11-.4-.46-.09-.41,0-.25-.31-.47-.11-.72,0,.07.33.18.3,0-.06-.35-.11-.09-.2-.37l-.1-.18c-.22,0,0-.32-.23-.18.18,0-.14-.52.24-.49l.29,0c0-.15-.31-.24-.44-.36a.21.21,0,0,1,.13-.05c-.44,0,0-.37-.31-.55.15-.32,0-.83.32-1-.13-.25-.27-.49-.15-.77,0,.06,0,.14.14.16.15-.17,0-.22,0-.39.06,0,.29-.33.46-.51-.1-.26-.35-.2-.49-.24.47-.17-.19-.74.24-1,0,.09.16.39.3.2.47-.15-.24-.5,0-.82l-.37,0c.25-.12-.11-.58.25-.47-.1-.15.22-.4-.14-.44.41-.52.21-1.5.92-1.66,0-.1.1-.28-.08-.3s.07.24-.08.24c0-.08-.07-.12-.11-.15.14-.15.22-.28.43,0,.35-.31-.44-.62-.09-1.07.13.08.19.06.24-.09l-.11-.38c.2-.3.38,0,.61.05,0-.19.15-.38,0-.54l.38-.06c-.28,0-.06-.2-.08-.31v.11c.11,0,.15-.2.18-.31-.15-.06-.3.11-.4.2-.05-.14,0-.26,0-.44.19.16.31-.18.42-.29s-.08-.28,0-.32.17-.23.25,0-.18,0-.13.19c.14,0,.32.09.31-.2s-.43-.24-.09-.43c0,.11.06.18.1.28l.29-.18-.17-.14c.07,0,.07,0,.1,0-.13-.22.24-.43.08-.66.09-.14.35-.16.47-.26v0a.51.51,0,0,0,.33-.52l0,0a.67.67,0,0,0,.26-.44c.31-.06.62.57.65.17a.42.42,0,0,0-.11-.62c.48-.18.75-.81,1.33-.73,0-.11,0-.14.05-.26.67-.27,1.34-.9,2-.63-.18.15,0,.22.09.34.11-.24.24.14.22-.21-.07-.19-.07-.29-.29-.31a1.76,1.76,0,0,1,1.32-.2c-.13-.07,0-.15,0-.22,0,.32.33.34.55.21l0-.2.17.19c.09-.07.08-.42.33-.25a.48.48,0,0,0,.08.21c.23-.16.59-.43.86-.26l.2.29c.11,0,.31-.18.12-.28.44.21.72.26.83.52a3.39,3.39,0,0,1,2.78,0l-.06.13c.19.2.19-.21.32-.07-.11.11.08.34-.14.45.27.24.48-.13.71-.12.09-.17-.2.06-.09-.16.06-.06.39.29.53,0,0,.14-.09.32-.17.41l.24-.07c.12.4-.72.39-.61.87l.18,0c.06.34-.55.17-.17.42.23-.07.53-.41.41-.59.41.06.42-.6.83-.41.05.2-.35-.09-.35.17s.44,0,.58.18c-.15-.18.12-.39.26-.39.16.21-.24.2,0,.35.11-.14.44-.14.24-.34.26-.31.28.22.55,0,0,.29-.55.43-.28.7.05-.26.54-.14.52-.57a.3.3,0,0,1-.13.42c.12.22.64-.23.48.26l.17-.21c0,.1.07.2.1.38s.66-.07.47.28c.07,0,.42.18.4-.14s-.35.06-.31-.34c0,.35.34.12.52.1l0,.15c.1,0,.26.11.39,0a.16.16,0,0,0-.07.22l.19-.17c.36.06-.12.4.21.5l-.31,0c.07,0,.07.24.24.25.16-.16.38-.33.51-.45s0,.25.23.15l-.34.11c-.07,0,0,.39.19.51s.55-.13.38-.36c.11.06.2.26,0,.35.29.08.08-.22.36-.21,0,.17.19.51.24.78l-.4.18.14.09c-.33.13,0,.25-.28.44.07.1.24.08.38.07,0-.59.67-.37.81-.8.47.14-.32,1.07.46.74,0-.14.37-.3.05-.35.22.2.4-.27.6.07-.31,0,0,.52-.46.55.1-.11-.11-.2-.18-.2,0,.21-.26.36,0,.52s.38.18.48,0-.25-.13,0-.28c.35.12.19.48.56.19-.21-.1-.11-.35,0-.49l.28.06-.14.11c.29.34.27-.18.59.08l0,.38c-.24.18-.43-.44-.63,0,.21.16.42,0,.56.26-.07,0-.14,0-.21,0s-.2.63.32.55c.24,0,.14-.11.24-.25.38.2.59.13.83.27-.24.24.38.31-.07.42a.63.63,0,0,0-.83-.4c-.1.42-.24-.24-.55,0,.27.2,0,.52-.07.76.07.07.2,0,.27,0,.17-.18.07-.24.21-.46a1.06,1.06,0,0,0,1,.3c0,.17-.14.35-.28.28a3.92,3.92,0,0,1,1.07.83c0-.48.44.21.49-.17-.13-.21-.12-.56.09-.62.1.11-.11.14-.11.24.28-.07,0,.45.37.29-.41-.15-.36.34-.61.54.34,0-.14.17.09.35a3.16,3.16,0,0,1,1,.3c.14.48.81.65,1.1.88,0,.24-.28.44-.16.61s.1-.41.28-.05l-.07,0c.14,0,.35.61.76.29l-.33.22c0,.07.13,0,.2,0s-.09.23-.23.23c0,.34.38.27.57.42l0-.27c.43.14.49.49.84.69l-.16.16.27.06c-.19.12-.12.37.1.32h-.82c0-.21.32-.08.38-.31s-.26-.4-.44-.28c.09.11.13.08.26.09-.17.26-.32.11-.54.2.06,0,.08.18.16.12a.66.66,0,0,1-.52-.21c.2,0,.06-.2.16-.23-.19.19-.42.1-.6-.14,0-.38-.55-.21-.76-.49a1.34,1.34,0,0,1,.79-.13c-.08-.25-.19-.15-.27-.4-.21.09-.47.28-.77.2l.12-.17c-.26-.08-.45.15-.67-.1a10.52,10.52,0,0,0-1.14-1.06l.11-.17c-.45.2-.72-.35-1.09-.38-.32-.48-1.06-.53-1.08-1a13.93,13.93,0,0,1-2.42-1.35l.3-.16c-.27.09,0-.2-.18-.26,0,.31-.37.13-.56.22-.25-.43-.86-.5-1.29-.52l.09-.18c-.53.14-.76-.38-1.16-.66,0-.1,0-.31-.14-.36-.39.17-.49.08-.93.09a3.1,3.1,0,0,1-.82-.63c-1.14,0-2-.68-3.1-.74V30c-1.11.17-2.21-.52-3.08-.34l.12-.4a.37.37,0,0,0-.56.35c-.26-.15-.64.19-.8-.15-.27-.08-.31.2-.52.27a1.58,1.58,0,0,0-1.15.12h.12c0-.1,0-.27-.12-.27s-.66.08-.36.48a1,1,0,0,0-.77.23,1.22,1.22,0,0,1-.77.26c.1.1,0,.18,0,.28-.19.1-.39.17-.58.27a.63.63,0,0,0-.41.41c-.1,0-.07-.25-.21-.14s.11.13.07.27c-.33.62-1.17.87-1.5,1.49a32.46,32.46,0,0,0-1.35,3.42l-.09,0c.24.48-.62.83-.14,1.28-.11.07-.12.35-.29.24.21.37-.42.86-.14,1.39,0,0,0-.07,0-.13-.28.45,0,.91-.26,1.4,0-.05-.06-.15-.16-.17-.2.19.37.5-.1.58,0,.12.23.09.22,0a9.29,9.29,0,0,0,.28,3.49c-.21.86-.79.12-.38.76-.08.06.18,0,.09,0,.16.24-.47.46-.2.62.28-.11.18.1.35.08-.12.54-.35.69-.07,1.06h-.15c.5.4.4,1,1,1.27a18.2,18.2,0,0,0,3.27,6.51c.17.21.32.45.51.64s.33.37.6.61l1.45,1.36c1,.91,1.91,1.8,2.8,2.77.2.71.25.73.87,1-.06,0-.1,0-.11.09.24-.23.38.28.63.08a19.39,19.39,0,0,0,2.26,1.64c-.14-.06-.36.12-.2.21l.27-.06,0,.09c.13,0,.33,0,.28-.19,2.12,1.06,3.93,2.61,6.24,3.07a5,5,0,0,0,1.9.28,8.42,8.42,0,0,0,5.26.44A1.5,1.5,0,0,1,71.13,68.15Z"/><path class="cls-2" d="M74.69,39.94c.06-.17,0-.38.24-.43C74.84,39.64,74.81,39.84,74.69,39.94Z"/><path class="cls-2" d="M71.12,34.76s0-.11,0-.14.21,0,.2.07S71.19,34.72,71.12,34.76Z"/><path class="cls-2" d="M69.91,33.74c.11-.11.45,0,.62.11Z"/><path class="cls-2" d="M69.06,32.4c0-.17,0-.21.17-.11C69.2,32.36,69.13,32.36,69.06,32.4Z"/><path class="cls-2" d="M68.78,32.61a.29.29,0,0,1-.11-.28C68.61,32.44,69,32.43,68.78,32.61Z"/><path class="cls-2" d="M66.3,30.5c-.07,0-.28,0-.26-.19C66.06,30.45,66.47,30.35,66.3,30.5Z"/><path class="cls-2" d="M64.89,29.93s0-.07-.11-.06.09-.15.16-.12Z"/><polygon class="cls-2" points="42.93 38.19 42.89 38.01 43.03 38.06 42.93 38.19"/><path class="cls-2" d="M43.6,50.14c.14.13-.1.15-.11.18C43.43,50.18,43.68,50.32,43.6,50.14Z"/><polygon class="cls-2" points="46.84 55.75 46.81 55.71 47.07 55.56 46.84 55.75"/><path class="cls-1" d="M69.59,67.57s17.62,25,36.47,10.6S118.73,42,114.54,38.25s-16.56-14-36.35.19"/><path class="cls-2" d="M70.2,67.5c-.32-.33-.06.35-.27-.17C70.07,67.3,70.19,67.32,70.2,67.5Z"/><path class="cls-2" d="M79.71,37.89a5,5,0,0,1,1.91-1.67,9.37,9.37,0,0,0,2.24-1.38c.16-.12.15.39.49.1a4.29,4.29,0,0,1,1.07-.87,10.29,10.29,0,0,1,1.44-.61c.51-.18,1-.32,1.57-.45A12.89,12.89,0,0,1,90,32.85L89.9,33c.37,0,.69-.53,1.08-.59,0,.07-.09.14,0,.22,0-.25.64-.32.76-.52.17.06.2.25.42.31l.16-.3c.49-.74,1.49-.24,2.27-.71,0,.06-.11.12,0,.17a10.57,10.57,0,0,1,2.21-.48c.79-.12,1.61,0,2.39-.09-.07.09-.14.26-.05.37.09-.27.58-.36,1-.34.15.32.74-.16,1.21.08l-.05.06c.41-.25.5.25.86-.06.06.09.12.17.18.26.24-.36.46.34.79.21v-.08c.3,0,.39.21.66.21v.05c.63,0,.89.37,1,.07.12.31-.6-.08-.39.38A16,16,0,0,1,110,34.5c.13.23.22.35.2.48.2.06.66.36.9.33-.06,0,0,.21.09.28.23.3.53-.05.77.3-.18,0-.28,0-.31.15a2.77,2.77,0,0,1,1.14.49c-.08,0-.18,0-.23.06.52.05.59.55,1,.66l-.23.05c.33.56.39-.18.72.27-.14,0-.15,0-.21.09a1.92,1.92,0,0,1,.85.41c.25.22.48.49.7.64a.09.09,0,0,0-.07,0c.44.39.58,1,1.06,1.41,0,.23-.41.15-.1.63.32-.19.56.82.79.33l.28.84a2,2,0,0,0,.29.69c-.21-.16-.34.39-.51,0L117,43c-.16,0-.06-.31-.2-.16a4.42,4.42,0,0,1,.43.88c.36.27.84.5,1,1.09-.21-.24-.35.27-.46.09l.91.66c.07.2-.27.11-.1.38.09,0,.18.08.28.15s.25.84-.1,1c-.13.12-.14-.32-.22-.07.07.37.2.37.27.74l0,0c0,.26.29.71.44.41,0-.18-.21.1-.15-.17a1.31,1.31,0,0,1,.42,1c-.07-.12-.17-.1-.27-.14a5.4,5.4,0,0,1,.65,1.6c.17,0-.34-.19-.25-.28a2.26,2.26,0,0,0,.14,1.12,1.46,1.46,0,0,1,0,1c0-.1.25-.06.2-.05,0,.36-.27.35-.18.58-.15,0,0,.29.1.54s-.07.06-.09-.15a4.52,4.52,0,0,1,.2,1.07,4.2,4.2,0,0,1-.18,1.39c.1,0,.32.51.29.69l-.22-.09c-.15.15,0,.6-.23.61.24.41-.11-1.49.06-1-.2.11.3.76,0,.61,0,.36.21.74-.07,1.05.05-.09-.26-.33-.3,0-.05.51.08.16.08.58l0,.27c.22.06-.11.45.17.3-.19,0,0,.76-.38.63l-.27-.13c0,.22.23.42.33.62,0,0-.1.07-.14,0,.42.13-.12.51.12.84-.28.41-.35,1.14-.68,1.27a1.8,1.8,0,0,1-.12,1.11c0-.09,0-.2-.08-.25-.2.2-.1.3-.1.55,0-.07-.41.4-.68.6,0,.37.26.35.38.43-.53.14-.13,1-.65,1.26,0-.14,0-.56-.21-.34-.52.12,0,.73-.35,1.13l.38,0c-.28.13-.15.79-.46.58,0,.21-.41.48-.06.6-.68.61-.88,1.94-1.68,2.06,0,.15-.25.35-.05.4s0-.31.2-.3a.19.19,0,0,0,.06.21c-.23.17-.37.33-.47,0-.53.35.14.83-.42,1.37-.1-.11-.18-.1-.29.09l0,.49c-.34.36-.43,0-.64-.12-.12.24-.31.48-.24.7l-.43.06c.31,0,0,.27,0,.4a1.18,1.18,0,0,0,0-.13c-.11,0-.26.23-.34.36.14.07.4-.11.54-.21,0,.17-.16.31-.18.52-.15-.2-.42.2-.58.34s0,.34-.07.39-.28.27-.29,0c0-.09.22-.05.23-.23-.18.05-.33-.11-.43.24s.4.28,0,.52c0-.13,0-.21,0-.34l-.39.23.15.17c-.08,0-.07,0-.11,0,.08.26-.4.54-.28.79-.13.18-.43.23-.59.37v0a1,1,0,0,0-.52.63l0,0a1.08,1.08,0,0,0-.39.53c-.38.11-.65-.55-.76-.09-.26.24-.16.67,0,.69-.59.31-.92,1.07-1.59,1.19,0,.13.06.14-.05.3-.84.48-1.51,1.43-2.41,1.44.19-.22-.1-.2-.17-.3-.09.29-.34,0-.24.3.12.16.15.26.43.19a3.19,3.19,0,0,1-1.59.81c.19,0,.1.12,0,.23-.11-.3-.51-.17-.76.07l0,.2L102,82c-.09.11,0,.43-.33.4a.37.37,0,0,0-.17-.15c-.23.3-.61.69-1,.67l-.38-.17c-.14.08-.33.33,0,.32-.64.06-1,.12-1.3-.07A3.82,3.82,0,0,1,97,84a7.36,7.36,0,0,1-2,.28l0-.15c-.35-.12-.16.27-.41.18.1-.15-.27-.29,0-.47-.48-.12-.61.29-.93.34,0,.19.26-.12.19.13-.06.07-.67-.17-.76.12-.12-.12,0-.33.05-.44l-.3.13c-.34-.35.84-.58.47-1l-.26,0c-.23-.31.69-.32.05-.45-.28.14-.55.55-.3.68-.6.06-.32.7-1,.6-.16-.19.53,0,.42-.23-.29-.27-.63.06-.89-.05.29.14,0,.41-.21.44-.32-.18.25-.25-.22-.33-.1.16-.56.23-.2.39-.24.36-.48-.19-.79.05-.1-.29.59-.51.1-.75,0,.27-.7.22-.51.65-.19-.11-.17-.32,0-.44-.25-.21-.81.32-.78-.21l-.16.23c-.07-.11-.18-.21-.29-.38s-.9.12-.76-.26c-.1,0-.64-.18-.51.15.3.28.46-.07.55.35-.17-.36-.53-.11-.76-.09l0-.16c-.14,0-.4-.11-.54,0,.12-.05.11-.17,0-.24l-.21.18c-.53-.06,0-.43-.47-.53l.42,0c-.09,0-.18-.25-.42-.27-.16.16-.42.33-.56.46-.3,0,0-.27-.37-.18l.43-.1c.08,0-.09-.42-.43-.56s-.72.11-.42.37c-.18-.07-.36-.29-.16-.38-.41-.12,0,.23-.43.19-.08-.2-.4-.59-.56-.89l.5-.15-.22-.11c.42-.11,0-.27.25-.46a.84.84,0,0,0-.54-.12c.21.66-.8.33-.88.78-.67-.24.15-1.15-.81-.9,0,.16-.42.28,0,.38-.35-.25-.48.24-.82-.19.41,0-.1-.59.49-.53-.11.1.19.26.29.26-.07-.23.25-.36-.11-.59s-.55-.29-.63-.06.36.19.08.32c-.5-.21-.36-.58-.79-.32a.35.35,0,0,1,.14.56l-.39-.12.16-.1c-.46-.44-.32.15-.81-.23l0-.44c.28-.15.66.61.83.16-.31-.24-.55-.12-.79-.43.09,0,.19.07.28.08-.11-.09.13-.68-.53-.7-.31-.06-.16.09-.27.23-.53-.33-.79-.3-1.13-.53.27-.22-.55-.46,0-.46,0,.28.78.81,1.15.68.05-.46.36.34.71.07-.41-.29-.15-.6-.06-.86-.1-.1-.27-.09-.36-.1-.19.16,0,.27-.19.48a2.08,2.08,0,0,0-1.3-.6.21.21,0,0,1,.31-.25,7.44,7.44,0,0,1-1.5-1.28c0,.57-.59-.38-.6,0,.19.29.23.69,0,.71-.14-.16.12-.13.11-.25-.35,0-.09-.54-.51-.45.54.3.41-.29.7-.45-.44-.15.16-.15-.16-.43a5.8,5.8,0,0,1-1.31-.69c-.23-.63-1.08-1.06-1.46-1.44-.08-.31.3-.42.14-.68s-.1.45-.34,0h.09c-.17-.06-.48-.86-1-.64l.39-.14c0-.1-.16-.1-.25-.14.09-.09.1-.25.26-.18,0-.41-.48-.47-.72-.73l0,.32c-.53-.34-.62-.79-1-1.19l.18-.13-.32-.19c.22-.07.13-.4-.12-.43l1,.35c.06.27-.38,0-.45.22s.33.6.55.53c-.11-.17-.16-.15-.32-.22.19-.25.38,0,.64,0-.08-.07-.1-.25-.19-.2a1.27,1.27,0,0,1,.63.46c-.24-.1-.06.22-.19.21.23-.16.5,0,.73.41,0,.44.69.46,1,.88a1.65,1.65,0,0,1-1-.14c.11.33.24.25.36.58a1.28,1.28,0,0,1,.93,0l-.13.16c.33.19.55,0,.83.35a16.79,16.79,0,0,0,1.53,1.63l-.12.17c.54-.09,1,.64,1.43.79.47.65,1.42.92,1.53,1.43,1.18.72,2.25,1.24,3.41,2l-.35.13c.33-.05.05.24.29.33-.13-.34.46-.09.7-.17a2.73,2.73,0,0,0,1.85.71l-.07.19c.65-.08,1.13.44,1.74.79,0,.11.09.33.3.37a2.83,2.83,0,0,1,1.22-.11,5.71,5.71,0,0,1,1.33.59c1.55-.12,3,.37,4.51.09l.11.24c1.44-.54,3.26-.37,4.41-1v.42c.43,0,.83-.39.65-.62.41,0,.85-.51,1.21-.29.4-.1.38-.38.65-.57a5,5,0,0,0,.91-.3,8.69,8.69,0,0,0,.76-.52l-.18.07c0,.12,0,.28.23.2.19-.24,1-.44.47-.71a2.69,2.69,0,0,0,1.15-.73,3.37,3.37,0,0,1,1.15-.72c-.13-.06,0-.21,0-.34.55-.48,1.31-.78,1.61-1.33.13,0,0,.29.25.11s-.11-.13,0-.33c.78-.9,1.87-1.51,2.58-2.33.28-.4.58-.77.88-1.15s.54-.8.82-1.19a17,17,0,0,0,1.58-2.33l.07.07c0-.71,1-1.07.78-1.76.15-.08.31-.46.42-.28,0-.54.76-1.15.74-1.93a.25.25,0,0,0,0,.18,12.28,12.28,0,0,0,.85-1.91c0,.09,0,.23.09.28.26-.22-.2-.79.3-.8,0-.16-.19-.18-.21-.08a15,15,0,0,0,.86-5c.38-1.19.79,0,.53-1,.1-.07-.17-.07-.08-.08-.1-.38.57-.55.35-.83-.3.09-.15-.18-.32-.2.25-.74.46-.9.25-1.5l.15,0c-.45-.7-.17-1.52-.75-2.07a23.14,23.14,0,0,0-.43-2.79l-.31-1.36c-.11-.45-.27-.88-.4-1.31a18.39,18.39,0,0,0-2.17-4.72,3.92,3.92,0,0,0-.6-.82,1.53,1.53,0,0,0-.16-.19l-.26-.23-.52-.45-1.06-.85-1.09-.79a42.64,42.64,0,0,0-4.62-2.72,2.14,2.14,0,0,0-1.65-.85c.05,0,.12,0,.07-.12-.14.29-.65-.14-.82.14a16.58,16.58,0,0,0-3.86-.66c.22,0,.35-.29.09-.28l-.29.2,0-.09c-.18,0-.38.2-.21.31-.86,0-1.7,0-2.55.07l-1.28,0c-.43,0-.85.09-1.28.13a15.32,15.32,0,0,0-2.55.4,15.94,15.94,0,0,0-2.49.75,14,14,0,0,0-2.66,1.18,39.6,39.6,0,0,0-3.71,1.42A21.22,21.22,0,0,0,79,39.59,1.9,1.9,0,0,1,79.71,37.89Z"/><path class="cls-2" d="M70.56,67.92c-.07.18.06.49-.27.42C70.39,68.22,70.43,68,70.56,67.92Z"/><path class="cls-2" d="M75.34,75.49s0,.14.05.17-.26,0-.27-.16C75.21,75.57,75.25,75.5,75.34,75.49Z"/><path class="cls-2" d="M77,77c-.12.09-.58-.13-.81-.3Z"/><path class="cls-2" d="M78.38,78.84c.08.21,0,.24-.2.08C78.2,78.85,78.29,78.87,78.38,78.84Z"/><path class="cls-2" d="M78.7,78.66a.46.46,0,0,1,.2.34C79,78.9,78.5,78.83,78.7,78.66Z"/><path class="cls-2" d="M82.51,81.54c.11,0,.39,0,.41.24C82.86,81.62,82.33,81.69,82.51,81.54Z"/><path class="cls-2" d="M84.62,82.3c.06,0,.08.07.17.07s-.07.16-.18.13Z"/><polygon class="cls-2" points="117.2 66.15 117.18 66.4 117.06 66.31 117.2 66.15"/><path class="cls-2" d="M119.81,49.19c-.11-.22.12-.18.14-.22C120,49.18,119.76,48.91,119.81,49.19Z"/><polygon class="cls-2" points="116.58 40.49 116.61 40.55 116.34 40.67 116.58 40.49"/><path class="cls-3" d="M113.48,49.88c-2.53,10.84-5.6,18.95-18.07,20.24-15.3,1.59-28.77-2.4-28.77-14.27S84.91,31.22,97.22,33.62,116.18,38.33,113.48,49.88Z"/><path class="cls-2" d="M113.8,50.29c.07-.49-.25.22,0-.33A.24.24,0,0,1,113.8,50.29Z"/><path class="cls-2" d="M114.07,48.32A8.94,8.94,0,0,1,114,47c0-.45.1-.91.09-1.38s0-1,0-1.42a7,7,0,0,0-.33-1.32c-.06-.19.33,0,.12-.45a25,25,0,0,0-1.54-2.66,14.07,14.07,0,0,0-2.26-2.52h.15c-.3-.29-.89-.24-1.24-.49,0-.05.16,0,.11-.13-.17.09-.72-.28-.94-.22-.12-.13-.05-.25-.22-.41l-.3.09c-.78.16-1.51-.6-2.44-.66.06,0,.15,0,.1-.11-1.48-.14-3.2-.65-4.81-.88.08-.06.16-.17.09-.27-.12.19-.62.14-1.05.08-.15-.25-.77,0-1.24-.17l.05,0c-.41.15-.52-.24-.87,0l-.2-.22c-.22.27-.5-.24-.83-.13v.06c-.29,0-.42-.15-.7-.11l0,0c-.63,0-1-.17-1,.08-.21-.21.61-.06.28-.35a37.12,37.12,0,0,0-6.26.87c-.26,0-.41,0-.48-.1a4.31,4.31,0,0,0-.9.42c.07,0-.17-.08-.27-.05-.39,0-.32.38-.75.41.14-.11.17-.2.09-.27a5.09,5.09,0,0,1-1.12.63c0-.06.13-.12.09-.18-.36.36-.81.26-1.13.55l.09-.19c-.67.1-.06.34-.62.47.11-.09,0-.12,0-.19a9.33,9.33,0,0,1-1.62,1,.06.06,0,0,0,0-.06,10.26,10.26,0,0,0-1.55.91c-.23.06-.1-.33-.6,0,.16.22-.82.63-.35.71a5.72,5.72,0,0,0-1.43.86c.13-.22-.4-.14-.06-.4l-.36,0c0-.12.3-.16.13-.22a7.84,7.84,0,0,1-.82.66,3.78,3.78,0,0,1-.82,1.27c.17-.28-.32-.13-.19-.3l-.37,1c-.16.14-.18-.14-.37.11.06,0,0,.17,0,.28s-.62.64-.87.49.22-.27,0-.19c-.3.26-.24.35-.53.62l0,0c-.22.15-.48.62-.16.53.14-.12-.16-.07.08-.2a2.13,2.13,0,0,1-.59.87c.06-.13,0-.17,0-.26a10,10,0,0,1-.86,1.48c.09.09,0-.32.07-.34-.65.44-.8,1.34-1.39,1.67,0-.09.18.07.15.05-.23.27-.37.15-.45.39-.1,0-.14.26-.25.48s-.08,0,0-.16a11.16,11.16,0,0,1-1.2,2.13c.07,0,0,.54-.07.69l-.12-.14c-.16.1-.24.54-.38.5,0,.43.48-1.39.4-.86-.2,0-.07.76-.23.56-.14.33-.13.71-.39,1,.06-.08-.11-.36-.21-.09-.16.48,0,.17-.07.57l0,.26c.15.07-.15.42.08.3-.15,0-.13.71-.38.58l-.19-.13c-.05.21.12.4.18.59,0,0-.08.07-.11,0,.32.11-.14.49.06.79-.17.42-.18,1.11-.37,1.3a3,3,0,0,1,.14,1c0-.08-.05-.18-.13-.21-.08.25,0,.31.08.53-.05,0-.16.5-.26.8.12.34.29.2.41.22-.34.37.38.9.16,1.34-.07-.1-.27-.45-.29-.16-.25.39.38.56.34,1.1l.23-.2c-.11.27.42.62.13.67.16.12.14.58.37.42a2.8,2.8,0,0,0,.18.64c.12.2.25.39.37.59a1.79,1.79,0,0,1,.39,1.1c.11.06.28.31.34.18s-.27-.14-.23-.26a.16.16,0,0,0,.19,0c.12.23.24.39-.09.35.26.55.74.15,1.12.76-.1.05-.1.13.08.25l.44.12c.33.33,0,.36-.08.51.22.14.45.35.62.32l.1.39c-.08-.27.24,0,.37.05l-.13,0c0,.09.27.21.41.28,0-.12-.19-.32-.31-.43.16,0,.32.13.51.14-.15.12.28.33.43.46s.3,0,.36,0,.31.22.09.24-.1-.18-.26-.18c.09.14,0,.29.33.34s.12-.34.47,0c-.13,0-.18,0-.3.06l.34.27.09-.14c0,.06,0,.06,0,.09.19-.1.61.24.78.11.2.07.35.32.54.4h0a1.06,1.06,0,0,0,.78.21l0,0a1.35,1.35,0,0,0,.63.12c.28.24-.1.64.34.58.34.11.63-.14.52-.27.59.28,1.35.21,1.86.62.11,0,.06-.1.25-.1a12.45,12.45,0,0,1,2.68.62c-.28,0,0,.16-.05.26.25-.12.25.19.37-.05s0-.22-.23-.32a4.37,4.37,0,0,1,1.71.28c-.15-.09,0-.11.1-.15-.06.24.35.3.67.24l.06-.14.19.16c.13,0,.16-.3.46-.14a.26.26,0,0,0,.08.16,2,2,0,0,1,1.15-.13l.28.22c.15,0,.41-.15.15-.21.6.14,1,.16,1.19.35a11.61,11.61,0,0,1,3.77-.53l0,.11c.33.08.16-.21.39-.15-.1.11.26.21,0,.36.48.08.59-.24.89-.31,0-.15-.24.11-.19-.08s.65.06.71-.16c.12.08,0,.24,0,.34l.28-.13c.37.23-.76.52-.36.8l.26-.06c.28.21-.68.31,0,.34.28-.13.5-.47.23-.54.59-.11.23-.53.86-.6.19.1-.5.1-.36.26.32.13.58-.18.85-.16-.3,0-.08-.29.1-.36.33.06-.18.23.28.19.06-.14.45-.29.08-.32.11-.3.48,0,.68-.24.18.18-.38.52.13.55-.11-.17.54-.4.23-.62.2,0,.25.16.14.3.3.05.57-.5.75-.14l0-.21c.1,0,.23.06.4.13s.67-.47.74-.18c.06-.05.59-.22.32-.35s-.32.27-.58.06c.29.14.45-.19.61-.32l.07.1c.09-.08.36-.14.38-.28-.06.09,0,.15.11.15l.05-.2c.41-.23.22.26.62,0l-.27.27c.06-.05.26,0,.44-.12,0-.18.08-.43.09-.57.2-.17.18.12.34-.14l-.22.31c0,.07.31.15.63,0s.37-.49,0-.42c.16-.06.4-.12.34.06.3-.25-.13-.13.11-.38.17,0,.61-.07.92-.07l-.16.41.21-.12c-.15.34.22.06.2.34a1,1,0,0,0,.4-.36c-.6,0,.15-.73-.17-.92.44-.45.82.39,1-.43-.14,0-.06-.38-.31-.06.34-.21,0-.42.41-.63-.15.34.5,0,.27.48-.05-.11-.26.14-.29.21.2,0,.19.28.5,0s.41-.45.25-.54-.26.28-.28,0c.31-.39.58-.25.48-.63-.21.24-.4.15-.49.06l.2-.3,0,.13c.46-.36-.06-.28.33-.68l.36,0c.08.24-.59.57-.27.72.25-.28.19-.49.48-.69,0,.08-.09.17-.11.24.09-.09.54.09.67-.49.08-.29-.06-.13-.16-.22.3-.52.29-.74.49-1.07.17.2.4-.55.38-.06a1.48,1.48,0,0,0-.63,1.12c.38,0-.31.36-.16.64.32-.37.54-.18.74-.13a.82.82,0,0,0,.12-.36c-.12-.15-.22,0-.38-.1a2.3,2.3,0,0,0,.57-1.27c.17-.11.3,0,.2.23a19.11,19.11,0,0,1,1-1.74c-.44.24.23-.67-.11-.52s-.51.44-.56.21.11.06.21,0c0-.31.41-.26.29-.6-.16.58.28.26.45.46.07-.45.14.09.33-.31a14.92,14.92,0,0,1,.3-1.46,5.33,5.33,0,0,0,.7-2c.2-.23.39,0,.54-.25s-.35.18-.08-.31l0,.07c0-.17.46-.91.14-1.17l.23.24c.05-.09,0-.2,0-.29s.21-.07.22.11c.29-.27.17-.69.25-1l-.22.18a12.42,12.42,0,0,1,.4-1.61l.16.06v-.37c.14.12.31-.17.23-.39l.17,1c-.16.23-.12-.33-.32-.21a.75.75,0,0,0-.14.78.63.63,0,0,0,0-.4c.24,0,.15.3.26.5,0-.11.13-.25.06-.29a1.76,1.76,0,0,1-.08.83c0-.27-.17.09-.21,0,.19.08.17.44,0,.87-.32.25-.1.87-.31,1.37a1.88,1.88,0,0,1-.21-.91c-.19.29-.1.36-.29.65a1.14,1.14,0,0,1,.25.82l-.15,0c-.05.4.16.47,0,.94l-.95,2.23-.15,0c.14.46-.41,1.17-.49,1.68-.55.67-.76,1.71-1.25,1.92l-.55,1c-.2.31-.42.59-.63.88a9.92,9.92,0,0,1-1.53,1.64l0-.35c-.09.32-.22,0-.39.25.36-.07-.14.41-.22.64a3.42,3.42,0,0,0-.93.68,9.56,9.56,0,0,0-.82.75l-.1-.12c-.39.61-1.22.69-1.95,1a.68.68,0,0,0-.5,0,3.83,3.83,0,0,1-1.08.77,5.44,5.44,0,0,1-1.64.29,7.82,7.82,0,0,1-1.23.45c-.42.09-.85.17-1.28.24-.87.16-1.72.2-2.59.38l-.14-.17a9.11,9.11,0,0,1-2.69.33c-.92,0-1.8,0-2.53.07l.14-.3c-.45-.1-1,.07-.93.28-.45-.09-1.15.11-1.42-.17-.46-.09-.58.1-1,.12a15.19,15.19,0,0,0-2.16-.26l.22,0c.11-.05.13-.18-.09-.23s-1.19-.24-.92.17c-.9-.32-2.22-.24-3.07-.69.05.12-.18.07-.29.11a16.57,16.57,0,0,0-2.31-.7c-.11-.09.26-.08-.06-.22s0,.12-.3.09c-1.38-.27-2.52-1.25-3.64-1.81a13.05,13.05,0,0,1-5.11-4.56l.07,0a2.61,2.61,0,0,1-.66-1,1.73,1.73,0,0,0-.56-1c0-.19-.23-.64,0-.57a1.6,1.6,0,0,1-.25-.47c0-.19-.07-.41-.11-.63a3.84,3.84,0,0,0-.36-1.31.46.46,0,0,0,.09.2c0-.43-.06-.83-.11-1.23a5.88,5.88,0,0,1-.05-1.27c0,.09.07.25.15.28.1-.34-.34-.82,0-1,0-.2-.17-.15-.17,0a20.9,20.9,0,0,1,1.35-5.94c.82-1.21.55.17.84-.95.1,0-.09-.12,0-.1.13-.43.66-.4.66-.75-.25,0,0-.23-.1-.31.58-.66.83-.69,1.1-1.34l.06.11c.19-.85.91-1.46,1.07-2.21a35.27,35.27,0,0,1,9.91-8.28,39.44,39.44,0,0,1,5.87-2.52,21.74,21.74,0,0,1,6.41-1.16A5.1,5.1,0,0,0,95,32s-.12.05,0,.1c.07-.24.81,0,.94-.19,1.72.24,3,.5,4.63.82-.25,0-.42.14-.12.19l.34-.09,0,.08c.21,0,.46-.06.26-.18a27.07,27.07,0,0,1,5.88,1.68,18.7,18.7,0,0,1,5.49,3.28,13,13,0,0,1,2.24,3.05,12.91,12.91,0,0,1,.45,4.81c0,.77-.18,1.49-.24,2.26s-.25,1.49-.34,2.28A2.38,2.38,0,0,1,114.07,48.32Z"/><path class="cls-2" d="M113.69,50.88c-.14.07-.29.4-.39.09C113.42,51,113.59,50.81,113.69,50.88Z"/><path class="cls-2" d="M109.72,59.22s-.1.09-.13.11,0-.24.08-.29C109.63,59.15,109.69,59.16,109.72,59.22Z"/><path class="cls-2" d="M108.62,61.22c-.08-.09.08-.55.21-.8Z"/><path class="cls-2" d="M107.13,62.71c-.18.09-.18,0-.05-.17C107.13,62.56,107.11,62.64,107.13,62.71Z"/><path class="cls-2" d="M107.24,63a.5.5,0,0,1-.31.18C107,63.21,107.13,62.82,107.24,63Z"/><path class="cls-2" d="M103.9,65.8c-.07.08-.22.26-.37.21C103.67,66,103.87,65.62,103.9,65.8Z"/><path class="cls-2" d="M102.24,67c-.06,0-.1,0-.15.07s-.05-.12,0-.17Z"/><polygon class="cls-2" points="67.93 59.23 68.03 59.43 67.92 59.43 67.93 59.23"/><path class="cls-2" d="M73.19,44c.11-.22.19,0,.22-.06C73.27,44.13,73.37,43.82,73.19,44Z"/><polygon class="cls-2" points="80.22 37.83 80.16 37.87 80.07 37.66 80.22 37.83"/><path class="cls-4" d="M45.67,45.91S59.32,31.33,70.8,43.11c0,0-11.11,11.54-2,23C68.84,66.07,55.21,67.37,45.67,45.91Z"/><path class="cls-4" d="M68.66,59.61c-.6-3.61,5-7.78,8.2-9.61,13.52-7.8,35.3-8.42,34.78,2.41C111,66.15,94.4,69.2,92.22,69,90.3,68.79,70.53,70.85,68.66,59.61Z"/></svg>