<svg id="Layer_1" data-name="Layer 1" xmlns="http://www.w3.org/2000/svg" viewBox="0 0 792 652.66"><defs><style>.cls-1{fill:#ffd33a;}.cls-2{fill:#9f9994;}.cls-3{fill:#ffd3c4;}.cls-4{fill:#ffe912;}.cls-5{font-size:106.56px;fill:#6acfee;font-family:DKCoolCrayon, DK Cool Crayon;}</style></defs><title>Artboard 29</title><path class="cls-1" d="M139.8,428.3c.1-.51-1.15-.33-1.38-.4C138.72,428.76,140.13,428.28,139.8,428.3Z"/><polygon class="cls-1" points="143.01 436.44 142.49 436.34 143.84 437.43 143.01 436.44"/><path class="cls-1" d="M143.9,444c2-1-.77-2.68-.14-4.14l.46-.28-1.78-.42C142.86,440.83,144.32,442.79,143.9,444Z"/><path class="cls-1" d="M140.1,449c.76-.43.89.76.05-1a1.88,1.88,0,0,1-.17.22A3.64,3.64,0,0,1,140.1,449Z"/><path class="cls-1" d="M140,448.16c-.22-.82-.58.68,0,0Z"/><path class="cls-1" d="M141.28,451.88c-.33-.3-.67-.61-1-.92-.44.34-.3,1.34-.74,1.06C140.23,453.05,140.65,452.7,141.28,451.88Z"/><path class="cls-1" d="M143,452.52l-.44-.48C142.43,452.19,142.39,452.36,143,452.52Z"/><path class="cls-1" d="M141.67,451l.94,1c.3-.24,1-.41-.37-.48C142.88,451.51,142.23,451.43,141.67,451Z"/><path class="cls-1" d="M141.84,450.28c.33-.71.45-1.53,1.4-.62C142.53,447.69,141.11,448.28,141.84,450.28Z"/><path class="cls-1" d="M146.15,444.06l.5-.87-.81-.56C146.24,442.91,145.48,444.21,146.15,444.06Z"/><path class="cls-1" d="M142.08,458.91c.46-.07,1-.73,1.57-1l-.75-.63C142.73,457.8,142.71,458.65,142.08,458.91Z"/><path class="cls-1" d="M143.65,457.93l1.12.93C144.53,457.8,144.11,457.72,143.65,457.93Z"/><polygon class="cls-1" points="145.4 452.13 143.33 450.62 145.51 452.49 145.4 452.13"/><path class="cls-1" d="M143.6,463.47l-1.23-.31c.64.22,1.28.43,1.94.63Z"/><path class="cls-1" d="M145,466.38c-1-.15-1.06,1.26-1.79.94a4.8,4.8,0,0,0,2.39,1.49A2.19,2.19,0,0,1,145,466.38Z"/><path class="cls-1" d="M146.94,469.42a7.89,7.89,0,0,0-1.37-.61A3.18,3.18,0,0,0,146.94,469.42Z"/><path class="cls-1" d="M145.23,460.9a1.91,1.91,0,0,0-.89,1.36l1-.9Z"/><path class="cls-1" d="M145.41,461.33l0,0,.29,1Z"/><path class="cls-1" d="M145.2,460.79l0,.12C145.34,460.82,145.37,460.78,145.2,460.79Z"/><path class="cls-1" d="M145.09,455.44c.87.49,2,1.63,2.68,0C146.79,455.2,146.41,456.16,145.09,455.44Z"/><path class="cls-1" d="M146.51,459.7c-.06-.43-.09-.87-.13-1.3-.31.13-.71.5-1.16.28C145.65,459,146.07,459.37,146.51,459.7Z"/><polygon class="cls-1" points="147.1 460.15 146.51 459.7 146.57 460.18 147.1 460.15"/><path class="cls-1" d="M147.08,466.84a3,3,0,0,1,1.41,1.44,7.72,7.72,0,0,0-.58-2.21C147.51,466.13,146.71,466.12,147.08,466.84Z"/><path class="cls-1" d="M146.32,464.13l.11.09C146.51,464.1,146.52,464,146.32,464.13Z"/><path class="cls-1" d="M151.76,474.4l.14-.22-.2.09Z"/><path class="cls-1" d="M148.08,465.85c0-.61-.43-.79-.91-.93a5.72,5.72,0,0,1,.74,1.14C148.1,466,148.21,466,148.08,465.85Z"/><path class="cls-1" d="M148.35,470.92a6.53,6.53,0,0,0,.19-1.21C148.3,470.15,148,471,148.35,470.92Z"/><path class="cls-1" d="M146.18,464.53l-.08-.06C145.91,464.74,146,464.67,146.18,464.53Z"/><path class="cls-1" d="M146.18,464.53a3.38,3.38,0,0,0,1,.39,3.29,3.29,0,0,0-.74-.7A1.63,1.63,0,0,1,146.18,464.53Z"/><path class="cls-1" d="M159.8,471.75c-1.05.59-2.72,0-2.21-1.66-1.35-.53-4.39,2-5.69,4.1.46-.23.88-.47,2.13.26.31-.74-.13-3.18,1.33-2.82,1.36,1.07.3,1.37.22,2.38.89-1.34,2.94.56,4.55-1l-1.38-.71C159,472.12,159.74,472.23,159.8,471.75Z"/><path class="cls-1" d="M150.77,472l-.38-.4a5.19,5.19,0,0,1-.5,2.43c1,.5,1.44.43,1.82.28-.42-.79-.81-1.58-1.17-2.39Z"/><path class="cls-1" d="M149.28,469.44c1.35-.19,2.38.66,3.29-.66-.74-1.3-1.43-.46-2.34-1,1.38,2.08-1-.33-.83,1.61a4.61,4.61,0,0,1-.91-1.08,7.78,7.78,0,0,1,0,1.44l0-.09h0c.1-.17.17-.25.14-.09,0,0,0,0,0,0a2.19,2.19,0,0,1,.49-.11c.08.78-.25.25-.49.11l-.19.06v0q.87,1,1.8,1.94A6.63,6.63,0,0,0,149.28,469.44Z"/><path class="cls-1" d="M150.8,455.81a.55.55,0,0,1-.26.16C150.73,456.07,150.85,456.09,150.8,455.81Z"/><path class="cls-1" d="M150.34,457c-.22-.1-.76-.08-.8-.65.22-.57.59-.18,1-.34-.43-.21-1.24-.84-1.52.35l.22.11c-.14,1-1.28,2.73-1.5,2.63A12.17,12.17,0,0,0,150.34,457Z"/><path class="cls-1" d="M149.87,463c.44.54.89,1.08,1.36,1.6l.62-1.36-.6.31C151.08,462.41,150.41,462.95,149.87,463Z"/><path class="cls-1" d="M151.33,474.95l-1.32.46q1.15.05,2.29.07Z"/><polygon class="cls-1" points="152.98 477.24 151.93 477.81 152.94 478.04 152.98 477.24"/><path class="cls-1" d="M213.87,403.06l-.48-.39A1.53,1.53,0,0,0,213.87,403.06Z"/><path class="cls-1" d="M214.77,406.67l.59-.05C215,406.53,214.76,406.52,214.77,406.67Z"/><path class="cls-1" d="M215.54,481.28c1.46,0,3.5.11,2.35-.59l-1.21-.54A1.65,1.65,0,0,1,215.54,481.28Z"/><path class="cls-1" d="M223.71,438l-.42.2,1.18.68Z"/><path class="cls-1" d="M218.41,436.86l.92-.94A3.53,3.53,0,0,0,218.41,436.86Z"/><path class="cls-1" d="M204.24,386.06l-1.39.34C203.35,387.08,203.68,386.39,204.24,386.06Z"/><path class="cls-1" d="M176.59,495.58a4.78,4.78,0,0,0,2,1.34C177.65,496,177.18,494.61,176.59,495.58Z"/><path class="cls-1" d="M227.56,400.73a.9.9,0,0,0-.9-.28C227,400.76,227.28,400.9,227.56,400.73Z"/><path class="cls-1" d="M181.22,497.4c-.14-.15-.29-.23-.44-.36a4.7,4.7,0,0,1-2.2-.12C179.27,497.62,180.18,498.21,181.22,497.4Z"/><path class="cls-1" d="M158.88,400.56a1.62,1.62,0,0,1-.2.1C158.84,400.73,158.88,400.67,158.88,400.56Z"/><path class="cls-1" d="M141.65,420.7a4.57,4.57,0,0,1,0-1A1.43,1.43,0,0,0,141.65,420.7Z"/><path class="cls-1" d="M159.9,486.58c-.5-.39-.17,0,0,0Z"/><path class="cls-1" d="M161.61,480.93a1,1,0,0,0,.62-.26A1.25,1.25,0,0,1,161.61,480.93Z"/><path class="cls-1" d="M187.55,489.57h0C187.43,489.33,187.46,489.37,187.55,489.57Z"/><path class="cls-1" d="M159.66,485.49a3,3,0,0,0,.28.84A3.37,3.37,0,0,0,159.66,485.49Z"/><path class="cls-1" d="M159.31,486c-.11-.2-.21-.34-.29-.48C158.8,485.63,158.76,485.77,159.31,486Z"/><path class="cls-1" d="M160.59,487.14a2.53,2.53,0,0,1-.64-.8c0,.15,0,.24,0,.25Z"/><path class="cls-1" d="M180.23,370.69a1.16,1.16,0,0,1-.13-.09C179.83,371.24,180,371.1,180.23,370.69Z"/><path class="cls-1" d="M211.35,462.4s0,.05,0,.08l.07,0Z"/><path class="cls-1" d="M211.17,460.44c1.19,1.31.83,1.64.29,2l3.65,1Q213.15,461.91,211.17,460.44Z"/><path class="cls-1" d="M210.45,395l-.59,1.54c-2.34-.52-2.11-1.65-3.19,0,1.87-.76,2.47.2,3,1.21s1,2,2.95,1.41l-.54,1c0-.23-.28-.18-.31-.4-1.33,2.07,3.17.1,3.25,2.24-.07.77-.51,1.41-1.11,1.09l1.39,1.23a.36.36,0,0,1-.71.09q.49,1.1.93,2.23h-.12a12.17,12.17,0,0,1,2.36,1c-.44.74-.49-.21-1,.06l1.25,1.11a1.4,1.4,0,0,1-2.2-1c-1.83,1.06-1.55,1.26-1,1.6s1.37.83.43,2.36c-.24-.38-.48-.75-.74-1.12-2.1,1.22-1.14,2-2.31,3.57.69-.4,3.09-3.35,4.34-2.12-.24.46-.27,1,.66,1.65-1.43.23-1,.93-.75,1.86l-1.91.2c.7.92,1.65.72,2.57,1.22-.06,1.17-1.51,1.56-2.73,1.95-.12,1.82,2.25-1.49,2.82.63-.61,1.59.27,2.57,1.49,4.39-.61,1.11-1.18-.14-1.71.27l1.57.9c0,.24-.5.17-.74.14.61.79,1.92,0,2.46,1.3,1.06.16.31.85-.43,1.67s-1.47,1.76-.28,2.59c-.55.38-1.17-.22-1.92-.13a13.89,13.89,0,0,0,3.08,3.82l-1.38,1.44c1.52-1,3.13.56,4.38,2a13.69,13.69,0,0,0,1.69-.87c.29.74.53,1.49.8,2.25-.34.22-1-.07-1.73-.5.14.16.28.32.41.44-.79.68-1.84.14-2.85-.5l1.26-.62a7.5,7.5,0,0,0-3.46-1.23,1.31,1.31,0,0,1,.44.71,1.31,1.31,0,0,0-.77-.23c-.21,0,.19.3.64.68l-2.18.22.83.21c-.53.82-1.09,1.62-1.66,2.41.94,1.07,2.12,2.14,3.09,3.37a7.46,7.46,0,0,1,1.84,4.23c-1.37-1.09-2.47-.71-4.28-1.15,2.1-.39-.33-2.43.31-3.86-.34.76-1.18.42-1.45.17.44,1,.86,2,1.24,3-1.48-.37-1.24.33-2,.88,3.06.14,1.47,2.44,2.08,3.76-1-.2-1.91-.71-1.36-2-2.53.87,2.92,2.78.66,3.72.07-.33.27-.46-.19-.73.67,1-.6,2.64-1.3,1.94l.08-.32a10.7,10.7,0,0,0-.71,1.85,10.57,10.57,0,0,0-.48,2.19c-.17,1.46,0,2.86,1.14,3.52-.31-.11-2.73-1.46-3.16-1.77a87.75,87.75,0,0,1,6.16,7.23c-1.82-1.26-7.09-2.37-7.42-4.51a1.68,1.68,0,0,0-.88,2c.43-.16,3.22.63,3.18,1.17-2.78.09-1.61.25-4.19.67.65-.24,3.41,2,2.85,2.66-.38-.37-3-1.65-3.12-2.08.63,1.14,1.24,2.32,1.82,3.52-.24-.78-2.38-1.58-3.43-1.73.66.18-1,1.42-1,2,.38-.08.76-.16,1.13-.25-1.7,1.54,2.53,4.66.82,6.52-.35-.7-2.88-3.24-3.93-2.66a36.83,36.83,0,0,1,2.61,4.55c.91,2,1.56,4.2,1.09,5.52l-1-.41c-.2.69-.4,1.4-.66,2.08-.36-1.36-.91-3.63-1.49-5.74l-1.6-5.44c-1.12.09-1-.6-1.77.31-.95-.36-.56-1.42-.38-1.7-.77.49-1.5,1-2.27,1.43a2.22,2.22,0,0,1,.63,2.12,2.11,2.11,0,0,0,.34,2,32.67,32.67,0,0,0,.84-3.55,6.07,6.07,0,0,1,1.67,3.34,3,3,0,0,1-1,3.25c-.91-.29-1.9-3.09-2.37-3.57.27.73-.7,2.17-1.13,1.88q0-.69,0-1.36c-.65,0-.59.82-.71,1.49s-.35,1.31-1.39.78c-.48.11-2.33-1.69-1.84-.6,1.59,1.75,5.24,7.87,5.44,9.73a14.75,14.75,0,0,1-2.14-.41,7.1,7.1,0,0,1-2.62-1.12c-.74-.69-.77-1.82-.85-2.91a4.44,4.44,0,0,0-.75-2.74,2.88,2.88,0,0,1-.06,1.56c-.61-.28-.4-1.67-1.26-1.09.46,2-2.05.41,0,1.78a1,1,0,0,1-1.05.32,2,2,0,0,0-1.27-.1,4.44,4.44,0,0,1-.07,2.89,4.68,4.68,0,0,1-1.58,2.47,3.47,3.47,0,0,0-.46-1.48,11,11,0,0,1-1.66-.19c-.5-.12-1-.28-1.39-.43s-.87-.3-1.32-.46a14,14,0,0,0-1.46-.36c-.12-.53-1-1.32-.38-2.09-.35.29-.79.94-1.42.8-.71-2,1.42.1,1-2.19-.33,1.11-1.94,1.21-3.06,1.53-.36,1.86,2,1,3,.49a6,6,0,0,1-2,3.29,6.63,6.63,0,0,1-1.8,1.07,7.15,7.15,0,0,1-2.14.42c-2.25-.28-.19-1.87-.69-1.69a3.71,3.71,0,0,0-2.21-.56,7.59,7.59,0,0,0-1.85.52c-1.11.38-2.22.66-3.09-1.1-.14-2.09,1.84-2.63,2.27-3.75a2.31,2.31,0,0,1,1.46,1.33c.29.56.5,1.18,1,1.42-.28-.43-.51-.91-.76-1.36a2.39,2.39,0,0,1,1.2,0,1.2,1.2,0,0,1,.89.64c-.11-.86-1.37-1.66-2.74-2.7a15.07,15.07,0,0,1-2-1.72,5.84,5.84,0,0,1-1.37-2c-.73.09-1.72-.12-1.89.63.26.16.54.3.8.44-.27,1.53-2.5.13-2.07,1.36-1.51-.21-3.61-.29-4.24-2.17l1.18-1.44c-.39.37-.07,1.59.68,1.59-.55,0-.53-.93-.66-1.71s-.34-1.46-1.54-1l-.22,1.77c-.76-.21-1.77-.33-2.68-.62a2.67,2.67,0,0,1-1.89-1.62c-1,1.66.38.18-.64,2.4.77-1.21,1.34-.3,2,.47s1.19,1.5,1.75,0a2.6,2.6,0,0,0-.21,2.41,4.05,4.05,0,0,1,.3,2.5c.41-.45.44-1.21,1.24,0a2.61,2.61,0,0,1,.61-.14.78.78,0,0,1,0,.1v-.11c.11,0,.13,0,0,0a2,2,0,0,1,.15-1.17,3,3,0,0,1,2.19.4,5.22,5.22,0,0,0,1.88.68c.41.77-.72.29-.82,1.07.52,0,1,0,1.56-.07-.81,1.08.35,3.18-1.75,2.48l1.42,1.23c.45,1.26,1.56,2.46,2.72,2.49.63.76,2.74-.08,1.51.43,1,.24,2,.51,3.08.69l-.12.32a7.56,7.56,0,0,0,2.2.71l2.4.33a8.47,8.47,0,0,1,2.38.58,6.6,6.6,0,0,1,2.34,1.52,8,8,0,0,1,3.91,0l.31,1.18a8.76,8.76,0,0,1,2.7.24c1,.17,1.83.11,2.06-.51a2.5,2.5,0,0,0,1.95,1.18,6.71,6.71,0,0,0,2.59-.39c.88-.33,1.76-.72,2.56-1.1a7.62,7.62,0,0,1,2.14-.8l-.49-1.44a8.6,8.6,0,0,0,2.12-1.2,20.13,20.13,0,0,0,2-1.9l-.78-1.11c.41-.88,1.37-1.2,2.52-1.53a8.39,8.39,0,0,0,3.35-1.57c.2.5-.39.81-.93.85a2.91,2.91,0,0,0,2.41-.72,6.49,6.49,0,0,0,1.28-2.07c.65-1.55,1.09-3.08,2.76-3.35a1.19,1.19,0,0,1,1.05-1.2.26.26,0,0,0,0,.17,1.15,1.15,0,0,0,.18-.2,11.46,11.46,0,0,0,1.13-.26,3.25,3.25,0,0,0-1,.15,5.9,5.9,0,0,0,.83-1.9l1.34.62c0-.06.05-.1.07-.17.86-.29-.21-.88-1.3-1.22a3.55,3.55,0,0,0-.14-1.29c1.11.44,1.25-.06,1.38-.58s.28-1,1.54-.7c-.71-1.06,1.15-3.61-.89-5.18.3.14.54,0,.37.38.62-.54,1.25-1.09.95-2l1.79.56c-.47-.89-1-1.77-1.45-2.64,1.45-.42,2.25-.56,3.06,1a8.78,8.78,0,0,1-.42-2.65,4.91,4.91,0,0,0-.6-2.33l1.06.55c.24-.72-.8-2.4.28-2.46,1.33-.38,2.15-2.32,2.91-4.61.39-1.14.74-2.38,1.23-3.55a12.32,12.32,0,0,1,1.75-3.25c-3.59.08,2-1.65-.67-2.37.86-.08,1.44-.6,2,.24-.4-2.33,1.91-3.11-.15-5,.86-.13,1.13.65,1.65.5-.15-.21-.61-.81-.09-1s.64.42.95.83c.2-2.32-2.34-2.85-4.69-3.29,1.25-1,1.16-1.57-.33-2.52.81-.31,1.68-.9,1.84.51.2-.75,1.52-4.68-.43-4.86.5-.22.19-1.07,0-1.28a13.31,13.31,0,0,0,.18-3.58l-.32.47c-2.29-.68-.51-1.4-.81-2.76l.24,0c1.6-3.18-.84-1.3.93-4.49l-1.43.26c-1.54-.05-1.14-.74-.52-1.65s1.48-2.06.78-2.9l-.75.72c-1.17-.83,3.91-3.19,4.12-4.29.24-.26.48.29.72.57,1.42-2.92-1.92-.09-2.63-2,.95-.52,2.63.08,2.61-1.29.35-.4-.64-1.24-1.51-2.22s-1.68-2.08-.91-3.18c-.68.57-1.36,1.11-2.13.35-.57-1.25,2-4.42-.77-5a1,1,0,0,1,.52-.41c-.88-.87-2.05-3-3.5-3.2,2.18-1.25,1.07-2.67-.11-3.86s-2.35-2.19-.26-3.09c-.53-1-1-2-1.63-2.94l.46-.13c-.66-2.08-2.06-2.23-3.36-2.35,0-.58.58-.48.81-.56-.74-3.17-1.16-3.42-4.48-4.29l1.06-1.07c-.58,0-.72-1.31-1.26-2.76a5.53,5.53,0,0,0-3.16-3.67,1.09,1.09,0,0,1,.73-.2,4.7,4.7,0,0,1-2.18-2c-.6-.84-1.07-1.87-1.67-2.7-1.12-1.71-2.57-2.81-4.61-1-.93-.06-1.83-.12-2.73-.13,1.19,1,.76,1.41.15,1.79s-1.41.71-1.16,1.4a2,2,0,0,1-1.07-1.46c-.13-.62,0-1.17.72-1l.06.34c.92-1.1.23-1.78-.62-2.37s-1.84-1-1.44-1.89a56.63,56.63,0,0,0-9.08-2.92,23.33,23.33,0,0,0-9.53-.17q.6,1,1.15,2a17.4,17.4,0,0,0-2,.36c-.65-.34-1.2-1.44.31-1.78-.54-.49-1.12-.06-1.5.55a3,3,0,0,0-.51,1.64c-1.49.07-1.48-.61-1.14-1.31s1-1.39.54-1.25l-1.15.6.36.14c-.65,1.2-.37,2.08-2,2.72-1.2.07-1.13-1-1.56-.85-.07-.14-.24-.13-.64.27-.82.36-1.64.74-2.41,1.18q.91.45,1.78.93c-.52,1.33-2,1.18,0,2.23a3,3,0,0,0-2.6,0,9.74,9.74,0,0,0-2.75,1.72c-.87.71-1.61,1.52-2.25,2.12s-1.11,1.06-1.46,1.08c-.12,2-1.09,3-2.32,4.37.57-.13,2.24.89,1.13,1.91-2.87-2.87-3.07,1.2-6.14.71,1.13,0,.58,1,.23,2s-.55,2,1.07,1.91c-.94.94-1.33-.7-2.66-.32-.08,1.75-1.1,3.12-2.22,4.59a13.64,13.64,0,0,0-2.81,4.91c.47.24,1.46,0,1.89,1-1.08.29-2.11.62-3.17,1,0,.81,2.62,1.65.46,2.36.48,0,1.2-.1,1.21.42-2.38,3.09-2.86,6.94-3.33,10.65s-1,7.37-3.74,10.92c1.1-.93,1.15-.24,1.12.53.28-.48,1.3.12,2,.07-.75,1-1.48,2-2.18,3,1,.33,1,1.16,1,2s0,1.57,1,1.74l-.33-1c2.21,1.31,5-1.65,7.9-1.32-1.24-.72-.26-1.58.6-2.51s1.62-1.93-.08-3.2c.64-.42.88.5,1.57.31-1.17-.66-1.34-1.37-.66-2.53l.29.18c.17-3.47,1.6-4.77,3.19-8.29l-1.44,0c.36-.77.85-.83,1.29-1.12-1.88-1.43-.66,2.22-2.77.86,1.53-.23,1.89-1.64,2.3-3s.92-2.63,2.61-2.48c.4-1.18-1.68-.14-1.28-1.34l.95,0-1-.67c.44-.73,1.64-.74,2.36-.52-.15.15,0,.59,0,.81,1.33-.63.66-2.88,1.13-3.09-.31.3-.64.59-.94.9a12.57,12.57,0,0,1,.67-2.57c.34-.84.71-1.69,1.09-2.53a13.57,13.57,0,0,0,1.52-5.19l-.71-.13c.11-1.4.53-1.75,1.06-2a3.32,3.32,0,0,0,1.66-1.84l.07.17a2.19,2.19,0,0,1,.46-2.17c.2,1,2,0,2.12,1.18.27-1.43.32-1.83.14-2.26a8.86,8.86,0,0,1-.84-2.38l1.1.46c-.3-1.12-.66-1.55.15-2.74-.16,1.45,1.8.64,1.78,2.39a2.24,2.24,0,0,0,1.78-.7,3.89,3.89,0,0,0,.69-1.31c.31-.9.7-1.53,2.19-.43-.74-3.26-2.9,0-2.71-.94a1.17,1.17,0,0,1-.57-1.44,1.83,1.83,0,0,1,1-1.34c.41-.24,1.3.38,2.26.91s2,1.06,2.88.54c-.18.08-.09.3-.27.38.51.16.71-.22,1-.57s.59-.68,1.25-.23c-.18-1.91,1.12-.31.52-2.6-.56.4-1.11.78-1.63,1.2.38-.5.59-1.46,1-2.27a1.66,1.66,0,0,1,2.23-.91,5.48,5.48,0,0,1-.71,1.69c.68.51.89-.71,1.59-.11.15,1.2-.36,1.38-1,1.64a4.6,4.6,0,0,0-1,.44,1.65,1.65,0,0,0-.63,1.07c.42.4.72-.22,1-.53s.51-.43.62.88c-.1-1.67.42-1.74,1-1.63s1.16.26,1.67-1l.09,1.42c.16-.23.51-1,.9-1-.19.61-.35,1.27-.49,1.9.39-.87.93-.5,1.38-.1s.87,1,1.33.55c-.92,0-1-.45-1-1s.22-1.27-.24-1.77c.66-.5,1.12-.45,1.42-.2a2.64,2.64,0,0,1,.61,1.34c.31,1.16.51,2.34,1.8,2.29-.36.14-1.13-1.11-.48-1.64A3,3,0,0,1,190,375.1c.85.09.91-.28.85-.75s-.26-1.06.25-1.37c.11,1.81,1.09-.4,2.17-.6l-.52,1.35c.84.83,1.27.24,1.7-.38s.85-1.24,1.56-.19c-.59.45-1.15.88-1.71,1.37.39,0,.78,0,1.18,0l-1,1.35c1.57-.57,1.76,0,2.44.95.35-1,1.59-2.08,2.54-1.46.08,1.14-1.14.82.18,1.62-.84.48-1.79,1.16-1.51-.27-.33.34-.8.55-1.12.89a1.21,1.21,0,0,0,.71,1.12c.37.22.81.33,1,.48a.87.87,0,0,1-.22-.61,23.4,23.4,0,0,1,3-.08c-.11.64-.62.76-1.11.89.43.18,1.12-.11,1.67.3-1,.72-1.78,1.56-2.79,1.39.78.1,1.54.32,2.34.5-.26.44-.34,1.73-.83,1.82.1.65,1,.74,1.86,1s1.81.57,1.89,1.48a1.08,1.08,0,0,1,.84.11c.65,1.4.09,3.22,2.38,3.94-.44.64-.9,1.28-1.36,1.91,1.09,1,1.67-2.5,3.5-.78,1.38,1.22-1.32,1.38-1.58,2.17a7.68,7.68,0,0,1,2.34.7,1.52,1.52,0,0,1,.64,2.14C210.67,395.83,210.79,395.33,210.45,395Zm6.11,17c-.36-.3-1.4-.82-.61-1.23C217.65,410.84,216.92,411.32,216.56,412Zm4.05,28.48c-.43-.34-.14-.72.45-1.14A1.14,1.14,0,0,1,220.61,440.48ZM166,490.14l.08,0C166.56,491.18,166.39,490.79,166,490.14Zm-1.32-1.78a.48.48,0,0,0-.46.4c.35-.2.71.1,1.09.49C165.38,488.87,165.32,488.51,164.65,488.37Zm6.66-124.59.53.14C171.22,364.73,171.27,364.27,171.31,363.78Z"/><path class="cls-1" d="M219,437a2.64,2.64,0,0,1,.8-.08A.57.57,0,0,0,219,437Z"/><path class="cls-1" d="M204.5,386s0,0,0-.05a1.21,1.21,0,0,0-.24.11Z"/><path class="cls-1" d="M192.45,482.71a1.72,1.72,0,0,1,.79.5A.67.67,0,0,0,192.45,482.71Z"/><path class="cls-1" d="M155.09,482.2l1.13.81a1.44,1.44,0,0,1-.39-1.24C155.59,482,155.37,482.52,155.09,482.2Z"/><path class="cls-1" d="M156.67,468.37c-.24-.06-.18-.3-.42-.36l-.57.36C156.05,469,156.76,469.15,156.67,468.37Z"/><path class="cls-1" d="M158.13,478.3c.9-.81.13-1.17-.55-1.73a.4.4,0,0,1,.09.12C156.14,477.48,157.13,477.92,158.13,478.3Z"/><path class="cls-1" d="M157.43,476.44a1.82,1.82,0,0,1-.49-.62C156.33,476.12,157,476.16,157.43,476.44Z"/><path class="cls-1" d="M162.09,487.26c-.12-.53-1.26,1-1.11.42-.72.39.17.58.92.5S163.26,487.78,162.09,487.26Z"/><path class="cls-1" d="M160.93,475.35l-1,1.14,1.24-.37C161.06,475.87,161,475.61,160.93,475.35Z"/><path class="cls-1" d="M164.24,480.92l-.61-1.22a.52.52,0,0,1-.61.08C163.52,480.42,163.95,481.25,164.24,480.92Z"/><path class="cls-1" d="M163,479.78a1.32,1.32,0,0,0-.88-.63A2.83,2.83,0,0,0,163,479.78Z"/><path class="cls-1" d="M162.36,476.45v.49c.16.26.31.52.48.77C162.65,477.3,162.51,476.86,162.36,476.45Z"/><path class="cls-1" d="M175.7,489.22l1.52.1c.3-.44,0-.87-.51-.86C176.26,488.68,175.68,488.68,175.7,489.22Z"/><path class="cls-1" d="M173.83,483.71a2.65,2.65,0,0,1-.07,1.27l.94-1.61Z"/><path class="cls-1" d="M177.29,485c.33-.42,2.15-.79.72-1.19C177.72,484.22,176.43,484.08,177.29,485Z"/><polygon class="cls-1" points="196.14 486.72 195.84 486.88 197.13 489.65 196.14 486.72"/><path class="cls-1" d="M204,470.75c-1.43.63,1.28,1.42-.23,1.85.35.72,1.24-.36,1.51.3C205.25,471.75,205.85,471.64,204,470.75Z"/><path class="cls-1" d="M205.3,472.89a3.57,3.57,0,0,0,.08.64A1.54,1.54,0,0,0,205.3,472.89Z"/><polygon class="cls-1" points="139.8 424.76 139.15 425.89 140.19 425.18 139.8 424.76"/><path class="cls-1" d="M142,427l-2,.25,1.75.68C141.75,427.65,141.59,427.16,142,427Z"/><path class="cls-1" d="M213.12,415.27h.47c.48-.22.49-.45.5-.9Z"/><polygon class="cls-1" points="211.68 402.48 211.71 402.7 213.26 401.77 211.68 402.48"/><path class="cls-1" d="M205.68,393.72c.11.4.68.66.79,1.06C205.8,394.12,207.59,392.61,205.68,393.72Z"/><path class="cls-2" d="M159.61,563.73c-.09.13.32.23.39.27C160,563.73,159.5,563.69,159.61,563.73Z"/><polygon class="cls-2" points="159.6 561.02 159.75 561.12 159.48 560.62 159.6 561.02"/><path class="cls-2" d="M160.44,558.8c-.75,0-.19.85-.58,1.15h-.18l.47.38C160.25,559.83,160.12,559.07,160.44,558.8Z"/><path class="cls-2" d="M162.32,558.15c-.29,0-.13-.34-.18.25l.08,0A.94.94,0,0,1,162.32,558.15Z"/><path class="cls-2" d="M162.22,558.37c-.07.24.28-.07,0,0Z"/><path class="cls-2" d="M162.48,557.24l.12.39c.18,0,.31-.27.39-.12C163,557.14,162.8,557.15,162.48,557.24Z"/><path class="cls-2" d="M162.1,556.76l0,.2C162.21,557,162.25,556.92,162.1,556.76Z"/><path class="cls-2" d="M162.22,557.38l-.08-.42c-.12,0-.34-.07,0,.18C162,557,162.13,557.18,162.22,557.38Z"/><path class="cls-2" d="M162,557.53c-.21.12-.38.31-.5-.09C161.42,558.07,161.92,558.16,162,557.53Z"/><path class="cls-2" d="M159.79,558.43l-.28.16.15.28C159.58,558.73,160,558.49,159.79,558.43Z"/><path class="cls-2" d="M163.54,555.45a3.63,3.63,0,0,0-.61-.08l.08.29C163.15,555.57,163.32,555.39,163.54,555.45Z"/><path class="cls-2" d="M162.93,555.37l-.12-.43C162.67,555.23,162.77,555.33,162.93,555.37Z"/><polygon class="cls-2" points="161.38 556.43 161.68 557.18 161.41 556.32 161.38 556.43"/><polygon class="cls-2" points="164.04 554.15 164.3 554.47 163.93 553.94 164.04 554.15"/><path class="cls-2" d="M164.3,553.27c.22.24.53,0,.65.19a1.41,1.41,0,0,0-.26-.8C164.73,552.9,164.63,553.09,164.3,553.27Z"/><path class="cls-2" d="M164.49,552.24a2,2,0,0,0,.19.42A1,1,0,0,0,164.49,552.24Z"/><path class="cls-2" d="M163.1,554.38a.65.65,0,0,0,.51-.12l-.45,0Z"/><path class="cls-2" d="M163.14,554.25h0l.13-.28Z"/><path class="cls-2" d="M163.08,554.41v0S163,554.38,163.08,554.41Z"/><path class="cls-2" d="M162.07,555.68c-.15-.28-.23-.79-.73-.51C161.57,555.41,161.85,555.25,162.07,555.68Z"/><path class="cls-2" d="M162.52,554.39l-.23.33c.11,0,.29,0,.36.17Z"/><polygon class="cls-2" points="162.46 554.17 162.52 554.39 162.61 554.27 162.46 554.17"/><path class="cls-2" d="M163.89,552.72a.78.78,0,0,1,0-.6,1.86,1.86,0,0,0-.35.58C163.63,552.78,163.82,553,163.89,552.72Z"/><path class="cls-2" d="M163.49,553.45v0S163.42,553.43,163.49,553.45Z"/><path class="cls-2" d="M164.57,550.22h-.08l.07,0Z"/><path class="cls-2" d="M163.42,552.71c-.14.13-.07.26,0,.39a1.3,1.3,0,0,1,.07-.4C163.46,552.67,163.42,552.65,163.42,552.71Z"/><path class="cls-2" d="M164.5,551.64a1.82,1.82,0,0,0-.32.19C164.34,551.8,164.6,551.71,164.5,551.64Z"/><path class="cls-2" d="M163.61,553.4v0C163.72,553.41,163.68,553.4,163.61,553.4Z"/><path class="cls-2" d="M163.61,553.4a1.13,1.13,0,0,0-.17-.3.92.92,0,0,0,0,.31Z"/><path class="cls-2" d="M162.22,548.69c.36.17.55.7,0,.91.15.45,1.45.68,2.25.63-.16-.07-.31-.13-.39-.57-.25,0-.77.62-1,.19,0-.54.28-.34.56-.5-.54,0-.45-.85-1.17-1l.08.5C162.47,548.82,162.36,548.61,162.22,548.69Z"/><path class="cls-2" d="M164.2,550.89v.16a1.44,1.44,0,0,1,.69-.32.68.68,0,0,0-.33-.48l-.32.71Z"/><path class="cls-2" d="M163.95,551.72c-.36-.27-.4-.68-.92-.63-.13.44.22.43.3.75.16-.73.15.28.57-.13a1.24,1.24,0,0,1,0,.42,2.09,2.09,0,0,1,.32-.29h0c-.06,0-.1,0-.05,0s0,0,0,0l-.14-.09c.16-.17.12,0,.14.09l.06,0h0l0-.78A1.49,1.49,0,0,0,163.95,551.72Z"/><path class="cls-2" d="M160.62,554.47a.19.19,0,0,1,.1,0C160.68,554.41,160.66,554.39,160.62,554.47Z"/><path class="cls-2" d="M161,554.27c0,.07.18.17.08.32s-.19-.07-.33-.11c.07.14.16.46.47.22l0-.07a1.48,1.48,0,0,1,.92-.33A3.78,3.78,0,0,0,161,554.27Z"/><path class="cls-2" d="M162.36,552.94l0-.65-.46.17.22.06C161.93,552.81,162.21,552.83,162.36,552.94Z"/><polygon class="cls-2" points="164.8 550.23 165.2 550.47 164.72 549.91 164.8 550.23"/><polygon class="cls-2" points="165.03 549.46 165.39 549.62 165.24 549.34 165.03 549.46"/><path class="cls-2" d="M169.61,506.72l-.17-.13A.52.52,0,0,0,169.61,506.72Z"/><path class="cls-2" d="M170,508l.19,0C170.1,507.92,170,507.92,170,508Z"/><path class="cls-2" d="M171.9,530.9c.44-.12,1.08-.2.65-.32l-.43-.07A.42.42,0,0,1,171.9,530.9Z"/><path class="cls-2" d="M174.2,517.29l-.15,0,.33.31Z"/><path class="cls-2" d="M172.58,516.49l.38-.23A1.17,1.17,0,0,0,172.58,516.49Z"/><path class="cls-2" d="M166.75,500.1l-.49-.05C166.37,500.36,166.53,500.15,166.75,500.1Z"/><path class="cls-2" d="M167.76,541.67a1.24,1.24,0,0,0,.44-.44C167.88,541.4,167.45,541.47,167.76,541.67Z"/><path class="cls-2" d="M174.12,505.66a.31.31,0,0,0-.3-.06C173.93,505.68,174,505.72,174.12,505.66Z"/><path class="cls-2" d="M168.44,540.6l-.14.08a1,1,0,0,1-.09.54C168.45,541.1,168.64,540.92,168.44,540.6Z"/><path class="cls-2" d="M158.27,475.38a.54.54,0,0,1,0-.07C158.24,475.32,158.25,475.35,158.27,475.38Z"/><path class="cls-2" d="M159.82,466.74a1.29,1.29,0,0,1,.14.28C160,467,159.93,466.87,159.82,466.74Z"/><path class="cls-2" d="M166.34,546.49c0,.17,0,0,0,0Z"/><path class="cls-2" d="M164.44,546.67a.36.36,0,0,0-.17-.14A.45.45,0,0,1,164.44,546.67Z"/><path class="cls-2" d="M166.5,538.07h0C166.41,538.07,166.43,538.07,166.5,538.07Z"/><path class="cls-2" d="M166.06,546.66a.79.79,0,0,0,.2-.16A.84.84,0,0,0,166.06,546.66Z"/><path class="cls-2" d="M166.27,546.7l-.09.13C166.24,546.87,166.29,546.87,166.27,546.7Z"/><path class="cls-2" d="M166.4,546.25a.68.68,0,0,1-.14.24s.07,0,.08,0Z"/><path class="cls-2" d="M164.09,488.17l0,0C163.88,488,163.94,488.08,164.09,488.17Z"/><path class="cls-2" d="M169.23,525.16v0l0,0Z"/><path class="cls-2" d="M169.14,524.47c.41.43.3.55.12.7l1.24.25Z"/><path class="cls-2" d="M168.43,503.79l-.22.54c-.78-.27-.7-.7-1.08-.14,1.3-.4.7,1.53,2,1.13l-.17.36c0-.08-.09-.07-.11-.15-.43.74,1.06.06,1.12.79,0,.27-.14.5-.35.39l.5.41a.12.12,0,1,1-.24,0l.39.76h0a4.53,4.53,0,0,1,.82.27c-.11.27-.17-.05-.31.06l.47.33c-.27.3-.72,0-.78-.27-1.13.87.45.25,0,1.4l-.31-.36c-.63.53-.25.76-.53,1.39.2-.2.8-1.35,1.29-1,0,.17,0,.36.32.53-.45.17-.25.38-.11.68l-.61.19c.3.28.59.14.94.24.08.4-.36.65-.72.88.12.64.6-.69,1,0,0,.59.32.85.9,1.33-.08.43-.39.07-.52.26l.59.14c0,.08-.14.11-.22.12.28.19.62-.17.91.14.32-.07.18.14,0,.33s-.39.34-.09.47l.11.06c-.22.06-.4,0-.67,0a2.18,2.18,0,0,1,.38.35,6.64,6.64,0,0,1,.47.49,6.05,6.05,0,0,0-.57.32c.58-.19.95.47,1.23,1a5.76,5.76,0,0,0,.61-.12l.08.76c-.13,0-.31-.1-.52-.3l.1.17c-.31.15-.61-.1-.88-.39l.46-.09a2.6,2.6,0,0,0-1-.69.45.45,0,0,1,.08.27.43.43,0,0,0-.23-.14c-.07,0,0,.11.15.28l-.72-.1.25.13-.73.69c.45.85,1.24,1.75,1.16,2.8-.4-.42-.78-.35-1.36-.58.71,0,0-.84.32-1.29-.16.23-.42.07-.49,0l.23,1.09c-.47-.2-.43.06-.71.21,1,.17.38.89.53,1.36-.32-.1-.61-.3-.37-.71-.89.22.87,1,.09,1.29,0-.11.1-.15,0-.25.19.35-.26.88-.48.64l0-.11c-.38.67-.81,2.16-.06,2.57a10.71,10.71,0,0,1-1.07-.55l2.21,2.27c-.64-.37-2.43-.54-2.6-1.28a.63.63,0,0,0-.24.75c.14-.08,1.1.08,1.1.26-.92.15-.52.15-1.37.44.21-.12,1.21.47,1.08.73-.14-.1-1.07-.37-1.14-.51l.8,1.07c-.13-.24-.88-.36-1.24-.32.23,0-.24.58-.2.8l.35-.2c-.45.71,1.2,1.31.86,2.05-.18-.17-1.25-.73-1.53-.39.47.38,2.3,1.75,2.47,2.58h-.36l.16.65a21.15,21.15,0,0,1-2.54-2.91c-.35.2-.39-.06-.53.39-.35,0-.35-.4-.32-.53L166,531c.65.19.35,1,.89,1.16l-.25-1.33c.65.19,1.55,1.3,1.18,2-.32.09-1.07-.55-1.29-.62.18.17.16.83,0,.84l-.22-.43c-.38.31.59,1-.18,1.21-.1.15-1,.19-.63.36a9.92,9.92,0,0,1,3.54,1.16,6.07,6.07,0,0,1-1.43.66c-.66.06-1.19-.91-1.76-.86a1,1,0,0,1,.37.39c-.21.12-.51-.27-.57.13.62.3-.34.74.47.38,0,.43-.28.34-.41.78.46,0,1.26.91,1.31,1.34a1.12,1.12,0,0,0-.51-.07c-.34.73-.78,1-1,1.72-.18,0-.49.28-.71,0,.08.14.26.32.19.54-.71.21.09-.51-.69-.44.36.17.3.75.42,1.14.61.12.37-.67.26-1.06a2.5,2.5,0,0,1,1.51,2c0,.65-.61.06-.53.21-.55,1,1,1.45.13,2.14-.64.17-1-.36-1.4-.41,0-.55.59-.61.69-.94l-.39.31c-.11-.21-.12-.58.09-.69-.57.13-.77,1.81-1.51,2.5.11.21.19.54.44.49l0-.29c.5-.09.37.71.69.44.15.46.45,1,0,1.45l-.61-.12c.17.05.46-.2.34-.41.18.31-1.07.48-.4,1l.53-.2c.15.47.6,1.14.25,1.52.64,0,0-.13.76-.2-.93,0,.46-1.13-.57-1,.89,0,.54-.44,1.35-.62-.19-.06-.42,0-.19-.32a.88.88,0,0,1-.14-.14l0,0h0s0,0,0,0a.7.7,0,0,1-.36.08c-.37-.35-.13-.94-.28-1.22.17-.19.18.17.43.13l-.22-.43c.43.13.92-.33,1,.29l.19-.46a.81.81,0,0,0,.49-.84c.17-.19-.26-.74,0-.42V543l.11,0c.32-.71-.14-1.76.93-2.31a1.26,1.26,0,0,1,.22-1l.39.06c0-.36.72-.81.39-1.09,1.11,0,.78-1.45,1.16-1.94l-.47-.2a3,3,0,0,0,.16-1.33l-.43-.13c-.19-.54.69-.94.89-1.6.14.1,0,.25-.1.33,1.24-.42-.08-1.89.87-2.33a.3.3,0,0,1,.16-.42.07.07,0,0,0,0,.05l0-.07c.1-.05.21-.1.31-.16a1,1,0,0,0-.3.12,1.54,1.54,0,0,0,0-.6l.48.08s0,0,0-.05c.24-.13-.15-.24-.53-.26a1.15,1.15,0,0,0-.17-.37c.79.11,0-.62.81-.54-.33-.28.09-1.11-.67-1.52.11,0,.18,0,.14.1.17-.19.35-.38.2-.66l.61.12-.59-.77c.46-.17.71-.21,1,.25-.41-1,0-.67-.49-1.52l.36.17c.07-.22-.3-.75.05-.77.88-.22,1-2.35,2.1-3.34-1.18-.17.7-.39-.12-.76.28,0,.5-.09.65.19,0-.73.76-.8.21-1.5.29,0,.33.28.51.27,0-.07-.15-.28,0-.29s.18.17.26.32c.2-.66-.57-1-1.3-1.35.48-.2.49-.38.08-.8.29,0,.61-.12.55.32a5.41,5.41,0,0,0,.41-.74c.18-.46.27-.9,0-1,.2-.07.21-.42.16-.51s.15-.34.19-.41a5.35,5.35,0,0,0-.36-1l0,.2c-.86-.11-.36-.51-.62-1l.08,0c.19-1.11-.39-.31-.12-1.43l-.43.21c-1,.26.28-1-.28-1.41l-.19.28c-.44-.17,1-1.28,1-1.61.06-.09.17.05.27.12.3-1-.63.11-1-.4.28-.22.86-.16.78-.56.19-.28-1.43-.73-1-1.47-.2.2-.41.4-.69.21-.23-.37.54-1.42-.37-1.51a.35.35,0,0,1,.17-.14c-.31-.24-.69-.88-1.18-.92,1.46-.84-1.44-1.64,0-2.15l-.42-.92.16,0c-.12-.64-.54-.73-1-.82,0-.18.22-.12.3-.14,0-1-.12-1.05-1.1-1.54l.44-.24c-.34-.1.27-1.54-.58-2.21a.38.38,0,0,1,.24,0c-.9-.78.46-2.8-1.37-2.55l-.65-.49c.17.88-.78.14-.94.58-.22-.29.21-1,.44-.66l-.06.09c.94-.17-.06-1.15.55-1.34-.63-1.62-.71-3.4-1.23-4.95l-.63.42-.15-.55c.11-.2.47-.38.58,0,.32-.34-.56-.52-.71-.48,0-.85.91,0,.84-.23l-.16-.29-.06.1c-.37-.15-.68-.07-.81-.54,0-.34.37-.3.36-.43s.06-.06,0-.18l-.18-.7-.45.46c-.38-.2-.2-.64-.7-.11.79-.8-.56-2.64-.37-3a1.6,1.6,0,0,1-.82-1.22c-.07.17-.65.46-.73,0,1.32-.29.26-1,1-1.69-.49.53-.6-1.2-1.27-.4,0-.41.46-.19.66-.58-.8-.7-.38-2-.93-3.07-.17,0-.36.31-.69.17l.62-.87c-.16-.19-1,.15-.59-.45-.12.11-.3.26-.4.14,0-2.41-2.22-4.11-1.48-6.81-.22.41-.32.22-.41,0,0,.17-.41.14-.62.25l.3-1.13c-.68.06-.39-1-1-.83l.21.25c-.84-.13-1.37,1.09-2.29,1.36,1,.14-.78,1.55.61,1.84-.13.22-.34,0-.52.13.45,0,.61.22.58.68h-.11c.49,1.08.28,1.69.48,3l.41-.25a.87.87,0,0,1-.15.56c.79.07-.23-.77.61-.75-.78.68.67,1.9-.28,2.51.14.42.47-.31.62.11l-.24.21.4,0c0,.29-.26.55-.49.65,0-.08-.13-.16-.18-.23-.2.47.47,1,.4,1.11l0-.46c.67,1,.79,2.55,1.75,3.43l.18-.16c.69.69,0,.75.52,1.6l-.06,0a.85.85,0,0,1,.53.57c-.33-.14-.32.61-.7.4.74.75.49.33,1.48.65l-.3.26c.39.09.56,0,.82.47-.43-.27-.43.48-1,.2-.42,1.23,1.28,1.15.32,2,1.12.09.24-1,.53-.85.24-.32.85.1.86.44s-1,1-.75,1.73c0-.08-.1-.06-.12-.14-.14.38.54.45.26.94.66,0,.13.47.9.26l-.43-.65c.34.33,1.35.39,1.16,1.21a1.42,1.42,0,0,1-.6-.22c-.15.27.28.32.12.6-.77.21-.47-.8-1.19-1-.24.32.83.62-.05.69,1.14-.06.14.81,1.11,1l-.46.13c.1.06.37.15.42.31l-.68-.07c.65.25-.14,1,.27,1.28-.32-.84.47-.38.67-.86,1,.83-1,1-.32,2.11-.12-.14.05-.69.35-.52a1.48,1.48,0,0,1-.26.83c.37.74.42-.28.81-.05-.45.46.36.3.65.58l-.45.17c0,1,1-.1,1,.82l-.75-.11.31.36-.55.1c.55.31.5.49.51,1,.28-.22.84-.24,1,.15-.17.36-.49,0-.22.54-.33,0-.73,0-.4-.42-.16,0-.33,0-.48,0-.21.4.19.75.26.95a.38.38,0,0,1,0-.26l.92.58c-.13.19-.3.14-.47.08.11.15.36.18.48.41-.39.07-.77.22-1.06-.06l.68.62c-.14.11-.3.55-.47.5-.06.5,1.09.79,1,1.45a.38.38,0,0,1,.27.14c.11.56-.18,1.19.55,1.64l-.53.59c.33.44.66-.78,1.2-.05.42.5-.49.42-.6.69.44.17,1.3.43.95,1.15C168.49,504.11,168.54,503.94,168.43,503.79Zm2.47,6c-.14-.08-.52-.21-.28-.39C171.18,509.3,171,509.5,170.89,509.75Zm2.11,8.11c-.12-.14,0-.25.23-.34A.4.4,0,0,1,173,517.86Zm-6.38,26.74,0,0C166.88,544.38,166.78,544.44,166.63,544.59Zm-.4.47a.18.18,0,0,0,.18.1c-.1-.08-.06-.21,0-.33C166.29,544.82,166.19,544.86,166.23,545.06Zm.3-59.71-.08.15C166.23,485.31,166.37,485.33,166.53,485.35Z"/><path class="cls-2" d="M172.77,516.59a.86.86,0,0,1,.26,0A.19.19,0,0,0,172.77,516.59Z"/><path class="cls-2" d="M166.84,500.11s0,0,0,0h0Z"/><path class="cls-2" d="M165.52,535.24a.56.56,0,0,1,.31-.13C165.73,535.07,165.61,535.08,165.52,535.24Z"/><path class="cls-2" d="M165.93,548.22v-.39c0,.18-.16.2-.26.26C165.78,548.12,166,548.11,165.93,548.22Z"/><path class="cls-2" d="M162,550.19c0,.07,0,.11,0,.18l.22.06C162.29,550.21,162.18,550,162,550.19Z"/><path class="cls-2" d="M164.3,548c-.39-.11-.34.15-.36.42a.11.11,0,0,1,0,0C164.46,548.63,164.38,548.3,164.3,548Z"/><path class="cls-2" d="M163.93,548.46a.51.51,0,0,1-.07.23C164.06,548.8,163.94,548.62,163.93,548.46Z"/><path class="cls-2" d="M166.22,545.84c-.14.08.46.25.28.26C166.94,546.41,166.2,545.12,166.22,545.84Z"/><polygon class="cls-2" points="162.98 547.71 163.48 547.8 163.15 547.52 162.98 547.71"/><path class="cls-2" d="M164,545.92l-.27.34a.18.18,0,0,1,.12.16C164,546.19,164.18,546,164,545.92Z"/><path class="cls-2" d="M163.88,546.42a.4.4,0,0,0,0,.34A.86.86,0,0,0,163.88,546.42Z"/><polygon class="cls-2" points="163.03 547.13 163.18 547.05 163.31 546.79 163.03 547.13"/><path class="cls-2" d="M165.68,541.78l0-.47c-.14-.1-.29,0-.28.16S165.5,541.79,165.68,541.78Z"/><path class="cls-2" d="M163.92,542.58a.83.83,0,0,1,.43-.05l-.58-.23Z"/><path class="cls-2" d="M164.24,541.29c-.15-.1-.23-.79-.4-.24C164,541.16,164,541.63,164.24,541.29Z"/><polygon class="cls-2" points="167.36 535.18 167.33 535.29 168.29 535.63 167.36 535.18"/><path class="cls-2" d="M167.18,528.7c-.42.42.54.34.09.69.18.2.37-.28.52-.09C167.66,528.9,167.85,528.79,167.18,528.7Z"/><path class="cls-2" d="M167.79,529.3a1.18,1.18,0,0,0,.09.21A.55.55,0,0,0,167.79,529.3Z"/><polygon class="cls-2" points="159.91 465.37 159.99 464.97 159.75 465.3 159.91 465.37"/><path class="cls-2" d="M159,465l.58-.3h-.62C159,464.77,159.09,464.89,159,465Z"/><path class="cls-2" d="M170,511.09l.16,0c.14-.11.13-.19.1-.35Z"/><polygon class="cls-2" points="168.87 506.53 168.88 506.61 169.38 506.27 168.87 506.53"/><path class="cls-2" d="M166.84,503.09c0,.16.22.29.25.45C166.87,503.25,167.51,502.8,166.84,503.09Z"/><path class="cls-2" d="M207.51,564.66c-.09.13.32.23.39.27C207.9,564.67,207.41,564.63,207.51,564.66Z"/><polygon class="cls-2" points="207.51 561.96 207.65 562.06 207.39 561.56 207.51 561.96"/><path class="cls-2" d="M208.34,559.74c-.75,0-.19.85-.58,1.15h-.18l.47.38C208.15,560.77,208,560,208.34,559.74Z"/><path class="cls-2" d="M210.23,559.09c-.29,0-.13-.34-.18.25l.08,0A.94.94,0,0,1,210.23,559.09Z"/><path class="cls-2" d="M210.13,559.31c-.07.24.28-.07,0,0Z"/><path class="cls-2" d="M210.38,558.18l.12.39c.18,0,.31-.27.39-.12C210.88,558.08,210.7,558.09,210.38,558.18Z"/><path class="cls-2" d="M210,557.7l0,.2C210.12,557.9,210.16,557.86,210,557.7Z"/><path class="cls-2" d="M210.12,558.32l-.08-.42c-.12,0-.34-.07,0,.18C209.87,558,210,558.12,210.12,558.32Z"/><path class="cls-2" d="M210,558.47c-.21.12-.38.31-.5-.09C209.32,559,209.82,559.09,210,558.47Z"/><path class="cls-2" d="M207.69,559.37l-.28.16.15.28C207.49,559.67,207.91,559.43,207.69,559.37Z"/><path class="cls-2" d="M211.44,556.39a3.58,3.58,0,0,0-.61-.08l.08.29C211.06,556.51,211.23,556.32,211.44,556.39Z"/><path class="cls-2" d="M210.84,556.31l-.12-.43C210.58,556.17,210.67,556.27,210.84,556.31Z"/><polygon class="cls-2" points="209.28 557.37 209.59 558.12 209.31 557.26 209.28 557.37"/><polygon class="cls-2" points="211.95 555.09 212.21 555.41 211.84 554.88 211.95 555.09"/><path class="cls-2" d="M212.21,554.21c.22.24.53,0,.65.19a1.41,1.41,0,0,0-.26-.8C212.64,553.84,212.53,554,212.21,554.21Z"/><path class="cls-2" d="M212.4,553.18a2,2,0,0,0,.19.42A1,1,0,0,0,212.4,553.18Z"/><path class="cls-2" d="M211,555.32a.65.65,0,0,0,.51-.12l-.45,0Z"/><path class="cls-2" d="M211,555.19h0l.13-.28Z"/><path class="cls-2" d="M211,555.35v0S210.94,555.32,211,555.35Z"/><path class="cls-2" d="M210,556.61c-.15-.28-.23-.79-.73-.51C209.47,556.35,209.75,556.19,210,556.61Z"/><path class="cls-2" d="M210.43,555.33l-.23.33c.11,0,.29,0,.36.17Z"/><polygon class="cls-2" points="210.37 555.11 210.43 555.33 210.51 555.21 210.37 555.11"/><path class="cls-2" d="M211.79,553.66a.79.79,0,0,1,0-.6,1.88,1.88,0,0,0-.35.58C211.53,553.72,211.72,553.89,211.79,553.66Z"/><path class="cls-2" d="M211.39,554.39v0S211.33,554.37,211.39,554.39Z"/><path class="cls-2" d="M212.48,551.16h-.08l.07,0Z"/><path class="cls-2" d="M211.33,553.65c-.14.13-.07.26,0,.39a1.31,1.31,0,0,1,.07-.4C211.36,553.61,211.33,553.59,211.33,553.65Z"/><path class="cls-2" d="M212.41,552.58a1.82,1.82,0,0,0-.32.19C212.24,552.74,212.5,552.65,212.41,552.58Z"/><path class="cls-2" d="M211.52,554.34v0C211.63,554.35,211.58,554.34,211.52,554.34Z"/><path class="cls-2" d="M211.52,554.34a1.13,1.13,0,0,0-.17-.3.92.92,0,0,0,0,.31Z"/><path class="cls-2" d="M210.12,549.63c.36.17.55.7,0,.91.15.45,1.45.68,2.25.63-.16-.07-.31-.13-.39-.57-.25,0-.77.62-1,.19,0-.54.28-.34.56-.5-.54,0-.45-.85-1.17-1l.08.5C210.38,549.76,210.26,549.55,210.12,549.63Z"/><path class="cls-2" d="M212.1,551.83V552a1.45,1.45,0,0,1,.69-.32.68.68,0,0,0-.33-.48l-.32.71Z"/><path class="cls-2" d="M211.85,552.66c-.36-.27-.4-.68-.92-.63-.13.44.22.43.3.75.16-.73.15.28.57-.13a1.24,1.24,0,0,1,0,.42,2.11,2.11,0,0,1,.32-.29h0c-.06,0-.1,0-.05,0s0,0,0,0l-.14-.09c.16-.17.12,0,.14.09l.06,0h0l0-.78A1.49,1.49,0,0,0,211.85,552.66Z"/><path class="cls-2" d="M208.52,555.41a.19.19,0,0,1,.1,0C208.59,555.35,208.56,555.32,208.52,555.41Z"/><path class="cls-2" d="M208.87,555.21c0,.07.18.17.08.32s-.19-.07-.33-.11c.07.14.16.46.47.22l0-.07a1.48,1.48,0,0,1,.92-.33A3.81,3.81,0,0,0,208.87,555.21Z"/><path class="cls-2" d="M210.27,553.88l0-.65-.46.17.22.06C209.83,553.75,210.12,553.77,210.27,553.88Z"/><polygon class="cls-2" points="212.71 551.17 213.1 551.41 212.63 550.85 212.71 551.17"/><polygon class="cls-2" points="212.94 550.4 213.3 550.56 213.15 550.28 212.94 550.4"/><path class="cls-2" d="M217.52,507.66l-.17-.13A.54.54,0,0,0,217.52,507.66Z"/><path class="cls-2" d="M217.94,508.91l.19,0C218,508.86,217.93,508.86,217.94,508.91Z"/><path class="cls-2" d="M219.8,531.84c.44-.12,1.08-.2.65-.32l-.43-.08A.42.42,0,0,1,219.8,531.84Z"/><path class="cls-2" d="M222.11,518.23l-.15,0,.33.31Z"/><path class="cls-2" d="M220.49,517.43l.38-.23A1.18,1.18,0,0,0,220.49,517.43Z"/><path class="cls-2" d="M214.65,501l-.49-.05C214.28,501.3,214.44,501.09,214.65,501Z"/><path class="cls-2" d="M215.67,542.61a1.23,1.23,0,0,0,.44-.44C215.78,542.34,215.35,542.41,215.67,542.61Z"/><path class="cls-2" d="M222,506.6a.31.31,0,0,0-.3-.06C221.83,506.62,221.93,506.66,222,506.6Z"/><path class="cls-2" d="M216.34,541.54l-.14.08a1,1,0,0,1-.09.54C216.36,542,216.55,541.86,216.34,541.54Z"/><path class="cls-2" d="M206.17,476.32a.55.55,0,0,1,0-.07C206.15,476.26,206.15,476.29,206.17,476.32Z"/><path class="cls-2" d="M207.73,467.68a1.3,1.3,0,0,1,.14.28C207.87,467.9,207.84,467.81,207.73,467.68Z"/><path class="cls-2" d="M214.25,547.43c0,.17,0,0,0,0Z"/><path class="cls-2" d="M212.35,547.6a.36.36,0,0,0-.17-.14A.46.46,0,0,1,212.35,547.6Z"/><path class="cls-2" d="M214.41,539h0C214.31,539,214.33,539,214.41,539Z"/><path class="cls-2" d="M214,547.6a.79.79,0,0,0,.2-.16A.84.84,0,0,0,214,547.6Z"/><path class="cls-2" d="M214.17,547.64l-.09.13C214.14,547.81,214.19,547.81,214.17,547.64Z"/><path class="cls-2" d="M214.31,547.19a.67.67,0,0,1-.14.24s.07,0,.08,0Z"/><path class="cls-2" d="M212,489.11l0,0C211.79,489,211.84,489,212,489.11Z"/><path class="cls-2" d="M217.13,526.1v0l0,0Z"/><path class="cls-2" d="M217,525.41c.41.43.3.55.12.7l1.24.25Z"/><path class="cls-2" d="M216.33,504.73l-.22.54c-.78-.27-.7-.7-1.08-.14,1.3-.4.7,1.53,2,1.13l-.17.36c0-.08-.09-.07-.11-.15-.43.74,1.06.06,1.12.79,0,.27-.14.5-.35.39l.5.41a.12.12,0,1,1-.24,0l.39.76h0a4.57,4.57,0,0,1,.82.26c-.11.27-.17-.05-.31.06l.47.33a.47.47,0,0,1-.78-.27c-1.13.87.45.25,0,1.4l-.31-.36c-.63.53-.25.76-.53,1.39.2-.2.8-1.35,1.29-1,0,.17,0,.36.32.53-.45.17-.25.38-.11.68l-.61.19c.3.28.59.14.94.24.08.4-.36.65-.72.88.12.64.6-.69,1,0,0,.59.32.85.9,1.33-.08.43-.39.07-.52.26l.59.14c0,.08-.14.11-.22.12.28.19.62-.17.91.14.32-.07.18.14,0,.33s-.39.34-.09.47l.11.06c-.22.06-.4,0-.67,0a2.14,2.14,0,0,1,.38.35,6.64,6.64,0,0,1,.47.49,6.15,6.15,0,0,0-.57.32c.58-.19.95.47,1.23,1a5.73,5.73,0,0,0,.61-.12l.08.76c-.13,0-.31-.1-.52-.3l.1.17c-.31.15-.61-.1-.88-.39l.46-.09a2.61,2.61,0,0,0-1-.69.45.45,0,0,1,.08.27.43.43,0,0,0-.23-.14c-.07,0,0,.11.15.28l-.72-.1.25.13-.73.69c.45.85,1.24,1.75,1.16,2.8-.4-.42-.78-.35-1.36-.58.71,0,0-.84.32-1.29-.16.23-.42.07-.49,0l.23,1.09c-.47-.2-.43.05-.71.21,1,.17.38.89.53,1.36-.32-.1-.61-.3-.37-.71-.89.22.87,1,.09,1.29,0-.11.1-.15,0-.25.19.35-.26.88-.48.64l0-.11c-.38.67-.81,2.16-.06,2.57a10.62,10.62,0,0,1-1.07-.55l2.21,2.27c-.64-.37-2.43-.54-2.6-1.28a.63.63,0,0,0-.24.75c.14-.08,1.1.08,1.1.26-.92.15-.52.15-1.37.44.21-.12,1.21.47,1.08.73-.14-.1-1.07-.37-1.14-.51l.8,1.07c-.13-.24-.88-.36-1.24-.32.23,0-.24.58-.2.8l.35-.2c-.45.71,1.2,1.31.86,2.05-.18-.17-1.25-.73-1.53-.39.47.38,2.3,1.75,2.47,2.58h-.36l.16.65a21.15,21.15,0,0,1-2.54-2.91c-.35.2-.39-.06-.53.39-.35,0-.35-.4-.32-.53l-.56.93c.65.19.35,1,.89,1.16l-.25-1.33c.65.19,1.55,1.3,1.18,2-.32.09-1.07-.55-1.29-.62.18.17.16.83,0,.84l-.22-.43c-.38.31.59,1-.18,1.21-.1.15-1,.19-.63.35a9.93,9.93,0,0,1,3.54,1.16,6,6,0,0,1-1.43.66c-.66.06-1.19-.91-1.76-.86a1,1,0,0,1,.37.39c-.21.12-.51-.27-.57.13.62.3-.34.74.47.38,0,.43-.28.34-.41.78.46,0,1.26.91,1.31,1.34a1.12,1.12,0,0,0-.51-.07c-.34.73-.78,1-1,1.72-.18,0-.49.27-.71,0,.08.14.26.32.19.54-.71.21.09-.51-.69-.44.36.17.3.75.42,1.14.61.12.37-.67.26-1.06a2.5,2.5,0,0,1,1.51,2c0,.65-.61.06-.53.2-.55,1,1,1.45.13,2.14-.64.17-1-.36-1.4-.41,0-.54.59-.61.69-.94l-.39.31c-.11-.21-.12-.58.09-.69-.57.13-.77,1.81-1.51,2.5.11.21.19.54.44.49l0-.29c.5-.09.37.71.69.44.15.46.45,1,0,1.45L212,548c.17.05.46-.2.34-.41.18.31-1.07.48-.4,1l.53-.2c.15.47.6,1.14.25,1.52.64,0,0-.13.76-.2-.93,0,.46-1.13-.57-1,.89,0,.54-.44,1.35-.62-.19-.06-.42,0-.19-.32a.88.88,0,0,1-.14-.14l0,0h0s0,0,0,0a.69.69,0,0,1-.36.08c-.37-.35-.13-.94-.28-1.22.17-.19.18.17.43.13l-.22-.43c.43.13.92-.33,1,.29l.19-.46a.81.81,0,0,0,.49-.84c.17-.19-.26-.74,0-.42v-.84l.11,0c.32-.71-.14-1.76.93-2.31a1.26,1.26,0,0,1,.22-1l.39.06c0-.36.72-.81.39-1.09,1.11,0,.78-1.45,1.16-1.94l-.47-.2a3,3,0,0,0,.16-1.33l-.43-.13c-.19-.54.69-.94.89-1.6.14.1,0,.25-.1.33,1.24-.42-.08-1.89.87-2.33a.3.3,0,0,1,.16-.42.07.07,0,0,0,0,.05l0-.07c.1-.05.21-.1.31-.16a1,1,0,0,0-.3.12,1.54,1.54,0,0,0,0-.6l.48.08s0,0,0-.05c.24-.13-.15-.24-.53-.26a1.15,1.15,0,0,0-.17-.37c.79.11,0-.62.81-.54-.33-.28.09-1.11-.67-1.52.11,0,.18,0,.14.1.17-.19.35-.38.2-.66l.61.12-.59-.77c.46-.17.71-.21,1,.25-.41-1,0-.67-.49-1.52l.36.17c.07-.22-.3-.75.05-.77.88-.22,1-2.35,2.1-3.35-1.18-.17.7-.39-.12-.76.28,0,.5-.09.65.19,0-.73.76-.8.21-1.5.29,0,.33.28.51.27,0-.07-.15-.28,0-.29s.18.17.26.32c.2-.66-.57-1-1.3-1.35.48-.2.49-.38.08-.8.29,0,.61-.12.55.32a5.4,5.4,0,0,0,.41-.74c.18-.46.27-.9,0-1,.2-.07.21-.42.16-.51s.15-.34.19-.41a5.36,5.36,0,0,0-.36-1l0,.2c-.86-.11-.36-.51-.62-1l.08,0c.19-1.11-.39-.31-.12-1.43L223,513c-1,.26.28-1-.28-1.41l-.19.28c-.44-.17,1-1.28,1-1.61.06-.09.17.05.27.12.3-1-.63.11-1-.4.28-.22.86-.16.78-.56.19-.28-1.43-.73-1-1.47-.2.2-.41.4-.69.21-.23-.37.54-1.42-.37-1.51a.35.35,0,0,1,.17-.14c-.31-.24-.69-.88-1.18-.92,1.46-.84-1.44-1.64,0-2.15l-.42-.92.16,0c-.12-.64-.54-.73-1-.82,0-.18.22-.12.3-.14,0-1-.12-1.05-1.1-1.54l.44-.24c-.34-.1.27-1.54-.58-2.21a.38.38,0,0,1,.24,0c-.9-.78.46-2.8-1.37-2.55l-.65-.49c.17.88-.78.14-.94.58-.22-.29.21-1,.44-.66l-.06.09c.94-.17-.06-1.15.55-1.34-.63-1.62-.71-3.4-1.23-4.95l-.63.42-.15-.55c.11-.2.47-.38.58,0,.32-.34-.56-.52-.71-.48,0-.85.91,0,.84-.23l-.16-.29-.06.1c-.37-.15-.68-.07-.81-.54,0-.34.37-.3.36-.43s.06-.06,0-.18l-.18-.7-.45.46c-.38-.2-.2-.65-.7-.11.79-.8-.56-2.64-.37-3a1.59,1.59,0,0,1-.82-1.22c-.07.17-.65.46-.73,0,1.32-.29.26-1,1-1.69-.49.53-.6-1.2-1.27-.4,0-.41.46-.19.66-.58-.8-.7-.38-2-.93-3.07-.17,0-.36.31-.69.17l.62-.87c-.16-.19-1,.15-.59-.45-.12.1-.3.26-.4.14,0-2.41-2.22-4.11-1.48-6.81-.22.41-.32.22-.41,0,0,.17-.41.14-.62.25l.3-1.13c-.68.06-.39-1-1-.83l.21.25c-.84-.13-1.37,1.09-2.29,1.36,1,.14-.78,1.55.61,1.84-.13.22-.34,0-.52.13.45,0,.61.22.58.68H205c.49,1.08.28,1.69.48,3l.41-.25a.87.87,0,0,1-.15.56c.79.07-.23-.77.61-.76-.78.68.67,1.9-.28,2.51.14.42.47-.31.61.11l-.24.21.4,0c0,.29-.26.55-.49.65,0-.08-.13-.16-.18-.23-.2.47.47,1,.4,1.11l0-.46c.67,1,.79,2.55,1.75,3.43l.18-.16c.69.69,0,.75.52,1.6l-.06,0a.85.85,0,0,1,.53.57c-.33-.14-.32.61-.7.4.74.75.49.33,1.48.65l-.3.26c.39.09.56,0,.82.47-.43-.27-.43.48-1,.2-.42,1.23,1.28,1.15.32,2,1.12.09.24-1,.53-.85.24-.32.85.1.86.44s-1,1-.75,1.73c0-.08-.1-.06-.12-.14-.14.38.54.45.26.94.66,0,.13.47.9.26l-.43-.64c.34.33,1.35.39,1.16,1.21a1.43,1.43,0,0,1-.6-.22c-.15.27.28.32.13.6-.77.21-.47-.8-1.19-1-.24.32.83.62-.05.69,1.14-.06.14.81,1.11,1l-.46.13c.1.06.37.15.42.31l-.68-.07c.65.25-.14,1,.27,1.28-.32-.84.47-.38.67-.86,1,.83-1,1-.32,2.11-.12-.14.05-.69.35-.52a1.48,1.48,0,0,1-.26.83c.37.74.42-.28.81-.05-.45.46.36.3.65.58l-.45.17c0,1,1-.1,1,.82l-.75-.11.31.36-.55.1c.55.31.5.49.51,1,.28-.22.84-.24,1,.15-.17.36-.49,0-.22.54-.33,0-.73,0-.4-.42-.16,0-.33,0-.48,0-.21.4.19.75.26.95a.38.38,0,0,1,0-.26l.92.58c-.13.19-.3.14-.47.08.11.15.36.18.48.41-.39.07-.77.22-1.06-.06l.68.62c-.14.11-.3.55-.47.5-.06.5,1.09.79,1,1.45a.39.39,0,0,1,.27.14c.11.56-.18,1.19.55,1.64l-.53.59c.33.44.66-.78,1.2-.05.42.5-.49.42-.6.69.44.17,1.3.43.95,1.15C216.39,505.05,216.44,504.88,216.33,504.73Zm2.47,6c-.14-.08-.52-.21-.28-.39C219.09,510.24,218.88,510.44,218.8,510.69Zm2.11,8.11c-.12-.14,0-.25.23-.34A.4.4,0,0,1,220.91,518.8Zm-6.38,26.73,0,0C214.79,545.32,214.68,545.38,214.53,545.53Zm-.4.47a.18.18,0,0,0,.18.1c-.1-.08-.06-.21,0-.33C214.2,545.76,214.09,545.8,214.13,546Zm.3-59.71-.08.15C214.13,486.25,214.28,486.27,214.43,486.29Z"/><path class="cls-2" d="M220.68,517.53a.84.84,0,0,1,.26,0A.19.19,0,0,0,220.68,517.53Z"/><path class="cls-2" d="M214.74,501s0,0,0,0h0Z"/><path class="cls-2" d="M213.43,536.18a.56.56,0,0,1,.31-.13C213.63,536,213.52,536,213.43,536.18Z"/><path class="cls-2" d="M213.83,549.16v-.39c0,.18-.16.2-.26.26C213.69,549.06,213.86,549,213.83,549.16Z"/><path class="cls-2" d="M209.91,551.13c0,.07,0,.11,0,.18l.22.06C210.2,551.15,210.08,550.94,209.91,551.13Z"/><path class="cls-2" d="M212.21,548.92c-.39-.11-.34.15-.36.42a.11.11,0,0,1,0,0C212.37,549.57,212.29,549.24,212.21,548.92Z"/><path class="cls-2" d="M211.84,549.4a.51.51,0,0,1-.07.23C212,549.74,211.84,549.56,211.84,549.4Z"/><path class="cls-2" d="M214.13,546.78c-.14.08.46.25.28.26C214.85,547.35,214.11,546.06,214.13,546.78Z"/><polygon class="cls-2" points="210.88 548.65 211.39 548.74 211.06 548.46 210.88 548.65"/><path class="cls-2" d="M211.94,546.86l-.27.34a.18.18,0,0,1,.12.16C211.89,547.13,212.09,546.9,211.94,546.86Z"/><path class="cls-2" d="M211.79,547.36a.4.4,0,0,0,0,.34A.86.86,0,0,0,211.79,547.36Z"/><polygon class="cls-2" points="210.94 548.07 211.08 547.99 211.22 547.73 210.94 548.07"/><path class="cls-2" d="M213.59,542.72l0-.47c-.14-.1-.29,0-.28.16S213.41,542.72,213.59,542.72Z"/><path class="cls-2" d="M211.83,543.52a.83.83,0,0,1,.43-.05l-.58-.23Z"/><path class="cls-2" d="M212.15,542.23c-.15-.1-.23-.79-.4-.24C211.9,542.1,211.87,542.57,212.15,542.23Z"/><polygon class="cls-2" points="215.27 536.12 215.23 536.23 216.19 536.57 215.27 536.12"/><path class="cls-2" d="M215.08,529.64c-.42.42.54.34.09.69.18.2.37-.28.52-.09C215.57,529.84,215.76,529.73,215.08,529.64Z"/><path class="cls-2" d="M215.69,530.23a1.18,1.18,0,0,0,.09.21A.55.55,0,0,0,215.69,530.23Z"/><polygon class="cls-2" points="207.81 466.31 207.9 465.91 207.65 466.24 207.81 466.31"/><path class="cls-2" d="M206.88,465.94l.58-.3h-.62C206.9,465.71,207,465.83,206.88,465.94Z"/><path class="cls-2" d="M217.89,512l.16,0c.14-.11.13-.19.1-.35Z"/><polygon class="cls-2" points="216.77 507.47 216.79 507.55 217.29 507.21 216.77 507.47"/><path class="cls-2" d="M214.74,504c0,.16.22.29.25.45C214.77,504.19,215.42,503.74,214.74,504Z"/><path class="cls-2" d="M96.91,276.68c0-.2-.4-.05-.48-.07C96.58,276.91,97,276.65,96.91,276.68Z"/><polygon class="cls-2" points="98.41 279.66 98.24 279.63 98.73 280.02 98.41 279.66"/><path class="cls-2" d="M98.94,282.6c.65-.41-.31-1-.15-1.62l.14-.12-.61-.13C98.53,281.36,99.06,282.12,98.94,282.6Z"/><path class="cls-2" d="M97.71,284.45c.26-.15.3.3,0-.38l-.06.08A1.5,1.5,0,0,1,97.71,284.45Z"/><path class="cls-2" d="M97.67,284.15c-.08-.31-.19.24,0,0Z"/><path class="cls-2" d="M98.09,285.55l-.32-.36c-.15.11-.12.48-.26.37C97.72,286,97.87,285.84,98.09,285.55Z"/><path class="cls-2" d="M98.67,285.85l-.14-.19C98.47,285.7,98.45,285.76,98.67,285.85Z"/><path class="cls-2" d="M98.23,285.24l.3.41c.1-.08.33-.13-.12-.19C98.63,285.46,98.41,285.41,98.23,285.24Z"/><path class="cls-2" d="M98.29,285c.11-.26.15-.57.47-.2C98.52,284,98,284.21,98.29,285Z"/><path class="cls-2" d="M99.7,282.62l.15-.34-.28-.22C99.7,282.17,99.48,282.68,99.7,282.62Z"/><path class="cls-2" d="M98.19,288.16c.15,0,.37-.21.56-.27l-.23-.27C98.44,287.79,98.4,288.1,98.19,288.16Z"/><path class="cls-2" d="M98.75,287.89l.34.4C99,287.88,98.91,287.83,98.75,287.89Z"/><polygon class="cls-2" points="99.46 285.78 98.79 285.13 99.5 285.92 99.46 285.78"/><polygon class="cls-2" points="98.48 289.89 98.09 289.7 98.69 290.06 98.48 289.89"/><path class="cls-2" d="M98.75,291c-.32-.14-.44.35-.65.18a1.77,1.77,0,0,0,.67.72A.84.84,0,0,1,98.75,291Z"/><path class="cls-2" d="M99.16,292.27a2.34,2.34,0,0,0-.4-.34A1.21,1.21,0,0,0,99.16,292.27Z"/><path class="cls-2" d="M99.15,289.08a.65.65,0,0,0-.36.43l.39-.25Z"/><path class="cls-2" d="M99.19,289.25h0l0,.39Z"/><path class="cls-2" d="M99.14,289v0S99.2,289,99.14,289Z"/><path class="cls-2" d="M99.3,287c.28.22.64.73.9.13C99.87,287,99.72,287.36,99.3,287Z"/><path class="cls-2" d="M99.63,288.71v-.5c-.11,0-.26.15-.4,0Z"/><polygon class="cls-2" points="99.81 288.93 99.63 288.71 99.63 288.9 99.81 288.93"/><path class="cls-2" d="M99.4,291.37a1.14,1.14,0,0,1,.35.65,2.92,2.92,0,0,0,0-.85C99.6,291.16,99.34,291.08,99.4,291.37Z"/><path class="cls-2" d="M99.34,290.33l0,0S99.41,290.31,99.34,290.33Z"/><polygon class="cls-2" points="100.21 294.54 100.28 294.49 100.21 294.49 100.21 294.54"/><path class="cls-2" d="M99.8,291.11c0-.22-.08-.33-.23-.42a2,2,0,0,1,.16.48C99.8,291.18,99.84,291.17,99.8,291.11Z"/><path class="cls-2" d="M99.49,292.93a2.27,2.27,0,0,0,.17-.4C99.54,292.66,99.37,292.92,99.49,292.93Z"/><path class="cls-2" d="M99.27,290.46l0,0C99.16,290.52,99.21,290.5,99.27,290.46Z"/><path class="cls-2" d="M99.27,290.46a1.24,1.24,0,0,0,.31.23,1.3,1.3,0,0,0-.2-.32Z"/><path class="cls-2" d="M103.05,294.81a.62.62,0,0,1-.52-1c-.38-.41-1.6.13-2.25.66.17,0,.33,0,.65.39.18-.2.31-1.14.73-.81.31.59,0,.54-.19.88.44-.35.85.67,1.54.4l-.35-.5C102.76,294.82,103,295,103.05,294.81Z"/><path class="cls-2" d="M100.16,293.58l-.08-.19a1.72,1.72,0,0,1-.41.77c.25.29.41.33.54.33l-.12-1Z"/><path class="cls-2" d="M99.91,292.52c.45.08.72.51,1.12.14-.13-.57-.43-.34-.67-.65.27.9-.28-.22-.4.49a1.89,1.89,0,0,1-.2-.48,2.94,2.94,0,0,1-.11.51l0,0h0s.08-.07.05,0v0h.17c0,.28-.1.06-.17,0h-.07l.4.88A2.36,2.36,0,0,0,99.91,292.52Z"/><path class="cls-2" d="M101.2,287.49a.16.16,0,0,1-.09,0C101.17,287.58,101.21,287.6,101.2,287.49Z"/><path class="cls-2" d="M101,287.91c-.07-.06-.25-.08-.25-.31s.2,0,.34-.07c-.14-.11-.39-.41-.52,0l.07.06c-.08.4-.52,1-.59.92A3.29,3.29,0,0,0,101,287.91Z"/><path class="cls-2" d="M100.57,290.22l.35.73.3-.46-.22.06C101,290.1,100.75,290.25,100.57,290.22Z"/><polygon class="cls-2" points="100.02 294.67 99.55 294.65 100.27 294.98 100.02 294.67"/><polygon class="cls-2" points="100.25 295.66 99.86 295.69 100.14 295.92 100.25 295.66"/><path class="cls-2" d="M118.72,348.16l.24.1A.71.71,0,0,0,118.72,348.16Z"/><path class="cls-2" d="M117.62,346.91l-.17.1C117.58,347,117.66,347,117.62,346.91Z"/><path class="cls-2" d="M104.77,320.24c-.3.4-.8.87-.37.75l.41-.18A.63.63,0,0,1,104.77,320.24Z"/><path class="cls-2" d="M110.38,336.61l.11-.12-.45-.15Z"/><path class="cls-2" d="M112.19,336.52l-.2.48A1.47,1.47,0,0,0,112.19,336.52Z"/><path class="cls-2" d="M125.17,354.59l.51-.1C125.39,354.19,125.35,354.47,125.17,354.59Z"/><path class="cls-2" d="M102.28,305.88a1.78,1.78,0,0,0-.13.76C102.33,306.25,102.65,305.91,102.28,305.88Z"/><path class="cls-2" d="M114.87,350.76a.3.3,0,0,0,.33,0C115,350.67,114.93,350.67,114.87,350.76Z"/><path class="cls-2" d="M102.3,307.46a1.79,1.79,0,0,0,.07-.17,1.51,1.51,0,0,1-.22-.65C102,306.93,102,307.24,102.3,307.46Z"/><path class="cls-2" d="M147,379.29a.67.67,0,0,1,0,.09S147.08,379.32,147,379.29Z"/><path class="cls-2" d="M150.24,389.36a2,2,0,0,1-.29-.27C150,389.16,150.06,389.25,150.24,389.36Z"/><path class="cls-2" d="M100.8,299.72c-.07-.21-.05,0,0,0Z"/><path class="cls-2" d="M102.3,298.38a.31.31,0,0,0,.22,0A.39.39,0,0,1,102.3,298.38Z"/><path class="cls-2" d="M105.34,309.09v0C105.41,309,105.4,309,105.34,309.09Z"/><path class="cls-2" d="M100.94,299.37a1.08,1.08,0,0,0-.08.29A1.13,1.13,0,0,0,100.94,299.37Z"/><path class="cls-2" d="M100.74,299.45v-.19C100.67,299.24,100.63,299.27,100.74,299.45Z"/><path class="cls-2" d="M100.88,300a1.06,1.06,0,0,1,0-.35s0,.07-.06.06Z"/><path class="cls-2" d="M134.31,367a.45.45,0,0,1,0,.06C134.59,367.07,134.51,367,134.31,367Z"/><path class="cls-2" d="M110.21,325l0,0v0Z"/><path class="cls-2" d="M110.66,325.66c-.59-.23-.56-.42-.49-.69l-1.18.48Z"/><path class="cls-2" d="M121.49,351l-.08-.67c.92.06,1.07.56,1.14-.19-1.06.85-1.52-1.48-2.58-.62l0-.46c.06.08.13,0,.19.13,0-1-1.08.27-1.54-.52-.13-.3-.13-.6.13-.55l-.72-.29c-.12-.17.09-.29.21-.12l-.79-.72,0,0a4.84,4.84,0,0,1-1,0c0-.33.2,0,.28-.16l-.64-.22c.1-.41.68-.28.92.05.64-1.32-.58-.13-.79-1.55l.5.3c.33-.78-.17-.92-.23-1.71-.09.28-.05,1.75-.73,1.5,0-.2-.17-.41-.6-.48.36-.33,0-.5-.26-.79l.49-.41c-.44-.21-.66,0-1.05,0a.65.65,0,0,1-.08-.62c.07-.2.27-.32.41-.47s-.16,0-.31.21-.32.36-.5.25a.24.24,0,0,0-.05-.2c0-.08-.08-.13-.18-.2l-.18-.12a2,2,0,0,1-.26-.33c.13-.51.4,0,.55-.19l-.58-.32c0-.1.15-.1.23-.1-.26-.31-.63.09-.9-.43-.72,0,.81-1.31-.1-1.84.15-.2.4,0,.63-.08a5.07,5.07,0,0,0-1.35-1.37L112,337c-.39.56-1.06.06-1.61-.4a5.7,5.7,0,0,0-.45.51l-.49-.79c.08-.12.32-.08.6,0l-.18-.13c.18-.35.57-.25,1-.1l-.33.38a2.18,2.18,0,0,0,1.24.15.57.57,0,0,1-.22-.25.36.36,0,0,0,.27,0c.06,0-.09-.1-.28-.21l.67-.32h-.29l.24-1.2c-.85-.67-2-1.18-2.54-2.39.57.22.85-.08,1.47-.18-.58.46.45.93.44,1.61a.28.28,0,0,1,.43-.26l-.8-1.06c.5-.06.33-.32.48-.66-.94.41-.82-.75-1.2-1.18.33-.09.68,0,.71.56.63-.78-1.31-.62-.79-1.36,0,.14,0,.23.18.25-.35-.28-.27-1.13.05-1l0,.14c-.05-1-.51-2.87-1.38-2.86a8.47,8.47,0,0,1,1.21,0l-3.12-1.17c.75,0,2.35-.86,2.9-.15a1,1,0,0,0-.21-1c-.07.17-1,.57-1.07.37.7-.72.36-.48.91-1.31-.11.26-1.29.21-1.32-.16.18,0,1.11-.23,1.25-.12l-1.27-.7c.24.19.94-.13,1.22-.39-.2.13-.12-.78-.28-1l-.19.43c0-1.05-1.74-.72-1.86-1.75.25.08,1.46,0,1.51-.49-.61-.13-2.92-.55-3.51-1.36l.29-.23-.49-.62a20.26,20.26,0,0,1,3.76,1.67c.19-.43.36-.18.23-.74.27-.26.52.23.57.39l0-1.37c-.65.18-.85-.9-1.39-.75l.95,1.32a1.92,1.92,0,0,1-2.08-1.46c.22-.29,1.21,0,1.43-.09-.25-.08-.6-.82-.45-.93l.43.34c.15-.57-1-.7-.52-1.44,0-.23.73-.8.34-.77a7.91,7.91,0,0,1-3.62.85,7.13,7.13,0,0,1,.84-1.59c.53-.47,1.51.28,2-.12a.93.93,0,0,1-.53-.21c.11-.26.58,0,.4-.49-.69,0-.13-1-.61-.13-.28-.45,0-.54-.09-1.11-.4.26-1.57-.24-1.85-.7a.93.93,0,0,0,.47-.22c-.12-1,.09-1.6-.08-2.53.15-.12.26-.6.59-.46-.14-.11-.39-.19-.46-.48.48-.66.21.62.83.07-.4,0-.67-.64-1-1-.58.23.06,1,.37,1.33a2.53,2.53,0,0,1-2.39-1.3c-.35-.73.48-.43.33-.54-.12-1.48-1.67-1-1.29-2.28.44-.57,1-.21,1.41-.39.31.59-.16,1-.06,1.45l.15-.57a.83.83,0,0,1,.31.82c.4-.49-.35-2.46-.12-3.66-.21-.17-.46-.48-.64-.27l.14.34c-.37.4-.71-.56-.83-.07-.39-.42-1-.87-.83-1.58l.58-.24a.44.44,0,0,0-.06.66c-.32-.23.63-1.17-.22-1.33l-.33.54c-.39-.42-1.14-.89-1.05-1.52-.55.38.09.12-.53.67.8-.52.24,1.52,1,.77-.73.58-.21.81-.79,1.5.2-.05.34-.27.34.25a.87.87,0,0,1,.2.08v0l0,0s0,0,0,0a.7.7,0,0,1,.26-.31c.5.16.63,1,.92,1.18,0,.31-.25-.08-.43.12l.43.33c-.43.12-.59.92-1,.27l.09.63a1.22,1.22,0,0,0,.06,1.22c0,.31.62.66.23.46l.45.93-.11,0c.12,1,1.09,1.86.5,3.11a2,2,0,0,1,.34,1.18l-.36.18c.21.39-.15,1.33.28,1.43-.95.64.14,2.07.1,2.84l.5-.06a4.6,4.6,0,0,0,.61,1.56l.43-.12c.46.48-.06,1.45.14,2.3-.18,0-.17-.25-.1-.43-.81,1.21,1.12,2,.56,3.09a.44.44,0,0,1,.1.56.1.1,0,0,0,0-.05.44.44,0,0,0,0,.1c-.06.12-.13.24-.18.36a1.1,1.1,0,0,0,.19-.31,2.34,2.34,0,0,0,.3.68l-.45.2,0,.06c-.13.29.26.17.59,0a1.33,1.33,0,0,0,.35.3c-.73.35.38.65-.38,1.09.43.11.54,1.28,1.4,1.27-.11,0-.14.12-.18,0,0,.31-.08.63.2.85l-.58.24.93.5c-.3.46-.48.66-1,.36.88.81.41.71,1.26,1.39l-.4,0c.07.28.67.65.38.88-.62.77.47,3.18.08,5,1.09-.53-.38.86.53.76-.25.15-.37.4-.65.18.42.79-.2,1.34.65,1.78-.26.15-.43-.11-.58,0,.07.06.28.22.14.34s-.25-.08-.39-.19c.2.85,1.05.78,1.85.7-.29.5-.2.71.37.93-.23.2-.45.5-.64,0,0,.31,0,1.9.59,1.81-.14.12,0,.43.12.49a6.79,6.79,0,0,0,.22,1.4l.07-.2c.81.12.27.52.46,1h-.08c-.16.66-.07.78,0,.9s.13.13,0,1.06l.45-.22c.52-.07.41.26.26.8a1.49,1.49,0,0,0,.64,1.2V345c.6.14-.29,1.77-.11,2.16,0,.12-.2,0-.33,0,.23,1.16.55-.32,1.17.14-.16.33-.76.44-.46.87,0,.37,1.81.36,1.8,1.31.09-.29.18-.58.56-.45.43.34.25,1.75,1.19,1.55a.31.31,0,0,1-.09.21c.43.16,1.16.76,1.66.64-1,1.4,2.32,1.36,1.18,2.38l.91.89-.14.08a1.3,1.3,0,0,0,1.4.6c0,.21-.15.2-.22.25.57,1.09.7,1.13,1.93,1.36l-.3.41c.39,0,.57,1.79,1.78,2.27a.35.35,0,0,1-.25.05c1.31.58,1.08,3.25,2.74,2.39l.91.34c-.65-.92.69-.4.61-.94.37.25.36,1.21-.07.87v-.12c-.83.48.68,1.25.19,1.66,1.51,1.6,2.56,3.54,3.92,5.09l.38-.67.45.56c0,.25-.25.57-.58.17-.13.48.83.4,1,.31.45.94-.9.28-.7.52l.32.27V370c.45.05.7-.14,1.09.34.15.39-.2.45-.12.58s0,.09.14.19l.56.71.19-.66c.48.11.55.65.75-.1-.34,1.13,2,2.75,2,3.24a2.41,2.41,0,0,1,1.48,1.09c0-.21.39-.72.73-.23-1.14.74.3,1.19-.1,2.2.19-.75,1.25,1.14,1.47,0,.25.44-.35.36-.33.85,1.17.52,1.49,2.15,2.6,3.11.15-.1.18-.46.58-.41l-.14,1.16c.26.16.93-.49.83.31.06-.15.15-.39.32-.28,1.28,2.69,4.43,3.85,5.18,7.07,0-.52.19-.35.4-.13-.07-.2.33-.29.48-.48l.32,1.34c.64-.28.91.93,1.46.6l-.34-.21c.9-.12.75-1.64,1.51-2.23-1,.15-.08-2-1.61-1.84,0-.28.35-.08.44-.31-.46.1-.72-.06-.94-.57l.12,0c-1.08-1-1.21-1.79-2.13-3.21l-.27.41a1.13,1.13,0,0,1-.16-.67c-.81.17.65.78-.19,1,.39-1-1.7-1.9-1.1-2.87-.37-.42-.3.49-.66.07l.12-.31-.38.15a.74.74,0,0,1,.13-.88c0,.09.22.14.3.19-.06-.58-1-.91-1-1.1l.22.52c-1.22-.94-2.17-2.57-3.6-3.25l-.09.23c-1.06-.55-.42-.83-1.38-1.61h.07a1.22,1.22,0,0,1-.84-.47c.4.05,0-.77.47-.67-1.14-.6-.66-.21-1.81-.25l.15-.39c-.43,0-.58.12-1.06-.27.57.16.16-.67.85-.53-.26-1.5-1.89-.87-1.4-2.1-1.16.25.32,1.21-.06,1.11-.06.43-.9.15-1.09-.22s.5-1.4-.2-2.15c.07.08.13,0,.19.11-.07-.46-.77-.32-.77-1-.64.22-.39-.48-1,0l.77.58c-.51-.26-1.54,0-1.8-1a1.57,1.57,0,0,1,.71.05c0-.35-.45-.27-.45-.63.64-.48.9.74,1.73.76.06-.43-1.16-.42-.33-.78-1.09.42-.58-.85-1.67-.81l.38-.28c-.13,0-.45-.05-.58-.21l.7-.14c-.77-.07-.39-1.12-1-1.33.77.83-.25.57-.19,1.16-1.41-.61.38-1.43-.84-2.44.19.11.32.78-.06.68a1.89,1.89,0,0,1-.2-1c-.77-.71-.25.45-.77.31.19-.65-.52-.22-1-.44l.36-.33c-.57-1.09-1,.44-1.4-.6l.8-.11-.5-.3.48-.28c-.71-.18-.76-.39-1-.93a.66.66,0,0,1-1.06.15c0-.46.47-.16-.08-.66.34-.08.74-.2.63.34.14-.08.34-.08.47-.16,0-.51-.6-.77-.78-1a.54.54,0,0,1,.11.29l-1.22-.35c0-.25.22-.25.41-.24-.19-.13-.45-.09-.7-.3.35-.2.63-.49,1.08-.27l-1-.47c.08-.17,0-.71.19-.7-.21-.58-1.5-.53-1.78-1.29a.46.46,0,0,1-.34-.07c-.41-.59-.48-1.38-1.44-1.64l.2-.83c-.56-.38-.22,1.07-1.16.44-.69-.43.25-.62.21-1-.52,0-1.51-.06-1.56-1C121.25,350.7,121.3,350.9,121.49,351Zm-5.69-5.82c.18,0,.62.07.49.35C115.76,345.8,115.86,345.52,115.8,345.21Zm-4.72-9.94c.18.09.13.28,0,.51A.6.6,0,0,1,111.08,335.27ZM101.61,302h0C101.51,302.37,101.56,302.23,101.61,302Zm.08-.76a.16.16,0,0,0-.21,0c.13,0,.17.19.17.38C101.76,301.53,101.83,301.42,101.68,301.22Zm31.77,69.63v-.19C133.77,370.81,133.62,370.83,133.45,370.86Z"/><path class="cls-2" d="M112,336.53a.71.71,0,0,1-.25.11C111.82,336.69,111.91,336.67,112,336.53Z"/><path class="cls-2" d="M125.07,354.61v0l.08,0Z"/><path class="cls-2" d="M107.73,311.62a.63.63,0,0,1-.19.33C107.66,311.93,107.74,311.85,107.73,311.62Z"/><path class="cls-2" d="M100.19,297.56l.21.44a.52.52,0,0,1,.08-.44C100.36,297.59,100.22,297.7,100.19,297.56Z"/><path class="cls-2" d="M102.4,293c-.07-.06,0-.14-.1-.2l-.22.06C102.14,293.18,102.36,293.35,102.4,293Z"/><path class="cls-2" d="M101.69,296.85c.39-.11.2-.37.07-.68a.18.18,0,0,1,0,.06C101.19,296.23,101.44,296.54,101.69,296.85Z"/><path class="cls-2" d="M101.73,296.1a.8.8,0,0,1-.06-.3C101.44,295.8,101.64,295.93,101.73,296.1Z"/><path class="cls-2" d="M101.25,300.36c.08-.17-.53,0-.38-.12C100.33,300.16,101.67,301.15,101.25,300.36Z"/><polygon class="cls-2" points="102.95 296.35 102.48 296.56 102.91 296.66 102.95 296.35"/><path class="cls-2" d="M103.05,299l0-.54c-.08,0-.14,0-.19-.11C102.95,298.63,102.91,299,103.05,299Z"/><path class="cls-2" d="M102.9,298.31a.6.6,0,0,0-.16-.4A1.33,1.33,0,0,0,102.9,298.31Z"/><polygon class="cls-2" points="103.23 297.03 103.16 297.2 103.19 297.57 103.23 297.03"/><path class="cls-2" d="M104,304.51l.24.54c.18,0,.25-.15.15-.34S104.11,304.4,104,304.51Z"/><path class="cls-2" d="M105,302.57c-.07.17-.18.2-.33.32l.61-.09Z"/><path class="cls-2" d="M105.45,304.18c.18,0,.63.73.47,0C105.74,304.18,105.49,303.64,105.45,304.18Z"/><polygon class="cls-2" points="106.22 312.79 106.18 312.65 105.18 312.85 106.22 312.79"/><path class="cls-2" d="M110,319.82c.12-.71-.65,0-.46-.7-.27-.11-.16.54-.39.41C109.45,319.89,109.34,320.12,110,319.82Z"/><path class="cls-2" d="M109.12,319.53a1.41,1.41,0,0,0-.19-.18A.65.65,0,0,0,109.12,319.53Z"/><polygon class="cls-2" points="150.91 390.91 151.04 391.37 151.1 390.93 150.91 390.91"/><path class="cls-2" d="M152,391l-.41.51.61-.2C152.14,391.28,152,391.17,152,391Z"/><path class="cls-2" d="M116,343.44l-.14.08c-.08.16,0,.25.1.42Z"/><polygon class="cls-2" points="119.56 348.14 119.5 348.06 119.19 348.59 119.56 348.14"/><path class="cls-2" d="M123.44,351.31c-.12-.17-.37-.25-.49-.42C123.32,351.14,122.93,351.84,123.44,351.31Z"/><path class="cls-2" d="M260,248.61c0-.23-.38-.14-.46-.17C259.63,248.82,260.1,248.6,260,248.61Z"/><polygon class="cls-2" points="261.01 252.33 260.84 252.27 261.27 252.81 261.01 252.33"/><path class="cls-2" d="M261.07,255.83c.71-.34-.14-1.26.1-1.89l.16-.11-.58-.27C260.86,254.32,261.26,255.29,261.07,255.83Z"/><path class="cls-2" d="M259.56,257.72c.28-.12.25.4.08-.44l-.07.08A2.05,2.05,0,0,1,259.56,257.72Z"/><path class="cls-2" d="M259.57,257.36c0-.37-.23.25,0,0Z"/><path class="cls-2" d="M259.76,259.06l-.26-.48c-.16.1-.19.54-.31.38C259.33,259.45,259.5,259.35,259.76,259.06Z"/><path class="cls-2" d="M260.29,259.51l-.11-.25C260.11,259.31,260.09,259.37,260.29,259.51Z"/><path class="cls-2" d="M259.95,258.73l.23.53c.11-.07.35-.08-.08-.24C260.31,259.06,260.1,259,259.95,258.73Z"/><path class="cls-2" d="M260.05,258.43c.15-.27.24-.63.5-.15C260.43,257.36,259.93,257.5,260.05,258.43Z"/><path class="cls-2" d="M261.81,256l.2-.37-.24-.31C261.89,255.47,261.59,256,261.81,256Z"/><path class="cls-2" d="M259.44,262.09c.15,0,.4-.17.6-.21l-.18-.35C259.76,261.71,259.67,262.06,259.44,262.09Z"/><path class="cls-2" d="M260,261.88l.27.53C260.33,261.93,260.21,261.85,260,261.88Z"/><polygon class="cls-2" points="261.08 259.58 260.52 258.71 261.09 259.75 261.08 259.58"/><polygon class="cls-2" points="259.46 264.14 259.11 263.84 259.65 264.37 259.46 264.14"/><path class="cls-2" d="M259.55,265.49c-.3-.22-.49.32-.67.08a2.14,2.14,0,0,0,.54,1A1.11,1.11,0,0,1,259.55,265.49Z"/><path class="cls-2" d="M259.76,267a2.69,2.69,0,0,0-.34-.47A1.4,1.4,0,0,0,259.76,267Z"/><path class="cls-2" d="M260.25,263.32a.68.68,0,0,0-.43.43l.42-.22Z"/><path class="cls-2" d="M260.26,263.53h0l0,.46Z"/><path class="cls-2" d="M260.25,263.27v.05S260.31,263.29,260.25,263.27Z"/><path class="cls-2" d="M260.72,261c.24.31.51,1,.87.32C261.29,261.1,261.09,261.46,260.72,261Z"/><path class="cls-2" d="M260.78,263l.09-.57c-.11,0-.28.12-.4,0Z"/><polygon class="cls-2" points="260.92 263.28 260.78 263 260.75 263.21 260.92 263.28"/><path class="cls-2" d="M260.14,266a1.48,1.48,0,0,1,.25.81,3.94,3.94,0,0,0,.11-1C260.36,265.81,260.12,265.67,260.14,266Z"/><path class="cls-2" d="M260.24,264.81l0,.05S260.31,264.8,260.24,264.81Z"/><polygon class="cls-2" points="260.44 269.83 260.52 269.78 260.44 269.77 260.44 269.83"/><path class="cls-2" d="M260.58,265.79a.48.48,0,0,0-.16-.53,2.75,2.75,0,0,1,.08.58C260.56,265.87,260.6,265.87,260.58,265.79Z"/><path class="cls-2" d="M260,267.83a2.7,2.7,0,0,0,.23-.43C260.07,267.53,259.86,267.79,260,267.83Z"/><path class="cls-2" d="M260.15,264.95l0,0C260,265,260.08,265,260.15,264.95Z"/><path class="cls-2" d="M260.15,264.95a1.4,1.4,0,0,0,.27.32,1.66,1.66,0,0,0-.15-.4Z"/><path class="cls-2" d="M263.2,270.68a.76.76,0,0,1-.36-1.24c-.31-.54-1.6-.16-2.32.33.17,0,.33,0,.58.57.21-.2.48-1.26.85-.79.22.74-.13.61-.33,1,.49-.32.74.94,1.46.76l-.27-.65C262.91,270.63,263.1,270.87,263.2,270.68Z"/><path class="cls-2" d="M260.54,268.7l-.05-.23a2,2,0,0,1-.52.81c.2.38.35.46.48.48l0-1.14Z"/><path class="cls-2" d="M260.46,267.43c.43.17.63.73,1.09.38,0-.68-.37-.47-.56-.87.13,1.09-.25-.31-.48.49a2.53,2.53,0,0,1-.12-.59,3.78,3.78,0,0,1-.19.57l0,0h0c.05,0,.09-.06.06,0v0a.58.58,0,0,1,.16,0c-.08.32-.11.05-.16,0h-.07l.26,1.09A3.21,3.21,0,0,0,260.46,267.43Z"/><path class="cls-2" d="M262.52,261.89a.14.14,0,0,1-.1,0C262.48,262,262.52,262,262.52,261.89Z"/><path class="cls-2" d="M262.27,262.34c-.06-.08-.24-.14-.2-.4s.21,0,.35,0c-.12-.15-.32-.54-.52,0l.06.08c-.14.44-.67,1-.73.95A3.08,3.08,0,0,0,262.27,262.34Z"/><path class="cls-2" d="M261.48,264.92l.23.91.36-.47-.22,0C261.93,264.86,261.65,265,261.48,264.92Z"/><polygon class="cls-2" points="260.23 269.94 259.77 269.82 260.42 270.34 260.23 269.94"/><polygon class="cls-2" points="260.3 271.12 259.91 271.08 260.15 271.39 260.3 271.12"/><path class="cls-2" d="M262.84,338.55l-.07.28A.9.9,0,0,0,262.84,338.55Z"/><path class="cls-2" d="M264,337l-.13-.15C263.93,337,264,337.06,264,337Z"/><path class="cls-2" d="M260.88,300.31c-.36.4-.93.85-.48.79l.43-.13A.85.85,0,0,1,260.88,300.31Z"/><path class="cls-2" d="M263.83,320.25l.13-.12-.42-.26Z"/><path class="cls-2" d="M265.63,320.49l-.27.52A1.77,1.77,0,0,0,265.63,320.49Z"/><path class="cls-2" d="M256.89,347.36l.17.51C257.34,347.48,257,347.52,256.89,347.36Z"/><path class="cls-2" d="M260.68,283.29a2.32,2.32,0,0,0-.25.85C260.68,283.73,261,283.39,260.68,283.29Z"/><path class="cls-2" d="M259.6,335.19c0,.18,0,.29.08.34C259.71,335.35,259.71,335.23,259.6,335.19Z"/><path class="cls-2" d="M260.46,285.11c0-.06.06-.12.1-.18a2,2,0,0,1-.12-.79A.74.74,0,0,0,260.46,285.11Z"/><path class="cls-2" d="M233.65,378.1l-.09,0S233.63,378.16,233.65,378.1Z"/><path class="cls-2" d="M223.45,384.52a2.78,2.78,0,0,1,.25-.39A.86.86,0,0,0,223.45,384.52Z"/><path class="cls-2" d="M260.2,275.91c0-.25,0,0,0,0Z"/><path class="cls-2" d="M261.89,274.65a.29.29,0,0,0,.21.1A.37.37,0,0,1,261.89,274.65Z"/><path class="cls-2" d="M263.2,287.57v0C263.28,287.52,263.27,287.53,263.2,287.57Z"/><path class="cls-2" d="M260.39,275.52a1.36,1.36,0,0,0-.12.32A1.42,1.42,0,0,0,260.39,275.52Z"/><path class="cls-2" d="M260.19,275.58l0-.22C260.15,275.33,260.11,275.36,260.19,275.58Z"/><path class="cls-2" d="M260.23,276.26a1.43,1.43,0,0,1,0-.41c0,.05-.05.07-.07.06Z"/><path class="cls-2" d="M245,360.82l-.07,0C244.94,361.15,245,361,245,360.82Z"/><path class="cls-2" d="M265.5,306.78l0,0v0Z"/><path class="cls-2" d="M265.84,307.68c-.55-.38-.48-.6-.38-.89l-1.25.32Z"/><path class="cls-2" d="M260.17,342.36l.69-.28c.06,1-.45,1.31.35,1.16-1-.88,1.36-2.07.32-2.95l.48-.17c-.08.09,0,.15-.11.24,1-.27-.43-1.07.35-1.8.3-.23.61-.32.59,0l.22-.86c.16-.17.32,0,.16.19l.65-1.06,0,0a5.29,5.29,0,0,1-.09-1c.34-.14,0,.21.21.25l.15-.75c.45,0,.38.65.06,1,.74.15.75,0,.77-.3a1.06,1.06,0,0,1,.11-.49,3.43,3.43,0,0,1,1-.95l-.51,1c.82-.12,1.23-.71,1.93-1.38a6,6,0,0,1,.22-.9c-.09.11-.27.5-.49.81-.78.42-1.5.63-1.27,0a2.07,2.07,0,0,0,.29-.27,2.29,2.29,0,0,0-.22-1.08c.24,0,.33-.11.35-.37a6,6,0,0,0,0-.87l.64,0c-.19-.53-.52-.48-.81-.79.05-.59.55-.73,1-.87.08-1-.78.67-.92-.45a3.14,3.14,0,0,0-.44-2.28c.21-.56.39.09.57-.11l-.52-.48c0-.12.17-.08.25-.07-.21-.41-.64,0-.83-.67-.71-.16,1-1.35.19-2.14.18-.2.39.09.64,0a6,6,0,0,0-1.12-1.83l.41-.78c-.47.58-1.05-.14-1.53-.76a6.08,6.08,0,0,0-.52.5l-.36-1c.1-.12.32,0,.59.13l-.16-.18c.23-.37.6-.19,1,.07l-.39.37a2,2,0,0,0,1.2.41.7.7,0,0,1-.18-.33c.11.06.2.1.26.07s-.08-.14-.24-.3l.71-.24-.28-.05.42-1.33c-.73-.93-1.81-1.74-2.13-3.24.53.36.86.06,1.48.07-.65.42.3,1.16.18,1.94.06-.41.36-.32.46-.22l-.62-1.38c.51,0,.37-.3.58-.67-1,.29-.69-1-1-1.58.34,0,.68.09.61.78.74-.78-1.19-1-.57-1.72,0,.17,0,.26.13.32-.31-.39-.09-1.36.21-1.13v.17c.1-1.12-.05-3.41-.91-3.56a7.4,7.4,0,0,1,1.2.19l-2.9-1.95c.73.16,2.46-.54,2.89.38a1.29,1.29,0,0,0-.05-1.16c-.1.18-1,.47-1.12.23.8-.7.43-.48,1.1-1.33-.15.28-1.3,0-1.27-.44.17.06,1.13-.06,1.25.1l-1.14-1.05c.21.26,1,0,1.27-.22-.22.12,0-.93-.11-1.21l-.25.46c.15-1.21-1.6-1.17-1.57-2.37.24.14,1.44.33,1.57-.28-.58-.27-2.79-1.19-3.26-2.24l.33-.21-.39-.81a20.43,20.43,0,0,1,3.45,2.65c.25-.46.39-.13.34-.81.3-.25.47.36.5.56l.17-1.58c-.67.08-.7-1.2-1.26-1.12l.73,1.7a2.1,2.1,0,0,1-1.83-2.08c.26-.29,1.2.19,1.42.16-.23-.14-.46-1.05-.3-1.16l.37.47c.24-.63-.91-1-.28-1.76,0-.26.85-.79.45-.82a6.81,6.81,0,0,1-3.71.29A8.29,8.29,0,0,1,263,291c.59-.44,1.44.61,2,.24a.92.92,0,0,1-.49-.34c.15-.27.57.1.48-.49-.68-.09,0-1.2-.58-.27-.21-.57.13-.62.09-1.29-.44.22-1.51-.58-1.71-1.15a.83.83,0,0,0,.5-.17c0-1.18.34-1.82.32-2.93.16-.1.35-.64.65-.42-.12-.16-.36-.3-.38-.64.58-.67.11.76.8.24-.4,0-.56-.87-.82-1.35-.61.16-.1,1.12.16,1.6a2.64,2.64,0,0,1-2.15-2c-.23-.91.54-.41.42-.56.12-1.72-1.5-1.44-.92-2.88.53-.58,1.07,0,1.45-.18.22.74-.32,1.15-.29,1.66l.24-.63a1.09,1.09,0,0,1,.18,1c.47-.48,0-2.91.46-4.24-.18-.23-.38-.64-.59-.44l.08.42c-.43.39-.61-.78-.81-.24a2.5,2.5,0,0,1-.57-2l.61-.16c-.18,0-.36.52-.16.74-.28-.33.81-1.23,0-1.58l-.41.56c-.32-.56-1-1.25-.8-2-.6.33.07.16-.63.67.87-.45,0,1.8.91,1.09-.81.53-.33.89-1,1.58.2,0,.38-.24.29.35a.82.82,0,0,1,.18.13v0l0,0s0,0,0,0a.74.74,0,0,1,.3-.31c.47.28.47,1.22.72,1.54-.09.35-.23-.14-.45.05l.37.47c-.45.06-.73.94-1,.12v.74a1.63,1.63,0,0,0-.14,1.41c-.09.35.51.88.16.58l.3,1.16h-.11c0,1.15.79,2.35,0,3.68a2.64,2.64,0,0,1,.15,1.43l-.39.13c.14.49-.36,1.5,0,1.7-1,.55-.18,2.41-.35,3.29l.51,0a6.17,6.17,0,0,0,.35,1.92l.45-.05c.38.64-.29,1.66-.22,2.68-.17-.07-.13-.33,0-.51-1,1.23.78,2.55.07,3.67a.58.58,0,0,1,0,.67.12.12,0,0,0,0-.07.61.61,0,0,0,0,.11c-.07.12-.16.25-.23.39a1.26,1.26,0,0,0,.23-.33,3.11,3.11,0,0,0,.19.84l-.48.14,0,.07c-.17.31.23.24.59.07a1.52,1.52,0,0,0,.3.41c-.77.27.28.82-.55,1.18.41.2.33,1.58,1.19,1.73-.11,0-.16.11-.17-.06a1.08,1.08,0,0,0,.06,1l-.61.16.84.75c-.36.47-.58.67-1.06.22.74,1.1.29.9,1,1.84l-.4,0c0,.34.56.87.24,1.08-.74.77,0,3.76-.7,5.72,1.16-.4-.51.92.4,1-.27.12-.42.39-.67.08.29,1-.41,1.5.36,2.18-.27.12-.41-.21-.57-.1.06.08.25.31.08.42s-.23-.14-.36-.3c.06,1,.92,1.1,1.71,1.16-.37.52-.31.78.22,1.14-.26.18-.52.49-.63-.14,0,.36-.34,2.18.3,2.2-.16.11,0,.5,0,.59a9.25,9.25,0,0,0,0,1.65l.1-.22c.78.29.18.65.29,1.28l-.08,0c-.53,1.46.28.62-.33,2.06l.48-.09c1,.11-.59,1.28-.18,2.1l.27-.3c.36.45-1.38,1.29-1.5,1.75-.09.1-.15-.15-.22-.29-.15.3-.18.46-.15.54s.14,0,.26,0,.6,0,.67.22c-.34,0-.86-.16-.92,0-.07,0,0,.05.06.14a1,1,0,0,1,.21.5.36.36,0,0,1,0,.15,1.34,1.34,0,0,1-.15.24.82.82,0,0,1-.44.3c.32,0,.63,0,.54.47-.3.56-1.81.78-1.49,1.73a.29.29,0,0,1-.23,0c-.12.51-.65,1.47-.46,2-1.6-.63-1.14,2.89-2.36,2l-.82,1.24-.1-.12a1.61,1.61,0,0,0-.46,1.68c-.21.11-.23-.1-.29-.16a2.49,2.49,0,0,0-1.18,2.47l-.47-.2c0,.42-1.82,1.15-2.16,2.58a.34.34,0,0,1-.09-.25c-.44,1.58-3.28,2.12-2.17,3.65l-.24,1.08c.89-1,.51.62,1.07.37-.22.48-1.23.74-.93.18l.13,0c-.62-.75-1.23,1.1-1.73.7-1.49,2.09-3.4,3.79-4.87,5.7l.75.21-.53.65c-.27.08-.64-.1-.25-.57-.52,0-.32,1-.2,1.12-.94.77-.41-.88-.64-.6l-.25.42.13,0c0,.5.24.71-.22,1.27-.39.28-.5-.08-.63,0,0,0-.1,0-.18.21l-.68.81h.72c-.05.55-.62.78.2.78-1.24,0-2.64,3-3.15,3.12a3.2,3.2,0,0,1-1,1.91c.22-.09.81.2.33.71-.93-1-1.22.67-2.33.55.81,0-1,1.68.15,1.59-.43.4-.42-.27-.94-.11-.4,1.41-2.08,2.23-2.95,3.7.13.13.51.06.5.51l-1.24.2c-.13.32.63.85-.22,1,.17,0,.43,0,.34.26-2.67,2.17-3.49,5.89-6.79,7.64.55-.17.39.1.19.39.2-.13.35.26.56.37l-1.37.74c.38.6-.87,1.25-.45,1.74l.18-.43c.24.92,1.83.32,2.55,1-.28-1,2.06-.67,1.73-2.27.3-.08.13.35.38.38-.16-.47,0-.79.48-1.18l0,.12c1-1.46,1.73-1.82,3.11-3.24l-.47-.17a1.39,1.39,0,0,1,.69-.37c-.29-.82-.74.93-1.11.1,1.11.12,1.78-2.38,2.89-2,.39-.52-.55-.17-.16-.69l.34,0-.21-.36a.78.78,0,0,1,.94-.12c-.09.06-.12.28-.17.38.61-.23.83-1.32,1-1.4l-.52.39c.83-1.59,2.43-3.09,3-4.82l-.26,0c.44-1.29.82-.69,1.52-2v.07a1.57,1.57,0,0,1,.38-1c0,.45.81-.24.76.31.49-1.4.14-.77,0-2l.43,0a1.29,1.29,0,0,1,.14-1.21c-.09.66.73,0,.67.75,1.55-.72.67-2.28,2-2.13-.41-1.17-1.23.7-1.18.26-.46.06-.28-.91.09-1.23s1.54.13,2.24-.85c-.08.09,0,.15-.09.24.48-.21.24-.92.91-1.11-.31-.62.46-.56-.13-1.1l-.51,1c.21-.63-.19-1.65.79-2.22a1.74,1.74,0,0,1,0,.77c.37-.1.22-.56.6-.67.58.54-.66,1.18-.58,2.08.46-.06.3-1.36.78-.58-.59-1,.82-.87.64-2l.35.33a1.32,1.32,0,0,1,.15-.68l.24.71c0-.84,1.13-.75,1.28-1.43-.78,1.08-.64-.1-1.25.14.47-1.69,1.56,0,2.47-1.63-.09.24-.78.58-.73.14a2.3,2.3,0,0,1,1-.51c.64-1-.5-.14-.43-.73.71,0,.17-.62.33-1.16l.39.28c1.07-.93-.59-.89.45-1.67l.22.82.25-.63.36.43c.09-.81.31-.93.85-1.39a.68.68,0,0,1-.3-1.1c.48-.17.23.46.69-.28.13.34.3.74-.28.78.1.13.13.34.23.46.53-.17.73-.87.92-1.12a.69.69,0,0,1-.29.21l.21-1.41c.26-.05.29.16.31.37.11-.24,0-.51.23-.84.26.31.6.53.43,1.07l.37-1.22c.18,0,.74-.22.77,0,.58-.4.36-1.77,1.13-2.29a.53.53,0,0,1,0-.38c.57-.61,1.39-.92,1.54-2l.9,0c.33-.71-1.16.08-.61-1.11.36-.86.68.08,1-.05,0-.57-.13-1.63.83-2C260.49,342,260.28,342.12,260.17,342.36Zm5.77-8.3c-.07.26-.15.9-.53.93C265.12,334.44,265.48,334.4,265.94,334.06Zm-1.2-15.23c.16.13.09.35-.09.59A.8.8,0,0,1,264.73,318.83Zm-4.09-40.17,0,0C260.49,279.1,260.56,278.95,260.64,278.66Zm.19-.86a.14.14,0,0,0-.2,0c.12.06.13.25.1.47C260.86,278.17,261,278.06,260.84,277.81Zm-20,83.25.2-.06C240.89,361.38,240.85,361.22,240.8,361.05Z"/><path class="cls-2" d="M265.42,320.46a.63.63,0,0,1-.26.08C265.24,320.61,265.34,320.61,265.42,320.46Z"/><path class="cls-2" d="M256.85,347.26l0,0a.27.27,0,0,0,.05.08Z"/><path class="cls-2" d="M265.17,290.94a.71.71,0,0,1-.24.34C265,291.29,265.14,291.21,265.17,290.94Z"/><path class="cls-2" d="M259.94,273.3l.14.54a.67.67,0,0,1,.15-.49C260.11,273.37,259.95,273.47,259.94,273.3Z"/><path class="cls-2" d="M262.83,268.51c-.06-.08,0-.17-.07-.25l-.22,0C262.56,268.63,262.75,268.86,262.83,268.51Z"/><path class="cls-2" d="M261.53,272.77c.4-.05.26-.39.18-.77a.24.24,0,0,1,0,.07C261.14,272,261.33,272.37,261.53,272.77Z"/><path class="cls-2" d="M261.69,271.91a1.09,1.09,0,0,1,0-.35C261.45,271.51,261.63,271.7,261.69,271.91Z"/><path class="cls-2" d="M260.55,276.73c.1-.18-.52-.1-.36-.21C259.67,276.33,260.84,277.72,260.55,276.73Z"/><polygon class="cls-2" points="262.86 272.43 262.36 272.58 262.77 272.79 262.86 272.43"/><path class="cls-2" d="M262.55,275.46l.13-.61c-.08,0-.13-.07-.17-.16C262.49,275.06,262.4,275.48,262.55,275.46Z"/><path class="cls-2" d="M262.5,274.69a.8.8,0,0,0-.09-.49A1.78,1.78,0,0,0,262.5,274.69Z"/><polygon class="cls-2" points="263.03 273.27 262.93 273.45 262.9 273.88 263.03 273.27"/><path class="cls-2" d="M262.57,282l.16.66c.17.06.27-.12.2-.37S262.73,281.93,262.57,282Z"/><path class="cls-2" d="M263.91,280c-.1.18-.21.2-.38.3h.62Z"/><path class="cls-2" d="M264.09,281.93c.17.06.51,1,.46.11C264.37,282,264.22,281.32,264.09,281.93Z"/><polygon class="cls-2" points="263.48 292 263.47 291.83 262.45 291.88 263.48 292"/><path class="cls-2" d="M266.08,300.82c.23-.79-.63-.18-.34-.9-.24-.18-.24.59-.45.4C265.55,300.8,265.41,301,266.08,300.82Z"/><path class="cls-2" d="M265.29,300.32a1.67,1.67,0,0,0-.16-.24A.76.76,0,0,0,265.29,300.32Z"/><polygon class="cls-2" points="221.9 385.69 221.43 385.97 221.9 385.91 221.9 385.69"/><path class="cls-2" d="M221.93,386.92l-.59-.29.29.6C221.67,387.12,221.76,386.91,221.93,386.92Z"/><path class="cls-2" d="M267.44,331.95l-.16-.08c-.17.15-.18.36-.19.79Z"/><polygon class="cls-2" points="262.97 339.44 263.05 339.35 262.45 339.18 262.97 339.44"/><path class="cls-2" d="M260.13,344.54c.16-.18.22-.48.38-.65C260.29,344.36,259.5,344.15,260.13,344.54Z"/><path class="cls-3" d="M217.29,325.49c-.06.33.77.21.93.26C218,325.19,217.08,325.51,217.29,325.49Z"/><polygon class="cls-3" points="214.94 320.39 215.29 320.43 214.35 319.82 214.94 320.39"/><path class="cls-3" d="M213.89,315.71c-1.24.84.66,1.61.39,2.58l-.28.21,1.22.13C214.76,317.62,213.7,316.52,213.89,315.71Z"/><path class="cls-3" d="M215.87,312.15c-.46.37-.65-.39.06.67a1.16,1.16,0,0,1,.09-.16A2.34,2.34,0,0,1,215.87,312.15Z"/><path class="cls-3" d="M216,312.67c.23.51.31-.51,0,0Z"/><path class="cls-3" d="M214.75,310.45l.76.45c.24-.27,0-.9.34-.78C215.27,309.56,215.05,309.85,214.75,310.45Z"/><path class="cls-3" d="M213.51,310.3l.35.24C214,310.42,214,310.31,213.51,310.3Z"/><path class="cls-3" d="M214.6,311.05l-.74-.52c-.16.19-.58.4.3.25C213.75,310.91,214.18,310.87,214.6,311.05Z"/><path class="cls-3" d="M214.59,311.54c-.1.48-.12,1-.83.57C214.41,313.27,215.3,312.72,214.59,311.54Z"/><path class="cls-3" d="M212.4,315.93c-.08.19-.15.38-.25.58l.56.26C212.44,316.63,212.83,315.76,212.4,315.93Z"/><path class="cls-3" d="M213.23,306.12c-.28.12-.56.64-.86.89l.57.27C213,306.94,212.87,306.39,213.23,306.12Z"/><path class="cls-3" d="M212.37,307l-.85-.39C211.83,307.24,212.1,307.22,212.37,307Z"/><path class="cls-3" d="M212,310.88q.76.3,1.53.65-.83-.45-1.64-.85Z"/><polygon class="cls-3" points="211.5 303.54 212.35 303.5 211 303.47 211.5 303.54"/><path class="cls-3" d="M210.15,302c.68-.12.44-1,1-.95a3.08,3.08,0,0,0-1.79-.41C209.8,300.8,210.09,301.22,210.15,302Z"/><path class="cls-3" d="M208.35,300.55a4.6,4.6,0,0,0,1,.08A2.08,2.08,0,0,0,208.35,300.55Z"/><path class="cls-3" d="M210.91,305.43a1.23,1.23,0,0,0,.34-1l-.51.75Z"/><path class="cls-3" d="M210.72,305.2l0,0-.36-.56Z"/><path class="cls-3" d="M211,305.5l0-.06C210.86,305.51,210.85,305.54,211,305.5Z"/><path class="cls-3" d="M211.82,308.79c-.65-.15-1.55-.64-1.73.46C210.75,309.22,210.85,308.58,211.82,308.79Z"/><path class="cls-3" d="M210.29,306.4c.1.25.18.52.26.78.18-.14.38-.44.7-.38C210.93,306.67,210.63,306.52,210.29,306.4Z"/><polygon class="cls-3" points="209.84 306.25 210.29 306.4 210.18 306.12 209.84 306.25"/><path class="cls-3" d="M208.73,302.16a1.78,1.78,0,0,1-1.14-.57,4.28,4.28,0,0,0,.76,1.22C208.59,302.68,209.09,302.52,208.73,302.16Z"/><path class="cls-3" d="M209.68,303.66l-.09,0C209.57,303.71,209.58,303.75,209.68,303.66Z"/><path class="cls-3" d="M204.46,298.6l0,.17.11-.1Z"/><path class="cls-3" d="M208.28,303c.11.37.41.39.74.37a3,3,0,0,1-.68-.53C208.23,302.86,208.17,302.91,208.28,303Z"/><path class="cls-3" d="M207.2,299.93a7.3,7.3,0,0,0,.11.77C207.39,300.37,207.41,299.82,207.2,299.93Z"/><path class="cls-3" d="M209.71,303.38l.06,0C209.84,303.19,209.78,303.26,209.71,303.38Z"/><path class="cls-3" d="M209.71,303.38a2.07,2.07,0,0,0-.69,0,2,2,0,0,0,.58.29A1.15,1.15,0,0,1,209.71,303.38Z"/><path class="cls-3" d="M200.07,302.14c.5-.59,1.67-.71,1.62.44.89,0,2.31-2.23,2.72-3.81-.24.26-.43.47-1.36.37,0,.48.65,1.88-.29,2-1-.34-.45-.72-.57-1.36-.29,1-1.88.39-2.56,1.69l1,.08C200.47,301.73,200,301.84,200.07,302.14Z"/><path class="cls-3" d="M205.5,299.86l.31.15a3.24,3.24,0,0,1-.15-1.59,1.27,1.27,0,0,0-1.15.24l1.15,1.19Z"/><path class="cls-3" d="M206.9,301c-.78.4-1.62.17-1.92,1.14.7.6,1,0,1.62.11-1.19-1,.65,0,.24-1.17a2.66,2.66,0,0,1,.74.47,5,5,0,0,1-.27-.88v.06h0c0,.13-.06.19-.07.09h0a1.52,1.52,0,0,1-.28.18c-.18-.46.11-.21.28-.18l.1-.08h0c-.47-.29-1-.51-1.48-.76C206,300.33,206.32,300.57,206.9,301Z"/><path class="cls-3" d="M208.1,309.55a.4.4,0,0,1,.15-.14C208.11,309.39,208,309.4,208.1,309.55Z"/><path class="cls-3" d="M208.24,308.78c.15,0,.49-.09.59.25-.07.39-.35.22-.58.38.3,0,.9.28.92-.48l-.15,0a3.27,3.27,0,0,1,.6-1.88A9.23,9.23,0,0,0,208.24,308.78Z"/><path class="cls-3" d="M207.64,305.05a11,11,0,0,0-1.12-.67l-.16.94.32-.31C207,305.66,207.31,305.21,207.64,305.05Z"/><path class="cls-3" d="M204.62,298.17l.72-.58c-.46.14-1,.34-1.42.51Z"/><polygon class="cls-3" points="203.17 297.21 203.69 296.61 203.04 296.72 203.17 297.21"/><path class="cls-3" d="M159.64,338.89l.34.13A.86.86,0,0,0,159.64,338.89Z"/><path class="cls-3" d="M158.71,337.06l-.37.13C158.57,337.18,158.73,337.14,158.71,337.06Z"/><path class="cls-3" d="M163.15,295.53c-.87-.34-2.08-.94-1.52-.23l.63.63A1,1,0,0,1,163.15,295.53Z"/><path class="cls-3" d="M152.06,319.77l.28-.09-.73-.49C151.75,319.37,151.88,319.56,152.06,319.77Z"/><path class="cls-3" d="M155.53,320.77l-.64.47A2.08,2.08,0,0,0,155.53,320.77Z"/><path class="cls-3" d="M167.77,346.3l.75-.55C168.12,345.48,168,346,167.77,346.3Z"/><path class="cls-3" d="M186.87,290.8a2.74,2.74,0,0,0-1.15-.7C186.26,290.69,186.62,291.5,186.87,290.8Z"/><path class="cls-3" d="M151.15,342.65a.62.62,0,0,0,.63,0C151.53,342.54,151.31,342.51,151.15,342.65Z"/><path class="cls-3" d="M184.29,290a3.19,3.19,0,0,0,.25.22,2,2,0,0,1,1.18-.12C185.32,289.67,184.82,289.44,184.29,290Z"/><path class="cls-3" d="M203.1,340.08a1,1,0,0,1,.13,0C203.15,340,203.12,340,203.1,340.08Z"/><path class="cls-3" d="M215.9,330.33a2.77,2.77,0,0,1,0,.65A.87.87,0,0,0,215.9,330.33Z"/><path class="cls-3" d="M197.37,293.26c.36.11.09-.06,0,0Z"/><path class="cls-3" d="M197.36,297.07a.74.74,0,0,0-.32.31A.94.94,0,0,1,197.36,297.07Z"/><path class="cls-3" d="M180.8,295.34h0C180.87,295.51,180.86,295.48,180.8,295.34Z"/><path class="cls-3" d="M197.7,293.86a1.69,1.69,0,0,0-.31-.44A1.87,1.87,0,0,0,197.7,293.86Z"/><path class="cls-3" d="M197.81,293.46l.25.22C198.18,293.56,198.18,293.46,197.81,293.46Z"/><path class="cls-3" d="M196.88,293.08a1.58,1.58,0,0,1,.5.34c0-.08,0-.14,0-.16Z"/><path class="cls-3" d="M185.52,353.44l.07.07C185.83,353.11,185.71,353.18,185.52,353.44Z"/><path class="cls-3" d="M162.4,307.71s0,0,0-.05h0Z"/><path class="cls-3" d="M162.23,308.86c-.54-1-.26-1.11.11-1.19l-2.07-1.44Q161.23,307.57,162.23,308.86Z"/><path class="cls-3" d="M162.73,342.7l.15-1c1.5-.26,1.51.4,1.94-.75-1,.87-1.54.49-2,0s-.84-.9-2-.15l.2-.68c.05.11.2,0,.25.15.56-1.4-2,.61-2.28-.6,0-.45.17-.88.58-.82l-1-.41c-.08-.25.36-.41.45-.18-.29-.35-.52-.73-.78-1.09l.08,0a7.43,7.43,0,0,1-1.61-.19c.2-.48.34,0,.61-.18-.31-.14-.63-.28-.93-.43a.92.92,0,0,1,.91-.26.8.8,0,0,1,.63.51c1.09-.87.87-.91.48-1s-.91-.28-.42-1.24l.55.51c1.29-1,.6-1.22,1.26-2.18-.43.27-1.78,2.16-2.68,1.66.12-.28.1-.58-.56-.83.92-.29.6-.62.42-1.11l1.24-.3c-.49-.42-1.11-.23-1.76-.41,0-.64.89-1,1.7-1.27.06-1-1.46,1-1.87-.14.39-.92-.3-1.37-1.11-2.35.41-.64.78,0,1.14-.2l-1-.46c0-.13.33-.11.49-.09-.42-.43-1.28,0-1.66-.69-.7-.08-.23-.49.27-.94s1-1,.23-1.46c.37-.2.78.15,1.28.11a12.62,12.62,0,0,0-2-2.25l1-.74c-1,.48-2-.49-2.84-1.47a8.68,8.68,0,0,0-1.14.41,11.46,11.46,0,0,1-.42-1.43c.24-.11.64.12,1.11.44-.08-.11-.16-.21-.24-.29.58-.34,1.23.07,1.85.52l-.88.27a5.57,5.57,0,0,0,2.27,1,.84.84,0,0,1-.28-.44,1,1,0,0,0,.5.19c.14,0-.13-.19-.4-.44l1.46.05-.54-.18,1.23-1.19-.93-1.08a13.58,13.58,0,0,1-.87-1.17,4.34,4.34,0,0,1-.84-2.72c.76.83,1.53.76,2.65,1.27-1.4-.07.06,1.45-.48,2.14.29-.38.81-.09,1,.08q-.31-.9-.59-1.86c.92.42.81,0,1.38-.2-2-.53-.71-1.59-1-2.46.61.28,1.16.73.68,1.35,1.71,0-1.65-2.1,0-2.23-.09.17-.23.21,0,.44-.28-.68.7-1.39,1.06-.86l-.09.17a5.12,5.12,0,0,0,.65-.92,6.39,6.39,0,0,0,.6-1.14,2.15,2.15,0,0,0-.24-2.29c.17.13,1.46,1.44,1.69,1.71a43.64,43.64,0,0,1-2.66-5.59c.92,1.16,3.93,3,3.84,4.35.36-.07.73-.19.82-1-.29,0-1.87-1.15-1.75-1.44a12,12,0,0,0,2.66.64c-.43,0-1.72-2-1.28-2.26a21,21,0,0,1,1.53,2,25.11,25.11,0,0,1-.5-2.51c0,.51,1.15,1.52,1.75,1.87-.37-.28.83-.57.94-.93l-.7-.12c1.24-.53-.68-3.39.66-4.08.07.5,1.12,2.66,1.84,2.56a25.38,25.38,0,0,1-.74-3.4,6.13,6.13,0,0,1,.32-3.61l.52.48a12.34,12.34,0,0,1,.72-1.13l-.07,3.89c0,1.46,0,2.85,0,3.66.69.24.49.62,1.11.26a.72.72,0,0,1-.09,1.12l1.62-.34a1.58,1.58,0,0,1,0-1.47,1.37,1.37,0,0,0,.15-1.28,16.89,16.89,0,0,0-1.13,2,4.45,4.45,0,0,1-.4-2.45c.09-.91.49-1.66,1.17-1.77.5.39.61,2.32.81,2.73,0-.48.8-1.23,1-1l-.25.86c.4.12.5-.39.68-.83s.43-.73,1-.22c.31,0,1.23,1.47,1.08.69-.77-1.38-2.12-5.94-2-7.15.07,0,.61.28,1.17.59a5,5,0,0,1,1.41,1.12c.71,1.11-.25,2.94.38,3.89a2,2,0,0,1,.22-1c.36.26.07,1.14.69.88-.1-1.36,1.36-.09.14-1.19.61-.47.73.13,1.5,0a4,4,0,0,1,1.23-3.45,2.42,2.42,0,0,0,.24,1,6,6,0,0,1,1,.12c.3.08.58.19.85.29a5.7,5.7,0,0,0,1.73.42c.1.33.69.77.36,1.33.21-.22.43-.65.83-.62.61,1.29-.9,0-.49,1.54.13-.78,1.13-.93,1.79-1.33,0-1.23-1.31-.44-1.92,0a4.54,4.54,0,0,1,3.12-3.8c1.31-.19.3,1.18.56,1,1.06.42,1.71-.17,2.32-.65s1.18-.88,1.92.06c.38,1.28-.67,2-.77,2.82a1.19,1.19,0,0,1-1-.57c-.25-.29-.47-.61-.79-.67l.63.69c-.4.27-1.07.37-1.32,0a1.21,1.21,0,0,0,.7.65c.18.09.39.16.61.24l.69.29a5.58,5.58,0,0,1,2.59,1.58c.41-.2,1-.32,1-.81l-.54-.09c-.09-1,1.43-.64,1-1.31a8.7,8.7,0,0,1,1.52-.32,1.92,1.92,0,0,1,.75.09,1.45,1.45,0,0,1,.61.51l-.44,1.17c.16-.32-.23-1-.67-.82.67-.24.53,2.26,1.77,1.14l-.2-1.11c1-.12,2.57-.74,3.14.22.32-1.26-.25,0,0-1.62-.44,1.79-2.2-1.44-2.32.67.21-1.78-.7-1.29-.92-3-.16.37,0,.84-.73.28a1.84,1.84,0,0,1-.33.24l0-.05,0,.06c-.06,0-.07,0,0,0a1.31,1.31,0,0,1,.11.74c-.8.64-2,.05-2.55.3-.36-.38.37-.34.3-.85-.3.12-.59.25-.89.4.3-.85-.7-1.85.62-1.92l-1-.41a1.84,1.84,0,0,0-1.85-1c-.45-.32-1.53.63-.91.06l-1.78.12,0-.22a6.9,6.9,0,0,0-2.62,0,3.32,3.32,0,0,1-2.66-.95,2.9,2.9,0,0,1-2.09.15l-.17-.79c-.72.23-2.24-.7-2.52.11a1.8,1.8,0,0,0-2.36-.87,9.8,9.8,0,0,1-2.62.64l.14,1a6,6,0,0,0-2.58,1.29l.3.85c-.67.88-2.41.09-3.77.69,0-.35.35-.4.67-.3a1.64,1.64,0,0,0-1.5-.13,3.46,3.46,0,0,0-1.06,1c-.63.81-1.18,1.57-2.21,1.34a.65.65,0,0,1-.82.48.15.15,0,0,0,.06-.09l-.14.07a7.17,7.17,0,0,0-.72-.12,2.09,2.09,0,0,0,.65.17,3.28,3.28,0,0,0-.85.93l-.69-.71-.08.08c-.58-.06-.05.57.55,1a2,2,0,0,0-.15.81c-1.18-1.06-.61,1.11-2,.07.12.41-.23.87-.5,1.4a1.85,1.85,0,0,0,.09,1.92c-.16-.16-.32-.15-.16-.32-.48.17-1,.36-1,1l-1-.74c.11.63.25,1.26.42,1.9-1-.06-1.47-.14-1.71-1.27,0,2.14-.47,1.32-.23,3.21l-.57-.55c-.26.4.14,1.63-.55,1.45-.91,0-1.77,1-2.54,2.26s-1.58,2.79-2.83,3.75c1.19.23.8.4.35.64s-1,.56-.15.93c-.57-.05-1,.21-1.29-.39,0,1.52-1.62,1.77-.38,3.16-.57,0-.7-.52-1.05-.47.08.15.35.57,0,.63s-.39-.33-.57-.62c-.29,1.5,1.33,2,2.86,2.48-.45.25-.68.48-.67.72s.27.52.75.86c-.55.14-1.15.46-1.2-.43-.14.45-1.23,2.89.07,3.07-.33.12-.13.67,0,.8a8.4,8.4,0,0,0-.18,2.24l.22-.29c1.5.43.34.86.57,1.71l-.16,0c-.51,1-.36,1.21-.24,1.4s.18.39-.29,1.42l.94-.22c1,0,.8.4.42,1s-.89,1.37-.41,1.84l.47-.5c.38.23-.2.76-.89,1.37s-1.49,1.28-1.54,1.63c-.14.19-.34-.15-.51-.31-.74,2,1.27-.1,1.87,1-.58.42-1.75.2-1.61,1.08-.19.29.56.73,1.23,1.25s1.25,1.13.93,1.91c.37-.45.74-.87,1.35-.51.27.35.08,1.09.06,1.77s.11,1.28,1.05,1.21a.67.67,0,0,1-.27.34c.72.38,1.75,1.52,2.69,1.35-1.22,1.18-.23,1.81.68,2.31s1.83.83.68,1.83l1.52,1.43-.26.18a1.93,1.93,0,0,0,2.5.63c.08.36-.27.42-.4.52,1,1.77,1.36,1.77,3.5,1.5l-.44.9c.34-.1.66.64,1.26,1.35a3.06,3.06,0,0,0,2.52,1.44.77.77,0,0,1-.4.3c1.25-.06,2.07,1.17,3,1.93s1.86,1.17,2.78-.42a16,16,0,0,0,1.58-.47c-1.61-.71.68-1.44.16-2.19.67,0,1.37,1.48.53,1.45l-.08-.21c-.78,1.73,1.93,1.2,1.63,2.41,3.47.59,6.95,1.7,10.42,1.46l-.53-1.41c.38,0,.76-.05,1.15-.07.34.29.57,1.07-.28,1.14.56.76,1.31-.9,1.27-1.22,1.72.33-.35,1.78.14,1.74l.68-.22-.19-.14c.45-.7.39-1.25,1.37-1.44.68.13.52.8.78.79,0,.1.12.13.39-.06l1.5-.26-.9-1c.47-.7,1.33-.3.32-1.37.75.84,2.1.52,3.34.07s2.26-1.24,2.69-1.09a3.65,3.65,0,0,1,2.15-2.07c-.36-.06-1.17-1.09-.32-1.42.58,1.2,1.12,1.25,1.7,1.07a2.21,2.21,0,0,1,2.11,0c-.67-.3-.16-.78.25-1.27s.68-1.07-.3-1.4c.72-.36.68.73,1.55.8.35-1.06,1.29-1.57,2.21-2.25a7.3,7.3,0,0,0,2.6-2.4c-.26-.24-.92-.26-1-1q1.07,0,2.17,0c.14-.5-1.38-1.48.07-1.53-.31-.06-.78-.15-.71-.48,2-1.47,2.8-3.79,3.48-6,.33-1.14.74-2.24,1.17-3.35a9.47,9.47,0,0,1,.9-1.62,13.84,13.84,0,0,1,1.23-1.61c-.77.54-.77.09-.72-.4-.21.29-.86-.14-1.34-.15.52-.57,1.09-1.15,1.58-1.77-1.3-.47,0-2.13-1.23-2.38l.2.62a2.94,2.94,0,0,0-2.47.12,6.37,6.37,0,0,1-2.8.5c.41.22.46.46.33.7a3.66,3.66,0,0,1-.79.71c-.62.49-1.14,1,0,1.83-.42.2-.57-.35-1-.29.78.46.83.88.3,1.47l-.18-.12c-.26,2-1.36,2.53-2.65,4.24l.93.24c-.32.37-.63.33-.94.42,1.06,1.1.64-1.14,1.88-.05-1-.1-1.39.63-1.77,1.34s-.91,1.3-1.93.91c-.37.59,1,.4.66,1l-.59-.16.55.57c-.34.34-1.13.08-1.54-.19.11-.05.07-.33.11-.44-.92.06-.79,1.44-1.09,1.47l.68-.31a5.2,5.2,0,0,1-.73,1.32l-1,1.18c-.17.2-.34.4-.5.61a6.4,6.4,0,0,0-.5.6,4.4,4.4,0,0,0-.71,1.43l.4.24c-.61,1.59-1.23.33-2.27,1.61v-.12a1.18,1.18,0,0,1-.66,1.17c.06-.65-1.19-.47-1-1.23-.87,1.55-.26,1-.4,3l-.57-.55c0,.75.11,1.08-.58,1.63.34-.87-.95-.8-.63-1.88a1.27,1.27,0,0,0-1.17.05,2.32,2.32,0,0,0-.65.65c-.36.46-.68.82-1.4-.18-.08,2.22,1.74.57,1.48,1.14.6.49-.09,1.67-.7,1.67-.56.19-1.7-2.24-2.94-1.87.13,0,.1-.18.23-.2-.59-.41-.77,1-1.55.21-.12,1.27-.78,0-.63,1.62l1.18-.55c-.59.51-1,2.44-2.37,1.74a3.16,3.16,0,0,1,.58-1.07c-.4-.42-.62.43-1,0-.06-1.55,1.47-.57,2-1.86-.44-.61-1.19,1.34-1.07-.41-.1,1.12-.45,1.1-.82,1s-.8-.29-1.2.56v-1c-.13.16-.4.62-.66.61l.41-1.25c-.67,1.08-1.35-.82-2-.31.68,0,.76.31.74.68s-.15.85.16,1.18c-1.85,1.22-1-2.52-2.85-2.16.26-.1.91.61.47,1a2.06,2.06,0,0,1-1-1.17c-1.26,0,.06,1-.55,1.49-.27-1.21-.7.37-1.36.64l.17-.95c-1.33-.88-.81,1.89-2,.83q.45-.57.88-1.15l-.76.16.41-1c-.92.58-1.13.38-1.72-.17,0,.71-.63,1.63-1.3,1.42-.24-.7.56-.77-.39-1,.43-.49.89-1.12,1-.15.14-.28.39-.5.53-.78-.22-.78-1-.54-1.36-.64a.52.52,0,0,1,.25.33,13.48,13.48,0,0,1-1.76.7c0-.42.23-.61.5-.8-.28,0-.64.3-1,.19.44-.66.78-1.4,1.41-1.5l-1.49.25c.07-.33-.12-1.1.16-1.29-.3-.75-2.19.47-2.63-.56a.65.65,0,0,1-.5.13c-.3-.33-.45-.81-.71-1.16a1.24,1.24,0,0,0-.5-.41,1.48,1.48,0,0,0-.83-.13q.25-.72.52-1.43c-.8-.3-.61,1.84-2,1.31-1-.34.57-1.09.62-1.6-.79.17-2.45.49-2.19-.91C162.47,342.27,162.46,342.57,162.73,342.7Zm-5.6-8.31c.26.12,1,.26.49.6C156.51,335.17,156.94,334.81,157.13,334.39Zm-2.86-15.84c.27.24.06.43-.37.62A.63.63,0,0,1,154.27,318.55Zm39.07-26.1,0,0C192.86,291.93,193,292.14,193.34,292.45Zm1,.81a.36.36,0,0,0,.2-.35c-.17.2-.43.12-.7-.05C193.85,293.12,193.93,293.34,194.35,293.26Zm-4.26,65.91-.29-.19C190.25,358.58,190.17,358.86,190.09,359.17Z"/><path class="cls-3" d="M155.13,320.66a2,2,0,0,1-.53,0A.42.42,0,0,0,155.13,320.66Z"/><path class="cls-3" d="M167.63,346.39l0,0,.12-.12Z"/><path class="cls-3" d="M177.24,299.53a1.15,1.15,0,0,1-.46-.44A.45.45,0,0,0,177.24,299.53Z"/><path class="cls-3" d="M201,294.73l-.82-.21c.36.16.37.42.46.65C200.71,295,200.75,294.61,201,294.73Z"/><path class="cls-3" d="M202.54,303.39c.15,0,.17.13.32.11l.29-.34C202.81,302.88,202.34,303,202.54,303.39Z"/><path class="cls-3" d="M199.88,297.82c-.4.73.17.69.65.89a.22.22,0,0,1-.07-.05C201.23,297.81,200.56,297.78,199.88,297.82Z"/><path class="cls-3" d="M200.64,298.76a1,1,0,0,1,.39.27C201.35,298.69,200.94,298.83,200.64,298.76Z"/><path class="cls-3" d="M196,293.34c.15.3.57-.88.57-.51C197.25,292,194.47,293.24,196,293.34Z"/><polygon class="cls-3" points="198.76 300.26 199.16 299.34 198.49 299.87 198.76 300.26"/><path class="cls-3" d="M195.8,297.73l.58.59a.38.38,0,0,1,.35-.21C196.31,297.87,195.92,297.46,195.8,297.73Z"/><path class="cls-3" d="M196.73,298.11a.76.76,0,0,0,.63.18A1.35,1.35,0,0,0,196.73,298.11Z"/><polygon class="cls-3" points="197.71 299.98 197.62 299.68 197.2 299.34 197.71 299.98"/><path class="cls-3" d="M187.89,294.82l-.9.15c-.14.33.05.57.38.48S188,295.17,187.89,294.82Z"/><path class="cls-3" d="M189.67,298.08a1.77,1.77,0,0,1-.14-.82l-.35,1.19Z"/><path class="cls-3" d="M187.39,297.81c-.15.33-1.27.81-.31.87C187.22,298.35,188,298.22,187.39,297.81Z"/><polygon class="cls-3" points="175.41 296.4 175.61 296.33 175.16 294.35 175.41 296.4"/><path class="cls-3" d="M168.08,304.68c1,0-.51-1.16.46-1-.08-.52-.79-.1-.84-.56C167.53,303.78,167.15,303.68,168.08,304.68Z"/><path class="cls-3" d="M167.7,303.08a2.24,2.24,0,0,0,.07-.4A1,1,0,0,0,167.7,303.08Z"/><polygon class="cls-3" points="217.24 327.78 217.7 327.06 216.99 327.5 217.24 327.78"/><path class="cls-3" d="M215.8,326.34l1.31-.15-1.16-.44C216,325.91,216.09,326.22,215.8,326.34Z"/><path class="cls-3" d="M159.18,332.23l-.31,0a.45.45,0,0,0-.3.53Z"/><polygon class="cls-3" points="161.07 338.8 161.03 338.68 160.15 339.5 161.07 338.8"/><path class="cls-3" d="M165.75,342.25c-.14-.17-.5-.19-.61-.39C165.6,342.08,164.78,343.34,165.75,342.25Z"/><path class="cls-4" d="M130.88,280.22l17.89,37.7.29.36,53.68-22.37c1.49-.62,1.07-7.64,1.08-8.67,0-3,.76-8.23-.79-11l-19.81-35.15c-.53-.95-.79.73-.85,1l-3.83,19.17.56-1.37-23.64-19.81a1.77,1.77,0,0,0-.56,1.37l-4.47,24.92.56-1.37-19.81-4.47c-.18,0-2.93,19.34,0,20L151,285.05a1.77,1.77,0,0,0,.56-1.37L156,258.76l-.56,1.37,23.64,19.81a1.77,1.77,0,0,0,.56-1.37l3.83-19.17-.85,1,19.81,35.15.29-19.64-39.62,16.51-9.91,4.13c-.53.22-4,1.9-4,1.89-.28-.08-2-4.26-2.42-5.2l-5.75-12.11-9.58-20.2c-.58-1.23-1.34,6.43-1.35,7C130,271.44,129.3,276.88,130.88,280.22Z"/><text class="cls-5" transform="translate(294.94 231.76) rotate(-0.89)">PLEASE!</text></svg>