<svg id="Layer_1" data-name="Layer 1" xmlns="http://www.w3.org/2000/svg" viewBox="0 0 796.36 743.92"><defs><style>.cls-1{fill:#ffd33a;}.cls-2{fill:#9f9994;}.cls-3{fill:#ffd3c4;}.cls-4{fill:#ffe912;}.cls-5{font-size:36.76px;fill:#6acfee;font-family:DKCoolCrayon, DK Cool Crayon;}.cls-6{letter-spacing:-0.03em;}.cls-7{letter-spacing:0em;}.cls-8{letter-spacing:-0.03em;}.cls-9{fill:#adf19b;}</style></defs><title>Artboard 32</title><path class="cls-1" d="M129.51,418.3c.1-.51-1.15-.32-1.38-.4C128.43,418.75,129.84,418.27,129.51,418.3Z"/><polygon class="cls-1" points="132.72 426.44 132.2 426.33 133.55 427.42 132.72 426.44"/><path class="cls-1" d="M133.61,434c2-1-.77-2.68-.14-4.14l.46-.28-1.78-.42C132.57,430.83,134,432.79,133.61,434Z"/><path class="cls-1" d="M129.81,439c.76-.43.89.76.05-1a1.88,1.88,0,0,1-.17.22A3.63,3.63,0,0,1,129.81,439Z"/><path class="cls-1" d="M129.69,438.16c-.22-.82-.58.68,0,0Z"/><path class="cls-1" d="M131,441.87c-.33-.3-.67-.61-1-.92-.44.34-.3,1.34-.74,1.06C129.94,443,130.36,442.69,131,441.87Z"/><path class="cls-1" d="M132.76,442.52l-.44-.48C132.14,442.19,132.11,442.35,132.76,442.52Z"/><path class="cls-1" d="M131.38,441l.94,1c.3-.24,1-.41-.37-.48C132.59,441.51,131.94,441.42,131.38,441Z"/><path class="cls-1" d="M131.55,440.28c.33-.71.45-1.53,1.4-.62C132.24,437.69,130.82,438.27,131.55,440.28Z"/><path class="cls-1" d="M135.86,434.05l.5-.86-.81-.56C135.95,432.91,135.19,434.21,135.86,434.05Z"/><path class="cls-1" d="M131.79,448.91c.46-.07,1-.73,1.57-1l-.75-.63C132.44,447.79,132.42,448.65,131.79,448.91Z"/><path class="cls-1" d="M133.36,447.93l1.12.93C134.24,447.79,133.82,447.71,133.36,447.93Z"/><polygon class="cls-1" points="135.11 442.13 133.04 440.61 135.22 442.49 135.11 442.13"/><path class="cls-1" d="M133.31,453.47l-1.23-.31c.64.22,1.28.43,1.94.63Z"/><path class="cls-1" d="M134.68,456.37c-1-.15-1.06,1.26-1.79.94a4.8,4.8,0,0,0,2.39,1.49A2.19,2.19,0,0,1,134.68,456.37Z"/><path class="cls-1" d="M136.65,459.41a7.93,7.93,0,0,0-1.37-.61A3.18,3.18,0,0,0,136.65,459.41Z"/><path class="cls-1" d="M134.94,450.9a1.91,1.91,0,0,0-.89,1.36l1-.9Z"/><path class="cls-1" d="M135.12,451.33l0,0,.29,1Z"/><path class="cls-1" d="M134.91,450.78l0,.12C135,450.81,135.08,450.77,134.91,450.78Z"/><path class="cls-1" d="M134.8,445.44c.87.49,2,1.63,2.68,0C136.5,445.2,136.12,446.15,134.8,445.44Z"/><path class="cls-1" d="M136.22,449.69c-.06-.43-.09-.87-.13-1.3-.31.13-.71.5-1.16.28C135.36,449,135.78,449.36,136.22,449.69Z"/><polygon class="cls-1" points="136.81 450.15 136.22 449.69 136.28 450.18 136.81 450.15"/><path class="cls-1" d="M136.79,456.83a3,3,0,0,1,1.41,1.44,7.72,7.72,0,0,0-.58-2.21C137.22,456.12,136.42,456.11,136.79,456.83Z"/><path class="cls-1" d="M136,454.12l.11.09C136.22,454.1,136.23,454,136,454.12Z"/><path class="cls-1" d="M141.47,464.4l.14-.22-.2.09Z"/><path class="cls-1" d="M137.79,455.85c0-.61-.43-.79-.91-.93a5.72,5.72,0,0,1,.74,1.14C137.81,456,137.92,456,137.79,455.85Z"/><path class="cls-1" d="M138.06,460.91a6.53,6.53,0,0,0,.19-1.21C138,460.15,137.72,461,138.06,460.91Z"/><path class="cls-1" d="M135.89,454.52l-.08-.06C135.62,454.74,135.73,454.67,135.89,454.52Z"/><path class="cls-1" d="M135.89,454.52a3.38,3.38,0,0,0,1,.39,3.28,3.28,0,0,0-.74-.7A1.63,1.63,0,0,1,135.89,454.52Z"/><path class="cls-1" d="M149.51,461.75c-1.05.59-2.72,0-2.21-1.66-1.35-.53-4.39,2-5.69,4.1.46-.23.88-.47,2.13.26.31-.74-.13-3.18,1.33-2.82,1.36,1.07.3,1.37.22,2.38.89-1.34,2.94.56,4.55-1l-1.38-.71C148.73,462.11,149.45,462.23,149.51,461.75Z"/><path class="cls-1" d="M140.48,462l-.38-.4a5.19,5.19,0,0,1-.5,2.43c1,.5,1.44.43,1.82.28-.42-.79-.81-1.58-1.17-2.39Z"/><path class="cls-1" d="M139,459.43c1.35-.19,2.38.66,3.29-.66-.74-1.3-1.43-.46-2.34-1,1.38,2.08-1-.33-.83,1.61a4.61,4.61,0,0,1-.91-1.08,7.78,7.78,0,0,1,0,1.44l0-.09h0c.1-.17.17-.25.14-.09,0,0,0,0,0,0a2.16,2.16,0,0,1,.49-.11c.08.78-.25.25-.49.11l-.19.06v0q.87,1,1.8,1.94A6.63,6.63,0,0,0,139,459.43Z"/><path class="cls-1" d="M140.51,445.81a.54.54,0,0,1-.26.16C140.44,446.06,140.56,446.08,140.51,445.81Z"/><path class="cls-1" d="M140.05,447c-.22-.1-.76-.08-.8-.65.22-.57.59-.18,1-.34-.43-.21-1.24-.84-1.52.35l.22.11c-.14,1-1.28,2.73-1.5,2.63A12.17,12.17,0,0,0,140.05,447Z"/><path class="cls-1" d="M139.58,453c.44.54.89,1.08,1.36,1.6l.62-1.36-.6.31C140.79,452.4,140.12,452.94,139.58,453Z"/><path class="cls-1" d="M141,464.94l-1.32.46q1.15.05,2.29.07Z"/><polygon class="cls-1" points="142.69 467.23 141.64 467.8 142.65 468.03 142.69 467.23"/><path class="cls-1" d="M203.58,393.06l-.48-.39A1.53,1.53,0,0,0,203.58,393.06Z"/><path class="cls-1" d="M204.48,396.67l.59-.05C204.71,396.52,204.47,396.51,204.48,396.67Z"/><path class="cls-1" d="M205.25,471.27c1.46,0,3.5.11,2.35-.59l-1.21-.54A1.66,1.66,0,0,1,205.25,471.27Z"/><path class="cls-1" d="M213.42,427.94l-.42.2,1.18.68Z"/><path class="cls-1" d="M208.12,426.86l.92-.94A3.53,3.53,0,0,0,208.12,426.86Z"/><path class="cls-1" d="M194,376.06l-1.39.34C193.06,377.07,193.39,376.38,194,376.06Z"/><path class="cls-1" d="M166.3,485.58a4.78,4.78,0,0,0,2,1.34C167.36,486,166.89,484.6,166.3,485.58Z"/><path class="cls-1" d="M217.27,390.73a.9.9,0,0,0-.9-.28C216.69,390.75,217,390.89,217.27,390.73Z"/><path class="cls-1" d="M170.93,487.4c-.14-.15-.29-.24-.44-.37a4.7,4.7,0,0,1-2.2-.12C169,487.61,169.89,488.2,170.93,487.4Z"/><path class="cls-1" d="M148.59,390.55a1.61,1.61,0,0,1-.2.1C148.55,390.73,148.59,390.66,148.59,390.55Z"/><path class="cls-1" d="M131.36,410.69a4.57,4.57,0,0,1,0-1A1.43,1.43,0,0,0,131.36,410.69Z"/><path class="cls-1" d="M149.61,476.58c-.5-.39-.17,0,0,0Z"/><path class="cls-1" d="M151.32,470.92a1,1,0,0,0,.62-.26A1.25,1.25,0,0,1,151.32,470.92Z"/><path class="cls-1" d="M177.26,479.57h0C177.14,479.32,177.17,479.37,177.26,479.57Z"/><path class="cls-1" d="M149.37,475.49a3,3,0,0,0,.28.84A3.37,3.37,0,0,0,149.37,475.49Z"/><path class="cls-1" d="M149,476c-.11-.2-.21-.34-.29-.48C148.51,475.62,148.47,475.77,149,476Z"/><path class="cls-1" d="M150.3,477.13a2.52,2.52,0,0,1-.64-.8c0,.15,0,.24,0,.25Z"/><path class="cls-1" d="M169.94,360.68a1.23,1.23,0,0,1-.13-.09C169.54,361.23,169.7,361.1,169.94,360.68Z"/><path class="cls-1" d="M201.06,452.4s0,.05,0,.08l.07,0Z"/><path class="cls-1" d="M200.88,450.43c1.19,1.31.83,1.64.29,2l3.65,1Q202.86,451.91,200.88,450.43Z"/><path class="cls-1" d="M200.16,385l-.59,1.54c-2.34-.52-2.11-1.65-3.19,0,1.87-.76,2.47.2,3,1.21s1,2,2.95,1.41l-.54,1c0-.23-.28-.18-.31-.4-1.33,2.07,3.17.1,3.25,2.24-.07.77-.51,1.41-1.11,1.09l1.39,1.23a.36.36,0,0,1-.71.09q.49,1.1.93,2.23h-.12a12.2,12.2,0,0,1,2.36,1c-.44.74-.49-.21-1,.06l1.25,1.11a1.4,1.4,0,0,1-2.2-1c-1.83,1.06-1.55,1.26-1,1.6s1.37.83.43,2.36c-.24-.38-.48-.75-.74-1.12-2.1,1.22-1.14,2-2.31,3.57.69-.4,3.09-3.35,4.34-2.12-.24.46-.27,1,.66,1.65-1.43.23-1,.93-.75,1.86l-1.91.2c.7.92,1.65.72,2.57,1.22-.06,1.17-1.51,1.56-2.73,1.95-.12,1.82,2.25-1.49,2.82.63-.61,1.59.27,2.58,1.49,4.39-.61,1.11-1.18-.14-1.71.27l1.57.9c0,.24-.5.17-.74.14.61.79,1.92,0,2.46,1.3,1.06.16.31.85-.43,1.67s-1.47,1.76-.28,2.59c-.55.38-1.17-.23-1.92-.13a13.89,13.89,0,0,0,3.08,3.82L209,425.92c1.52-1,3.13.56,4.38,2a13.69,13.69,0,0,0,1.69-.87c.29.74.53,1.49.8,2.25-.34.22-1-.07-1.73-.5.14.16.28.32.41.44-.79.68-1.84.14-2.85-.5l1.26-.62a7.49,7.49,0,0,0-3.46-1.23,1.3,1.3,0,0,1,.44.71,1.31,1.31,0,0,0-.77-.23c-.21,0,.19.3.64.68l-2.18.22.83.21c-.53.82-1.09,1.62-1.66,2.41.94,1.07,2.12,2.14,3.09,3.37a7.46,7.46,0,0,1,1.84,4.23c-1.37-1.09-2.47-.71-4.28-1.15,2.1-.39-.33-2.43.31-3.86-.34.76-1.18.42-1.45.17.44,1,.86,2,1.24,3-1.48-.37-1.24.33-2,.88,3.06.14,1.47,2.44,2.08,3.76-1-.19-1.91-.71-1.36-2-2.53.87,2.92,2.78.66,3.72.07-.33.27-.46-.19-.73.67,1-.6,2.64-1.3,1.94l.08-.32a10.71,10.71,0,0,0-.71,1.85,10.59,10.59,0,0,0-.48,2.19c-.17,1.46,0,2.86,1.14,3.52-.31-.11-2.73-1.46-3.16-1.78a87.75,87.75,0,0,1,6.16,7.23c-1.82-1.26-7.09-2.37-7.42-4.51a1.68,1.68,0,0,0-.88,2c.43-.16,3.22.63,3.18,1.17-2.78.09-1.61.25-4.19.67.65-.24,3.41,2,2.85,2.66-.38-.37-3-1.65-3.12-2.08.63,1.14,1.24,2.32,1.82,3.52-.24-.78-2.38-1.58-3.43-1.73.66.18-1,1.42-1,2,.38-.08.76-.16,1.13-.25-1.7,1.54,2.53,4.66.82,6.52-.35-.7-2.88-3.24-3.93-2.66a36.87,36.87,0,0,1,2.61,4.55c.91,2,1.56,4.2,1.09,5.52l-1-.41c-.2.69-.4,1.4-.66,2.08-.36-1.36-.91-3.63-1.49-5.74l-1.6-5.44c-1.12.09-1-.6-1.77.31-.95-.36-.56-1.42-.38-1.71-.77.49-1.5,1-2.27,1.43a2.22,2.22,0,0,1,.63,2.12,2.11,2.11,0,0,0,.34,2,32.66,32.66,0,0,0,.84-3.56,6.07,6.07,0,0,1,1.67,3.34,3,3,0,0,1-1,3.25c-.91-.29-1.9-3.09-2.37-3.57.27.73-.7,2.17-1.13,1.88q0-.69,0-1.36c-.65,0-.59.82-.71,1.49s-.35,1.31-1.39.78c-.48.11-2.33-1.69-1.84-.6,1.59,1.75,5.24,7.87,5.44,9.73a14.75,14.75,0,0,1-2.14-.41,7.1,7.1,0,0,1-2.62-1.12c-.74-.69-.77-1.82-.85-2.91a4.44,4.44,0,0,0-.75-2.74,2.87,2.87,0,0,1-.06,1.56c-.61-.28-.4-1.67-1.26-1.09.46,2-2.05.41,0,1.78a1,1,0,0,1-1.05.32,1.94,1.94,0,0,0-1.27-.1,4.44,4.44,0,0,1-.07,2.89,4.69,4.69,0,0,1-1.58,2.47,3.47,3.47,0,0,0-.46-1.48,11,11,0,0,1-1.66-.19c-.5-.12-1-.28-1.39-.43s-.87-.3-1.32-.46a14,14,0,0,0-1.46-.36c-.12-.53-1-1.32-.38-2.09-.35.29-.79.94-1.42.8-.71-2,1.42.1,1-2.19-.33,1.11-1.94,1.21-3.06,1.53-.36,1.86,2,1,3,.49a6,6,0,0,1-2,3.29,6.65,6.65,0,0,1-1.8,1.08,7.18,7.18,0,0,1-2.14.42c-2.25-.28-.19-1.87-.69-1.69a3.71,3.71,0,0,0-2.21-.56,7.57,7.57,0,0,0-1.85.52c-1.11.38-2.22.66-3.09-1.1-.14-2.09,1.84-2.63,2.27-3.75a2.31,2.31,0,0,1,1.46,1.33c.29.56.5,1.18,1,1.42-.28-.43-.51-.91-.76-1.36a2.37,2.37,0,0,1,1.2,0,1.2,1.2,0,0,1,.89.64c-.11-.86-1.37-1.66-2.74-2.7a15.08,15.08,0,0,1-2-1.72,5.84,5.84,0,0,1-1.37-2c-.73.08-1.72-.12-1.89.63.26.16.54.3.8.44-.27,1.53-2.5.13-2.07,1.36-1.51-.21-3.61-.29-4.24-2.16l1.18-1.44c-.39.37-.07,1.59.68,1.59-.55,0-.53-.93-.66-1.71s-.34-1.46-1.54-1l-.22,1.77c-.76-.21-1.77-.33-2.68-.62a2.66,2.66,0,0,1-1.89-1.62c-1,1.66.38.18-.64,2.4.77-1.21,1.34-.3,2,.47s1.19,1.5,1.75,0a2.6,2.6,0,0,0-.21,2.41,4.05,4.05,0,0,1,.3,2.5c.41-.45.44-1.21,1.24,0a2.64,2.64,0,0,1,.61-.14.76.76,0,0,1,0,.1v-.11c.11,0,.13,0,0,0a2,2,0,0,1,.15-1.16,3,3,0,0,1,2.19.4,5.23,5.23,0,0,0,1.88.68c.41.77-.72.29-.82,1.07.52,0,1,0,1.56-.07-.81,1.08.35,3.18-1.75,2.48L154,480c.45,1.26,1.56,2.47,2.72,2.49.63.76,2.74-.08,1.51.43,1,.24,2,.51,3.08.69l-.12.32a7.55,7.55,0,0,0,2.2.71l2.4.33a8.49,8.49,0,0,1,2.38.58,6.61,6.61,0,0,1,2.34,1.52,8,8,0,0,1,3.91,0l.31,1.18a8.78,8.78,0,0,1,2.7.23c1,.17,1.83.11,2.06-.51a2.5,2.5,0,0,0,1.95,1.18,6.71,6.71,0,0,0,2.59-.39c.88-.33,1.76-.72,2.56-1.1a7.6,7.6,0,0,1,2.14-.8l-.49-1.44a8.6,8.6,0,0,0,2.12-1.2,20.07,20.07,0,0,0,2-1.9l-.78-1.11c.41-.88,1.37-1.2,2.52-1.53a8.39,8.39,0,0,0,3.35-1.57c.2.5-.39.81-.93.85a2.91,2.91,0,0,0,2.41-.72,6.48,6.48,0,0,0,1.28-2.07c.65-1.55,1.09-3.08,2.76-3.35a1.19,1.19,0,0,1,1.05-1.2.26.26,0,0,0,0,.17,1.13,1.13,0,0,0,.18-.2c.36-.08.75-.14,1.13-.26a3.26,3.26,0,0,0-1,.15,5.89,5.89,0,0,0,.83-1.9l1.34.62c0-.06.05-.1.07-.17.86-.28-.21-.88-1.3-1.22a3.54,3.54,0,0,0-.14-1.29c1.11.44,1.25-.06,1.38-.58s.28-1,1.54-.7c-.71-1.06,1.15-3.61-.89-5.18.3.14.54,0,.37.38.62-.54,1.25-1.09.95-2l1.79.56c-.47-.89-1-1.77-1.45-2.64,1.45-.42,2.25-.56,3.06,1a8.78,8.78,0,0,1-.42-2.65,4.91,4.91,0,0,0-.6-2.33l1.06.55c.24-.72-.8-2.4.28-2.46,1.33-.38,2.15-2.32,2.91-4.61.39-1.14.74-2.38,1.23-3.55A12.31,12.31,0,0,1,218,440c-3.59.07,2-1.65-.67-2.37.86-.08,1.44-.6,2,.24-.4-2.33,1.91-3.11-.15-5,.86-.13,1.13.65,1.65.5-.15-.21-.61-.81-.09-1s.64.42.95.83c.2-2.32-2.34-2.85-4.69-3.29,1.25-1,1.16-1.57-.33-2.52.81-.31,1.68-.9,1.84.51.2-.75,1.52-4.68-.43-4.86.5-.22.19-1.07,0-1.28a13.31,13.31,0,0,0,.18-3.58l-.32.47c-2.29-.68-.51-1.4-.81-2.76l.24,0c1.6-3.18-.84-1.3.93-4.49l-1.43.26c-1.54-.05-1.14-.74-.52-1.65s1.48-2.06.78-2.9l-.75.72c-1.17-.83,3.91-3.19,4.12-4.29.24-.26.48.29.72.57,1.42-2.92-1.92-.09-2.63-2,.95-.52,2.63.08,2.61-1.29.35-.4-.64-1.24-1.51-2.22s-1.68-2.08-.91-3.19c-.68.57-1.36,1.11-2.13.35-.57-1.25,2-4.43-.77-5a1,1,0,0,1,.52-.41c-.88-.87-2.05-3-3.5-3.2,2.18-1.25,1.07-2.67-.11-3.86s-2.35-2.19-.26-3.09c-.53-1-1-2-1.63-2.93l.46-.13c-.66-2.08-2.06-2.23-3.36-2.35,0-.58.58-.48.81-.56-.74-3.17-1.16-3.42-4.48-4.29l1.06-1.07c-.58,0-.72-1.31-1.26-2.76a5.53,5.53,0,0,0-3.16-3.67,1.08,1.08,0,0,1,.73-.2,4.7,4.7,0,0,1-2.18-2c-.6-.84-1.07-1.87-1.67-2.7-1.12-1.71-2.57-2.81-4.61-1-.93-.06-1.83-.12-2.73-.13,1.19,1,.76,1.41.15,1.79s-1.41.71-1.16,1.4a2,2,0,0,1-1.07-1.46c-.13-.62,0-1.17.72-1l.06.34c.92-1.1.23-1.78-.62-2.37s-1.84-1-1.44-1.89a56.68,56.68,0,0,0-9.08-2.92,23.34,23.34,0,0,0-9.53-.17q.6,1,1.15,2a17.3,17.3,0,0,0-2,.36c-.65-.34-1.2-1.44.31-1.78-.54-.49-1.12-.06-1.5.55a3,3,0,0,0-.51,1.64c-1.49.07-1.48-.61-1.14-1.31s1-1.39.54-1.25l-1.15.6.36.14c-.65,1.2-.37,2.08-2,2.72-1.2.07-1.13-1-1.56-.85-.07-.14-.24-.13-.64.27-.82.36-1.64.74-2.41,1.18q.91.45,1.78.93c-.52,1.33-2,1.18,0,2.23a3,3,0,0,0-2.6,0,9.74,9.74,0,0,0-2.75,1.72c-.87.71-1.61,1.52-2.25,2.12s-1.11,1.06-1.46,1.08c-.12,2-1.09,3-2.32,4.37.57-.13,2.24.89,1.13,1.91-2.87-2.87-3.07,1.2-6.14.71,1.13,0,.58,1,.23,2s-.55,2,1.07,1.91c-.94.94-1.33-.7-2.66-.32-.08,1.75-1.1,3.12-2.22,4.59a13.65,13.65,0,0,0-2.81,4.91c.47.24,1.46,0,1.89,1-1.08.29-2.11.62-3.17,1,0,.82,2.62,1.65.46,2.36.48,0,1.2-.1,1.21.42-2.38,3.09-2.86,6.94-3.33,10.65s-1,7.37-3.74,10.92c1.1-.93,1.15-.24,1.12.53.28-.48,1.3.11,2,.07-.75,1-1.48,2-2.18,3,1,.33,1,1.16,1,2s0,1.57,1,1.74l-.33-1c2.21,1.31,5-1.65,7.9-1.32-1.24-.72-.26-1.58.6-2.51s1.62-1.93-.08-3.2c.64-.42.88.5,1.57.31-1.17-.66-1.34-1.37-.66-2.53l.29.18c.17-3.47,1.6-4.77,3.19-8.29l-1.44,0c.36-.77.85-.83,1.29-1.12-1.88-1.43-.66,2.22-2.77.86,1.53-.23,1.89-1.64,2.3-3s.92-2.63,2.61-2.48c.4-1.18-1.68-.14-1.28-1.34l.95,0-1-.67c.44-.73,1.64-.74,2.36-.52-.15.15,0,.59,0,.81,1.33-.63.66-2.88,1.13-3.09-.31.3-.64.59-.94.9a12.57,12.57,0,0,1,.67-2.57c.34-.84.71-1.69,1.09-2.53a13.58,13.58,0,0,0,1.52-5.19l-.71-.13c.11-1.4.53-1.75,1.06-2a3.31,3.31,0,0,0,1.66-1.84l.07.17a2.19,2.19,0,0,1,.46-2.17c.2,1,2,0,2.12,1.18.27-1.43.32-1.83.14-2.26a8.86,8.86,0,0,1-.84-2.38l1.1.46c-.3-1.12-.66-1.55.15-2.74-.16,1.45,1.8.64,1.78,2.39a2.25,2.25,0,0,0,1.78-.7,3.9,3.9,0,0,0,.69-1.31c.31-.9.7-1.53,2.19-.43-.74-3.26-2.9,0-2.71-.94a1.17,1.17,0,0,1-.57-1.44,1.83,1.83,0,0,1,1-1.35c.41-.24,1.3.38,2.26.91s2,1.06,2.88.54c-.18.08-.09.3-.27.38.51.16.71-.22,1-.57a.79.79,0,0,1,1.25-.23c-.18-1.91,1.12-.31.52-2.6-.56.4-1.11.78-1.63,1.2.38-.5.59-1.46,1-2.27a1.66,1.66,0,0,1,2.23-.91,5.49,5.49,0,0,1-.71,1.69c.68.51.89-.71,1.59-.11.15,1.2-.36,1.38-1,1.64a4.63,4.63,0,0,0-1,.44,1.65,1.65,0,0,0-.63,1.07c.42.4.72-.22,1-.53s.51-.43.62.88c-.1-1.67.42-1.74,1-1.63s1.16.26,1.67-1l.09,1.42c.16-.23.51-1,.9-1-.19.61-.35,1.27-.49,1.9.39-.87.93-.5,1.38-.1s.87,1,1.33.55c-.92,0-1-.45-1-1s.22-1.27-.24-1.77c.66-.51,1.12-.45,1.42-.2a2.64,2.64,0,0,1,.61,1.34c.31,1.16.51,2.34,1.8,2.29-.36.14-1.13-1.11-.48-1.64a3,3,0,0,1,1.11,1.87c.85.09.91-.28.85-.75s-.26-1.06.25-1.37c.11,1.82,1.09-.4,2.17-.6l-.52,1.35c.84.83,1.27.24,1.7-.38s.85-1.24,1.56-.19c-.59.45-1.15.88-1.71,1.37.39,0,.78,0,1.18,0l-1,1.35c1.57-.57,1.76,0,2.44.95.35-1,1.59-2.08,2.54-1.46.08,1.14-1.14.82.18,1.62-.84.48-1.79,1.16-1.51-.27-.33.34-.8.55-1.12.89a1.21,1.21,0,0,0,.71,1.12c.37.22.81.33,1,.49a.87.87,0,0,1-.22-.61,23.4,23.4,0,0,1,3-.08c-.11.63-.62.76-1.11.89.43.18,1.12-.11,1.67.3-1,.72-1.78,1.56-2.79,1.39.78.1,1.54.32,2.34.5-.26.44-.34,1.73-.83,1.82.1.65,1,.74,1.86,1s1.81.57,1.89,1.48a1.08,1.08,0,0,1,.84.11c.65,1.4.09,3.22,2.38,3.94-.44.64-.9,1.28-1.36,1.91,1.09,1,1.67-2.5,3.5-.78,1.38,1.22-1.32,1.38-1.58,2.17a7.67,7.67,0,0,1,2.34.7,1.52,1.52,0,0,1,.64,2.14C200.38,385.82,200.5,385.33,200.16,385Zm6.11,17c-.36-.3-1.4-.82-.61-1.23C207.36,400.84,206.63,401.31,206.27,402Zm4.05,28.48c-.43-.34-.14-.72.45-1.14A1.14,1.14,0,0,1,210.32,430.47Zm-54.65,49.67.08,0C156.27,481.18,156.1,480.78,155.67,480.14Zm-1.32-1.78a.48.48,0,0,0-.46.41c.35-.2.71.1,1.09.49C155.09,478.87,155,478.51,154.36,478.36ZM161,353.77l.53.14C160.93,354.72,161,354.27,161,353.77Z"/><path class="cls-1" d="M208.73,427a2.64,2.64,0,0,1,.8-.08A.57.57,0,0,0,208.73,427Z"/><path class="cls-1" d="M194.21,376s0,0,0-.05a1.23,1.23,0,0,0-.24.11Z"/><path class="cls-1" d="M182.16,472.71a1.71,1.71,0,0,1,.79.5A.67.67,0,0,0,182.16,472.71Z"/><path class="cls-1" d="M144.8,472.2l1.13.81a1.45,1.45,0,0,1-.39-1.24C145.3,472,145.08,472.51,144.8,472.2Z"/><path class="cls-1" d="M146.38,458.36c-.24-.06-.18-.3-.42-.36l-.57.36C145.77,459,146.48,459.14,146.38,458.36Z"/><path class="cls-1" d="M147.84,468.3c.9-.81.13-1.17-.55-1.73a.4.4,0,0,1,.09.12C145.85,467.47,146.84,467.91,147.84,468.3Z"/><path class="cls-1" d="M147.14,466.43a1.82,1.82,0,0,1-.49-.62C146,466.11,146.73,466.15,147.14,466.43Z"/><path class="cls-1" d="M151.8,477.26c-.12-.53-1.26,1-1.11.42-.72.4.17.58.92.5S153,477.77,151.8,477.26Z"/><path class="cls-1" d="M150.64,465.34l-1,1.14,1.24-.37C150.77,465.86,150.71,465.6,150.64,465.34Z"/><path class="cls-1" d="M153.95,470.91l-.61-1.22a.52.52,0,0,1-.61.08C153.23,470.41,153.66,471.24,153.95,470.91Z"/><path class="cls-1" d="M152.73,469.78a1.32,1.32,0,0,0-.88-.63A2.83,2.83,0,0,0,152.73,469.78Z"/><path class="cls-1" d="M152.07,466.44v.49c.16.25.31.52.48.77C152.36,467.29,152.22,466.86,152.07,466.44Z"/><path class="cls-1" d="M165.41,479.21l1.52.1c.3-.44,0-.87-.51-.86C166,478.68,165.39,478.67,165.41,479.21Z"/><path class="cls-1" d="M163.54,473.7a2.65,2.65,0,0,1-.07,1.27l.94-1.61Z"/><path class="cls-1" d="M167,474.95c.33-.42,2.15-.79.72-1.19C167.43,474.22,166.14,474.08,167,474.95Z"/><polygon class="cls-1" points="185.85 476.71 185.55 476.88 186.84 479.65 185.85 476.71"/><path class="cls-1" d="M193.72,460.74c-1.43.63,1.28,1.42-.23,1.85.35.72,1.24-.36,1.51.3C195,461.74,195.56,461.63,193.72,460.74Z"/><path class="cls-1" d="M195,462.89a3.57,3.57,0,0,0,.08.64A1.54,1.54,0,0,0,195,462.89Z"/><polygon class="cls-1" points="129.51 414.75 128.86 415.88 129.9 415.17 129.51 414.75"/><path class="cls-1" d="M131.75,417l-2,.25,1.75.68C131.46,417.64,131.3,417.15,131.75,417Z"/><path class="cls-1" d="M202.83,405.26h.47c.48-.22.49-.45.5-.9Z"/><polygon class="cls-1" points="201.39 392.48 201.42 392.7 202.97 391.76 201.39 392.48"/><path class="cls-1" d="M195.39,383.71c.11.4.68.66.79,1.06C195.51,384.12,197.3,382.61,195.39,383.71Z"/><path class="cls-2" d="M149.32,553.72c-.09.13.32.23.39.27C149.71,553.72,149.21,553.69,149.32,553.72Z"/><polygon class="cls-2" points="149.31 551.01 149.46 551.11 149.19 550.62 149.31 551.01"/><path class="cls-2" d="M150.15,548.79c-.75,0-.19.85-.58,1.15h-.18l.47.38C150,549.82,149.83,549.06,150.15,548.79Z"/><path class="cls-2" d="M152,548.15c-.29,0-.13-.34-.18.25l.08,0A.94.94,0,0,1,152,548.15Z"/><path class="cls-2" d="M151.93,548.37c-.07.24.28-.07,0,0Z"/><path class="cls-2" d="M152.19,547.23l.12.4c.18,0,.31-.27.39-.12C152.68,547.14,152.51,547.15,152.19,547.23Z"/><path class="cls-2" d="M151.81,546.76l0,.2C151.92,547,152,546.92,151.81,546.76Z"/><path class="cls-2" d="M151.93,547.37l-.08-.42c-.12,0-.34-.07,0,.18C151.68,547,151.84,547.18,151.93,547.37Z"/><path class="cls-2" d="M151.76,547.52c-.21.12-.38.31-.5-.09C151.13,548.06,151.63,548.15,151.76,547.52Z"/><path class="cls-2" d="M149.5,548.42l-.28.16.15.28C149.29,548.72,149.71,548.49,149.5,548.42Z"/><path class="cls-2" d="M153.25,545.44a3.63,3.63,0,0,0-.61-.08l.08.29C152.86,545.57,153,545.38,153.25,545.44Z"/><path class="cls-2" d="M152.64,545.36l-.12-.43C152.38,545.22,152.48,545.32,152.64,545.36Z"/><polygon class="cls-2" points="151.09 546.43 151.39 547.18 151.12 546.32 151.09 546.43"/><polygon class="cls-2" points="153.75 544.15 154.01 544.46 153.64 543.93 153.75 544.15"/><path class="cls-2" d="M154,543.26c.22.24.53,0,.65.19a1.41,1.41,0,0,0-.26-.8C154.44,542.89,154.34,543.08,154,543.26Z"/><path class="cls-2" d="M154.2,542.24a2,2,0,0,0,.19.42A1,1,0,0,0,154.2,542.24Z"/><path class="cls-2" d="M152.81,544.37a.65.65,0,0,0,.51-.12l-.45,0Z"/><path class="cls-2" d="M152.85,544.24h0L153,544Z"/><path class="cls-2" d="M152.8,544.41v0S152.75,544.38,152.8,544.41Z"/><path class="cls-2" d="M151.78,545.67c-.15-.28-.23-.79-.73-.51C151.28,545.4,151.56,545.24,151.78,545.67Z"/><path class="cls-2" d="M152.23,544.39l-.23.33c.11,0,.29,0,.36.16Z"/><polygon class="cls-2" points="152.17 544.16 152.23 544.39 152.32 544.27 152.17 544.16"/><path class="cls-2" d="M153.6,542.72a.79.79,0,0,1,0-.6,1.87,1.87,0,0,0-.35.58C153.34,542.77,153.53,542.95,153.6,542.72Z"/><path class="cls-2" d="M153.2,543.45v0S153.13,543.42,153.2,543.45Z"/><path class="cls-2" d="M154.28,540.22h-.08l.07,0Z"/><path class="cls-2" d="M153.13,542.7c-.14.13-.07.26,0,.39a1.3,1.3,0,0,1,.07-.4C153.17,542.66,153.13,542.65,153.13,542.7Z"/><path class="cls-2" d="M154.21,541.64a1.79,1.79,0,0,0-.32.19C154,541.79,154.31,541.71,154.21,541.64Z"/><path class="cls-2" d="M153.32,543.39v0C153.43,543.4,153.39,543.39,153.32,543.39Z"/><path class="cls-2" d="M153.32,543.39a1.12,1.12,0,0,0-.17-.3.92.92,0,0,0,0,.31Z"/><path class="cls-2" d="M151.93,538.68c.36.17.55.7,0,.91.15.45,1.45.68,2.25.63-.16-.07-.31-.13-.39-.57-.25,0-.77.62-1,.19,0-.54.28-.34.56-.5-.54,0-.45-.85-1.17-1l.08.5C152.18,538.82,152.07,538.6,151.93,538.68Z"/><path class="cls-2" d="M153.91,540.89v.16a1.45,1.45,0,0,1,.69-.32.67.67,0,0,0-.33-.48l-.32.71Z"/><path class="cls-2" d="M153.66,541.71c-.36-.27-.4-.68-.92-.63-.13.44.22.43.3.75.16-.73.15.28.57-.13a1.24,1.24,0,0,1,0,.42,2.06,2.06,0,0,1,.32-.29h0c-.06,0-.1,0-.05,0s0,0,0,0l-.14-.09c.16-.17.12,0,.14.09l.06,0h0l0-.78A1.49,1.49,0,0,0,153.66,541.71Z"/><path class="cls-2" d="M150.33,544.46a.19.19,0,0,1,.1,0C150.39,544.41,150.37,544.38,150.33,544.46Z"/><path class="cls-2" d="M150.68,544.26c0,.07.18.17.08.32s-.19-.07-.33-.11c.07.14.16.46.47.22l0-.07a1.47,1.47,0,0,1,.92-.33A3.79,3.79,0,0,0,150.68,544.26Z"/><path class="cls-2" d="M152.07,542.93l0-.66-.46.17.22.06C151.64,542.8,151.92,542.83,152.07,542.93Z"/><polygon class="cls-2" points="154.51 540.23 154.91 540.46 154.43 539.9 154.51 540.23"/><polygon class="cls-2" points="154.74 539.45 155.1 539.62 154.95 539.34 154.74 539.45"/><path class="cls-2" d="M159.32,496.72l-.17-.13A.53.53,0,0,0,159.32,496.72Z"/><path class="cls-2" d="M159.74,498l.19,0C159.81,497.91,159.73,497.92,159.74,498Z"/><path class="cls-2" d="M161.61,520.89c.44-.12,1.08-.2.65-.32l-.43-.08A.42.42,0,0,1,161.61,520.89Z"/><path class="cls-2" d="M163.91,507.29l-.15,0,.33.31Z"/><path class="cls-2" d="M162.29,506.49l.38-.23A1.17,1.17,0,0,0,162.29,506.49Z"/><path class="cls-2" d="M156.46,490.09,156,490C156.08,490.35,156.24,490.14,156.46,490.09Z"/><path class="cls-2" d="M157.47,531.66a1.23,1.23,0,0,0,.44-.44C157.59,531.39,157.16,531.47,157.47,531.66Z"/><path class="cls-2" d="M163.83,495.65a.31.31,0,0,0-.3-.06C163.64,495.68,163.74,495.71,163.83,495.65Z"/><path class="cls-2" d="M158.15,530.6l-.14.08a1,1,0,0,1-.09.54C158.16,531.09,158.35,530.91,158.15,530.6Z"/><path class="cls-2" d="M148,465.38a.54.54,0,0,1,0-.07C148,465.32,148,465.34,148,465.38Z"/><path class="cls-2" d="M149.53,456.73a1.3,1.3,0,0,1,.14.28C149.68,457,149.64,456.87,149.53,456.73Z"/><path class="cls-2" d="M156,536.48c0,.17,0,0,0,0Z"/><path class="cls-2" d="M154.15,536.66a.36.36,0,0,0-.17-.14A.46.46,0,0,1,154.15,536.66Z"/><path class="cls-2" d="M156.21,528.06h0C156.12,528.07,156.14,528.06,156.21,528.06Z"/><path class="cls-2" d="M155.77,536.65a.79.79,0,0,0,.2-.16A.82.82,0,0,0,155.77,536.65Z"/><path class="cls-2" d="M156,536.69l-.09.13C155.95,536.86,156,536.86,156,536.69Z"/><path class="cls-2" d="M156.11,536.25a.68.68,0,0,1-.14.24s.07,0,.08,0Z"/><path class="cls-2" d="M153.8,478.16l0,0C153.59,478,153.65,478.07,153.8,478.16Z"/><path class="cls-2" d="M158.94,515.15v0l0,0Z"/><path class="cls-2" d="M158.85,514.46c.41.43.3.55.12.7l1.24.25Z"/><path class="cls-2" d="M158.14,493.79l-.22.54c-.78-.27-.7-.7-1.08-.14,1.3-.4.7,1.53,2,1.13l-.17.36c0-.08-.09-.07-.11-.15-.43.74,1.06.06,1.12.79,0,.27-.14.5-.35.39l.5.41a.12.12,0,1,1-.24,0l.39.76h0a4.49,4.49,0,0,1,.82.26c-.11.27-.17-.05-.31.06l.47.33c-.27.3-.72,0-.78-.27-1.13.87.45.25,0,1.4l-.31-.36c-.63.53-.25.76-.53,1.39.2-.2.8-1.35,1.29-1,0,.17,0,.36.32.53-.45.17-.25.38-.11.68l-.61.19c.3.28.59.14.94.24.08.4-.36.65-.72.88.12.64.6-.69,1,0,0,.59.32.85.9,1.33-.08.43-.39.07-.52.26l.59.14c0,.08-.14.11-.22.12.28.19.62-.17.91.14.32-.07.18.14,0,.33s-.39.34-.09.47l.11.06c-.22.06-.4,0-.67,0a2.14,2.14,0,0,1,.38.35,6.64,6.64,0,0,1,.47.49,6,6,0,0,0-.57.32c.58-.19.95.47,1.23,1a5.76,5.76,0,0,0,.61-.12l.08.76c-.13,0-.31-.1-.52-.3l.1.17c-.31.15-.61-.1-.88-.39l.46-.09a2.61,2.61,0,0,0-1-.69.45.45,0,0,1,.08.27.43.43,0,0,0-.23-.14c-.07,0,0,.11.15.28l-.72-.1.25.13-.73.69c.45.85,1.24,1.75,1.16,2.8-.4-.42-.78-.35-1.36-.58.71,0,0-.84.32-1.29-.16.23-.42.07-.49,0l.23,1.09c-.47-.2-.43.06-.71.21,1,.18.38.89.53,1.36-.32-.1-.61-.3-.37-.71-.89.22.87,1,.09,1.29,0-.11.1-.15,0-.25.19.35-.26.88-.48.64l0-.11c-.38.67-.81,2.16-.06,2.57a10.62,10.62,0,0,1-1.07-.55l2.21,2.27c-.64-.37-2.43-.54-2.6-1.28a.63.63,0,0,0-.24.75c.14-.08,1.1.08,1.1.26-.92.15-.52.15-1.37.44.21-.12,1.21.47,1.08.73-.14-.1-1.07-.37-1.14-.51l.8,1.07c-.13-.24-.88-.36-1.24-.32.23,0-.24.58-.2.8l.35-.2c-.45.71,1.2,1.31.86,2.05-.18-.17-1.25-.73-1.53-.39.47.38,2.3,1.75,2.47,2.58h-.36l.16.65a21.12,21.12,0,0,1-2.54-2.91c-.35.2-.39-.06-.53.39-.35,0-.35-.4-.32-.53l-.56.93c.65.19.35,1,.89,1.16l-.25-1.33c.65.19,1.55,1.3,1.18,2-.32.09-1.07-.55-1.29-.62.18.17.16.83,0,.84l-.22-.43c-.38.31.59,1-.18,1.21-.1.15-1,.19-.63.35a9.93,9.93,0,0,1,3.54,1.16,6,6,0,0,1-1.43.66c-.66.06-1.19-.91-1.76-.86a1,1,0,0,1,.37.39c-.21.12-.51-.27-.57.13.62.3-.34.74.47.38,0,.43-.28.34-.41.78.46,0,1.26.91,1.31,1.34a1.12,1.12,0,0,0-.51-.07c-.34.73-.78,1-1,1.72-.18,0-.49.27-.71,0,.08.14.26.32.19.54-.71.21.09-.51-.69-.44.36.17.3.75.42,1.14.61.12.37-.67.26-1.06a2.5,2.5,0,0,1,1.51,2c0,.65-.61.06-.53.2-.55,1,1,1.45.13,2.14-.64.17-1-.36-1.4-.41,0-.54.59-.61.69-.94l-.39.31c-.11-.21-.12-.58.09-.69-.57.13-.77,1.81-1.51,2.5.11.21.19.54.44.49l0-.29c.5-.09.37.71.69.44.15.46.45,1,0,1.45l-.61-.12c.17.05.46-.2.34-.41.18.3-1.07.48-.4,1l.53-.21c.15.47.6,1.14.25,1.52.64,0,0-.13.76-.2-.93,0,.46-1.13-.57-1,.89,0,.54-.44,1.35-.62-.19-.06-.42,0-.19-.32a.88.88,0,0,1-.14-.14l0,0h0s0,0,0,0a.69.69,0,0,1-.36.08c-.37-.35-.13-.94-.28-1.22.17-.19.18.17.43.13l-.22-.43c.43.13.92-.33,1,.29l.19-.46a.81.81,0,0,0,.49-.84c.17-.19-.26-.74,0-.42V533l.11,0c.32-.71-.14-1.76.93-2.31a1.26,1.26,0,0,1,.22-1l.39.06c0-.36.72-.81.39-1.09,1.11,0,.78-1.45,1.16-1.94l-.47-.2a3,3,0,0,0,.16-1.33l-.43-.13c-.19-.54.69-.94.89-1.6.14.1,0,.25-.1.33,1.24-.42-.08-1.89.87-2.33a.3.3,0,0,1,.16-.42.07.07,0,0,0,0,.05l0-.07c.1,0,.21-.1.31-.16a1,1,0,0,0-.3.12,1.54,1.54,0,0,0,0-.6l.48.08s0,0,0-.05c.24-.13-.15-.24-.53-.26a1.15,1.15,0,0,0-.17-.37c.79.11,0-.62.81-.54-.33-.28.09-1.11-.67-1.52.11,0,.18,0,.14.1.17-.19.35-.38.2-.66l.61.12-.59-.77c.46-.17.71-.21,1,.25-.41-1,0-.67-.49-1.52l.36.17c.07-.22-.3-.75.05-.77.88-.22,1-2.35,2.1-3.35-1.18-.17.7-.39-.12-.76.28,0,.5-.09.65.19,0-.73.76-.8.21-1.5.29,0,.33.28.51.27,0-.07-.15-.28,0-.29s.18.17.26.31c.2-.66-.57-1-1.3-1.35.48-.2.49-.38.08-.8.29,0,.61-.12.55.32A5.43,5.43,0,0,0,166,507c.18-.46.27-.9,0-1,.2-.07.21-.42.16-.51s.15-.34.19-.41a5.36,5.36,0,0,0-.36-1l0,.2c-.86-.11-.36-.51-.62-1l.08,0c.19-1.11-.39-.31-.12-1.43l-.43.21c-1,.26.28-1-.28-1.41l-.19.28c-.44-.17,1-1.28,1-1.61.06-.09.17.05.27.12.3-1-.63.11-1-.4.28-.22.86-.16.78-.56.19-.28-1.43-.73-1-1.47-.2.2-.41.4-.69.21-.23-.37.54-1.42-.37-1.51a.35.35,0,0,1,.17-.14c-.31-.24-.69-.88-1.18-.92,1.46-.84-1.44-1.64,0-2.15l-.42-.92.16,0c-.12-.64-.54-.73-1-.82,0-.17.22-.12.3-.14,0-1-.12-1.05-1.1-1.54l.44-.24c-.34-.1.27-1.54-.58-2.21a.38.38,0,0,1,.24,0c-.9-.78.46-2.8-1.37-2.55l-.65-.49c.17.88-.78.14-.94.58-.22-.29.21-1,.44-.66l-.06.09c.94-.17-.06-1.15.55-1.34-.63-1.62-.71-3.4-1.23-4.95l-.63.42-.15-.55c.11-.2.47-.38.58,0,.32-.34-.56-.52-.71-.48,0-.85.91,0,.84-.23l-.16-.29-.06.1c-.37-.15-.68-.07-.81-.54,0-.34.37-.3.36-.43s.06-.06,0-.18l-.18-.7-.45.46c-.38-.2-.2-.65-.7-.11.79-.8-.56-2.64-.37-3a1.59,1.59,0,0,1-.82-1.22c-.07.17-.65.46-.73,0,1.32-.29.26-1,1-1.69-.49.54-.6-1.2-1.27-.4,0-.41.46-.19.66-.58-.8-.7-.38-2-.93-3.07-.17,0-.36.31-.69.17l.62-.87c-.16-.19-1,.15-.59-.45-.12.1-.3.26-.4.14,0-2.41-2.22-4.11-1.48-6.81-.22.41-.32.22-.41,0,0,.17-.41.14-.62.25l.3-1.13c-.68.06-.39-1-1-.83l.21.25c-.84-.13-1.37,1.09-2.29,1.36,1,.14-.78,1.55.61,1.84-.13.22-.34,0-.52.13.45,0,.61.22.58.68h-.11c.49,1.08.28,1.69.48,3l.41-.25a.87.87,0,0,1-.15.56c.79.07-.23-.77.61-.75-.78.68.67,1.9-.28,2.51.14.42.47-.31.62.11l-.24.21.4,0c0,.29-.26.55-.49.65,0-.08-.13-.16-.18-.23-.2.47.47,1,.4,1.11l0-.46c.67,1,.79,2.55,1.75,3.43l.18-.16c.69.69,0,.75.52,1.6l-.06,0a.85.85,0,0,1,.53.57c-.33-.14-.32.61-.7.4.74.75.49.33,1.48.65l-.3.26c.39.09.56,0,.82.47-.43-.27-.43.48-1,.2-.42,1.23,1.28,1.15.32,2,1.12.09.24-1,.53-.85.24-.32.85.1.86.44s-1,1-.75,1.73c0-.08-.1-.06-.12-.14-.14.38.54.45.26.94.66,0,.13.47.9.26l-.43-.64c.34.33,1.35.39,1.16,1.21a1.43,1.43,0,0,1-.6-.22c-.15.27.28.32.12.6-.77.21-.47-.8-1.19-1-.24.32.83.62-.05.69,1.14-.06.14.81,1.11,1l-.46.13c.1.06.37.15.42.31l-.68-.07c.65.25-.14,1,.27,1.28-.32-.84.47-.38.67-.86,1,.83-1,1-.32,2.11-.12-.14.05-.69.35-.52a1.48,1.48,0,0,1-.26.83c.37.74.42-.28.81-.05-.45.46.36.3.65.58l-.45.17c0,1,1-.1,1,.82l-.75-.11.31.36-.55.1c.55.31.5.49.51,1,.28-.22.84-.24,1,.15-.17.36-.49,0-.22.54-.33,0-.73,0-.4-.42-.16,0-.33,0-.48,0-.21.4.19.75.26.95a.38.38,0,0,1,0-.26l.92.58c-.13.19-.3.14-.47.08.11.15.36.18.48.41-.39.07-.77.22-1.06-.06l.68.62c-.14.11-.3.55-.47.5-.06.5,1.09.79,1,1.45a.39.39,0,0,1,.27.14c.11.56-.18,1.19.55,1.64l-.53.59c.33.44.66-.78,1.2-.05.42.5-.49.42-.6.69.44.17,1.3.43.95,1.15C158.2,494.11,158.25,493.93,158.14,493.79Zm2.47,6c-.14-.08-.52-.21-.28-.39C160.89,499.3,160.68,499.49,160.6,499.75Zm2.11,8.11c-.12-.14,0-.25.23-.34A.4.4,0,0,1,162.71,507.85Zm-6.38,26.74,0,0C156.59,534.37,156.49,534.44,156.34,534.59Zm-.4.47a.18.18,0,0,0,.18.1c-.1-.08-.06-.21,0-.33C156,534.82,155.9,534.86,155.94,535.06Zm.3-59.71-.08.15C155.94,475.3,156.08,475.33,156.24,475.35Z"/><path class="cls-2" d="M162.48,506.58a.84.84,0,0,1,.26,0A.19.19,0,0,0,162.48,506.58Z"/><path class="cls-2" d="M156.55,490.1s0,0,0,0h0Z"/><path class="cls-2" d="M155.23,525.24a.55.55,0,0,1,.31-.13C155.44,525.06,155.32,525.08,155.23,525.24Z"/><path class="cls-2" d="M155.64,538.21v-.39c0,.18-.16.2-.26.26C155.49,538.11,155.67,538.1,155.64,538.21Z"/><path class="cls-2" d="M151.72,540.18c0,.07,0,.11,0,.18l.22.06C152,540.21,151.89,540,151.72,540.18Z"/><path class="cls-2" d="M154,538c-.39-.11-.34.15-.36.42a.11.11,0,0,1,0,0C154.17,538.62,154.09,538.3,154,538Z"/><path class="cls-2" d="M153.64,538.46a.51.51,0,0,1-.07.23C153.77,538.79,153.65,538.61,153.64,538.46Z"/><path class="cls-2" d="M155.93,535.84c-.14.08.46.25.28.26C156.65,536.41,155.91,535.11,155.93,535.84Z"/><polygon class="cls-2" points="152.69 537.71 153.19 537.79 152.86 537.52 152.69 537.71"/><path class="cls-2" d="M153.75,535.91l-.27.34a.18.18,0,0,1,.12.16C153.7,536.18,153.89,536,153.75,535.91Z"/><path class="cls-2" d="M153.59,536.42a.4.4,0,0,0,0,.34A.86.86,0,0,0,153.59,536.42Z"/><polygon class="cls-2" points="152.75 537.12 152.89 537.04 153.02 536.78 152.75 537.12"/><path class="cls-2" d="M155.39,531.77l0-.47c-.14-.1-.29,0-.28.16S155.21,531.78,155.39,531.77Z"/><path class="cls-2" d="M153.63,532.58a.82.82,0,0,1,.43-.05l-.58-.23Z"/><path class="cls-2" d="M154,531.29c-.15-.1-.23-.79-.4-.24C153.7,531.15,153.68,531.63,154,531.29Z"/><polygon class="cls-2" points="157.07 525.17 157.04 525.29 158 525.63 157.07 525.17"/><path class="cls-2" d="M156.89,518.69c-.42.42.54.34.09.69.18.2.37-.28.52-.09C157.37,518.9,157.57,518.79,156.89,518.69Z"/><path class="cls-2" d="M157.5,519.29a1.17,1.17,0,0,0,.09.21A.55.55,0,0,0,157.5,519.29Z"/><polygon class="cls-2" points="149.62 455.36 149.7 454.96 149.46 455.29 149.62 455.36"/><path class="cls-2" d="M148.69,455l.58-.3h-.62C148.7,454.76,148.8,454.89,148.69,455Z"/><path class="cls-2" d="M159.7,501.09l.16,0c.14-.11.13-.19.1-.35Z"/><polygon class="cls-2" points="158.58 496.52 158.59 496.6 159.09 496.26 158.58 496.52"/><path class="cls-2" d="M156.55,493.08c0,.16.22.29.25.45C156.58,493.24,157.22,492.79,156.55,493.08Z"/><path class="cls-2" d="M197.22,554.66c-.09.13.32.23.39.27C197.61,554.66,197.12,554.63,197.22,554.66Z"/><polygon class="cls-2" points="197.22 551.95 197.36 552.05 197.1 551.56 197.22 551.95"/><path class="cls-2" d="M198.05,549.73c-.75,0-.19.84-.58,1.15h-.18l.47.38C197.86,550.76,197.74,550,198.05,549.73Z"/><path class="cls-2" d="M199.94,549.09c-.29,0-.13-.34-.18.25l.08,0A1,1,0,0,1,199.94,549.09Z"/><path class="cls-2" d="M199.84,549.31c-.07.24.28-.07,0,0Z"/><path class="cls-2" d="M200.09,548.17l.12.39c.18,0,.31-.27.39-.12C200.59,548.08,200.41,548.09,200.09,548.17Z"/><path class="cls-2" d="M199.71,547.7l0,.2C199.83,547.89,199.87,547.86,199.71,547.7Z"/><path class="cls-2" d="M199.83,548.31l-.08-.42c-.12,0-.34-.07,0,.18C199.58,548,199.75,548.11,199.83,548.31Z"/><path class="cls-2" d="M199.66,548.46c-.21.12-.38.31-.5-.09C199,549,199.54,549.09,199.66,548.46Z"/><path class="cls-2" d="M197.4,549.36l-.28.16.15.28C197.2,549.66,197.62,549.43,197.4,549.36Z"/><path class="cls-2" d="M201.16,546.38a3.63,3.63,0,0,0-.61-.08l.08.29C200.77,546.51,200.94,546.32,201.16,546.38Z"/><path class="cls-2" d="M200.55,546.3l-.12-.43C200.29,546.16,200.38,546.26,200.55,546.3Z"/><polygon class="cls-2" points="198.99 547.37 199.3 548.12 199.03 547.26 198.99 547.37"/><polygon class="cls-2" points="201.66 545.09 201.91 545.4 201.54 544.87 201.66 545.09"/><path class="cls-2" d="M201.92,544.2c.22.24.53,0,.65.19a1.41,1.41,0,0,0-.26-.8C202.35,543.83,202.24,544,201.92,544.2Z"/><path class="cls-2" d="M202.11,543.18a2,2,0,0,0,.19.42A1,1,0,0,0,202.11,543.18Z"/><path class="cls-2" d="M200.72,545.31a.65.65,0,0,0,.51-.12l-.45,0Z"/><path class="cls-2" d="M200.76,545.18h0l.13-.28Z"/><path class="cls-2" d="M200.7,545.35v0S200.66,545.31,200.7,545.35Z"/><path class="cls-2" d="M199.69,546.61c-.15-.28-.23-.79-.73-.51C199.18,546.34,199.46,546.18,199.69,546.61Z"/><path class="cls-2" d="M200.14,545.33l-.23.33c.11,0,.29,0,.36.17Z"/><polygon class="cls-2" points="200.08 545.1 200.14 545.33 200.22 545.21 200.08 545.1"/><path class="cls-2" d="M201.5,543.66a.79.79,0,0,1,0-.6,1.86,1.86,0,0,0-.35.58C201.24,543.71,201.43,543.89,201.5,543.66Z"/><path class="cls-2" d="M201.11,544.39v0S201,544.36,201.11,544.39Z"/><path class="cls-2" d="M202.19,541.16h-.08l.07,0Z"/><path class="cls-2" d="M201,543.64c-.14.13-.07.26,0,.39a1.3,1.3,0,0,1,.07-.4C201.08,543.6,201,543.59,201,543.64Z"/><path class="cls-2" d="M202.12,542.58a1.79,1.79,0,0,0-.32.19C202,542.73,202.21,542.65,202.12,542.58Z"/><path class="cls-2" d="M201.23,544.33v0C201.34,544.34,201.3,544.33,201.23,544.33Z"/><path class="cls-2" d="M201.23,544.33a1.13,1.13,0,0,0-.17-.3.92.92,0,0,0,0,.31Z"/><path class="cls-2" d="M199.83,539.62c.36.17.55.7,0,.91.15.45,1.45.68,2.25.63-.16-.07-.31-.13-.39-.57-.25,0-.77.62-1,.19,0-.54.28-.34.56-.5-.54,0-.45-.85-1.17-1l.08.5C200.09,539.76,200,539.54,199.83,539.62Z"/><path class="cls-2" d="M201.81,541.83V542a1.45,1.45,0,0,1,.69-.32.67.67,0,0,0-.33-.48l-.32.7Z"/><path class="cls-2" d="M201.56,542.65c-.36-.27-.4-.68-.92-.63-.13.44.22.43.3.75.16-.73.15.28.57-.13a1.24,1.24,0,0,1,0,.42,2.06,2.06,0,0,1,.32-.29h0c-.06,0-.1,0-.05,0s0,0,0,0l-.14-.09c.16-.17.12,0,.14.09l.06,0h0l0-.78A1.49,1.49,0,0,0,201.56,542.65Z"/><path class="cls-2" d="M198.23,545.4a.18.18,0,0,1,.1,0C198.3,545.35,198.27,545.32,198.23,545.4Z"/><path class="cls-2" d="M198.58,545.2c0,.07.18.17.08.32s-.19-.07-.33-.11c.07.14.16.46.47.22l0-.07a1.48,1.48,0,0,1,.92-.33A3.78,3.78,0,0,0,198.58,545.2Z"/><path class="cls-2" d="M200,543.87l0-.65-.46.17.22.06C199.55,543.74,199.83,543.77,200,543.87Z"/><polygon class="cls-2" points="202.42 541.16 202.81 541.4 202.34 540.84 202.42 541.16"/><polygon class="cls-2" points="202.65 540.39 203.01 540.56 202.86 540.27 202.65 540.39"/><path class="cls-2" d="M207.23,497.66l-.17-.13A.53.53,0,0,0,207.23,497.66Z"/><path class="cls-2" d="M207.65,498.91l.19,0C207.72,498.85,207.64,498.85,207.65,498.91Z"/><path class="cls-2" d="M209.51,521.83c.44-.12,1.08-.2.65-.32l-.43-.07A.42.42,0,0,1,209.51,521.83Z"/><path class="cls-2" d="M211.82,508.23l-.15,0,.33.31Z"/><path class="cls-2" d="M210.2,507.42l.38-.23A1.17,1.17,0,0,0,210.2,507.42Z"/><path class="cls-2" d="M204.36,491l-.49-.05C204,491.29,204.15,491.08,204.36,491Z"/><path class="cls-2" d="M205.38,532.6a1.23,1.23,0,0,0,.44-.44C205.49,532.33,205.06,532.41,205.38,532.6Z"/><path class="cls-2" d="M211.74,496.59a.31.31,0,0,0-.3-.06C211.54,496.62,211.64,496.65,211.74,496.59Z"/><path class="cls-2" d="M206.05,531.54l-.14.08a1,1,0,0,1-.09.54C206.07,532,206.26,531.85,206.05,531.54Z"/><path class="cls-2" d="M195.88,466.32a.57.57,0,0,1,0-.07C195.86,466.26,195.86,466.28,195.88,466.32Z"/><path class="cls-2" d="M197.44,457.67a1.3,1.3,0,0,1,.14.28C197.58,457.89,197.55,457.81,197.44,457.67Z"/><path class="cls-2" d="M204,537.42c0,.17,0,0,0,0Z"/><path class="cls-2" d="M202.06,537.6a.36.36,0,0,0-.17-.14A.45.45,0,0,1,202.06,537.6Z"/><path class="cls-2" d="M204.12,529h0C204,529,204,529,204.12,529Z"/><path class="cls-2" d="M203.68,537.59a.79.79,0,0,0,.2-.16A.82.82,0,0,0,203.68,537.59Z"/><path class="cls-2" d="M203.89,537.63l-.09.13C203.85,537.8,203.9,537.8,203.89,537.63Z"/><path class="cls-2" d="M204,537.19a.68.68,0,0,1-.14.24s.07,0,.08,0Z"/><path class="cls-2" d="M201.7,479.1l0,0C201.5,479,201.55,479,201.7,479.1Z"/><path class="cls-2" d="M206.84,516.09v0l0,0Z"/><path class="cls-2" d="M206.76,515.4c.41.43.3.55.12.7l1.24.25Z"/><path class="cls-2" d="M206,494.73l-.22.54c-.78-.27-.7-.7-1.08-.14,1.3-.4.7,1.53,2,1.13l-.17.36c0-.08-.09-.07-.11-.15-.43.74,1.06.05,1.12.79,0,.27-.14.5-.35.39l.5.41a.12.12,0,1,1-.24,0l.39.76h0a4.53,4.53,0,0,1,.82.27c-.11.27-.17-.05-.31.06l.47.33c-.27.3-.72,0-.78-.27-1.13.87.45.25,0,1.4l-.31-.36c-.63.53-.25.76-.53,1.39.2-.2.8-1.35,1.29-1,0,.17,0,.36.32.53-.45.17-.25.38-.11.68l-.61.19c.3.28.59.14.94.24.08.4-.36.65-.72.88.12.64.6-.69,1,0,0,.59.32.85.9,1.33-.08.43-.39.07-.52.26l.59.14c0,.08-.14.11-.22.12.28.19.62-.17.91.14.32-.07.18.14,0,.33s-.39.34-.09.47l.11.06c-.22.06-.4,0-.67,0a2.18,2.18,0,0,1,.38.35,6.75,6.75,0,0,1,.47.49,6.16,6.16,0,0,0-.57.32c.58-.19.95.47,1.23,1a5.76,5.76,0,0,0,.61-.12l.08.76c-.13,0-.31-.1-.52-.3l.1.17c-.31.15-.61-.1-.88-.39l.46-.09a2.6,2.6,0,0,0-1-.69.45.45,0,0,1,.08.27.44.44,0,0,0-.23-.14c-.07,0,0,.12.15.28l-.72-.1.25.13-.73.69c.45.85,1.24,1.75,1.16,2.8-.4-.42-.78-.35-1.36-.58.71,0,0-.84.32-1.29-.16.23-.42.07-.49,0l.23,1.09c-.47-.2-.43.06-.71.21,1,.18.38.89.53,1.36-.32-.1-.61-.3-.37-.71-.89.22.87,1,.09,1.29,0-.11.1-.15,0-.25.19.35-.26.88-.48.64l0-.11c-.38.67-.81,2.16-.06,2.57a10.62,10.62,0,0,1-1.07-.55l2.21,2.27c-.64-.37-2.43-.55-2.6-1.28a.63.63,0,0,0-.24.75c.14-.08,1.1.08,1.1.26-.92.15-.52.15-1.37.44.21-.12,1.21.47,1.08.73-.14-.1-1.07-.37-1.14-.51l.8,1.07c-.13-.24-.88-.36-1.24-.32.23,0-.24.58-.2.8l.35-.2c-.45.71,1.2,1.31.86,2.05-.18-.17-1.25-.73-1.53-.39.47.38,2.3,1.75,2.47,2.58h-.36l.16.65a21.12,21.12,0,0,1-2.54-2.91c-.35.2-.39-.06-.53.39-.35,0-.35-.4-.32-.53l-.56.93c.65.19.35,1,.89,1.16l-.25-1.33c.65.19,1.55,1.3,1.18,2-.32.09-1.07-.55-1.29-.62.18.17.16.83,0,.84l-.22-.43c-.38.31.59,1-.18,1.21-.1.15-1,.19-.63.36a9.92,9.92,0,0,1,3.54,1.16,6,6,0,0,1-1.43.66c-.66.06-1.19-.91-1.76-.86a1,1,0,0,1,.37.39c-.21.12-.51-.27-.57.13.62.3-.34.74.47.38,0,.43-.28.34-.41.78.46,0,1.26.91,1.31,1.34a1.12,1.12,0,0,0-.51-.07c-.34.73-.78,1-1,1.72-.18,0-.49.28-.71,0,.08.14.26.32.19.54-.71.21.09-.51-.69-.44.36.17.3.75.42,1.14.61.12.37-.67.26-1.06a2.5,2.5,0,0,1,1.51,2c0,.66-.61.06-.53.21-.55,1,1,1.45.13,2.14-.64.17-1-.36-1.4-.41,0-.54.59-.61.69-.94l-.39.31c-.11-.21-.12-.58.09-.69-.57.13-.77,1.81-1.51,2.5.11.21.19.54.44.49l0-.29c.5-.09.37.71.69.44.15.46.45,1,0,1.45l-.61-.12c.17.05.46-.2.34-.41.18.3-1.07.48-.4,1l.53-.21c.15.47.6,1.14.25,1.52.64,0,0-.13.76-.2-.93,0,.46-1.13-.57-1,.89,0,.54-.44,1.35-.62-.19-.06-.42,0-.19-.32a.9.9,0,0,1-.14-.14l0,0h0s0,0,0,0a.69.69,0,0,1-.36.08c-.37-.35-.13-.94-.28-1.22.17-.19.18.17.43.13l-.22-.43c.43.13.92-.33,1,.29l.19-.46a.81.81,0,0,0,.49-.84c.17-.19-.26-.74,0-.42v-.84l.11,0c.32-.71-.14-1.76.93-2.31a1.26,1.26,0,0,1,.22-1l.39.06c0-.36.72-.81.39-1.09,1.11,0,.78-1.45,1.16-1.94l-.47-.2a3,3,0,0,0,.16-1.33l-.43-.13c-.19-.54.69-.94.89-1.6.14.1,0,.25-.1.33,1.24-.42-.08-1.89.87-2.33a.3.3,0,0,1,.16-.42.07.07,0,0,0,0,.05l0-.07c.1-.05.21-.1.31-.16a1,1,0,0,0-.3.12,1.54,1.54,0,0,0,0-.6l.48.08s0,0,0-.05c.24-.13-.15-.24-.53-.26a1.14,1.14,0,0,0-.17-.37c.79.11,0-.62.81-.54-.33-.28.09-1.11-.67-1.52.11,0,.18,0,.14.1.17-.19.35-.38.2-.66l.61.12-.59-.77c.46-.17.71-.21,1,.25-.41-1,0-.67-.49-1.53l.36.17c.07-.22-.3-.75.05-.77.88-.22,1-2.35,2.1-3.35-1.18-.17.7-.39-.12-.76.28,0,.5-.09.65.19,0-.73.76-.8.21-1.5.29,0,.33.28.51.27,0-.07-.15-.28,0-.29s.18.17.26.32c.2-.66-.57-1-1.3-1.35.48-.2.49-.38.08-.8.29,0,.61-.12.55.32a5.41,5.41,0,0,0,.41-.74c.18-.46.27-.9,0-1,.2-.07.21-.42.16-.51s.15-.34.19-.41a5.36,5.36,0,0,0-.36-1l0,.2c-.86-.11-.36-.51-.62-1l.08,0c.19-1.11-.39-.31-.12-1.43l-.43.21c-1,.26.28-1-.28-1.41l-.19.28c-.44-.17,1-1.28,1-1.61.06-.09.17.05.27.12.3-1-.63.11-1-.4.28-.22.86-.16.78-.56.19-.28-1.43-.73-1-1.47-.2.2-.41.4-.69.21-.23-.37.54-1.42-.37-1.51a.35.35,0,0,1,.17-.14c-.31-.24-.69-.88-1.18-.92,1.46-.84-1.44-1.64,0-2.15l-.42-.92.16,0c-.12-.64-.54-.73-1-.82,0-.18.22-.12.3-.14,0-1-.12-1.05-1.1-1.54l.44-.24c-.34-.1.27-1.54-.58-2.21a.38.38,0,0,1,.24,0c-.9-.78.46-2.8-1.37-2.55l-.65-.49c.17.88-.78.14-.94.58-.22-.29.21-1,.44-.66l-.06.09c.94-.17-.06-1.15.55-1.34-.63-1.62-.71-3.4-1.23-4.95l-.63.42-.15-.55c.11-.2.47-.38.58,0,.32-.34-.56-.52-.71-.48,0-.85.91,0,.84-.23l-.16-.29-.06.1c-.37-.15-.68-.07-.81-.54,0-.34.37-.3.36-.43s.06-.06,0-.18l-.18-.7-.45.46c-.38-.2-.2-.65-.7-.11.79-.8-.56-2.64-.37-3a1.59,1.59,0,0,1-.82-1.22c-.07.17-.65.46-.73,0,1.32-.29.26-1,1-1.69-.49.53-.6-1.2-1.27-.4,0-.41.46-.19.66-.58-.8-.7-.38-2-.93-3.07-.17,0-.36.31-.69.17l.62-.87c-.16-.19-1,.15-.59-.45-.12.11-.3.26-.4.14,0-2.41-2.22-4.11-1.48-6.81-.22.41-.32.22-.41,0,0,.17-.41.14-.62.25l.3-1.13c-.68.06-.39-1-1-.83l.21.25c-.84-.13-1.37,1.09-2.29,1.36,1,.14-.78,1.55.61,1.84-.13.22-.34,0-.52.13.45,0,.61.22.58.68h-.11c.49,1.08.28,1.69.48,3l.41-.25a.87.87,0,0,1-.15.56c.79.07-.23-.77.61-.75-.78.68.67,1.9-.28,2.51.14.42.47-.31.61.11l-.24.21.4,0c0,.29-.26.55-.49.65,0-.08-.13-.16-.18-.23-.2.47.47,1,.4,1.11l0-.46c.67,1,.79,2.55,1.75,3.43l.18-.16c.69.69,0,.75.52,1.6l-.06,0a.85.85,0,0,1,.53.57c-.33-.14-.32.61-.7.4.74.75.49.33,1.48.65l-.3.26c.39.09.56,0,.82.47-.43-.27-.43.48-1,.2-.42,1.23,1.28,1.15.32,2,1.12.09.24-1,.53-.85.24-.32.85.1.86.44s-1,1-.75,1.73c0-.08-.1-.06-.12-.14-.14.38.54.45.26.94.66,0,.13.47.9.26l-.43-.65c.34.33,1.35.39,1.16,1.21a1.42,1.42,0,0,1-.6-.22c-.15.27.28.32.12.6-.77.21-.47-.8-1.19-1-.24.32.83.62-.05.69,1.14-.06.14.81,1.11,1l-.46.13c.1.06.37.15.42.31l-.68-.07c.65.25-.14,1,.27,1.28-.32-.84.47-.38.67-.86,1,.83-1,1-.32,2.11-.12-.14.05-.69.35-.52a1.48,1.48,0,0,1-.26.83c.37.74.42-.28.81-.05-.45.46.36.3.65.58l-.45.17c0,1,1-.1,1,.82l-.75-.11.31.36-.55.1c.55.31.5.49.51,1,.28-.22.84-.24,1,.15-.17.36-.49,0-.22.54-.33,0-.73,0-.4-.42-.16,0-.33,0-.48,0-.21.4.19.75.26.95a.38.38,0,0,1,0-.26l.92.58c-.13.19-.3.14-.47.08.11.15.36.18.48.41-.39.07-.77.22-1.06-.06l.68.62c-.14.11-.3.55-.47.5-.06.5,1.09.79,1,1.45a.38.38,0,0,1,.27.14c.11.56-.18,1.19.55,1.64l-.53.59c.33.44.66-.78,1.2-.05.42.5-.49.42-.6.69.44.17,1.3.43.95,1.15C206.1,495,206.15,494.87,206,494.73Zm2.47,6c-.14-.08-.52-.21-.28-.39C208.8,500.24,208.59,500.43,208.51,500.68Zm2.11,8.11c-.12-.14,0-.25.23-.34A.4.4,0,0,1,210.62,508.79Zm-6.38,26.74,0,0C204.5,535.31,204.39,535.38,204.24,535.53Zm-.4.47a.18.18,0,0,0,.18.1c-.1-.08-.06-.2,0-.33C203.91,535.76,203.8,535.8,203.84,536Zm.3-59.71-.08.15C203.85,476.24,204,476.27,204.14,476.29Z"/><path class="cls-2" d="M210.39,507.52a.85.85,0,0,1,.26,0A.19.19,0,0,0,210.39,507.52Z"/><path class="cls-2" d="M204.45,491s0,0,0,0h0Z"/><path class="cls-2" d="M203.14,526.18a.56.56,0,0,1,.31-.13C203.34,526,203.23,526,203.14,526.18Z"/><path class="cls-2" d="M203.54,539.15v-.39c0,.18-.16.2-.26.26C203.4,539.05,203.58,539,203.54,539.15Z"/><path class="cls-2" d="M199.62,541.12c0,.07,0,.11,0,.18l.22.06C199.91,541.15,199.79,540.93,199.62,541.12Z"/><path class="cls-2" d="M201.92,538.91c-.39-.11-.34.15-.36.42a.11.11,0,0,1,0,0C202.08,539.56,202,539.24,201.92,538.91Z"/><path class="cls-2" d="M201.55,539.4a.51.51,0,0,1-.07.23C201.68,539.73,201.55,539.55,201.55,539.4Z"/><path class="cls-2" d="M203.84,536.78c-.14.08.46.25.28.26C204.56,537.35,203.82,536.05,203.84,536.78Z"/><polygon class="cls-2" points="200.59 538.64 201.1 538.73 200.77 538.46 200.59 538.64"/><path class="cls-2" d="M201.65,536.85l-.27.34a.18.18,0,0,1,.12.16C201.61,537.12,201.8,536.9,201.65,536.85Z"/><path class="cls-2" d="M201.5,537.36a.4.4,0,0,0,0,.34A.86.86,0,0,0,201.5,537.36Z"/><polygon class="cls-2" points="200.65 538.06 200.79 537.98 200.93 537.72 200.65 538.06"/><path class="cls-2" d="M203.3,532.71l0-.47c-.14-.1-.29,0-.28.16S203.12,532.72,203.3,532.71Z"/><path class="cls-2" d="M201.54,533.52a.82.82,0,0,1,.43-.05l-.58-.23Z"/><path class="cls-2" d="M201.86,532.23c-.15-.1-.23-.79-.4-.24C201.61,532.09,201.58,532.57,201.86,532.23Z"/><polygon class="cls-2" points="204.98 526.11 204.94 526.23 205.91 526.57 204.98 526.11"/><path class="cls-2" d="M204.79,519.63c-.42.42.54.34.09.69.18.2.37-.28.52-.09C205.28,519.84,205.47,519.73,204.79,519.63Z"/><path class="cls-2" d="M205.4,520.23a1.18,1.18,0,0,0,.09.21A.55.55,0,0,0,205.4,520.23Z"/><polygon class="cls-2" points="197.53 456.3 197.61 455.9 197.36 456.23 197.53 456.3"/><path class="cls-2" d="M196.59,455.93l.58-.3h-.62C196.61,455.7,196.71,455.83,196.59,455.93Z"/><path class="cls-2" d="M207.6,502l.16,0c.14-.11.13-.19.1-.35Z"/><polygon class="cls-2" points="206.48 497.46 206.5 497.54 207 497.2 206.48 497.46"/><path class="cls-2" d="M204.45,494c0,.16.22.29.25.45C204.48,494.18,205.13,493.73,204.45,494Z"/><path class="cls-2" d="M136.64,432.78c.1.17.37-.16.44-.19C136.81,432.42,136.57,432.86,136.64,432.78Z"/><polygon class="cls-2" points="133.86 431.04 134.02 430.97 133.4 430.89 133.86 431.04"/><path class="cls-2" d="M131.93,428.81c-.36.68.79.73.94,1.29l-.07.17.59-.2C132.91,429.65,132.08,429.28,131.93,428.81Z"/><path class="cls-2" d="M132.07,426.61c-.15.26-.4-.1.17.33a.57.57,0,0,1,0-.1A1.45,1.45,0,0,1,132.07,426.61Z"/><path class="cls-2" d="M132.25,426.85c.22.22,0-.31,0,0Z"/><path class="cls-2" d="M131.19,425.88l.46.15c.07-.17-.14-.47,0-.45C131.3,425.35,131.24,425.52,131.19,425.88Z"/><path class="cls-2" d="M130.54,425.93l.22.09C130.79,425.94,130.77,425.89,130.54,425.93Z"/><path class="cls-2" d="M131.22,426.21l-.46-.19c0,.12-.22.28.2.1C130.77,426.23,131,426.16,131.22,426.21Z"/><path class="cls-2" d="M131.31,426.47c0,.27.15.56-.3.42C131.59,427.41,131.9,427,131.31,426.47Z"/><path class="cls-2" d="M131.28,429.18l0,.37.35,0C131.5,429.57,131.43,429,131.28,429.18Z"/><path class="cls-2" d="M129.8,423.72c-.13.08-.22.37-.34.52l.33.11C129.76,424.16,129.64,423.88,129.8,423.72Z"/><path class="cls-2" d="M129.46,424.24l-.49-.17C129.2,424.39,129.35,424.36,129.46,424.24Z"/><polygon class="cls-2" points="129.9 426.39 130.8 426.59 129.8 426.29 129.9 426.39"/><polygon class="cls-2" points="128.68 422.4 129.11 422.37 128.41 422.37 128.68 422.4"/><path class="cls-2" d="M127.88,421.58c.34,0,.2-.52.47-.49a1.74,1.74,0,0,0-.93-.27A.81.81,0,0,1,127.88,421.58Z"/><path class="cls-2" d="M126.91,420.74a2.3,2.3,0,0,0,.51.09A1.19,1.19,0,0,0,126.91,420.74Z"/><path class="cls-2" d="M128.51,423.44a.65.65,0,0,0,.09-.55l-.21.41Z"/><path class="cls-2" d="M128.4,423.31h0l-.23-.3Z"/><path class="cls-2" d="M128.54,423.47l0,0S128.49,423.49,128.54,423.47Z"/><path class="cls-2" d="M129.41,425.25c-.35,0-.91-.29-.83.35C128.92,425.55,128.88,425.18,129.41,425.25Z"/><path class="cls-2" d="M128.28,424l.24.43c.08-.08.15-.25.32-.23Z"/><polygon class="cls-2" points="128.03 423.9 128.28 423.99 128.19 423.83 128.03 423.9"/><path class="cls-2" d="M127.15,421.62a1.11,1.11,0,0,1-.63-.37,2.82,2.82,0,0,0,.45.71C127.09,421.9,127.35,421.83,127.15,421.62Z"/><path class="cls-2" d="M127.73,422.47l0,0S127.67,422.52,127.73,422.47Z"/><path class="cls-2" d="M124.87,419.35l0,.08.06,0Z"/><path class="cls-2" d="M126.93,422c.07.21.23.23.41.24A2,2,0,0,1,127,422C126.91,422,126.88,422,126.93,422Z"/><path class="cls-2" d="M126.3,420.34a2.21,2.21,0,0,0,.06.42C126.39,420.6,126.4,420.3,126.3,420.34Z"/><path class="cls-2" d="M127.72,422.32h0C127.78,422.22,127.75,422.26,127.72,422.32Z"/><path class="cls-2" d="M127.72,422.32a.19.19,0,1,0,0,.13A.52.52,0,0,1,127.72,422.32Z"/><path class="cls-2" d="M122.3,420.58a.61.61,0,0,1,.94.57c.53.15,1.31-.93,1.6-1.71-.14.1-.26.21-.75,0-.05.27.31,1.12-.22,1.06-.57-.34-.23-.48-.27-.85-.2.52-1.07-.13-1.52.45l.55.25C122.54,420.43,122.27,420.4,122.3,420.58Z"/><path class="cls-2" d="M125.4,420.14l.16.12a1.69,1.69,0,0,1,0-.86c-.36-.12-.51-.07-.63,0l.59.76Z"/><path class="cls-2" d="M126.14,420.92c-.43.17-.87-.06-1,.46.4.41.53.07.9.2-.69-.63.35,0,.1-.62a1.82,1.82,0,0,1,.41.3,2.86,2.86,0,0,1-.17-.49v0h0c0,.07,0,.1,0,0h0l-.15.08c-.11-.26.06-.1.15-.08l.06,0h0l-.79-.54A2.28,2.28,0,0,0,126.14,420.92Z"/><path class="cls-2" d="M127.55,425.83a.16.16,0,0,1,.06-.09C127.53,425.74,127.49,425.74,127.55,425.83Z"/><path class="cls-2" d="M127.5,425.38c.09,0,.26-.06.37.13s-.16.13-.26.24c.17,0,.54.14.42-.3h-.09c-.13-.38,0-1.09,0-1.08A3.33,3.33,0,0,0,127.5,425.38Z"/><path class="cls-2" d="M126.72,423.2l-.67-.44,0,.54.16-.16C126.41,423.52,126.55,423.27,126.72,423.2Z"/><polygon class="cls-2" points="124.97 419.15 125.38 418.93 124.6 419.01 124.97 419.15"/><polygon class="cls-2" points="124.27 418.43 124.59 418.2 124.24 418.15 124.27 418.43"/><path class="cls-2" d="M100.64,379.78l.18-.18A.69.69,0,0,0,100.64,379.78Z"/><path class="cls-2" d="M99.07,380.24l0,.2C99.13,380.32,99.14,380.23,99.07,380.24Z"/><path class="cls-2" d="M108.1,399.93c.06-.49.25-1.15-.06-.82l-.26.36A.62.62,0,0,1,108.1,399.93Z"/><path class="cls-2" d="M95.08,388.92l-.05.14.5-.05Z"/><path class="cls-2" d="M93.25,389.56l-.14-.59A1.41,1.41,0,0,0,93.25,389.56Z"/><path class="cls-2" d="M109,376.64l.12-.5C108.76,376.27,109,376.43,109,376.64Z"/><path class="cls-2" d="M117.42,410.81a1.73,1.73,0,0,0-.27-.71C117.19,410.52,117.09,411,117.42,410.81Z"/><path class="cls-2" d="M101.41,384.36a.3.3,0,0,0,.11-.31C101.41,384.16,101.35,384.27,101.41,384.36Z"/><path class="cls-2" d="M116.61,409.48a1.81,1.81,0,0,0,0,.18,1.46,1.46,0,0,1,.52.44C117.13,409.79,117,409.49,116.61,409.48Z"/><path class="cls-2" d="M140.08,367.22l.09,0C140.15,367.19,140.12,367.19,140.08,367.22Z"/><path class="cls-2" d="M150.41,368.55a2,2,0,0,1-.36.15A.62.62,0,0,0,150.41,368.55Z"/><path class="cls-2" d="M121.77,415.27c.16.14.06,0,0,0Z"/><path class="cls-2" d="M121.15,417.17a.32.32,0,0,0-.21.07A.4.4,0,0,1,121.15,417.17Z"/><path class="cls-2" d="M113.19,409.66h0C113.15,409.75,113.16,409.73,113.19,409.66Z"/><path class="cls-2" d="M121.83,415.64a1.05,1.05,0,0,0-.08-.29A1.1,1.1,0,0,0,121.83,415.64Z"/><path class="cls-2" d="M122,415.47l.09.17C122.12,415.61,122.14,415.56,122,415.47Z"/><path class="cls-2" d="M121.56,415.06a1,1,0,0,1,.19.29c0-.05,0-.08,0-.08Z"/><path class="cls-2" d="M123.85,373.56l.06,0C124.06,373.35,124,373.4,123.85,373.56Z"/><path class="cls-2" d="M101.08,398.72h0v0Z"/><path class="cls-2" d="M100.33,398.36c.62-.11.69.07.77.33l.78-1Z"/><path class="cls-2" d="M104.34,378.48l-.63-.21c.42-.81.94-.74.29-1.11.34,1.32-1.94.76-1.6,2.08l-.42-.17c.1,0,.09-.1.19-.12-.85-.41-.19,1.09-1.09,1.17-.33,0-.59-.13-.44-.35l-.55.53c-.2,0-.22-.2,0-.24l-1,.42v0a4.78,4.78,0,0,1-.42.85c-.31-.11.08-.18,0-.32l-.45.49c-.33-.26,0-.73.42-.81-.92-1.13-.36.47-1.71.07l.47-.33c-.61-.61-.67-.3-2.19-.33a12.5,12.5,0,0,1,1.35.35c.31.23.51.51.26.76a1.31,1.31,0,0,0-1.06.46c-.23-.43-.7-.16-1.32.06l-.38-.55c-.64.39-.32.64-.49,1a3.38,3.38,0,0,1-2.07-.37c-.76.19-.29.25.14.35s.83.24.18.51a3.18,3.18,0,0,0-2.31,1.15c-1,.1-.51-.25-1-.27a2.46,2.46,0,0,0,.22.46.91.91,0,0,1-.5-.1c0,.06,0,.11.06.15a5.09,5.09,0,0,1,1.53.76c.66.22.45.38.39.68s0,.76.91,1.16c-.09.17-.62-.11-.91-.07.84.57,1.15.77,1.47,1a10.55,10.55,0,0,0,1.38.65q0,.37.14.8c.06-.66,1.22-.19,2,0,.09-.25.2-.43.23-.54q.41.21.78.37c0,.12-.25.21-.56.26l.22,0c0,.35-.37.5-.84.51a3.07,3.07,0,0,1,.11-.47,3.3,3.3,0,0,0-1.37.24,1.14,1.14,0,0,1,.41.2c-.14,0-.26,0-.29.06s.18.09.44.14q-.22.29-.42.6l.28-.11a8.47,8.47,0,0,1,.5,1.26c1.07.13,2.32,0,3.37.72-.6.11-.69.51-1.17.9.27-.69-.85-.56-1.19-1.14a.28.28,0,0,1-.23.44l1.22.49c-.4.31-.12.44-.08.81.6-.83,1.08.22,1.62.38-.23.24-.57.38-.89-.11-.15,1,1.43-.15,1.36.75-.1-.1-.11-.19-.28-.12.44.05.8.82.45.87l-.1-.1c.53.79,1.88,2.17,2.61,1.71a8.61,8.61,0,0,1-1,.65l3.26-.61c-.65.37-1.59,1.94-2.41,1.62a.93.93,0,0,0,.66.71c0-.18.55-1,.73-.87-.24,1-.07.59-.12,1.58,0-.28,1-.84,1.21-.54-.17.07-.83.77-1,.74l1.44-.06c-.3,0-.74.6-.85,1,.1-.22.5.6.74.71l-.05-.46c.54.88,1.85-.28,2.47.52-.26.06-1.28.71-1,1.19.59-.2,2.77-1,3.7-.65l-.14.35.73.27a20.25,20.25,0,0,1-4.06.51c.05.46-.22.33.17.75-.1.35-.56.07-.68,0l.72,1.13c.47-.49,1.18.32,1.57-.08l-1.47-.63a1.91,1.91,0,0,1,2.52.16c0,.36-1,.65-1.18.81.25-.06.92.38.85.56l-.53-.07c.15.56,1.23.06,1.16,1,.11.19-.23,1.06.1.83a8,8,0,0,1,2.68-2.58,7,7,0,0,1,.07,1.78c-.22.67-1.43.54-1.62,1.1a.93.93,0,0,1,.56-.1c0,.28-.49.3-.1.62.57-.39.62.8.59-.2.47.24.23.48.63.89.21-.43,1.47-.6,1.93-.36a.94.94,0,0,0-.29.43c.61.79.72,1.4,1.33,2.1-.07.17.08.64-.27.69.18,0,.43,0,.63.17-.08.81-.49-.42-.74.36.32-.23.9.2,1.35.34.38-.5-.53-.79-1-.93a2.52,2.52,0,0,1,2.7-.12c.66.44-.19.61,0,.63.84,1.19,1.92,0,2.25,1.27-.09.71-.79.72-1,1.05-.57-.34-.38-1-.67-1.26l.15.56c-.27,0-.64-.26-.68-.53-.1.62,1.54,1.91,1.93,3,.27,0,.63.17.69-.1l-.29-.22c.11-.53.89.11.75-.36.54.16,1.25.24,1.51.91l-.38.5a.43.43,0,0,0-.28-.59c.39,0,0,1.32.85,1v-.63c.55.16,1.42.17,1.67.75.28-.6-.14-.06.12-.84-.43.85-1-1.17-1.28-.12.34-.87-.23-.79-.07-1.68-.14.15-.16.4-.41,0a.83.83,0,0,1-.21,0v0s0,0,0,0a.7.7,0,0,1-.07.39c-.51.12-1-.49-1.38-.53-.12-.29.26-.06.31-.32l-.53-.06c.31-.32,0-1.08.7-.73l-.4-.48a1.19,1.19,0,0,0-.66-1c-.12-.29-.86-.23-.43-.27l-.85-.56.08-.08c-.59-.77-1.87-1-2-2.38a1.9,1.9,0,0,1-.89-.83l.22-.34c-.38-.23-.53-1.2-1-1.07.49-1-1.16-1.68-1.5-2.36l-.4.31a4.45,4.45,0,0,0-1.3-1l-.31.32c-.63-.17-.67-1.26-1.27-1.87.17-.07.28.12.3.31.09-1.44-2-1.14-2-2.33a.43.43,0,0,1-.36-.43l.06,0-.06-.08c0-.13,0-.27,0-.4a1.09,1.09,0,0,0,0,.36,2.27,2.27,0,0,0-.6-.42l.29-.4-.05,0c0-.31-.31,0-.49.33a1.31,1.31,0,0,0-.45-.07c.45-.67-.65-.35-.22-1.11-.42.13-1.1-.81-1.84-.35.08-.08.07-.17.17-.07-.12-.29-.24-.57-.6-.62l.38-.5-1,.05c0-.54.08-.81.69-.82-1.16-.23-.71-.4-1.77-.53l.32-.23c-.2-.21-.9-.2-.77-.55.15-1-2-2.45-2.55-4.15-.67,1-.11-.92-.83-.37.14-.25.11-.53.47-.48-.75-.45-.5-1.24-1.45-1.17.15-.25.42-.13.49-.3-.09,0-.36,0-.29-.22s.26-.06.43,0a.86.86,0,0,0-1-.23c-.29.16-.62.4-.95.63.1-.46,0-.47-.63-.42.17-.2.35-.41.65-.21-.11-.19-.23-.84-1-.8.16-.06-.11-.2-.25-.25a2.53,2.53,0,0,0-.55-.69l-.08.06c-1.32-.34-.54-.36-.94-.67l.14,0,.08-.08c.57,0,.49-.07.49-.12s.11-.1.86,0l-.71-.28c-.69-.32-.23-.31.31-.24s1.14.21,1.17,0l-.45-.14c0-.17.53,0,1,.29s1,.62,1.07.66.05.13.07.2c.71.42-.4-.53-.13-.77.22.28.4.78.57.79s.06,0,.08-.07,0-.09.06-.17l.23-.26c.33-.34.73-.66,1.15-.45-.22-.2-.44-.41-.17-.7.48-.25,1.67.51,1.88-.42a.31.31,0,0,1,.15.17c.32-.32,1.15-.73,1.25-1.23.86,1.47,2.16-1.53,2.62-.07l1.17-.45,0,.16a1.27,1.27,0,0,0,1.11-1c.21,0,.12.22.13.3,1.21-.06,1.3-.15,2-1.17l.25.44c.17-.35,1.84.23,2.76-.66a.35.35,0,0,1-.05.25c1.05-.94,3.35.38,3.26-1.48l.68-.68c-1.09.2-.08-.8-.6-.95.38-.23,1.23.18.75.43l-.11-.06c.1,1,1.4-.09,1.57.53,2-.7,4.22-.83,6.16-1.41l-.44-.63.69-.17c.23.11.41.47-.08.59.38.32.7-.59.67-.74,1,0-.11.93.18.86l.38-.18-.11-.05c.23-.39.16-.7.75-.84.41,0,.32.37.48.35s.07.06.23,0l.87-.21-.51-.44c.29-.39.81-.22.22-.72.88.78,3.28-.65,3.72-.47a2.34,2.34,0,0,1,1.58-.88c-.2-.06-.49-.65.09-.75.2,1.34,1.19.23,1.93,1-.59-.48,1.53-.65.63-1.32.5,0,.18.47.63.66.95-.84,2.53-.45,3.85-1,0-.17-.34-.36-.13-.7l1,.61c.24-.17-.06-1,.62-.62-.11-.12-.29-.3-.12-.41,2.93,0,5.25-2.39,8.45-1.72-.47-.21-.24-.32,0-.42-.21,0-.13-.42-.23-.63l1.34.27c0-.7,1.2-.43,1.13-1.07l-.33.22c.25-.86-1.17-1.37-1.39-2.31-.28,1-1.79-.75-2.31.68-.25-.12.07-.35-.1-.53-.1.46-.34.63-.9.61l0-.11c-1.37.54-2.09.34-3.75.58l.26.41a1.11,1.11,0,0,1-.67-.14c-.17.81,1-.26.85.61-.74-.78-2.39.74-3-.21-.52.16.32.47-.2.63l-.23-.24,0,.41a.74.74,0,0,1-.73-.49c.09,0,.21-.14.3-.19-.55-.19-1.21.51-1.4.45l.56,0c-1.34.71-3.19.89-4.38,1.9l.17.18c-.92.73-.91,0-2,.58l0-.06a1.18,1.18,0,0,1-.76.56c.21-.34-.7-.31-.41-.71-1,.78-.46.51-1,1.54l-.28-.3c-.15.4-.12.58-.67.85.38-.45-.54-.42-.14-1-1.45-.39-1.54,1.35-2.45.39-.24,1.15,1.21.21,1,.52.36.24-.23.88-.64.9s-1.05-1-2-.72c.1,0,.08-.1.18-.13-.44-.14-.6.56-1.18.3-.06.67-.59.15-.42.93l.83-.46c-.44.36-.63,1.39-1.6,1.22a1.55,1.55,0,0,1,.33-.62c-.31-.15-.42.3-.74.15-.17-.78,1-.51,1.39-1.25-.36-.24-.85.87-.84,0-.06,1.16-1,.17-1.4,1.17l-.1-.47c-.08.1-.23.39-.42.43l.16-.7c-.37.67-1.16-.11-1.59.32,1.06-.35.41.47,1,.66-1.12,1-1.13-.94-2.54-.26.18-.13.83,0,.59.34a1.85,1.85,0,0,1-1-.24c-.95.4.3.42,0,.83-.51-.45-.41.38-.78.69l-.15-.46c-1.21.06,0,1.05-1.11,1l.22-.77-.47.33-.06-.56c-.45.57-.65.52-1.26.55a.66.66,0,0,1-.3,1c-.42-.17.05-.5-.63-.21.07-.34.13-.75.56-.43,0-.16.06-.34,0-.5-.46-.2-.93.22-1.18.3a.53.53,0,0,1,.31,0l-.81,1c-.21-.12-.13-.3,0-.48-.19.11-.26.37-.55.51,0-.4-.18-.78.19-1.09l-.83.72c-.12-.14-.64-.29-.55-.47-.6-.05-1.08,1.14-1.88,1.07a.45.45,0,0,1-.2.28c-.69.13-1.43-.15-2.06.62l-.66-.53c-.57.35.87.65-.08,1.23-.66.44-.45-.49-.77-.59-.26.45-.67,1.34-1.51,1C103.95,378.55,104.15,378.59,104.34,378.48Zm-7.53,2.71c.12-.14.32-.53.51-.3C97.32,381.47,97.11,381.25,96.81,381.18Zm-1.64,9.25c-.21,0-.23-.15-.27-.46A.62.62,0,0,1,95.17,390.44Zm24.78,23.33h0C119.83,413.39,119.86,413.53,119.95,413.77Zm.31.68a.16.16,0,0,0,.18-.1c-.12,0-.24-.07-.33-.23C120,414.23,120,414.36,120.26,414.45ZM127,376l-.17-.08C127.08,375.67,127,375.81,127,376Z"/><path class="cls-2" d="M93.47,389.5a.44.44,0,0,1,.18-.19C93.53,389.28,93.43,389.32,93.47,389.5Z"/><path class="cls-2" d="M109,376.74h0a.3.3,0,0,0,0-.09Z"/><path class="cls-2" d="M109.87,408.75a.62.62,0,0,1,0-.38C109.78,408.44,109.75,408.56,109.87,408.75Z"/><path class="cls-2" d="M123.38,416.78l-.4-.26a.51.51,0,0,1,.15.42C123.21,416.85,123.28,416.68,123.38,416.78Z"/><path class="cls-2" d="M123.75,421.75c.09,0,.1.1.19.11l.16-.16C123.89,421.5,123.63,421.47,123.75,421.75Z"/><path class="cls-2" d="M122.45,418.15c-.28.29,0,.42.28.61l0,0C123.18,418.43,122.81,418.29,122.45,418.15Z"/><path class="cls-2" d="M122.79,418.82a.78.78,0,0,1,.2.22C123.19,418.91,122.95,418.91,122.79,418.82Z"/><path class="cls-2" d="M121.06,415c0,.18.45-.27.39-.09C121.95,414.65,120.31,414.51,121.06,415Z"/><polygon class="cls-2" points="121.61 419.23 121.91 418.81 121.49 418.94 121.61 419.23"/><path class="cls-2" d="M120.22,417.07l.23.48c.06-.06.14,0,.22,0C120.48,417.29,120.32,417,120.22,417.07Z"/><path class="cls-2" d="M120.67,417.54a.59.59,0,0,0,.33.26A1.28,1.28,0,0,0,120.67,417.54Z"/><polygon class="cls-2" points="121.04 418.8 121.02 418.61 120.8 418.32 121.04 418.8"/><path class="cls-2" d="M116.66,412.83l-.48-.33c-.17.07-.15.25,0,.37S116.59,413,116.66,412.83Z"/><path class="cls-2" d="M116.74,415c0-.18.06-.26.12-.44l-.48.4Z"/><path class="cls-2" d="M115.55,413.88c-.17.07-.91-.29-.41.22C115.31,414,115.79,414.36,115.55,413.88Z"/><polygon class="cls-2" points="110.59 406.98 110.69 407.08 111.44 406.4 110.59 406.98"/><path class="cls-2" d="M103.85,403c.25.66.58-.29.74.36.28,0-.14-.53.13-.55C104.26,402.63,104.23,402.37,103.85,403Z"/><path class="cls-2" d="M104.72,402.76l.25.05A.65.65,0,0,0,104.72,402.76Z"/><polygon class="cls-2" points="152.07 368.6 152.54 368.67 152.17 368.43 152.07 368.6"/><path class="cls-2" d="M152.62,367.63l.29.59.07-.64C152.9,367.64,152.74,367.75,152.62,367.63Z"/><path class="cls-2" d="M94.27,380.61l0,.15c.22.11.4.06.76,0Z"/><polygon class="cls-2" points="100.97 379.01 100.87 379.03 101.22 379.53 100.97 379.01"/><path class="cls-2" d="M105.39,376.83c-.2,0-.38.23-.58.27C105.19,376.86,105.66,377.51,105.39,376.83Z"/><path class="cls-2" d="M215.36,444.9c-.1.14.31.25.37.3C215.76,444.9,215.26,444.86,215.36,444.9Z"/><polygon class="cls-2" points="215.58 441.95 215.72 442.06 215.5 441.51 215.58 441.95"/><path class="cls-2" d="M216.62,439.54c-.75-.05-.27.92-.68,1.25h-.18l.45.42C216.34,440.65,216.28,439.83,216.62,439.54Z"/><path class="cls-2" d="M218.58,438.85c-.29,0-.1-.37-.21.27l.09,0A1.16,1.16,0,0,1,218.58,438.85Z"/><path class="cls-2" d="M218.46,439.09c-.09.26.29-.08,0,0Z"/><path class="cls-2" d="M218.82,437.86l.09.43c.18,0,.34-.29.4-.13C219.33,437.76,219.15,437.77,218.82,437.86Z"/><path class="cls-2" d="M218.47,437.34l0,.21C218.57,437.55,218.61,437.51,218.47,437.34Z"/><path class="cls-2" d="M218.54,438l0-.45c-.13,0-.34-.08,0,.2C218.31,437.64,218.47,437.79,218.54,438Z"/><path class="cls-2" d="M218.35,438.17c-.22.13-.42.33-.5-.1C217.67,438.75,218.17,438.85,218.35,438.17Z"/><path class="cls-2" d="M216,439.12l-.3.17.13.31C215.75,439.45,216.2,439.2,216,439.12Z"/><path class="cls-2" d="M220,435.92c-.13-.08-.42,0-.61-.1l.06.32C219.64,436,219.83,435.85,220,435.92Z"/><path class="cls-2" d="M219.43,435.82l-.08-.47C219.18,435.67,219.27,435.78,219.43,435.82Z"/><polygon class="cls-2" points="217.77 436.97 218.01 437.79 217.81 436.85 217.77 436.97"/><polygon class="cls-2" points="220.66 434.51 220.89 434.86 220.56 434.28 220.66 434.51"/><path class="cls-2" d="M221,433.55c.2.27.54,0,.64.21a1.54,1.54,0,0,0-.2-.87C221.47,433.15,221.34,433.36,221,433.55Z"/><path class="cls-2" d="M221.28,432.44a2.13,2.13,0,0,0,.16.46A1.1,1.1,0,0,0,221.28,432.44Z"/><path class="cls-2" d="M219.69,434.75a.65.65,0,0,0,.52-.12l-.45,0Z"/><path class="cls-2" d="M219.74,434.6h0l.16-.31Z"/><path class="cls-2" d="M219.67,434.78l0,0S219.63,434.75,219.67,434.78Z"/><path class="cls-2" d="M218.54,436.15c-.13-.31-.17-.86-.69-.57C218,435.85,218.34,435.68,218.54,436.15Z"/><path class="cls-2" d="M219.1,434.76l-.26.35c.11,0,.29,0,.35.18Z"/><polygon class="cls-2" points="219.06 434.51 219.1 434.76 219.2 434.62 219.06 434.51"/><path class="cls-2" d="M220.62,433a.92.92,0,0,1,0-.66,2.26,2.26,0,0,0-.41.63C220.35,433,220.53,433.2,220.62,433Z"/><path class="cls-2" d="M220.16,433.74v0S220.09,433.72,220.16,433.74Z"/><path class="cls-2" d="M221.53,430.23h-.09l.06,0Z"/><path class="cls-2" d="M220.15,432.93c-.15.14-.09.28,0,.43a1.57,1.57,0,0,1,.1-.43S220.16,432.87,220.15,432.93Z"/><path class="cls-2" d="M221.34,431.78a2,2,0,0,0-.34.2C221.16,431.95,221.43,431.86,221.34,431.78Z"/><path class="cls-2" d="M220.29,433.68a.16.16,0,0,1,0,0C220.4,433.7,220.36,433.69,220.29,433.68Z"/><path class="cls-2" d="M220.29,433.68a1.17,1.17,0,0,0-.14-.33,1.06,1.06,0,0,0,0,.34Z"/><path class="cls-2" d="M219.27,428.54a.53.53,0,0,1-.05,1c.11.49,1.42.76,2.23.71-.15-.08-.3-.14-.35-.62-.26.05-.83.66-1,.2,0-.59.31-.37.61-.53-.54,0-.38-.94-1.1-1.11l0,.55C219.52,428.68,219.42,428.45,219.27,428.54Z"/><path class="cls-2" d="M221.09,431l0,.18a1.55,1.55,0,0,1,.73-.34c-.06-.34-.18-.45-.29-.52l-.39.77Z"/><path class="cls-2" d="M220.77,431.86c-.34-.29-.35-.75-.88-.7-.17.48.19.47.24.82.22-.8.13.31.59-.14a1.48,1.48,0,0,1-.07.45A2.42,2.42,0,0,1,221,432h0c-.06,0-.1,0-.05,0s0,0,0,0a.72.72,0,0,1-.14-.1c.17-.18.12,0,.14.1l.05,0h0l.1-.85A1.81,1.81,0,0,0,220.77,431.86Z"/><path class="cls-2" d="M217.16,434.81a.17.17,0,0,1,.1,0C217.24,434.76,217.21,434.73,217.16,434.81Z"/><path class="cls-2" d="M217.53,434.6c0,.08.17.19.05.35s-.19-.08-.32-.13c.06.15.12.5.46.24l0-.08c.27-.25.93-.43,1-.35A3.56,3.56,0,0,0,217.53,434.6Z"/><path class="cls-2" d="M219.06,433.17l.07-.71-.48.18.21.07C218.63,433,218.92,433.05,219.06,433.17Z"/><polygon class="cls-2" points="221.76 430.25 222.14 430.51 221.71 429.89 221.76 430.25"/><polygon class="cls-2" points="222.06 429.4 222.41 429.59 222.28 429.28 222.06 429.4"/><path class="cls-2" d="M236.79,382.18l-.09-.06A.25.25,0,0,0,236.79,382.18Z"/><path class="cls-2" d="M236.55,382.68l.18.08C236.64,382.7,236.57,382.66,236.55,382.68Z"/><path class="cls-2" d="M230.57,409.25c.45-.13,1.11-.2.69-.34l-.43-.09A.5.5,0,0,1,230.57,409.25Z"/><path class="cls-2" d="M234.05,394.44l-.15,0,.3.34Z"/><path class="cls-2" d="M232.48,393.55l.41-.25A1.27,1.27,0,0,0,232.48,393.55Z"/><path class="cls-2" d="M233.62,380.35l-.4.3C233.56,380.81,233.5,380.54,233.62,380.35Z"/><path class="cls-2" d="M225.48,420.94a1.44,1.44,0,0,0,.49-.48C225.62,420.65,225.18,420.73,225.48,420.94Z"/><path class="cls-2" d="M241.47,382.94c0-.19-.07-.27-.17-.27C241.3,382.85,241.34,383,241.47,382.94Z"/><path class="cls-2" d="M226.25,419.79l-.15.08a1.18,1.18,0,0,1-.14.59C226.23,420.33,226.43,420.14,226.25,419.79Z"/><path class="cls-2" d="M207.54,367.92a.58.58,0,0,1,0-.07C207.47,367.9,207.5,367.91,207.54,367.92Z"/><path class="cls-2" d="M201.73,360.42a1.57,1.57,0,0,1,.33.11A.49.49,0,0,0,201.73,360.42Z"/><path class="cls-2" d="M223.63,426.18c0,.19,0,0,0,0Z"/><path class="cls-2" d="M221.69,426.35a.33.33,0,0,0-.16-.15A.43.43,0,0,1,221.69,426.35Z"/><path class="cls-2" d="M224.5,417h0C224.41,417,224.43,417,224.5,417Z"/><path class="cls-2" d="M223.34,426.36a.89.89,0,0,0,.21-.17A.94.94,0,0,0,223.34,426.36Z"/><path class="cls-2" d="M223.54,426.41l-.1.14C223.5,426.59,223.55,426.59,223.54,426.41Z"/><path class="cls-2" d="M223.71,425.93a.82.82,0,0,1-.16.26s.07,0,.08,0Z"/><path class="cls-2" d="M222.08,373.35a.43.43,0,0,1,0-.05C221.81,373.38,221.9,373.39,222.08,373.35Z"/><path class="cls-2" d="M228.35,403v0l0,0Z"/><path class="cls-2" d="M228.32,402.21c.38.48.26.6.07.76l1.24.28Z"/><path class="cls-2" d="M236.47,381.3a1.79,1.79,0,0,1-.26.31,2.78,2.78,0,0,0-1,.59c.91-.65.74-.35,1.1-.42a3.43,3.43,0,0,0,.79-.18l-.4.21s-.07,0,0,0c-.85.35,1.14-.17.74.28a.6.6,0,0,1-.56.14,1.35,1.35,0,0,1,.25.26c-.06.07-.29,0-.24,0l0,.39,0,0c.2.07.38.5.45.69-.27.14-.09-.17-.27-.18l.1.6c-.41.06-.55-.47-.37-.78-1.44-.09.15.53-1,1.18l0-.52c-.83,0-.72.45-1.38.77.28,0,1.55-.54,1.64.11-.16.1-.28.28-.15.66-.45-.19-.45.13-.57.48l-.58-.27c0,.44.33.54.5.87-.23.39-.72.28-1.15.21-.37.62.92-.14.7.68-.46.45-.38.94-.3,1.74-.37.3-.33-.22-.56-.15l.33.54c0,.08-.18,0-.25-.05.06.36.58.27.55.79.6.4-1.34.52-.84,1.39-.23.07-.33-.22-.58-.27a4.47,4.47,0,0,0,.46,1.7l-.61.37c.61-.2.92.52,1.16,1.14a5.71,5.71,0,0,0,.63-.13l0,.83c-.13,0-.3-.11-.5-.33a2,2,0,0,0,.09.19c-.32.16-.61-.12-.86-.44l.47-.1a2.41,2.41,0,0,0-1-.76.5.5,0,0,1,.06.3.4.4,0,0,0-.22-.16c-.07,0,0,.13.13.3l-.72-.12.24.15-.8.74c.38.93,1.11,1.92.94,3.07-.37-.46-.76-.39-1.33-.65.72,0,.09-.91.44-1.4a.29.29,0,0,1-.49,0l.14,1.19c-.46-.22-.44.06-.74.22,1,.2.31,1,.43,1.49-.32-.11-.6-.34-.32-.78-.92.23.79,1.14,0,1.4,0-.12.12-.16,0-.27.16.39-.34,1-.54.69l0-.12c-.44.73-1,2.35-.27,2.8a9.66,9.66,0,0,1-1-.62l2,2.5c-.62-.41-2.42-.62-2.53-1.42a.75.75,0,0,0-.31.81c.15-.08,1.1.1,1.09.3-.95.15-.54.16-1.42.47.22-.13,1.19.53,1,.81-.14-.11-1.05-.42-1.11-.57l.72,1.18c-.11-.26-.86-.41-1.23-.36.24,0-.29.63-.27.87l.37-.21c-.51.77,1.1,1.44.7,2.25-.17-.19-1.21-.81-1.52-.44.45.42,2.19,1.94,2.28,2.84h-.36l.11.71a20.59,20.59,0,0,1-2.33-3.2c-.37.21-.39-.06-.57.42-.35,0-.32-.44-.28-.58l-.65,1c.64.21.27,1.1.8,1.27l-.14-1.46c.64.21,1.47,1.43,1,2.16-.33.09-1-.61-1.25-.69.17.19.1.91-.09.91l-.19-.47c-.42.33.52,1-.29,1.32-.12.16-1,.19-.67.38a9,9,0,0,1,3.49,1.3,6.44,6.44,0,0,1-1.51.7c-.68.06-1.13-1-1.71-1a1,1,0,0,1,.34.43c-.22.13-.49-.3-.59.14.6.33-.4.8.45.42,0,.47-.31.37-.48.85.47,0,1.2,1,1.21,1.48a1,1,0,0,0-.51-.09c-.4.79-.87,1.11-1.2,1.87-.18,0-.52.29-.73,0,.06.16.23.35.15.59-.74.22.14-.56-.66-.49.35.18.24.82.33,1.25.61.14.44-.73.35-1.16a2.49,2.49,0,0,1,1.36,2.2c-.08.71-.62.06-.55.22-.64,1.13.93,1.59-.05,2.33-.66.18-1-.4-1.39-.47,0-.59.65-.66.78-1l-.42.33c-.09-.23-.07-.63.15-.76-.58.14-.94,2-1.74,2.71.1.23.15.59.4.54l.05-.32c.51-.1.32.78.66.49.12.51.37,1.13-.09,1.58l-.61-.14c.17.06.49-.21.38-.44.15.33-1.12.51-.49,1.08l.55-.22c.12.51.51,1.25.13,1.66.65,0,0-.14.78-.21-.94,0,.56-1.23-.5-1.11.91,0,.58-.48,1.42-.66-.19-.06-.43,0-.16-.36a.86.86,0,0,1-.13-.16l0,0h0s0,0,0,0a.69.69,0,0,1-.37.09c-.34-.38-.05-1-.18-1.34.19-.2.17.19.43.14l-.19-.47c.43.14,1-.35,1,.32l.24-.5a1,1,0,0,0,.56-.91c.19-.2-.2-.8,0-.46l.09-.91.11,0c.39-.77,0-1.92,1.14-2.51a1.52,1.52,0,0,1,.31-1l.39.06c0-.4.79-.88.48-1.18,1.12,0,.92-1.57,1.34-2.1l-.46-.22a3.59,3.59,0,0,0,.27-1.45l-.43-.14c-.15-.59.78-1,1-1.74.14.11,0,.28-.13.36,1.29-.44.07-2.06,1.08-2.53a.35.35,0,0,1,.2-.46.08.08,0,0,0,0,.06l0-.08c.11-.05.23-.1.33-.17a1,1,0,0,0-.32.13,1.84,1.84,0,0,0,.09-.65l.48.1s0,0,0-.06c.25-.14-.14-.26-.52-.29a1.21,1.21,0,0,0-.15-.4c.79.13,0-.67.86-.58-.31-.3.18-1.21-.55-1.66.11,0,.18,0,.14.11.19-.2.38-.41.26-.72l.61.14-.53-.85c.48-.18.74-.22,1,.28-.34-1.05,0-.73-.37-1.67l.35.19c.09-.24-.24-.82.12-.84.92-.23,1.2-2.55,2.41-3.62-1.18-.19.75-.42-.06-.83.29,0,.51-.1.64.21,0-.79.84-.86.34-1.63.29,0,.31.31.49.3,0-.08-.13-.31.05-.32s.17.19.23.35c.26-.72-.5-1.12-1.21-1.49.5-.21.52-.41.15-.87.29,0,.63-.12.53.35.14-.23,1-1.35.41-1.62.18,0,.19-.32.15-.42a5.21,5.21,0,0,0,.52-1.12l-.16.11c-.62-.51,0-.52.13-1l.07,0c.94-.78-.06-.54.94-1.27l-.46-.13c-.91-.5.93-.63.81-1.36l-.34.1c-.19-.45,1.66-.32,1.91-.59.11,0,.09.16.11.29.91-.58-.53-.35-.41-1,.36,0,.73.48,1,.1.34-.1-.51-1.62.33-1.93-.29,0-.59,0-.65-.32a.67.67,0,0,1,.25-.33,5.36,5.36,0,0,0,.49-.5c.33-.38.6-.85.29-1.18a.46.46,0,0,1,.26-.1c0-.52.29-1.6-.13-1.73a1.61,1.61,0,0,0,1.17-1.5c-1.07-.25-2.18-.31-1.31-.86l-1.57-.63.16-.1a2,2,0,0,0-2-.21c-.15-.19.06-.24.12-.31-.34-.24-.43-.34-.59-.45a1,1,0,0,0-.4-.17,2.77,2.77,0,0,0-1.13.2l.13-.49c-.34.16-1-1.34-2.21-1.24a.36.36,0,0,1,.19-.15c-1.28,0-1.92-2.4-3.05-.94l-.87.09c.83.54-.46.65-.22,1.09-.39-.06-.68-.91-.21-.8l0,.11c.55-.78-1-.81-.67-1.38-1.77-.77-3.25-2-4.88-2.82l-.12.75-.55-.3c-.08-.22,0-.61.43-.4,0-.48-.83,0-.91.14-.67-.64.67-.63.43-.76l-.36-.1,0,.11c-.39.15-.55.42-1,.16-.25-.28,0-.48-.08-.56s0-.09-.18-.11l-.69-.39,0,.66c-.44.11-.66-.34-.61.41-.06-1.14-2.53-1.57-2.7-2a1.9,1.9,0,0,1-1.59-.33c.09.17-.11.8-.54.51.73-1.14-.62-.93-.6-2,.07.74-1.41-.48-1.25.6-.35-.28.19-.47,0-.89-1.15,0-1.92-1.26-3.15-1.63-.09.15,0,.48-.37.61l-.24-1.08c-.26,0-.64.82-.8.08,0,.16,0,.4-.19.38-1.91-1.82-4.93-1.5-6.55-4,.17.45-.05.39-.3.29.12.15-.19.39-.26.62l-.69-1c-.45.52-1.05-.44-1.42.09l.35,0c-.72.49-.13,1.77-.59,2.61.81-.56.67,1.69,1.93.94.08.25-.27.22-.27.46.36-.29.63-.26,1,.1l-.09.07c1.23.46,1.57,1.06,2.79,1.92l.1-.48a1,1,0,0,1,.34.52c.63-.5-.79-.41-.16-1,0,1.05,2,.95,1.81,2.06.44.21.1-.56.54-.35v.32l.27-.29a.73.73,0,0,1,.16.83c-.06-.06-.23,0-.31,0,.23.49,1.11.38,1.19.54l-.35-.36c1.32.3,2.63,1.34,4,1.33v-.24c1.06,0,.61.55,1.66.83l-.06,0a1,1,0,0,1,.85.05c-.36.12.25.68-.19.79,1.15,0,.62-.1,1.61-.56v.4c.36-.2.45-.36,1-.22-.53.1.07.66-.55.83.68,1.21,1.86,0,1.83,1.25.9-.72-.65-.93-.29-1-.08-.41.71-.52,1-.28s0,1.45.83,1.81c-.08,0-.12,0-.2,0,.2.38.75,0,.95.52.47-.47.47.26.87-.43l-.83-.18c.51,0,1.3-.65,1.82.09a1.47,1.47,0,0,1-.61.25c.11.31.46,0,.57.36-.39.69-1-.27-1.7.07.08.41,1.11-.12.52.55.79-.84.75.5,1.66,0l-.24.41c.12,0,.4-.15.55-.06l-.55.42c.67-.27.68.82,1.23.76-.91-.4,0-.61-.2-1.1,1.38-.06.12,1.42,1.47,1.79-.2,0-.52-.55-.16-.63a1.63,1.63,0,0,1,.48.8c.87.29.08-.5.55-.6,0,.65.51,0,.95,0l-.2.44c.81.72.67-.8,1.36-.07l-.64.44.52,0-.32.46c.65-.15.76,0,1.17.38a.66.66,0,0,1,.85-.59c.16.39-.35.34.27.55-.26.21-.57.49-.64,0-.09.13-.26.21-.35.34.17.44.74.42,1,.52a.44.44,0,0,1-.18-.21l1.14-.21c.06.23-.11.31-.27.39.2,0,.41-.11.68,0-.23.33-.38.7-.82.7l1,0c0,.18.22.62.06.7.36.42,1.43-.18,1.9.38a.41.41,0,0,1,.31-.08c.53.34.83,1,1.72.83a2.91,2.91,0,0,1-.23.67,1.25,1.25,0,0,0,.29-.46c.1-.21.19-.44.46-.46.43,0-.3.52-.38.7a2.26,2.26,0,0,1,.68-.35c.23-.06.42,0,.21.2C236.53,381.38,236.59,381.3,236.47,381.3Zm-.52,3.32c0-.17-.22-.54.08-.52C236.48,384.46,236.19,384.47,236,384.62ZM232.79,395c-.11-.16,0-.27.27-.37A.47.47,0,0,1,232.79,395Zm-8.71,29.07,0,0C224.36,423.89,224.25,424,224.08,424.12Zm-.44.51a.17.17,0,0,0,.17.11c-.09-.09,0-.22,0-.36C223.73,424.37,223.61,424.41,223.64,424.63Zm-2-55.07.06.17C221.35,369.73,221.48,369.65,221.61,369.56Z"/><path class="cls-2" d="M232.66,393.66a.78.78,0,0,1,.26,0A.18.18,0,0,0,232.66,393.66Z"/><path class="cls-2" d="M233.69,380.3h0l-.06.07Z"/><path class="cls-2" d="M223.75,413.91a.58.58,0,0,1,.33-.14C224,413.72,223.86,413.74,223.75,413.91Z"/><path class="cls-2" d="M223.07,428.06l0-.43c-.06.19-.18.22-.29.28C222.93,428,223.11,427.94,223.07,428.06Z"/><path class="cls-2" d="M218.93,430.17c0,.08,0,.12,0,.2l.21.07C219.22,430.2,219.12,430,218.93,430.17Z"/><path class="cls-2" d="M221.44,427.79c-.39-.13-.36.16-.4.45a.13.13,0,0,1,0,0C221.55,428.49,221.5,428.14,221.44,427.79Z"/><path class="cls-2" d="M221,428.31a.62.62,0,0,1-.09.25C221.13,428.68,221,428.47,221,428.31Z"/><path class="cls-2" d="M223.57,425.48c-.15.08.44.28.26.29C224.25,426.11,223.61,424.69,223.57,425.48Z"/><polygon class="cls-2" points="220.12 427.48 220.63 427.58 220.32 427.27 220.12 427.48"/><path class="cls-2" d="M221.35,425.54l-.31.37c.08,0,.1.1.11.18C221.28,425.83,221.49,425.58,221.35,425.54Z"/><path class="cls-2" d="M221.15,426.08a.48.48,0,0,0-.07.37A1,1,0,0,0,221.15,426.08Z"/><polygon class="cls-2" points="220.23 426.84 220.38 426.76 220.54 426.47 220.23 426.84"/><path class="cls-2" d="M223.36,421l.06-.52c-.14-.11-.29,0-.3.17S223.18,421,223.36,421Z"/><path class="cls-2" d="M221.51,421.89c.15-.08.26,0,.44-.05l-.57-.26Z"/><path class="cls-2" d="M221.95,420.5c-.14-.11-.17-.86-.38-.26C221.7,420.35,221.64,420.86,221.95,420.5Z"/><polygon class="cls-2" points="225.62 413.87 225.57 413.99 226.52 414.37 225.62 413.87"/><path class="cls-2" d="M226,406.8c-.46.45.52.38,0,.75.17.22.4-.31.54-.09C226.45,407,226.65,406.91,226,406.8Z"/><path class="cls-2" d="M226.54,407.45a1.26,1.26,0,0,0,.07.23A.58.58,0,0,0,226.54,407.45Z"/><polygon class="cls-2" points="200.69 359.34 200.44 358.98 200.52 359.4 200.69 359.34"/><path class="cls-2" d="M199.71,359.72l.19-.63-.45.44C199.54,359.54,199.71,359.56,199.71,359.72Z"/><path class="cls-2" d="M234.34,385.09l.13.09c.18,0,.23-.07.32-.22Z"/><path class="cls-2" d="M236.14,382.09l0,0,.69-.12Z"/><path class="cls-2" d="M235.24,382.12s.09-.08.08-.05S235.71,381.53,235.24,382.12Z"/><path class="cls-3" d="M207,315.48c-.06.33.77.21.93.26C207.72,315.18,206.79,315.5,207,315.48Z"/><polygon class="cls-3" points="204.65 310.39 205 310.43 204.06 309.82 204.65 310.39"/><path class="cls-3" d="M203.6,305.7c-1.24.84.66,1.61.39,2.58l-.28.21,1.22.13C204.47,307.62,203.41,306.52,203.6,305.7Z"/><path class="cls-3" d="M205.59,302.15c-.46.37-.65-.39.06.67a1.12,1.12,0,0,1,.09-.16A2.35,2.35,0,0,1,205.59,302.15Z"/><path class="cls-3" d="M205.74,302.66c.23.51.31-.51,0,0Z"/><path class="cls-3" d="M204.46,300.45l.76.45c.24-.27,0-.9.34-.77C205,299.55,204.76,299.84,204.46,300.45Z"/><path class="cls-3" d="M203.22,300.29l.35.24C203.67,300.41,203.67,300.3,203.22,300.29Z"/><path class="cls-3" d="M204.31,301l-.74-.52c-.16.19-.58.4.3.25C203.46,300.9,203.89,300.87,204.31,301Z"/><path class="cls-3" d="M204.3,301.53c-.1.48-.12,1-.83.57C204.12,303.26,205,302.72,204.3,301.53Z"/><path class="cls-3" d="M202.11,305.92c-.08.19-.15.38-.25.58l.56.26C202.15,306.63,202.54,305.76,202.11,305.92Z"/><path class="cls-3" d="M202.94,296.11c-.28.12-.56.64-.86.89l.57.27C202.69,296.93,202.58,296.38,202.94,296.11Z"/><path class="cls-3" d="M202.08,297l-.85-.39C201.54,297.23,201.81,297.21,202.08,297Z"/><path class="cls-3" d="M201.75,300.88q.76.3,1.53.65-.83-.45-1.64-.85Z"/><polygon class="cls-3" points="201.21 293.54 202.06 293.49 200.71 293.46 201.21 293.54"/><path class="cls-3" d="M199.86,292c.68-.12.44-1,1-.95a3.08,3.08,0,0,0-1.79-.41C199.51,290.8,199.8,291.21,199.86,292Z"/><path class="cls-3" d="M198.06,290.54a4.6,4.6,0,0,0,1,.08A2.08,2.08,0,0,0,198.06,290.54Z"/><path class="cls-3" d="M200.62,295.43a1.23,1.23,0,0,0,.34-1l-.51.75Z"/><path class="cls-3" d="M200.43,295.2l0,0-.36-.56Z"/><path class="cls-3" d="M200.66,295.49l0-.06C200.57,295.5,200.56,295.53,200.66,295.49Z"/><path class="cls-3" d="M201.53,298.78c-.65-.15-1.55-.64-1.73.46C200.46,299.21,200.56,298.57,201.53,298.78Z"/><path class="cls-3" d="M200,296.4c.1.25.18.52.26.78.18-.14.38-.44.7-.38C200.64,296.66,200.34,296.52,200,296.4Z"/><polygon class="cls-3" points="199.55 296.24 200 296.4 199.89 296.12 199.55 296.24"/><path class="cls-3" d="M198.44,292.15a1.78,1.78,0,0,1-1.14-.57,4.28,4.28,0,0,0,.76,1.22C198.3,292.67,198.8,292.51,198.44,292.15Z"/><path class="cls-3" d="M199.39,293.65l-.09,0C199.28,293.7,199.29,293.75,199.39,293.65Z"/><path class="cls-3" d="M194.17,288.59l0,.17.11-.1Z"/><path class="cls-3" d="M198,293c.11.37.41.39.74.37a3,3,0,0,1-.68-.53C197.94,292.86,197.88,292.91,198,293Z"/><path class="cls-3" d="M196.91,289.93a7.33,7.33,0,0,0,.11.77C197.1,290.37,197.12,289.81,196.91,289.93Z"/><path class="cls-3" d="M199.42,293.37l.06,0C199.55,293.18,199.49,293.25,199.42,293.37Z"/><path class="cls-3" d="M199.42,293.37a2.06,2.06,0,0,0-.69,0,2,2,0,0,0,.58.29A1.14,1.14,0,0,1,199.42,293.37Z"/><path class="cls-3" d="M189.78,292.13c.5-.59,1.67-.71,1.62.44.89,0,2.31-2.23,2.72-3.81-.24.26-.43.47-1.36.37,0,.48.65,1.88-.29,2-1-.34-.45-.72-.57-1.36-.29,1-1.88.39-2.56,1.69l1,.08C190.18,291.73,189.72,291.84,189.78,292.13Z"/><path class="cls-3" d="M195.21,289.85l.31.15a3.24,3.24,0,0,1-.15-1.58,1.27,1.27,0,0,0-1.15.24l1.15,1.19Z"/><path class="cls-3" d="M196.62,291c-.78.4-1.62.17-1.92,1.14.7.6,1,0,1.62.11-1.19-1,.65,0,.24-1.17a2.67,2.67,0,0,1,.74.47,5,5,0,0,1-.27-.88v.06h0c0,.13-.06.19-.07.09h0a1.5,1.5,0,0,1-.28.18c-.18-.46.11-.21.28-.18l.1-.08h0c-.47-.29-1-.51-1.48-.76C195.68,290.33,196,290.57,196.62,291Z"/><path class="cls-3" d="M197.81,299.55a.4.4,0,0,1,.15-.14C197.82,299.38,197.75,299.39,197.81,299.55Z"/><path class="cls-3" d="M198,298.78c.15,0,.49-.09.59.25-.07.39-.35.22-.58.38.3,0,.9.28.92-.48l-.15,0a3.27,3.27,0,0,1,.6-1.88A9.23,9.23,0,0,0,198,298.78Z"/><path class="cls-3" d="M197.35,295a10.9,10.9,0,0,0-1.12-.67l-.16.94.32-.31C196.7,295.65,197,295.2,197.35,295Z"/><path class="cls-3" d="M194.33,288.16l.72-.58c-.46.14-1,.34-1.42.51Z"/><polygon class="cls-3" points="192.88 287.2 193.4 286.61 192.75 286.71 192.88 287.2"/><path class="cls-3" d="M149.35,328.89l.34.13A.85.85,0,0,0,149.35,328.89Z"/><path class="cls-3" d="M148.42,327.06l-.37.13C148.29,327.17,148.44,327.14,148.42,327.06Z"/><path class="cls-3" d="M152.86,285.52c-.87-.33-2.08-.94-1.52-.23l.63.63A1,1,0,0,1,152.86,285.52Z"/><path class="cls-3" d="M141.77,309.77l.28-.09-.73-.49C141.46,309.36,141.59,309.56,141.77,309.77Z"/><path class="cls-3" d="M145.24,310.77l-.64.47A2.08,2.08,0,0,0,145.24,310.77Z"/><path class="cls-3" d="M157.48,336.29l.75-.55C157.83,335.47,157.76,336,157.48,336.29Z"/><path class="cls-3" d="M176.58,280.8a2.74,2.74,0,0,0-1.15-.7C176,280.68,176.33,281.49,176.58,280.8Z"/><path class="cls-3" d="M140.86,332.65a.63.63,0,0,0,.63,0C141.24,332.54,141,332.5,140.86,332.65Z"/><path class="cls-3" d="M174,280c.08.09.16.14.25.22a2,2,0,0,1,1.18-.12C175,279.67,174.53,279.44,174,280Z"/><path class="cls-3" d="M192.82,330.08a1.13,1.13,0,0,1,.13,0C192.86,330,192.83,330,192.82,330.08Z"/><path class="cls-3" d="M205.61,320.32a2.77,2.77,0,0,1,0,.65A.87.87,0,0,0,205.61,320.32Z"/><path class="cls-3" d="M187.08,283.25c.36.11.09-.06,0,0Z"/><path class="cls-3" d="M187.07,287.06a.74.74,0,0,0-.32.31A.94.94,0,0,1,187.07,287.06Z"/><path class="cls-3" d="M170.51,285.34h0C170.58,285.5,170.57,285.47,170.51,285.34Z"/><path class="cls-3" d="M187.41,283.85a1.7,1.7,0,0,0-.31-.44A1.88,1.88,0,0,0,187.41,283.85Z"/><path class="cls-3" d="M187.52,283.45l.25.22C187.89,283.56,187.89,283.46,187.52,283.45Z"/><path class="cls-3" d="M186.59,283.07a1.58,1.58,0,0,1,.5.34c0-.08,0-.14,0-.16Z"/><path class="cls-3" d="M175.23,343.43l.07.07C175.54,343.1,175.42,343.18,175.23,343.43Z"/><path class="cls-3" d="M152.12,297.7s0,0,0-.05h0Z"/><path class="cls-3" d="M151.94,298.85c-.54-1-.26-1.11.11-1.19L150,296.22Q150.94,297.57,151.94,298.85Z"/><path class="cls-3" d="M152.44,332.7l.15-1c1.5-.26,1.51.4,1.94-.75-1,.87-1.54.49-2,0s-.84-.9-2-.15l.2-.68c.05.11.2,0,.25.15.56-1.4-2,.61-2.28-.6,0-.45.17-.88.58-.82l-1-.41c-.08-.25.36-.41.45-.18-.29-.35-.52-.73-.78-1.09l.08,0a7.37,7.37,0,0,1-1.61-.19c.2-.48.34,0,.61-.18-.31-.14-.63-.28-.93-.43a.92.92,0,0,1,.91-.26.8.8,0,0,1,.63.51c1.09-.87.87-.91.48-1s-.91-.28-.42-1.24l.55.51c1.29-1,.6-1.22,1.26-2.18-.43.27-1.78,2.16-2.68,1.66.12-.28.1-.58-.56-.83.92-.29.6-.62.42-1.11l1.24-.3c-.49-.42-1.11-.23-1.76-.41,0-.64.89-1,1.7-1.27.06-1-1.46,1-1.87-.14.39-.92-.3-1.37-1.11-2.35.41-.64.78,0,1.14-.2l-1-.46c0-.13.33-.11.49-.09-.42-.43-1.28,0-1.66-.69-.7-.08-.23-.49.27-.95s1-1,.23-1.46c.37-.2.78.15,1.28.11a12.64,12.64,0,0,0-2-2.25l1-.74c-1,.48-2-.49-2.84-1.47a8.7,8.7,0,0,0-1.14.41,11.46,11.46,0,0,1-.42-1.43c.24-.11.64.12,1.11.44-.08-.11-.16-.21-.24-.29.58-.34,1.23.07,1.85.52l-.88.27a5.56,5.56,0,0,0,2.27,1,.83.83,0,0,1-.28-.44,1,1,0,0,0,.5.19c.14,0-.13-.19-.4-.44l1.46.05-.54-.18,1.23-1.19-.93-1.08a13.73,13.73,0,0,1-.87-1.17,4.34,4.34,0,0,1-.84-2.72c.76.83,1.53.76,2.65,1.27-1.4-.07.06,1.45-.48,2.14.29-.38.81-.09,1,.08q-.31-.9-.59-1.86c.92.42.81,0,1.38-.2-2-.53-.71-1.59-1-2.46.61.28,1.16.73.68,1.35,1.71,0-1.65-2.1,0-2.23-.09.17-.23.21,0,.44-.28-.68.7-1.39,1.06-.86l-.09.17a5.16,5.16,0,0,0,.65-.92,6.4,6.4,0,0,0,.6-1.14,2.15,2.15,0,0,0-.24-2.29c.17.13,1.46,1.43,1.69,1.71a43.63,43.63,0,0,1-2.66-5.59c.92,1.16,3.93,3,3.84,4.35.36-.07.73-.18.82-1-.29,0-1.87-1.15-1.75-1.44a12,12,0,0,0,2.66.64c-.43,0-1.72-2-1.28-2.26a21.09,21.09,0,0,1,1.53,2,25.11,25.11,0,0,1-.5-2.51c0,.51,1.15,1.52,1.75,1.87-.37-.28.83-.57.94-.93l-.7-.12c1.24-.53-.68-3.39.66-4.08.07.5,1.12,2.66,1.84,2.56a25.39,25.39,0,0,1-.74-3.4,6.13,6.13,0,0,1,.32-3.61l.52.48a12.33,12.33,0,0,1,.72-1.13l-.07,3.89c0,1.46,0,2.85,0,3.66.69.24.49.62,1.11.26a.72.72,0,0,1-.09,1.12l1.62-.34a1.58,1.58,0,0,1,0-1.47,1.37,1.37,0,0,0,.15-1.28,17,17,0,0,0-1.13,2,4.45,4.45,0,0,1-.4-2.45c.09-.91.49-1.66,1.17-1.77.5.39.61,2.32.81,2.73,0-.48.8-1.23,1-1l-.25.86c.4.12.5-.39.68-.83s.43-.73,1-.22c.31,0,1.23,1.47,1.08.69-.77-1.38-2.12-5.94-2-7.15.07,0,.61.28,1.17.6a5,5,0,0,1,1.41,1.12c.71,1.11-.25,2.94.38,3.89a2,2,0,0,1,.22-1c.36.26.07,1.14.69.88-.1-1.36,1.36-.09.14-1.19.61-.47.73.13,1.5,0a4,4,0,0,1,1.23-3.45,2.42,2.42,0,0,0,.24,1,6,6,0,0,1,1,.12c.3.08.58.19.85.29a5.71,5.71,0,0,0,1.73.42c.1.33.69.77.36,1.33.21-.21.43-.65.83-.62.61,1.29-.9,0-.49,1.54.13-.78,1.13-.93,1.79-1.33,0-1.23-1.31-.44-1.92,0a4.54,4.54,0,0,1,3.12-3.8c1.31-.19.3,1.18.56,1,1.06.42,1.71-.17,2.32-.65s1.18-.88,1.92.06c.38,1.28-.67,2-.77,2.82a1.19,1.19,0,0,1-1-.57c-.25-.29-.47-.61-.79-.67l.63.69c-.4.27-1.07.37-1.32,0a1.21,1.21,0,0,0,.7.65,6.41,6.41,0,0,0,.61.24l.69.29a5.58,5.58,0,0,1,2.59,1.58c.41-.2,1-.32,1-.81l-.54-.09c-.09-1,1.43-.64,1-1.31a8.74,8.74,0,0,1,1.52-.32,1.91,1.91,0,0,1,.75.09,1.44,1.44,0,0,1,.61.51l-.44,1.17c.16-.32-.23-1-.67-.82.67-.24.53,2.26,1.77,1.14l-.2-1.11c1-.12,2.57-.74,3.14.22.32-1.26-.25,0,0-1.62-.44,1.79-2.2-1.44-2.32.66.21-1.77-.7-1.29-.92-3-.16.37,0,.84-.73.28a1.84,1.84,0,0,1-.33.24l0-.05,0,.06c-.06,0-.07,0,0,0a1.31,1.31,0,0,1,.11.74c-.8.64-2,.05-2.55.3-.36-.39.37-.34.3-.85-.3.12-.59.25-.89.4.3-.85-.7-1.85.62-1.92l-1-.42a1.84,1.84,0,0,0-1.85-1c-.45-.32-1.53.63-.91.06l-1.78.12,0-.22a6.89,6.89,0,0,0-2.62,0,3.32,3.32,0,0,1-2.66-.95,2.9,2.9,0,0,1-2.09.15l-.17-.79c-.72.23-2.24-.7-2.52.11a1.8,1.8,0,0,0-2.36-.87,9.78,9.78,0,0,1-2.62.64l.14,1a6,6,0,0,0-2.58,1.28l.3.85c-.67.88-2.41.09-3.77.69,0-.35.35-.4.67-.3a1.64,1.64,0,0,0-1.5-.13,3.46,3.46,0,0,0-1.06,1c-.63.81-1.18,1.57-2.21,1.34a.65.65,0,0,1-.82.48.15.15,0,0,0,.06-.09l-.14.07a7.17,7.17,0,0,0-.72-.12,2.08,2.08,0,0,0,.65.17,3.28,3.28,0,0,0-.85.93l-.69-.7-.08.08c-.58-.06-.05.57.55,1a2,2,0,0,0-.15.81c-1.18-1.06-.61,1.11-2,.07.12.41-.23.87-.5,1.4a1.85,1.85,0,0,0,.09,1.92c-.16-.16-.32-.15-.16-.32-.48.17-1,.36-1,1l-1-.74c.11.63.25,1.26.42,1.9-1-.06-1.47-.14-1.71-1.27,0,2.14-.47,1.32-.23,3.21l-.57-.55c-.26.4.14,1.63-.55,1.45-.91,0-1.77,1-2.54,2.26s-1.58,2.79-2.83,3.75c1.19.23.8.4.35.64s-1,.56-.15.93c-.57-.05-1,.21-1.29-.39,0,1.52-1.62,1.77-.38,3.16-.57,0-.7-.52-1.05-.47.08.15.35.57,0,.63s-.39-.33-.57-.62c-.29,1.5,1.33,2,2.86,2.48-.45.25-.68.48-.67.72s.27.52.75.86c-.55.14-1.15.46-1.2-.43-.14.45-1.23,2.89.07,3.07-.33.12-.13.67,0,.8a8.41,8.41,0,0,0-.18,2.24l.22-.29c1.5.43.34.86.57,1.71l-.16,0c-.51,1-.36,1.21-.24,1.4s.18.39-.29,1.42l.94-.22c1,0,.8.4.42,1s-.89,1.37-.41,1.84l.47-.5c.38.23-.2.76-.89,1.37s-1.49,1.28-1.54,1.63c-.14.19-.34-.15-.51-.31-.74,2,1.27-.1,1.87,1-.58.42-1.75.2-1.61,1.08-.19.29.56.73,1.23,1.25s1.25,1.13.93,1.91c.37-.45.74-.87,1.35-.51.27.35.08,1.09.06,1.77s.11,1.28,1.05,1.21a.67.67,0,0,1-.27.34c.72.38,1.75,1.52,2.69,1.35-1.22,1.18-.23,1.81.68,2.31s1.83.83.68,1.83l1.52,1.43-.26.18a1.93,1.93,0,0,0,2.5.64c.08.36-.27.42-.4.52,1,1.77,1.36,1.77,3.5,1.5l-.44.9c.34-.1.66.64,1.26,1.35a3.06,3.06,0,0,0,2.52,1.44.76.76,0,0,1-.4.3c1.25-.06,2.07,1.17,3,1.93s1.86,1.17,2.78-.42a16.05,16.05,0,0,0,1.58-.47c-1.61-.71.68-1.44.16-2.19.67,0,1.37,1.48.53,1.45l-.08-.21c-.78,1.73,1.93,1.2,1.63,2.41,3.47.59,6.95,1.7,10.42,1.46l-.53-1.41c.38,0,.76-.05,1.15-.08.34.29.57,1.07-.28,1.14.56.76,1.31-.9,1.27-1.22,1.72.33-.35,1.78.14,1.74l.68-.22-.19-.14c.45-.7.39-1.25,1.37-1.44.68.13.52.8.78.79,0,.1.12.13.39-.06l1.5-.26-.9-1c.47-.7,1.33-.3.32-1.37.75.84,2.1.52,3.34.07s2.26-1.24,2.69-1.09a3.65,3.65,0,0,1,2.15-2.07c-.36-.06-1.17-1.09-.32-1.42.58,1.2,1.12,1.25,1.7,1.07a2.21,2.21,0,0,1,2.11,0c-.67-.3-.16-.78.25-1.27s.68-1.07-.3-1.4c.72-.36.68.73,1.55.8.35-1.06,1.29-1.57,2.21-2.25a7.3,7.3,0,0,0,2.6-2.4c-.26-.24-.92-.26-1-1q1.07,0,2.17,0c.14-.5-1.38-1.48.07-1.53-.31-.06-.78-.15-.71-.48,2-1.47,2.8-3.79,3.48-6,.33-1.14.74-2.24,1.17-3.35a9.45,9.45,0,0,1,.9-1.62,13.76,13.76,0,0,1,1.23-1.61c-.77.54-.77.09-.72-.4-.21.29-.86-.14-1.34-.15.52-.57,1.09-1.15,1.58-1.77-1.3-.47,0-2.13-1.23-2.38l.2.62a2.94,2.94,0,0,0-2.47.12,6.37,6.37,0,0,1-2.8.5c.41.22.46.46.33.7a3.63,3.63,0,0,1-.79.71c-.62.49-1.14,1,0,1.83-.42.2-.57-.35-1-.29.78.46.83.88.3,1.47l-.18-.12c-.26,2-1.36,2.53-2.65,4.24l.93.24c-.32.37-.63.33-.94.42,1.06,1.1.64-1.14,1.88-.05-1-.1-1.39.63-1.77,1.34s-.91,1.3-1.93.91c-.37.59,1,.4.66,1l-.59-.16.55.57c-.34.34-1.13.08-1.54-.19.11-.05.07-.33.11-.44-.92.06-.79,1.44-1.09,1.47l.68-.31a5.22,5.22,0,0,1-.73,1.32l-1,1.17c-.17.2-.34.4-.5.61a6.39,6.39,0,0,0-.5.6,4.4,4.4,0,0,0-.71,1.43l.4.24c-.61,1.59-1.23.33-2.27,1.61v-.12a1.18,1.18,0,0,1-.66,1.17c.06-.65-1.19-.47-1-1.23-.87,1.55-.26,1-.4,3l-.57-.55c0,.75.11,1.08-.58,1.63.34-.87-.95-.8-.63-1.88a1.27,1.27,0,0,0-1.17.05,2.31,2.31,0,0,0-.65.65c-.36.47-.68.82-1.4-.18-.08,2.22,1.74.57,1.48,1.14.6.5-.09,1.67-.7,1.67-.56.19-1.7-2.24-2.94-1.87.13,0,.1-.18.23-.2-.59-.41-.77,1-1.55.21-.12,1.27-.78,0-.63,1.62l1.18-.55c-.59.51-1,2.44-2.37,1.74a3.17,3.17,0,0,1,.58-1.07c-.4-.42-.62.43-1,0-.06-1.55,1.47-.57,2-1.86-.44-.61-1.19,1.34-1.07-.41-.1,1.12-.45,1.1-.82,1s-.8-.29-1.2.56v-1c-.13.16-.4.62-.66.61l.41-1.25c-.67,1.08-1.35-.81-2-.31.68,0,.76.31.74.68s-.15.85.16,1.18c-1.85,1.22-1-2.52-2.85-2.16.26-.1.91.61.47,1a2.06,2.06,0,0,1-1-1.17c-1.26,0,.06,1-.55,1.49-.27-1.21-.7.37-1.36.64l.17-.95c-1.33-.88-.81,1.89-2,.83q.45-.57.88-1.15l-.76.16.41-1c-.92.58-1.13.38-1.72-.17,0,.71-.63,1.63-1.3,1.42-.24-.7.56-.77-.39-1,.43-.49.89-1.12,1-.15.14-.28.39-.5.53-.78-.22-.78-1-.54-1.36-.64a.52.52,0,0,1,.25.33,13.54,13.54,0,0,1-1.76.7c0-.42.23-.61.5-.8-.28,0-.64.3-1,.19.44-.66.78-1.4,1.41-1.5l-1.49.25c.07-.33-.12-1.1.16-1.29-.3-.75-2.19.47-2.63-.56a.65.65,0,0,1-.5.13c-.3-.33-.45-.81-.71-1.16a1.24,1.24,0,0,0-.5-.41,1.47,1.47,0,0,0-.83-.13q.25-.73.52-1.43c-.8-.29-.61,1.84-2,1.31-1-.34.57-1.09.62-1.6-.79.17-2.45.49-2.19-.91C152.18,332.26,152.18,332.56,152.44,332.7Zm-5.6-8.31c.26.12,1,.26.49.6C146.22,325.16,146.66,324.8,146.84,324.38ZM144,308.54c.27.24.06.43-.37.62A.63.63,0,0,1,144,308.54Zm39.07-26.1,0,0C182.57,281.92,182.72,282.13,183.05,282.44Zm1,.81a.36.36,0,0,0,.2-.35c-.17.2-.43.12-.7-.05C183.56,283.12,183.64,283.34,184.06,283.26Zm-4.26,65.91-.29-.19C180,348.58,179.88,348.86,179.8,349.16Z"/><path class="cls-3" d="M144.84,310.65a2,2,0,0,1-.53,0A.42.42,0,0,0,144.84,310.65Z"/><path class="cls-3" d="M157.34,336.39l0,0,.12-.13Z"/><path class="cls-3" d="M167,289.52a1.15,1.15,0,0,1-.46-.44A.45.45,0,0,0,167,289.52Z"/><path class="cls-3" d="M190.69,284.73l-.82-.21c.36.16.37.42.46.65C190.42,285,190.46,284.61,190.69,284.73Z"/><path class="cls-3" d="M192.25,293.38c.15,0,.17.13.32.11l.29-.34C192.52,292.88,192.05,292.94,192.25,293.38Z"/><path class="cls-3" d="M189.59,287.81c-.4.73.17.69.65.89a.22.22,0,0,1-.07-.05C190.94,287.8,190.27,287.77,189.59,287.81Z"/><path class="cls-3" d="M190.35,288.75a1,1,0,0,1,.39.27C191.06,288.69,190.65,288.83,190.35,288.75Z"/><path class="cls-3" d="M185.71,283.34c.15.3.57-.88.57-.51C187,282,184.18,283.23,185.71,283.34Z"/><polygon class="cls-3" points="188.47 290.26 188.87 289.33 188.2 289.87 188.47 290.26"/><path class="cls-3" d="M185.51,287.73l.58.59a.37.37,0,0,1,.35-.21C186,287.86,185.63,287.45,185.51,287.73Z"/><path class="cls-3" d="M186.44,288.1a.76.76,0,0,0,.63.18A1.35,1.35,0,0,0,186.44,288.1Z"/><polygon class="cls-3" points="187.42 289.97 187.33 289.68 186.91 289.33 187.42 289.97"/><path class="cls-3" d="M177.6,284.82l-.9.15c-.14.33.05.57.38.48S177.67,285.16,177.6,284.82Z"/><path class="cls-3" d="M179.38,288.07a1.77,1.77,0,0,1-.14-.82l-.35,1.19Z"/><path class="cls-3" d="M177.1,287.81c-.15.33-1.27.81-.31.87C176.93,288.34,177.75,288.21,177.1,287.81Z"/><polygon class="cls-3" points="165.12 286.39 165.32 286.33 164.87 284.34 165.12 286.39"/><path class="cls-3" d="M157.79,294.67c1,0-.51-1.16.46-1-.08-.52-.79-.1-.84-.56C157.24,293.78,156.86,293.67,157.79,294.67Z"/><path class="cls-3" d="M157.41,293.08a2.26,2.26,0,0,0,.07-.4A1,1,0,0,0,157.41,293.08Z"/><polygon class="cls-3" points="206.95 317.77 207.41 317.05 206.7 317.5 206.95 317.77"/><path class="cls-3" d="M205.51,316.33l1.31-.15-1.16-.44C205.71,315.9,205.8,316.22,205.51,316.33Z"/><path class="cls-3" d="M148.89,322.23l-.31,0a.46.46,0,0,0-.3.53Z"/><polygon class="cls-3" points="150.78 328.79 150.74 328.68 149.86 329.5 150.78 328.79"/><path class="cls-3" d="M155.46,332.25c-.14-.17-.5-.19-.61-.39C155.31,332.08,154.49,333.33,155.46,332.25Z"/><path class="cls-4" d="M120.59,270.22l17.89,37.7.29.36,53.68-22.37c1.49-.62,1.07-7.64,1.08-8.67,0-3,.76-8.23-.79-11l-19.81-35.15c-.53-.95-.79.73-.85,1l-3.83,19.17.56-1.37-23.64-19.81a1.77,1.77,0,0,0-.56,1.37l-4.47,24.92.56-1.37-19.81-4.47c-.18,0-2.93,19.34,0,20L140.7,275a1.77,1.77,0,0,0,.56-1.37l4.47-24.92-.56,1.37,23.64,19.81a1.77,1.77,0,0,0,.56-1.37l3.83-19.17-.85,1,19.81,35.15.29-19.64-39.62,16.51-9.91,4.13c-.53.22-4,1.9-4,1.89-.28-.08-2-4.26-2.42-5.2l-5.75-12.11-9.58-20.2c-.58-1.23-1.34,6.43-1.35,7C119.72,261.44,119,266.87,120.59,270.22Z"/><text class="cls-5" transform="translate(246.46 273.57) rotate(-0.89)">Im not in<tspan class="cls-6" x="172.12" y="0">t</tspan><tspan class="cls-7" x="191.49" y="0">eres</tspan><tspan class="cls-8" x="272.58" y="0">t</tspan><tspan x="291.96" y="0">ed.</tspan></text><path class="cls-9" d="M674,558c1.61-.16,1.36-.35.26-.55s-3.08-.35-4.92-.5l-3.26,1.31Z"/><path class="cls-9" d="M656.19,558.38l-8.81,2,6.38-1.12c7.19.1-.85,1.42-3.52,1.87C661.88,559.88,654.37,559.25,656.19,558.38Z"/><path class="cls-9" d="M638.73,560.84c-5.72.43-4,1.12-1.62,1.16C637.46,561.61,641.15,560.88,638.73,560.84Z"/><path class="cls-9" d="M285.95,541.73c1.66-.13,3.64-.17,3.39.07C291.15,541.37,291.52,541.05,285.95,541.73Z"/><path class="cls-9" d="M289.34,541.81l-1.17.28,1.1-.19C289.37,541.85,289.31,541.84,289.34,541.81Z"/><path class="cls-9" d="M402.46,566.7c6.44.63,9.92,1.72,15.95,2.64l3.14,1.67c6.55.95,3-.29,7.85.11,5.79,1.81,18.39,3.67,21.21,4.23,1.87.84-2.56.19-3.57.29,7.72,1.09,7.33.07,16.86,1.78l.11.3L482.36,580c3.28.31,6.49.77,10.19.85.89,0,1.81.11,2.69.09l2.62-.14,2.63-.14,2.54-.22c13.53-1.22,27.07-2.95,39.76-4.83-1.73.15-1.32-.12-2-.25,26.8-3.46,57.68-7.23,78.64-11.89-14.47,1.77-39.2,3-53.76,6.57-5.55-.09-13.85,2-16.24,1.18-10.56,1-17.94,2.18-25.22,3.36-3.64.58-7.25,1.21-11.24,1.73s-8.34,1.06-13.5,1.37c-3-.08-1.56-.64-2.43-1.1,1.36-.1,2.72-.15,4.07-.3l4-.42c2.69-.26,5.36-.62,8-1l-4.93.26-4.93.17c1.05-.19,2.49-.37,4.08-.53l4.93-.58c3.25-.39,6.12-.83,6.66-1.36-3.48.65-7.5,1.16-11.77,1.65l-6.55.6c-1.11.08-2.22.11-3.34.17a27,27,0,0,1-3.34.06c-8.9-.39-17.53-2-23.71-2.31,2.83.63,6.06,1.1,9.42,1.63,1.67.28,3.4.47,5.12.68s3.45.48,5.17.64l5,.79c1.52.11,2.64.26,2.49.51a46.91,46.91,0,0,1-7.43.22c-2.43-.09-4.74-.37-7.07-.58s-4.57-.59-6.83-.89-4.51-.65-6.73-1.05c-8.94-1.52-17.89-3.28-27.82-5-5-.85-11.69-2.26-12.41-2.9,3.28.47.91-.41,3.62-.11-7.09-1-1,1.61-11.14-.59l1.63-1.42c-4.38,1-12.33-2.76-19.75-3.14-2.46-1.18,2.4-.64,8,.41-6.24-1.54-7-.67-12-1.67l5-.51c-5.62.33-9.54-2.13-12.49-3.18-.43.28,2.18,1.91-4.52.54-2.85-.73-1.3-.81-1.94-1.14-.44.28-3,.47-7.42-.33-.72-.63,3.08-.16,3.47-.6a55.69,55.69,0,0,1-8.45-1.88c-6-.68.26.76-3.46.62-9-2-.6-1.83-3.77-3.46,7,.54,15.86,2,19.6,2.32l-13.23-2.08c.9-.42-8.74-2.59-1.68-1.87-13-3-29.1-5-41.91-6.31,1.78.43,4.09.86,3.66,1.17-6.64-.53-5.81-1.14-7.12-1.73a12.19,12.19,0,0,0-4.49.35,13.34,13.34,0,0,1-3.11.89c-2.51-.45-4.48-.77-6.17-1-.84-.14-1.61-.23-2.36-.28l-2.12-.18c-2.74-.22-5.26-.64-9.73-1l.59,1a26.16,26.16,0,0,0-3.87-.08c-1.06.14-2,.34-2.86.55a58,58,0,0,1-7,1.18c-.2-.07.32-.29,1.14-.57l1.4-.45c.51-.15,1.05-.25,1.56-.38-1.48.22-2.54.47-3.43.57s-1.57.14-2.26.17-1.37.06-2.24.18a20.82,20.82,0,0,0-3.27.86c1.4-.73,2.8-1.51,4.27-2.13-4.61,1-11,3.23-9,1.66-7.56,3.28-20.63,7.73-29.7,11.27l.35-1a30.46,30.46,0,0,1-4.7,2c-1.93.62-4.13,1.25-6.3,1.88s-4.36,1.12-6.22,1.7a27.46,27.46,0,0,0-4.43,1.64l-.8-.19-4.78,1.55c-1.6.51-3.19,1.07-4.82,1.48-4.51.6-3.18-.91-3.49-.5l-3.57.63c-1.16.21-2.29.41-3.4.52q-3.32.41-6.29.72a83.55,83.55,0,0,1-10.74.53,7.47,7.47,0,0,1-2.65.88,38.66,38.66,0,0,1-5,.71c-3.87.32-8.6.52-12.79.68-40.78-.73-84.53,4.28-121.53,12.15-5.56,1-13,3.71-19.71,5.81,4.19-.81,6.52-1.34,8.78-1.91S35,582.79,39.16,582c6.33-.83,8.85,0,14.37-.17l-2.9-.51c8.38-2.11,5.93-.4,12.52-2.36l-.06,1.59c2.26-1.1,8.3-1.3,10.8-1.18L76,578c2.73,0,5-.09,6.75,0a11.23,11.23,0,0,1,4,.64l-.63-.93c1,.22,6.21-.4,10.35-.66s7.23-.29,4.11.83a25.86,25.86,0,0,1,6.35-1.18l.6.95c4.91-.6,10.41-1.18,11.87-.72a10.59,10.59,0,0,0-4.38,1.41,73,73,0,0,0,9.74-1,3.93,3.93,0,0,0,2.5-1.26,3.41,3.41,0,0,1,2.06-1.28,36.7,36.7,0,0,1,8.45-.94l-.19.65,4.69-.83,5,.65c3.33-1.17,9.83-1.15,16.94-1.08,3.59,0,7.33.06,10.88,0,.89,0,1.76,0,2.62-.06l2.52-.21c1.64-.15,3.18-.34,4.6-.57a33.08,33.08,0,0,1,3.64-.13l2.07,0,2.24,0a85.08,85.08,0,0,0,11-.73l-.68-.89c1.74,0,4.63-.23,8.11-.53l2.71-.25,2.86-.39,6-.8,11.48-1.8a44.61,44.61,0,0,1,8-.82c6-2.72-.71,0-.81-.78,3-1.2,5.24-2,7.12-2.63a42.42,42.42,0,0,1,4.61-1.25c2.6-.53,4.53-.63,7.69-1.43,7.07-3-5.66,1.57-2-.49A53.2,53.2,0,0,0,269,555.72c1.22-.57,2.52-1.11,4.37-1.77a53.51,53.51,0,0,1,7.65-2c1.46.2-3.37,1.27-4.65,2a69.35,69.35,0,0,1,18.72-4l5.66-.21.72,0,.73,0,1.46.07,2.91.13,2.9.13,2.93.27,5.69.51c16.88,2.49,42,7.3,61.76,11.93l.44-.28c8.1,2.46,17.23,3.37,26.83,5.68Z"/><path class="cls-9" d="M523.36,571.24l-1.69-.67c-3.06.52-6.13,1-9.19,1.5C516.3,572.41,518.18,571.62,523.36,571.24Z"/><polygon class="cls-9" points="521.64 574.01 526.45 573.11 518.61 573.99 521.64 574.01"/><polygon class="cls-9" points="405.2 558.99 406.36 559.35 423.92 562.09 405.2 558.99"/><path class="cls-9" d="M286.48,540.76c2-.7,5.12-.88,7.3-1.43l-4.3.72c-1.43.26-2.87.43-4.26.82Z"/><path class="cls-9" d="M208.77,558.64c-2.76,2-6,.91-1.78,1.66C211.71,559.31,207.49,559.35,208.77,558.64Z"/><path class="cls-9" d="M191.08,563.14a31.44,31.44,0,0,0,5.79-1C193.14,561.83,193.1,562.62,191.08,563.14Z"/></svg>