<svg id="Layer_1" data-name="Layer 1" xmlns="http://www.w3.org/2000/svg" viewBox="0 0 792 432"><defs><style>.cls-1{fill:#ffd33a;}.cls-2{fill:#9f9994;}.cls-3{fill:#ffd3c4;}.cls-4{fill:#ffe912;}.cls-5{font-size:50px;fill:#6acfee;font-family:DKCoolCrayon, DK Cool Crayon;}.cls-6{letter-spacing:-0.01em;}.cls-7{letter-spacing:0em;}.cls-8{font-size:20px;}.cls-9{letter-spacing:-0.06em;}.cls-10{letter-spacing:-0.03em;}.cls-11{letter-spacing:-0.08em;}.cls-12{letter-spacing:-0.02em;}.cls-13{letter-spacing:-0.04em;}.cls-14{letter-spacing:-0.07em;}.cls-15{letter-spacing:-0.04em;}.cls-16{letter-spacing:-0.02em;}.cls-17{letter-spacing:-0.04em;}.cls-18{letter-spacing:-0.11em;}</style></defs><title>Artboard 5</title><path class="cls-1" d="M168.95,280c.1-.51-1.15-.32-1.38-.4C167.86,280.49,169.27,280,168.95,280Z"/><polygon class="cls-1" points="172.16 288.18 171.63 288.07 172.98 289.16 172.16 288.18"/><path class="cls-1" d="M173,295.77c2-1-.77-2.68-.14-4.14l.46-.28-1.78-.42C172,292.57,173.46,294.53,173,295.77Z"/><path class="cls-1" d="M169.24,300.71c.76-.43.89.76.05-1a1.85,1.85,0,0,1-.17.22A3.63,3.63,0,0,1,169.24,300.71Z"/><path class="cls-1" d="M169.12,299.9c-.22-.82-.58.68,0,0Z"/><path class="cls-1" d="M170.42,303.61c-.33-.3-.67-.61-1-.92-.44.34-.3,1.34-.74,1.06C169.37,304.79,169.79,304.43,170.42,303.61Z"/><path class="cls-1" d="M172.19,304.26l-.44-.48C171.57,303.93,171.54,304.09,172.19,304.26Z"/><path class="cls-1" d="M170.81,302.76l.94,1c.3-.24,1-.41-.37-.48C172,303.25,171.37,303.16,170.81,302.76Z"/><path class="cls-1" d="M171,302c.33-.71.45-1.53,1.4-.62C171.67,299.43,170.25,300,171,302Z"/><path class="cls-1" d="M175.29,295.79l.5-.87-.81-.56C175.38,294.65,174.63,295.95,175.29,295.79Z"/><path class="cls-1" d="M171.22,310.65c.46-.07,1-.73,1.57-1L172,309C171.88,309.53,171.85,310.39,171.22,310.65Z"/><path class="cls-1" d="M172.8,309.67l1.12.93C173.67,309.53,173.25,309.45,172.8,309.67Z"/><polygon class="cls-1" points="174.54 303.87 172.48 302.36 174.65 304.23 174.54 303.87"/><path class="cls-1" d="M172.74,315.21l-1.23-.31c.64.22,1.28.43,1.94.63Z"/><path class="cls-1" d="M174.11,318.12c-1-.15-1.06,1.26-1.79.94a4.8,4.8,0,0,0,2.39,1.49A2.19,2.19,0,0,1,174.11,318.12Z"/><path class="cls-1" d="M176.09,321.15a7.9,7.9,0,0,0-1.37-.61A3.18,3.18,0,0,0,176.09,321.15Z"/><path class="cls-1" d="M174.38,312.64a1.91,1.91,0,0,0-.89,1.36l1-.9Z"/><path class="cls-1" d="M174.55,313.07l0,0,.29,1Z"/><path class="cls-1" d="M174.34,312.52l0,.12C174.48,312.55,174.51,312.51,174.34,312.52Z"/><path class="cls-1" d="M174.23,307.18c.87.49,2,1.63,2.68,0C175.93,306.94,175.55,307.89,174.23,307.18Z"/><path class="cls-1" d="M175.65,311.43c-.06-.43-.09-.87-.13-1.3-.31.13-.71.5-1.16.28C174.79,310.76,175.21,311.1,175.65,311.43Z"/><polygon class="cls-1" points="176.25 311.89 175.65 311.43 175.71 311.92 176.25 311.89"/><path class="cls-1" d="M176.22,318.58a3,3,0,0,1,1.41,1.44,7.72,7.72,0,0,0-.58-2.21C176.65,317.86,175.85,317.85,176.22,318.58Z"/><path class="cls-1" d="M175.46,315.86l.11.09C175.65,315.84,175.66,315.77,175.46,315.86Z"/><path class="cls-1" d="M180.9,326.14l.14-.22-.2.09Z"/><path class="cls-1" d="M177.23,317.59c0-.61-.43-.79-.91-.93a5.72,5.72,0,0,1,.74,1.14C177.24,317.77,177.36,317.73,177.23,317.59Z"/><path class="cls-1" d="M177.49,322.66a6.53,6.53,0,0,0,.19-1.21C177.45,321.89,177.15,322.71,177.49,322.66Z"/><path class="cls-1" d="M175.32,316.26l-.08-.06C175,316.48,175.17,316.41,175.32,316.26Z"/><path class="cls-1" d="M175.32,316.26a3.38,3.38,0,0,0,1,.39,3.29,3.29,0,0,0-.74-.7A1.63,1.63,0,0,1,175.32,316.26Z"/><path class="cls-1" d="M188.94,323.49c-1.05.59-2.72,0-2.21-1.66-1.35-.53-4.39,2-5.69,4.1.46-.23.88-.47,2.13.26.31-.74-.13-3.18,1.33-2.82,1.36,1.07.3,1.37.22,2.38.89-1.34,2.94.56,4.55-1l-1.38-.71C188.16,323.85,188.88,324,188.94,323.49Z"/><path class="cls-1" d="M179.91,323.7l-.38-.4a5.19,5.19,0,0,1-.5,2.43c1,.5,1.44.43,1.82.28-.42-.79-.81-1.58-1.17-2.39Z"/><path class="cls-1" d="M178.42,321.17c1.35-.19,2.38.66,3.29-.66-.74-1.3-1.43-.46-2.34-1,1.38,2.08-1-.33-.83,1.61a4.61,4.61,0,0,1-.91-1.08,7.78,7.78,0,0,1,0,1.44l0-.09h0c.1-.17.17-.25.14-.09,0,0,0,0,0,0a2.17,2.17,0,0,1,.49-.11c.08.78-.25.25-.49.11l-.19.06v0q.87,1,1.8,1.94A6.63,6.63,0,0,0,178.42,321.17Z"/><path class="cls-1" d="M179.94,307.55a.54.54,0,0,1-.26.16C179.87,307.8,180,307.82,179.94,307.55Z"/><path class="cls-1" d="M179.49,308.69c-.22-.1-.76-.08-.8-.65.22-.57.59-.18,1-.34-.43-.21-1.24-.84-1.52.35l.22.11c-.14,1-1.28,2.73-1.5,2.63A12.17,12.17,0,0,0,179.49,308.69Z"/><path class="cls-1" d="M179,314.75c.44.54.89,1.08,1.36,1.6L181,315l-.6.31C180.22,314.14,179.55,314.68,179,314.75Z"/><path class="cls-1" d="M180.48,326.68l-1.32.46q1.15.05,2.29.07Z"/><polygon class="cls-1" points="182.12 328.97 181.07 329.54 182.08 329.77 182.12 328.97"/><path class="cls-1" d="M243,254.8l-.48-.39A1.53,1.53,0,0,0,243,254.8Z"/><path class="cls-1" d="M243.91,258.41l.59-.05C244.15,258.26,243.9,258.25,243.91,258.41Z"/><path class="cls-1" d="M244.68,333c1.46,0,3.5.11,2.35-.59l-1.21-.54A1.65,1.65,0,0,1,244.68,333Z"/><path class="cls-1" d="M252.85,289.69l-.42.2,1.18.68Z"/><path class="cls-1" d="M247.55,288.6l.92-.94A3.53,3.53,0,0,0,247.55,288.6Z"/><path class="cls-1" d="M233.39,237.8l-1.39.34C232.49,238.81,232.82,238.12,233.39,237.8Z"/><path class="cls-1" d="M205.73,347.32a4.78,4.78,0,0,0,2,1.34C206.79,347.7,206.32,346.34,205.73,347.32Z"/><path class="cls-1" d="M256.71,252.47a.9.9,0,0,0-.9-.28C256.12,252.49,256.42,252.63,256.71,252.47Z"/><path class="cls-1" d="M210.36,349.14c-.14-.15-.29-.24-.44-.36a4.7,4.7,0,0,1-2.2-.12C208.41,349.35,209.32,349.94,210.36,349.14Z"/><path class="cls-1" d="M188,252.29a1.62,1.62,0,0,1-.2.1C188,252.47,188,252.4,188,252.29Z"/><path class="cls-1" d="M170.79,272.43a4.57,4.57,0,0,1,0-1A1.43,1.43,0,0,0,170.79,272.43Z"/><path class="cls-1" d="M189,338.32c-.5-.39-.17,0,0,0Z"/><path class="cls-1" d="M190.75,332.66a1,1,0,0,0,.62-.26A1.25,1.25,0,0,1,190.75,332.66Z"/><path class="cls-1" d="M216.7,341.31h0C216.57,341.06,216.6,341.11,216.7,341.31Z"/><path class="cls-1" d="M188.8,337.23a3,3,0,0,0,.28.84A3.36,3.36,0,0,0,188.8,337.23Z"/><path class="cls-1" d="M188.45,337.75c-.11-.2-.21-.34-.29-.48C187.95,337.36,187.9,337.51,188.45,337.75Z"/><path class="cls-1" d="M189.73,338.87a2.53,2.53,0,0,1-.64-.8c0,.15,0,.24,0,.25Z"/><path class="cls-1" d="M209.38,222.42a1.23,1.23,0,0,1-.13-.09C209,223,209.13,222.84,209.38,222.42Z"/><path class="cls-1" d="M240.5,314.14s0,.05,0,.08l.07,0Z"/><path class="cls-1" d="M240.31,312.17c1.19,1.31.83,1.64.29,2l3.65,1Q242.29,313.65,240.31,312.17Z"/><path class="cls-1" d="M239.59,246.69l-.59,1.54c-2.34-.52-2.11-1.65-3.19,0,1.87-.76,2.47.2,3,1.22s1,2,2.95,1.41l-.54,1c0-.23-.28-.18-.31-.4-1.33,2.07,3.17.09,3.25,2.24-.07.77-.51,1.41-1.11,1.09l1.39,1.23a.36.36,0,0,1-.71.09q.49,1.1.93,2.23h-.12a12.17,12.17,0,0,1,2.36,1c-.44.74-.49-.21-1,.06l1.25,1.11a1.4,1.4,0,0,1-2.2-1c-1.83,1.06-1.55,1.26-1,1.6s1.37.83.43,2.36c-.24-.38-.48-.75-.74-1.12-2.1,1.22-1.14,2-2.31,3.57.69-.4,3.09-3.35,4.34-2.12-.24.46-.27,1,.66,1.65-1.43.23-1,.93-.75,1.86l-1.91.2c.7.92,1.65.72,2.57,1.22-.06,1.17-1.51,1.56-2.73,1.95-.12,1.82,2.25-1.49,2.82.63-.61,1.59.27,2.57,1.49,4.39-.61,1.11-1.18-.14-1.71.27l1.57.9c0,.24-.5.17-.74.14.61.79,1.92,0,2.46,1.3,1.06.16.31.85-.43,1.67s-1.47,1.76-.28,2.59c-.55.38-1.17-.22-1.92-.13a13.88,13.88,0,0,0,3.08,3.82l-1.38,1.44c1.52-1,3.13.56,4.38,2a13.66,13.66,0,0,0,1.69-.87c.29.74.53,1.49.8,2.25-.34.22-1-.07-1.73-.51.14.16.28.32.41.44-.79.68-1.84.14-2.85-.5l1.26-.62a7.49,7.49,0,0,0-3.46-1.23,1.31,1.31,0,0,1,.44.71,1.31,1.31,0,0,0-.77-.23c-.21,0,.19.3.64.68l-2.18.22.83.21c-.53.82-1.09,1.62-1.66,2.41.94,1.07,2.12,2.14,3.09,3.37a7.46,7.46,0,0,1,1.84,4.23c-1.37-1.09-2.47-.71-4.28-1.15,2.1-.39-.33-2.43.31-3.86-.34.76-1.18.42-1.45.17.44,1,.86,2,1.24,3-1.48-.37-1.24.33-2,.88,3.06.14,1.47,2.44,2.08,3.76-1-.2-1.91-.72-1.36-2-2.53.86,2.92,2.78.66,3.72.07-.33.27-.46-.19-.73.67,1-.6,2.64-1.3,1.94l.08-.32a10.69,10.69,0,0,0-.71,1.85,10.58,10.58,0,0,0-.48,2.19c-.17,1.46,0,2.86,1.14,3.52-.31-.11-2.73-1.46-3.16-1.78a87.78,87.78,0,0,1,6.16,7.23c-1.82-1.26-7.09-2.37-7.42-4.51a1.68,1.68,0,0,0-.88,2c.43-.16,3.22.63,3.18,1.17-2.78.09-1.61.25-4.19.67.65-.24,3.41,2,2.85,2.66-.38-.37-3-1.65-3.12-2.08.63,1.14,1.24,2.32,1.82,3.53-.24-.78-2.38-1.58-3.43-1.73.66.18-1,1.42-1,2,.38-.08.76-.16,1.13-.25-1.7,1.54,2.53,4.66.82,6.52-.35-.7-2.88-3.24-3.93-2.66a36.86,36.86,0,0,1,2.61,4.55c.91,2,1.56,4.2,1.09,5.52l-1-.41c-.2.69-.4,1.4-.66,2.08-.36-1.36-.91-3.63-1.49-5.74l-1.6-5.44c-1.12.09-1-.6-1.77.31-.95-.36-.56-1.42-.38-1.7-.77.49-1.5,1-2.27,1.43a2.22,2.22,0,0,1,.63,2.12,2.11,2.11,0,0,0,.34,2,32.67,32.67,0,0,0,.84-3.55,6.07,6.07,0,0,1,1.67,3.34,3,3,0,0,1-1,3.25c-.91-.29-1.9-3.09-2.37-3.57.27.73-.7,2.17-1.13,1.88q0-.69,0-1.36c-.65,0-.59.82-.71,1.49s-.35,1.31-1.39.78c-.48.11-2.33-1.69-1.84-.6,1.59,1.75,5.24,7.87,5.44,9.73a14.83,14.83,0,0,1-2.14-.41A7.1,7.1,0,0,1,224,340.6c-.74-.69-.77-1.82-.85-2.91a4.44,4.44,0,0,0-.75-2.74,2.88,2.88,0,0,1-.06,1.56c-.61-.28-.4-1.67-1.26-1.09.46,2-2.05.41,0,1.78a1,1,0,0,1-1.05.32,2,2,0,0,0-1.27-.1,4.44,4.44,0,0,1-.07,2.89,4.68,4.68,0,0,1-1.58,2.47,3.47,3.47,0,0,0-.46-1.48,11,11,0,0,1-1.66-.18c-.5-.12-1-.28-1.39-.43s-.87-.3-1.32-.46a14,14,0,0,0-1.46-.36c-.12-.53-1-1.32-.38-2.09-.35.29-.79.94-1.42.8-.71-2,1.42.1,1-2.19-.33,1.11-1.94,1.21-3.06,1.53-.36,1.86,2,1,3,.49a6,6,0,0,1-2,3.29,6.63,6.63,0,0,1-1.8,1.07,7.16,7.16,0,0,1-2.14.42c-2.25-.28-.19-1.87-.69-1.69a3.71,3.71,0,0,0-2.21-.56,7.57,7.57,0,0,0-1.85.52c-1.11.38-2.22.66-3.09-1.1-.14-2.09,1.84-2.63,2.27-3.75a2.31,2.31,0,0,1,1.46,1.33c.29.56.5,1.18,1,1.42-.28-.43-.51-.91-.76-1.36a2.38,2.38,0,0,1,1.2,0,1.2,1.2,0,0,1,.89.64c-.11-.86-1.37-1.66-2.74-2.7a15.08,15.08,0,0,1-2-1.72,5.84,5.84,0,0,1-1.37-2c-.73.09-1.72-.12-1.89.63.26.16.54.3.8.44-.27,1.53-2.5.13-2.07,1.36-1.51-.21-3.61-.29-4.24-2.16l1.18-1.44c-.39.37-.07,1.59.68,1.59-.55,0-.53-.93-.66-1.71s-.34-1.46-1.54-1l-.22,1.77c-.76-.21-1.77-.33-2.68-.62a2.67,2.67,0,0,1-1.89-1.62c-1,1.66.38.18-.64,2.4.77-1.21,1.34-.3,2,.47s1.19,1.5,1.75,0a2.6,2.6,0,0,0-.21,2.41,4.05,4.05,0,0,1,.3,2.5c.41-.45.44-1.21,1.24,0a2.62,2.62,0,0,1,.61-.14.77.77,0,0,1,0,.1v-.11c.11,0,.13,0,0,0a2,2,0,0,1,.15-1.16,3,3,0,0,1,2.19.4A5.22,5.22,0,0,0,193,337c.41.77-.72.29-.82,1.07.52,0,1,0,1.56-.07-.81,1.08.35,3.18-1.75,2.48l1.42,1.23c.45,1.26,1.56,2.47,2.72,2.49.63.76,2.74-.08,1.51.43,1,.24,2,.51,3.08.68l-.12.32a7.55,7.55,0,0,0,2.2.71l2.4.33a8.49,8.49,0,0,1,2.38.58,6.61,6.61,0,0,1,2.34,1.52,8,8,0,0,1,3.91,0l.31,1.18a8.77,8.77,0,0,1,2.7.24c1,.17,1.83.11,2.06-.51a2.5,2.5,0,0,0,1.95,1.18,6.71,6.71,0,0,0,2.59-.39c.88-.33,1.76-.72,2.56-1.1a7.61,7.61,0,0,1,2.14-.8l-.49-1.44a8.6,8.6,0,0,0,2.12-1.2,20.08,20.08,0,0,0,2-1.9L231,342.9c.41-.88,1.37-1.2,2.52-1.53a8.39,8.39,0,0,0,3.35-1.57c.2.5-.39.81-.93.85a2.91,2.91,0,0,0,2.41-.72,6.49,6.49,0,0,0,1.28-2.07c.65-1.55,1.09-3.08,2.76-3.35a1.19,1.19,0,0,1,1.05-1.2.26.26,0,0,0,0,.17,1.14,1.14,0,0,0,.18-.2,11.5,11.5,0,0,0,1.13-.26,3.26,3.26,0,0,0-1,.15,5.89,5.89,0,0,0,.83-1.9l1.34.62c0-.06.05-.1.07-.17.86-.29-.21-.88-1.3-1.22a3.55,3.55,0,0,0-.14-1.29c1.11.44,1.25-.06,1.38-.58s.28-1,1.54-.7c-.71-1.06,1.15-3.61-.89-5.18.3.14.54,0,.37.38.62-.54,1.25-1.09.95-2l1.79.56c-.47-.89-1-1.77-1.45-2.64,1.45-.42,2.25-.56,3.06,1a8.78,8.78,0,0,1-.42-2.65,4.91,4.91,0,0,0-.6-2.33l1.06.55c.24-.72-.8-2.4.28-2.46,1.33-.38,2.15-2.32,2.91-4.61.39-1.14.74-2.38,1.23-3.55a12.31,12.31,0,0,1,1.75-3.25c-3.59.07,2-1.65-.67-2.37.86-.08,1.44-.6,2,.24-.4-2.33,1.91-3.11-.15-5,.86-.13,1.13.65,1.65.49-.15-.21-.61-.81-.09-1s.64.42.95.83c.2-2.32-2.34-2.85-4.69-3.29,1.25-1,1.16-1.57-.33-2.52.81-.31,1.68-.9,1.84.51.2-.75,1.52-4.68-.43-4.86.5-.22.19-1.07,0-1.28a13.31,13.31,0,0,0,.18-3.58l-.32.47c-2.29-.68-.51-1.4-.81-2.76l.24,0c1.6-3.18-.84-1.3.93-4.49l-1.43.26c-1.54-.05-1.14-.74-.52-1.65s1.48-2.06.78-2.9l-.75.72c-1.17-.83,3.91-3.19,4.12-4.29.24-.26.48.29.72.57,1.42-2.92-1.92-.09-2.63-2,.95-.52,2.63.08,2.61-1.29.35-.4-.64-1.24-1.51-2.22s-1.68-2.08-.91-3.18c-.68.57-1.36,1.11-2.13.35-.57-1.25,2-4.43-.77-5a1,1,0,0,1,.52-.41c-.88-.87-2.05-3-3.5-3.2,2.18-1.25,1.07-2.68-.11-3.86s-2.35-2.19-.26-3.09c-.53-1-1-2-1.63-2.94l.46-.13c-.66-2.08-2.06-2.23-3.36-2.35,0-.58.58-.48.81-.56-.74-3.17-1.16-3.42-4.48-4.29l1.06-1.07c-.58,0-.72-1.31-1.26-2.76a5.53,5.53,0,0,0-3.16-3.67,1.08,1.08,0,0,1,.73-.2,4.7,4.7,0,0,1-2.18-2c-.6-.84-1.07-1.87-1.67-2.7-1.12-1.71-2.57-2.81-4.61-1-.93-.06-1.83-.12-2.73-.13,1.19,1,.76,1.41.15,1.79s-1.41.71-1.16,1.4a2,2,0,0,1-1.07-1.46c-.13-.62,0-1.17.72-1l.06.34c.92-1.1.23-1.78-.62-2.37s-1.84-1-1.44-1.89a56.65,56.65,0,0,0-9.08-2.92,23.33,23.33,0,0,0-9.53-.17q.6,1,1.15,2a17.4,17.4,0,0,0-2,.36c-.65-.34-1.2-1.44.31-1.78-.54-.49-1.12-.06-1.5.55a3,3,0,0,0-.51,1.64c-1.49.07-1.48-.61-1.14-1.31s1-1.39.54-1.25l-1.15.6.36.14c-.65,1.2-.37,2.08-2,2.72-1.2.07-1.13-1-1.56-.85-.07-.14-.24-.13-.64.27-.82.36-1.64.74-2.41,1.18q.91.45,1.78.93c-.52,1.33-2,1.18,0,2.23a3,3,0,0,0-2.6,0,9.74,9.74,0,0,0-2.75,1.72c-.87.71-1.61,1.52-2.25,2.12s-1.11,1.06-1.46,1.08c-.12,2-1.09,3-2.32,4.37.57-.13,2.24.89,1.13,1.91-2.87-2.87-3.07,1.2-6.14.71,1.13,0,.58,1,.23,2s-.55,2,1.07,1.91c-.94.94-1.33-.7-2.66-.32-.08,1.75-1.1,3.12-2.22,4.59a13.65,13.65,0,0,0-2.81,4.91c.47.24,1.46,0,1.89,1-1.08.29-2.11.62-3.17,1,0,.82,2.62,1.65.46,2.36.48,0,1.2-.1,1.21.42-2.38,3.09-2.86,6.94-3.33,10.65s-1,7.37-3.74,10.92c1.1-.93,1.15-.24,1.12.53.28-.48,1.3.11,2,.07-.75,1-1.48,2-2.18,3,1,.33,1,1.16,1,2s0,1.57,1,1.74l-.33-1c2.21,1.31,5-1.65,7.9-1.32-1.24-.72-.26-1.58.6-2.51s1.62-1.93-.08-3.2c.64-.42.88.5,1.57.31-1.17-.66-1.34-1.37-.66-2.53l.29.18c.17-3.47,1.6-4.77,3.19-8.29l-1.44,0c.36-.77.85-.83,1.29-1.12-1.88-1.43-.66,2.22-2.77.86,1.53-.23,1.89-1.64,2.3-3s.92-2.63,2.61-2.48c.4-1.18-1.68-.14-1.28-1.34l.95,0-1-.67c.44-.73,1.64-.74,2.36-.52-.15.15,0,.59,0,.81,1.33-.63.66-2.88,1.13-3.09-.31.3-.64.59-.94.9a12.58,12.58,0,0,1,.67-2.57c.34-.84.71-1.69,1.09-2.53a13.58,13.58,0,0,0,1.52-5.19l-.71-.13c.11-1.4.53-1.75,1.06-2a3.32,3.32,0,0,0,1.66-1.84l.07.17a2.19,2.19,0,0,1,.46-2.18c.2,1,2,0,2.12,1.18.27-1.43.32-1.83.14-2.26a8.86,8.86,0,0,1-.84-2.38l1.1.46c-.3-1.12-.66-1.55.15-2.74-.16,1.45,1.8.64,1.78,2.39a2.25,2.25,0,0,0,1.78-.7,3.9,3.9,0,0,0,.69-1.31c.31-.9.7-1.53,2.19-.43-.74-3.26-2.9,0-2.71-.94a1.17,1.17,0,0,1-.57-1.44,1.83,1.83,0,0,1,1-1.34c.41-.24,1.3.38,2.26.91s2,1.06,2.88.54c-.18.08-.09.3-.27.38.51.16.71-.22,1-.57a.79.79,0,0,1,1.25-.23c-.18-1.91,1.12-.31.52-2.6-.56.4-1.11.78-1.63,1.2.38-.5.59-1.46,1-2.27a1.66,1.66,0,0,1,2.23-.91,5.49,5.49,0,0,1-.71,1.69c.68.51.89-.71,1.59-.11.15,1.2-.36,1.38-1,1.64a4.63,4.63,0,0,0-1,.44,1.65,1.65,0,0,0-.63,1.07c.42.4.72-.22,1-.53s.51-.43.62.88c-.1-1.66.42-1.74,1-1.63s1.16.26,1.67-1l.09,1.42c.16-.23.51-1,.9-1-.19.61-.35,1.27-.49,1.9.39-.87.93-.5,1.38-.1s.87,1,1.33.55c-.92,0-1-.45-1-1s.22-1.27-.24-1.77c.66-.51,1.12-.45,1.42-.2a2.64,2.64,0,0,1,.61,1.34c.31,1.16.51,2.34,1.8,2.29-.36.14-1.13-1.11-.48-1.64a3,3,0,0,1,1.11,1.87c.85.09.91-.28.85-.75s-.26-1.06.25-1.37c.11,1.82,1.09-.4,2.17-.6l-.52,1.35c.84.83,1.27.24,1.7-.38s.85-1.24,1.56-.19c-.59.45-1.15.88-1.71,1.37.39,0,.78,0,1.18,0l-1,1.35c1.57-.57,1.76,0,2.44.95.35-1,1.59-2.08,2.54-1.46.08,1.14-1.14.82.18,1.62-.84.48-1.79,1.16-1.51-.27-.33.34-.8.55-1.12.89a1.21,1.21,0,0,0,.71,1.12c.37.22.81.33,1,.49a.87.87,0,0,1-.22-.61,23.4,23.4,0,0,1,3-.08c-.11.64-.62.76-1.11.89.43.18,1.12-.11,1.67.3-1,.72-1.78,1.56-2.79,1.39.78.1,1.54.32,2.34.49-.26.44-.34,1.73-.83,1.82.1.65,1,.74,1.86,1s1.81.57,1.89,1.48a1.08,1.08,0,0,1,.84.11c.65,1.4.09,3.22,2.38,3.94-.44.64-.9,1.28-1.36,1.91,1.09,1,1.67-2.5,3.5-.78,1.38,1.22-1.32,1.38-1.58,2.17a7.67,7.67,0,0,1,2.34.7,1.52,1.52,0,0,1,.64,2.14C239.81,247.56,239.93,247.07,239.59,246.69Zm6.11,17c-.36-.3-1.4-.82-.61-1.24C246.79,262.58,246.07,263.05,245.7,263.73Zm4.05,28.48c-.43-.34-.14-.72.45-1.14A1.14,1.14,0,0,1,249.75,292.21ZM195.1,341.88l.08,0C195.7,342.92,195.53,342.52,195.1,341.88Zm-1.32-1.78a.48.48,0,0,0-.46.4c.35-.2.71.1,1.09.49C194.53,340.61,194.47,340.25,193.79,340.1Zm6.66-124.59.53.14C200.36,216.46,200.42,216,200.45,215.51Z"/><path class="cls-1" d="M248.16,288.73a2.65,2.65,0,0,1,.8-.08A.57.57,0,0,0,248.16,288.73Z"/><path class="cls-1" d="M233.64,237.74s0,0,0-.05a1.22,1.22,0,0,0-.24.11Z"/><path class="cls-1" d="M221.6,334.45a1.72,1.72,0,0,1,.79.5A.67.67,0,0,0,221.6,334.45Z"/><path class="cls-1" d="M184.23,333.94l1.13.81a1.44,1.44,0,0,1-.39-1.24C184.73,333.74,184.51,334.25,184.23,333.94Z"/><path class="cls-1" d="M185.81,320.1c-.24-.06-.18-.3-.42-.36l-.57.36C185.2,320.71,185.91,320.88,185.81,320.1Z"/><path class="cls-1" d="M187.27,330c.9-.81.13-1.17-.55-1.73a.4.4,0,0,1,.09.12C185.28,329.21,186.28,329.65,187.27,330Z"/><path class="cls-1" d="M186.57,328.17a1.82,1.82,0,0,1-.49-.62C185.47,327.85,186.16,327.89,186.57,328.17Z"/><path class="cls-1" d="M191.23,339c-.12-.53-1.26,1-1.11.42-.72.39.17.58.92.5S192.41,339.51,191.23,339Z"/><path class="cls-1" d="M190.07,327.09l-1,1.14,1.24-.37C190.2,327.6,190.14,327.34,190.07,327.09Z"/><path class="cls-1" d="M193.38,332.65l-.61-1.22a.52.52,0,0,1-.61.08C192.66,332.15,193.09,333,193.38,332.65Z"/><path class="cls-1" d="M192.16,331.52a1.32,1.32,0,0,0-.88-.63A2.83,2.83,0,0,0,192.16,331.52Z"/><path class="cls-1" d="M191.5,328.18v.49c.16.26.31.52.48.77C191.8,329,191.65,328.6,191.5,328.18Z"/><path class="cls-1" d="M204.84,341l1.52.1c.3-.44,0-.87-.51-.86C205.4,340.42,204.82,340.41,204.84,341Z"/><path class="cls-1" d="M203,335.44a2.65,2.65,0,0,1-.07,1.27l.94-1.61Z"/><path class="cls-1" d="M206.43,336.69c.33-.42,2.15-.79.72-1.19C206.86,336,205.57,335.82,206.43,336.69Z"/><polygon class="cls-1" points="225.28 338.45 224.98 338.62 226.27 341.39 225.28 338.45"/><path class="cls-1" d="M233.16,322.48c-1.43.63,1.28,1.42-.23,1.85.35.72,1.24-.36,1.51.3C234.4,323.48,235,323.37,233.16,322.48Z"/><path class="cls-1" d="M234.44,324.63a3.56,3.56,0,0,0,.08.64A1.54,1.54,0,0,0,234.44,324.63Z"/><polygon class="cls-1" points="168.95 276.5 168.29 277.62 169.33 276.91 168.95 276.5"/><path class="cls-1" d="M171.18,278.7l-2,.25,1.75.68C170.9,279.38,170.73,278.89,171.18,278.7Z"/><path class="cls-1" d="M242.26,267h.47c.48-.22.49-.45.5-.9Z"/><polygon class="cls-1" points="240.82 254.22 240.85 254.44 242.4 253.51 240.82 254.22"/><path class="cls-1" d="M234.82,245.45c.11.4.68.66.79,1.06C234.94,245.86,236.73,244.35,234.82,245.45Z"/><path class="cls-2" d="M188.75,415.46c-.09.13.32.23.39.27C189.14,415.46,188.65,415.43,188.75,415.46Z"/><polygon class="cls-2" points="188.74 412.75 188.89 412.86 188.63 412.36 188.74 412.75"/><path class="cls-2" d="M189.58,410.53c-.75,0-.19.85-.58,1.15h-.18l.47.38C189.39,411.56,189.26,410.8,189.58,410.53Z"/><path class="cls-2" d="M191.47,409.89c-.29,0-.13-.34-.18.25l.08,0A1,1,0,0,1,191.47,409.89Z"/><path class="cls-2" d="M191.37,410.11c-.07.24.28-.07,0,0Z"/><path class="cls-2" d="M191.62,409l.12.39c.18,0,.31-.27.39-.12C192.12,408.88,191.94,408.89,191.62,409Z"/><path class="cls-2" d="M191.24,408.5l0,.2C191.35,408.69,191.39,408.66,191.24,408.5Z"/><path class="cls-2" d="M191.36,409.11l-.08-.42c-.12,0-.34-.07,0,.18C191.11,408.78,191.27,408.92,191.36,409.11Z"/><path class="cls-2" d="M191.19,409.27c-.21.12-.38.31-.5-.09C190.56,409.8,191.06,409.89,191.19,409.27Z"/><path class="cls-2" d="M188.93,410.16l-.28.16.15.28C188.72,410.46,189.14,410.23,188.93,410.16Z"/><path class="cls-2" d="M192.68,407.18a3.63,3.63,0,0,0-.61-.08l.08.29C192.29,407.31,192.46,407.12,192.68,407.18Z"/><path class="cls-2" d="M192.07,407.1l-.12-.43C191.81,407,191.91,407.06,192.07,407.1Z"/><polygon class="cls-2" points="190.52 408.17 190.82 408.92 190.55 408.06 190.52 408.17"/><polygon class="cls-2" points="193.18 405.89 193.44 406.2 193.07 405.68 193.18 405.89"/><path class="cls-2" d="M193.45,405c.22.24.53,0,.65.19a1.41,1.41,0,0,0-.26-.8C193.87,404.63,193.77,404.82,193.45,405Z"/><path class="cls-2" d="M193.63,404a2,2,0,0,0,.19.42A1,1,0,0,0,193.63,404Z"/><path class="cls-2" d="M192.24,406.12a.65.65,0,0,0,.51-.12l-.45,0Z"/><path class="cls-2" d="M192.28,406h0l.13-.28Z"/><path class="cls-2" d="M192.23,406.15v0S192.18,406.12,192.23,406.15Z"/><path class="cls-2" d="M191.21,407.41c-.15-.28-.23-.79-.73-.51C190.71,407.14,191,407,191.21,407.41Z"/><path class="cls-2" d="M191.66,406.13l-.23.33c.11,0,.29,0,.36.17Z"/><polygon class="cls-2" points="191.6 405.9 191.66 406.13 191.75 406.01 191.6 405.9"/><path class="cls-2" d="M193,404.46a.79.79,0,0,1,0-.6,1.87,1.87,0,0,0-.35.58C192.77,404.51,193,404.69,193,404.46Z"/><path class="cls-2" d="M192.63,405.19v0S192.56,405.17,192.63,405.19Z"/><path class="cls-2" d="M193.72,402h-.08l.07,0Z"/><path class="cls-2" d="M192.57,404.44c-.14.13-.07.26,0,.39a1.3,1.3,0,0,1,.07-.4C192.6,404.4,192.56,404.39,192.57,404.44Z"/><path class="cls-2" d="M193.64,403.38a1.8,1.8,0,0,0-.32.19C193.48,403.53,193.74,403.45,193.64,403.38Z"/><path class="cls-2" d="M192.75,405.13v0C192.87,405.14,192.82,405.13,192.75,405.13Z"/><path class="cls-2" d="M192.75,405.13a1.13,1.13,0,0,0-.17-.3.92.92,0,0,0,0,.31Z"/><path class="cls-2" d="M191.36,400.43c.36.17.55.7,0,.91.15.45,1.45.68,2.25.63-.16-.07-.31-.13-.39-.57-.25,0-.77.62-1,.19,0-.54.28-.34.56-.5-.54,0-.45-.85-1.17-1l.08.5C191.61,400.56,191.5,400.35,191.36,400.43Z"/><path class="cls-2" d="M193.34,402.63v.16a1.45,1.45,0,0,1,.69-.32.68.68,0,0,0-.33-.48l-.32.71Z"/><path class="cls-2" d="M193.09,403.45c-.36-.27-.4-.68-.92-.63-.13.44.22.43.3.75.16-.73.15.28.57-.13a1.24,1.24,0,0,1,0,.42,2.08,2.08,0,0,1,.32-.29h0c-.06,0-.1,0-.05,0s0,0,0,0l-.14-.09c.16-.17.12,0,.14.09l.06,0h0l0-.78A1.49,1.49,0,0,0,193.09,403.45Z"/><path class="cls-2" d="M189.76,406.2a.19.19,0,0,1,.1,0C189.83,406.15,189.8,406.12,189.76,406.2Z"/><path class="cls-2" d="M190.11,406c0,.07.18.17.08.32s-.19-.07-.33-.11c.07.14.16.46.47.22l0-.07a1.48,1.48,0,0,1,.92-.33A3.79,3.79,0,0,0,190.11,406Z"/><path class="cls-2" d="M191.5,404.67l0-.65-.46.17.22.06C191.07,404.54,191.36,404.57,191.5,404.67Z"/><polygon class="cls-2" points="193.94 401.97 194.34 402.2 193.86 401.64 193.94 401.97"/><polygon class="cls-2" points="194.17 401.19 194.53 401.36 194.38 401.08 194.17 401.19"/><path class="cls-2" d="M198.75,358.46l-.17-.13A.53.53,0,0,0,198.75,358.46Z"/><path class="cls-2" d="M199.17,359.71l.19,0C199.25,359.65,199.16,359.66,199.17,359.71Z"/><path class="cls-2" d="M201,382.63c.44-.12,1.08-.2.65-.32l-.43-.07A.42.42,0,0,1,201,382.63Z"/><path class="cls-2" d="M203.34,369l-.15,0,.33.31Z"/><path class="cls-2" d="M201.73,368.23l.38-.23A1.17,1.17,0,0,0,201.73,368.23Z"/><path class="cls-2" d="M195.89,351.83l-.49-.05C195.52,352.09,195.68,351.88,195.89,351.83Z"/><path class="cls-2" d="M196.9,393.4a1.23,1.23,0,0,0,.44-.44C197,393.13,196.59,393.21,196.9,393.4Z"/><path class="cls-2" d="M203.26,357.39a.31.31,0,0,0-.3-.06C203.07,357.42,203.17,357.45,203.26,357.39Z"/><path class="cls-2" d="M197.58,392.34l-.14.08a1,1,0,0,1-.09.54C197.59,392.83,197.78,392.65,197.58,392.34Z"/><path class="cls-2" d="M187.41,327.12a.54.54,0,0,1,0-.07C187.38,327.06,187.39,327.08,187.41,327.12Z"/><path class="cls-2" d="M189,318.47a1.3,1.3,0,0,1,.14.28C189.11,318.7,189.07,318.61,189,318.47Z"/><path class="cls-2" d="M195.48,398.22c0,.17,0,0,0,0Z"/><path class="cls-2" d="M193.58,398.4a.36.36,0,0,0-.17-.14A.45.45,0,0,1,193.58,398.4Z"/><path class="cls-2" d="M195.64,389.8h0C195.55,389.81,195.57,389.8,195.64,389.8Z"/><path class="cls-2" d="M195.21,398.39a.79.79,0,0,0,.2-.16A.84.84,0,0,0,195.21,398.39Z"/><path class="cls-2" d="M195.41,398.43l-.09.13C195.38,398.6,195.43,398.6,195.41,398.43Z"/><path class="cls-2" d="M195.54,398a.67.67,0,0,1-.14.24s.07,0,.08,0Z"/><path class="cls-2" d="M193.23,339.9l0,0C193,339.75,193.08,339.81,193.23,339.9Z"/><path class="cls-2" d="M198.37,376.89v0l0,0Z"/><path class="cls-2" d="M198.28,376.2c.41.43.3.55.12.7l1.24.25Z"/><path class="cls-2" d="M197.57,355.53l-.22.54c-.78-.27-.7-.7-1.08-.14,1.3-.4.7,1.53,2,1.13l-.17.36c0-.08-.09-.07-.11-.15-.43.74,1.06.06,1.12.79,0,.27-.14.5-.35.39l.5.41a.12.12,0,1,1-.24,0l.39.76h0a4.52,4.52,0,0,1,.82.26c-.11.27-.17-.05-.31.06l.47.33c-.27.3-.72,0-.78-.27-1.13.87.45.25,0,1.4l-.31-.36c-.63.53-.25.76-.53,1.39.2-.2.8-1.35,1.29-1,0,.17,0,.36.32.53-.45.17-.25.38-.11.68l-.61.19c.3.28.59.14.94.24.08.4-.36.65-.72.88.12.64.6-.69,1,0,0,.59.32.85.9,1.33-.08.43-.39.07-.52.26l.59.14c0,.08-.14.11-.22.12.28.19.62-.17.91.14.32-.07.18.14,0,.33s-.39.34-.09.47l.11.06c-.22.06-.4,0-.67,0a2.17,2.17,0,0,1,.38.35,6.71,6.71,0,0,1,.47.49,6.1,6.1,0,0,0-.57.32c.58-.19.95.47,1.23,1a5.74,5.74,0,0,0,.61-.12l.08.76c-.13,0-.31-.1-.52-.3l.1.17c-.31.15-.61-.1-.88-.39l.46-.09a2.61,2.61,0,0,0-1-.69.45.45,0,0,1,.08.27.43.43,0,0,0-.23-.14c-.07,0,0,.11.15.28l-.72-.1.25.13-.73.69c.45.85,1.24,1.75,1.16,2.8-.4-.42-.78-.35-1.36-.58.71,0,0-.84.32-1.29-.16.23-.42.07-.49,0l.23,1.09c-.47-.2-.43.06-.71.21,1,.18.38.89.53,1.36-.32-.1-.61-.3-.37-.71-.89.22.87,1,.09,1.29,0-.11.1-.15,0-.25.19.35-.26.88-.48.64l0-.11c-.38.67-.81,2.16-.06,2.57a10.62,10.62,0,0,1-1.07-.55L201,378.2c-.64-.37-2.43-.55-2.6-1.28a.63.63,0,0,0-.24.75c.14-.08,1.1.08,1.1.26-.92.15-.52.15-1.37.44.21-.12,1.21.47,1.08.73-.14-.1-1.07-.37-1.14-.51l.8,1.07c-.13-.24-.88-.36-1.24-.32.23,0-.24.58-.2.8l.35-.2c-.45.71,1.2,1.31.86,2.05-.18-.17-1.25-.73-1.53-.39.47.38,2.3,1.75,2.47,2.58H199l.16.65a21.14,21.14,0,0,1-2.54-2.91c-.35.2-.39-.06-.53.39-.35,0-.35-.4-.32-.53l-.56.93c.65.19.35,1,.89,1.16l-.25-1.33c.65.19,1.55,1.3,1.18,2-.32.09-1.07-.55-1.29-.62.18.17.16.83,0,.84l-.22-.43c-.38.31.59,1-.18,1.21-.1.15-1,.19-.63.36a9.93,9.93,0,0,1,3.54,1.16,6,6,0,0,1-1.43.66c-.66.06-1.19-.91-1.76-.86a1,1,0,0,1,.37.39c-.21.12-.51-.27-.57.13.62.3-.34.74.47.38,0,.43-.28.34-.41.78.46,0,1.26.91,1.31,1.34a1.12,1.12,0,0,0-.51-.07c-.34.73-.78,1-1,1.72-.18,0-.49.28-.71,0,.08.14.26.32.19.54-.71.21.09-.51-.69-.44.36.17.3.75.42,1.14.61.12.37-.67.26-1.06a2.5,2.5,0,0,1,1.51,2c0,.65-.61.06-.53.2-.55,1,1,1.45.13,2.14-.64.17-1-.36-1.4-.41,0-.55.59-.61.69-.94l-.39.31c-.11-.21-.12-.58.09-.69-.57.13-.77,1.81-1.51,2.5.11.21.19.54.44.49l0-.29c.5-.09.37.71.69.44.15.46.45,1,0,1.45l-.61-.12c.17.05.46-.2.34-.41.18.3-1.07.48-.4,1l.53-.2c.15.47.6,1.14.25,1.52.64,0,0-.13.76-.2-.93,0,.46-1.13-.57-1,.89,0,.54-.44,1.35-.62-.19-.06-.42,0-.19-.32a.89.89,0,0,1-.14-.14l0,0h0s0,0,0,0a.69.69,0,0,1-.36.08c-.37-.35-.13-.94-.28-1.22.17-.19.18.17.43.13l-.22-.43c.43.13.92-.33,1,.29l.19-.46a.81.81,0,0,0,.49-.84c.17-.19-.26-.74,0-.42v-.84l.11,0c.32-.71-.14-1.76.93-2.31a1.26,1.26,0,0,1,.22-1l.39.06c0-.36.72-.81.39-1.09,1.11,0,.78-1.45,1.16-1.94l-.47-.2a3,3,0,0,0,.16-1.33l-.43-.13c-.19-.54.69-.94.89-1.6.14.1,0,.25-.1.33,1.24-.42-.08-1.89.87-2.33a.3.3,0,0,1,.16-.42.07.07,0,0,0,0,.05l0-.07c.1-.05.21-.1.31-.16a1,1,0,0,0-.3.12,1.54,1.54,0,0,0,0-.6l.48.08s0,0,0-.05c.24-.13-.15-.24-.53-.26a1.14,1.14,0,0,0-.17-.37c.79.11,0-.62.81-.54-.33-.28.09-1.11-.67-1.52.11,0,.18,0,.14.1.17-.19.35-.38.2-.66l.61.12-.59-.77c.46-.17.71-.21,1,.25-.41-1,0-.67-.49-1.53l.36.17c.07-.22-.3-.75.05-.77.88-.22,1-2.35,2.1-3.35-1.18-.17.7-.39-.12-.76.28,0,.5-.09.65.19,0-.73.76-.8.21-1.5.29,0,.33.28.51.27,0-.07-.15-.28,0-.29s.18.17.26.32c.2-.66-.57-1-1.3-1.35.48-.2.49-.38.08-.8.29,0,.61-.12.55.32a5.4,5.4,0,0,0,.41-.74c.18-.46.27-.9,0-1,.2-.07.21-.42.16-.51s.15-.34.19-.41a5.36,5.36,0,0,0-.36-1l0,.2c-.86-.11-.36-.51-.62-1l.08,0c.19-1.11-.39-.31-.12-1.43l-.43.21c-1,.26.28-1-.28-1.41l-.19.28c-.44-.17,1-1.28,1-1.61.06-.09.17.05.27.12.3-1-.63.11-1-.4.28-.22.86-.16.78-.56.19-.28-1.43-.73-1-1.47-.2.2-.41.4-.69.21-.23-.37.54-1.42-.37-1.51a.35.35,0,0,1,.17-.14c-.31-.24-.69-.88-1.18-.92,1.46-.84-1.44-1.64,0-2.15l-.42-.92.16,0c-.12-.64-.54-.73-1-.82,0-.18.22-.12.3-.14,0-1-.12-1.05-1.1-1.54l.44-.24c-.34-.1.27-1.54-.58-2.21a.38.38,0,0,1,.24,0c-.9-.78.46-2.8-1.37-2.55l-.65-.49c.17.88-.78.14-.94.58-.22-.29.21-1,.44-.66l-.06.09c.94-.17-.06-1.15.55-1.34-.63-1.62-.71-3.4-1.23-4.95l-.63.42-.15-.55c.11-.2.47-.38.58,0,.32-.34-.56-.52-.71-.48,0-.85.91,0,.84-.23l-.16-.29-.06.1c-.37-.15-.68-.07-.81-.54,0-.34.37-.3.36-.43s.06-.06,0-.18l-.18-.7-.45.46c-.38-.2-.2-.65-.7-.11.79-.8-.56-2.64-.37-3a1.59,1.59,0,0,1-.82-1.22c-.07.17-.65.46-.73,0,1.32-.29.26-1,1-1.69-.49.53-.6-1.2-1.27-.4,0-.41.46-.19.66-.58-.8-.7-.38-2-.93-3.07-.17,0-.36.31-.69.17l.62-.87c-.16-.19-1,.15-.59-.45-.12.11-.3.26-.4.14,0-2.41-2.22-4.11-1.48-6.81-.22.41-.32.22-.41,0,0,.17-.41.14-.62.25l.3-1.13c-.68.06-.39-1-1-.83l.21.25c-.84-.13-1.37,1.09-2.29,1.36,1,.14-.78,1.55.61,1.84-.13.22-.34,0-.52.13.45,0,.61.22.58.68h-.11c.49,1.08.28,1.69.48,3l.41-.25a.87.87,0,0,1-.15.56c.79.07-.23-.77.61-.76-.78.68.67,1.9-.28,2.51.14.42.47-.31.62.11l-.24.21.4,0c0,.29-.26.55-.49.65,0-.08-.13-.16-.18-.23-.2.47.47,1,.4,1.11l0-.46c.67,1,.79,2.55,1.75,3.43l.18-.16c.69.69,0,.75.52,1.6l-.06,0a.85.85,0,0,1,.53.57c-.33-.14-.32.61-.7.4.74.75.49.33,1.48.65l-.3.26c.39.09.56,0,.82.47-.43-.27-.43.48-1,.2-.42,1.23,1.28,1.15.32,2,1.12.09.24-1,.53-.85.24-.32.85.1.86.44s-1,1-.75,1.73c0-.08-.1-.06-.12-.14-.14.38.54.45.26.94.66,0,.13.47.9.26l-.43-.64c.34.33,1.35.39,1.16,1.21a1.42,1.42,0,0,1-.6-.22c-.15.27.28.32.12.6-.77.21-.47-.8-1.19-1-.24.32.83.62-.05.69,1.14-.06.14.81,1.11,1l-.46.13c.1.06.37.15.42.31l-.68-.07c.65.25-.14,1,.27,1.28-.32-.84.47-.38.67-.86,1,.83-1,1-.32,2.11-.12-.14.05-.69.35-.52a1.48,1.48,0,0,1-.26.83c.37.74.42-.28.81-.05-.45.46.36.3.65.58l-.45.17c0,1,1-.1,1,.82l-.75-.11.31.36-.55.1c.55.31.5.49.51,1,.28-.22.84-.24,1,.15-.17.36-.49,0-.22.54-.33,0-.73,0-.4-.42-.16,0-.33,0-.48,0-.21.4.19.75.26.95a.38.38,0,0,1,0-.26l.92.58c-.13.19-.3.14-.47.09.11.15.36.18.48.41-.39.07-.77.22-1.06-.06l.68.62c-.14.11-.3.55-.47.5-.06.5,1.09.79,1,1.45a.39.39,0,0,1,.27.14c.11.56-.18,1.19.55,1.64l-.53.59c.33.44.66-.78,1.2-.05.42.5-.49.42-.6.69.44.17,1.3.43.95,1.15C197.63,355.85,197.68,355.67,197.57,355.53Zm2.47,6c-.14-.08-.52-.21-.28-.39C200.33,361,200.11,361.23,200,361.49Zm2.11,8.11c-.12-.14,0-.25.23-.34A.4.4,0,0,1,202.14,369.59Zm-6.38,26.74,0,0C196,396.11,195.92,396.18,195.77,396.33Zm-.4.47a.18.18,0,0,0,.18.1c-.1-.08-.06-.2,0-.33C195.44,396.56,195.33,396.6,195.37,396.8Zm.3-59.71-.08.15C195.37,337,195.51,337.07,195.67,337.09Z"/><path class="cls-2" d="M201.91,368.32a.85.85,0,0,1,.26,0A.19.19,0,0,0,201.91,368.32Z"/><path class="cls-2" d="M196,351.84s0,0,0,0h0Z"/><path class="cls-2" d="M194.66,387a.56.56,0,0,1,.31-.13C194.87,386.8,194.76,386.82,194.66,387Z"/><path class="cls-2" d="M195.07,400v-.39c0,.18-.16.2-.26.26C194.92,399.85,195.1,399.84,195.07,400Z"/><path class="cls-2" d="M191.15,401.92c0,.07,0,.11,0,.18l.22.06C191.43,401.95,191.32,401.73,191.15,401.92Z"/><path class="cls-2" d="M193.45,399.72c-.39-.11-.34.15-.36.42a.11.11,0,0,1,0,0C193.6,400.36,193.53,400,193.45,399.72Z"/><path class="cls-2" d="M193.08,400.2a.51.51,0,0,1-.07.23C193.2,400.53,193.08,400.35,193.08,400.2Z"/><path class="cls-2" d="M195.37,397.58c-.14.08.46.25.28.26C196.08,398.15,195.35,396.85,195.37,397.58Z"/><polygon class="cls-2" points="192.12 399.45 192.62 399.53 192.29 399.26 192.12 399.45"/><path class="cls-2" d="M193.18,397.66l-.27.34a.18.18,0,0,1,.12.16C193.13,397.93,193.32,397.7,193.18,397.66Z"/><path class="cls-2" d="M193,398.16a.4.4,0,0,0,0,.34A.86.86,0,0,0,193,398.16Z"/><polygon class="cls-2" points="192.18 398.86 192.32 398.78 192.45 398.52 192.18 398.86"/><path class="cls-2" d="M194.83,393.51l0-.47c-.14-.1-.29,0-.28.16S194.65,393.52,194.83,393.51Z"/><path class="cls-2" d="M193.06,394.32a.83.83,0,0,1,.43-.05l-.58-.23Z"/><path class="cls-2" d="M193.39,393c-.15-.1-.23-.79-.4-.24C193.13,392.89,193.11,393.37,193.39,393Z"/><polygon class="cls-2" points="196.5 386.92 196.47 387.03 197.43 387.37 196.5 386.92"/><path class="cls-2" d="M196.32,380.43c-.42.42.54.34.09.69.18.2.37-.28.52-.09C196.8,380.64,197,380.53,196.32,380.43Z"/><path class="cls-2" d="M196.93,381a1.18,1.18,0,0,0,.09.21A.55.55,0,0,0,196.93,381Z"/><polygon class="cls-2" points="189.05 317.1 189.13 316.7 188.89 317.03 189.05 317.1"/><path class="cls-2" d="M188.12,316.73l.58-.3h-.62C188.13,316.5,188.24,316.63,188.12,316.73Z"/><path class="cls-2" d="M199.13,362.83l.16,0c.14-.11.13-.19.1-.35Z"/><polygon class="cls-2" points="198.01 358.26 198.02 358.34 198.53 358 198.01 358.26"/><path class="cls-2" d="M196,354.82c0,.16.22.29.25.45C196,355,196.65,354.54,196,354.82Z"/><path class="cls-2" d="M236.66,416.4c-.09.13.32.23.39.27C237,416.4,236.55,416.37,236.66,416.4Z"/><polygon class="cls-2" points="236.65 413.69 236.79 413.79 236.53 413.3 236.65 413.69"/><path class="cls-2" d="M237.48,411.47c-.75,0-.19.85-.58,1.15h-.18l.47.38C237.3,412.5,237.17,411.74,237.48,411.47Z"/><path class="cls-2" d="M239.37,410.83c-.29,0-.13-.34-.18.25l.08,0A1,1,0,0,1,239.37,410.83Z"/><path class="cls-2" d="M239.27,411c-.07.24.28-.07,0,0Z"/><path class="cls-2" d="M239.53,409.91l.12.39c.18,0,.31-.27.39-.12C240,409.82,239.84,409.83,239.53,409.91Z"/><path class="cls-2" d="M239.15,409.44l0,.2C239.26,409.63,239.3,409.6,239.15,409.44Z"/><path class="cls-2" d="M239.27,410.05l-.08-.42c-.12,0-.34-.07,0,.18C239,409.72,239.18,409.85,239.27,410.05Z"/><path class="cls-2" d="M239.09,410.21c-.21.12-.38.31-.5-.09C238.46,410.74,239,410.83,239.09,410.21Z"/><path class="cls-2" d="M236.83,411.1l-.28.16.15.28C236.63,411.4,237,411.17,236.83,411.1Z"/><path class="cls-2" d="M240.59,408.12A3.63,3.63,0,0,0,240,408l.08.29C240.2,408.25,240.37,408.06,240.59,408.12Z"/><path class="cls-2" d="M240,408l-.12-.43C239.72,407.9,239.81,408,240,408Z"/><polygon class="cls-2" points="238.42 409.11 238.73 409.86 238.46 409 238.42 409.11"/><polygon class="cls-2" points="241.09 406.83 241.35 407.14 240.98 406.62 241.09 406.83"/><path class="cls-2" d="M241.35,405.94c.22.24.53,0,.65.19a1.41,1.41,0,0,0-.26-.8C241.78,405.57,241.67,405.76,241.35,405.94Z"/><path class="cls-2" d="M241.54,404.92a2,2,0,0,0,.19.42A1,1,0,0,0,241.54,404.92Z"/><path class="cls-2" d="M240.15,407.05a.65.65,0,0,0,.51-.12l-.45,0Z"/><path class="cls-2" d="M240.19,406.92h0l.13-.28Z"/><path class="cls-2" d="M240.13,407.09v0S240.09,407.06,240.13,407.09Z"/><path class="cls-2" d="M239.12,408.35c-.15-.28-.23-.79-.73-.51C238.61,408.08,238.89,407.92,239.12,408.35Z"/><path class="cls-2" d="M239.57,407.07l-.23.33c.11,0,.29,0,.36.17Z"/><polygon class="cls-2" points="239.51 406.84 239.57 407.07 239.65 406.95 239.51 406.84"/><path class="cls-2" d="M240.93,405.4a.79.79,0,0,1,0-.6,1.87,1.87,0,0,0-.35.58C240.67,405.45,240.87,405.63,240.93,405.4Z"/><path class="cls-2" d="M240.54,406.13v0S240.47,406.1,240.54,406.13Z"/><path class="cls-2" d="M241.62,402.9h-.08l.07,0Z"/><path class="cls-2" d="M240.47,405.38c-.14.13-.07.26,0,.39a1.3,1.3,0,0,1,.07-.4C240.51,405.34,240.47,405.33,240.47,405.38Z"/><path class="cls-2" d="M241.55,404.32a1.8,1.8,0,0,0-.32.19C241.39,404.47,241.64,404.39,241.55,404.32Z"/><path class="cls-2" d="M240.66,406.07v0C240.77,406.08,240.73,406.07,240.66,406.07Z"/><path class="cls-2" d="M240.66,406.07a1.13,1.13,0,0,0-.17-.3.92.92,0,0,0,0,.31Z"/><path class="cls-2" d="M239.27,401.36c.36.17.55.7,0,.91.15.45,1.45.68,2.25.63-.16-.07-.31-.13-.39-.57-.25,0-.77.62-1,.19,0-.54.28-.34.56-.5-.54,0-.45-.85-1.17-1l.08.5C239.52,401.5,239.41,401.29,239.27,401.36Z"/><path class="cls-2" d="M241.25,403.57v.16a1.45,1.45,0,0,1,.69-.32.68.68,0,0,0-.33-.48l-.32.71Z"/><path class="cls-2" d="M241,404.39c-.36-.27-.4-.68-.92-.63-.13.44.22.43.3.75.16-.73.15.28.57-.13a1.24,1.24,0,0,1,0,.42,2.08,2.08,0,0,1,.32-.29h0c-.06,0-.1,0-.05,0s0,0,0,0l-.14-.09c.16-.17.12,0,.14.09l.06,0h0l0-.78A1.49,1.49,0,0,0,241,404.39Z"/><path class="cls-2" d="M237.66,407.14a.19.19,0,0,1,.1,0C237.73,407.09,237.71,407.06,237.66,407.14Z"/><path class="cls-2" d="M238,406.94c0,.07.18.17.08.32s-.19-.07-.33-.11c.07.14.16.46.47.22l0-.07a1.48,1.48,0,0,1,.92-.33A3.79,3.79,0,0,0,238,406.94Z"/><path class="cls-2" d="M239.41,405.61l0-.65-.46.17.22.06C239,405.48,239.26,405.51,239.41,405.61Z"/><polygon class="cls-2" points="241.85 402.91 242.25 403.14 241.77 402.58 241.85 402.91"/><polygon class="cls-2" points="242.08 402.13 242.44 402.3 242.29 402.02 242.08 402.13"/><path class="cls-2" d="M246.66,359.4l-.17-.13A.53.53,0,0,0,246.66,359.4Z"/><path class="cls-2" d="M247.08,360.65l.19,0C247.15,360.59,247.07,360.6,247.08,360.65Z"/><path class="cls-2" d="M248.95,383.57c.44-.12,1.08-.2.65-.32l-.43-.07A.42.42,0,0,1,248.95,383.57Z"/><path class="cls-2" d="M251.25,370l-.15,0,.33.31Z"/><path class="cls-2" d="M249.63,369.17l.38-.23A1.17,1.17,0,0,0,249.63,369.17Z"/><path class="cls-2" d="M243.79,352.77l-.49-.05C243.42,353,243.58,352.82,243.79,352.77Z"/><path class="cls-2" d="M244.81,394.34a1.23,1.23,0,0,0,.44-.44C244.92,394.07,244.5,394.15,244.81,394.34Z"/><path class="cls-2" d="M251.17,358.33a.31.31,0,0,0-.3-.06C251,358.36,251.08,358.39,251.17,358.33Z"/><path class="cls-2" d="M245.48,393.28l-.14.08a1,1,0,0,1-.09.54C245.5,393.77,245.69,393.59,245.48,393.28Z"/><path class="cls-2" d="M235.32,328.06a.54.54,0,0,1,0-.07C235.29,328,235.29,328,235.32,328.06Z"/><path class="cls-2" d="M236.87,319.41a1.3,1.3,0,0,1,.14.28C237,319.63,237,319.55,236.87,319.41Z"/><path class="cls-2" d="M243.39,399.16c0,.17,0,0,0,0Z"/><path class="cls-2" d="M241.49,399.34a.36.36,0,0,0-.17-.14A.45.45,0,0,1,241.49,399.34Z"/><path class="cls-2" d="M243.55,390.74h0C243.46,390.75,243.48,390.74,243.55,390.74Z"/><path class="cls-2" d="M243.11,399.33a.79.79,0,0,0,.2-.16A.83.83,0,0,0,243.11,399.33Z"/><path class="cls-2" d="M243.32,399.37l-.09.13C243.29,399.54,243.34,399.54,243.32,399.37Z"/><path class="cls-2" d="M243.45,398.93a.67.67,0,0,1-.14.24s.07,0,.08,0Z"/><path class="cls-2" d="M241.13,340.84l0,0C240.93,340.69,241,340.75,241.13,340.84Z"/><path class="cls-2" d="M246.28,377.83v0l0,0Z"/><path class="cls-2" d="M246.19,377.14c.41.43.3.55.12.7l1.24.25Z"/><path class="cls-2" d="M245.48,356.47l-.22.54c-.78-.27-.7-.7-1.08-.14,1.3-.4.7,1.53,2,1.13l-.17.36c0-.08-.09-.07-.11-.15-.43.74,1.06.06,1.12.79,0,.27-.14.5-.35.39l.5.41a.12.12,0,1,1-.24,0l.39.76h0a4.52,4.52,0,0,1,.82.26c-.11.27-.17-.05-.31.06l.47.33c-.27.3-.72,0-.78-.27-1.13.87.45.25,0,1.4l-.31-.36c-.63.53-.25.76-.53,1.39.2-.2.8-1.35,1.29-1,0,.17,0,.36.32.53-.45.17-.25.38-.11.68l-.61.19c.3.28.59.14.94.24.08.4-.36.65-.72.88.12.64.6-.69,1,0,0,.59.32.85.9,1.33-.08.43-.39.07-.52.26l.59.14c0,.08-.14.11-.22.12.28.19.62-.17.91.14.32-.07.18.14,0,.33s-.39.34-.09.47l.11.06c-.22.06-.4,0-.67,0a2.16,2.16,0,0,1,.38.35,6.67,6.67,0,0,1,.47.49,6.1,6.1,0,0,0-.57.32c.58-.19.95.47,1.23,1a5.74,5.74,0,0,0,.61-.12l.08.76c-.13,0-.31-.1-.52-.3l.1.17c-.31.15-.61-.1-.88-.39l.46-.09a2.61,2.61,0,0,0-1-.69.45.45,0,0,1,.08.27.43.43,0,0,0-.23-.14c-.07,0,0,.11.15.28l-.72-.1.25.13-.73.69c.45.85,1.24,1.75,1.16,2.8-.4-.42-.78-.35-1.36-.58.71,0,0-.84.32-1.29-.16.23-.42.07-.49,0l.23,1.09c-.47-.2-.43.06-.71.21,1,.18.38.89.53,1.36-.32-.1-.61-.3-.37-.71-.89.22.87,1,.09,1.29,0-.11.1-.15,0-.25.19.35-.26.88-.48.64l0-.11c-.38.67-.81,2.16-.06,2.57a10.62,10.62,0,0,1-1.07-.55l2.21,2.27c-.64-.37-2.43-.55-2.6-1.28a.63.63,0,0,0-.24.75c.14-.08,1.1.08,1.1.26-.92.15-.52.15-1.37.44.21-.12,1.21.47,1.08.73-.14-.1-1.07-.37-1.14-.51l.8,1.07c-.13-.24-.88-.36-1.24-.32.23,0-.24.58-.2.8l.35-.2c-.45.71,1.2,1.31.86,2.05-.18-.17-1.25-.73-1.53-.39.47.38,2.3,1.75,2.47,2.58h-.36l.16.65a21.14,21.14,0,0,1-2.54-2.91c-.35.2-.39-.06-.53.39-.35,0-.35-.4-.32-.53l-.56.93c.65.19.35,1,.89,1.16l-.25-1.33c.65.19,1.55,1.3,1.18,2-.32.09-1.07-.55-1.29-.62.18.17.16.83,0,.84l-.22-.43c-.38.31.59,1-.18,1.21-.1.15-1,.19-.63.36a9.93,9.93,0,0,1,3.54,1.16,6,6,0,0,1-1.43.66c-.66.06-1.19-.91-1.76-.86a1,1,0,0,1,.37.39c-.21.12-.51-.27-.57.13.62.3-.34.74.47.38,0,.43-.28.34-.41.78.46,0,1.26.91,1.31,1.34a1.12,1.12,0,0,0-.51-.07c-.34.73-.78,1-1,1.72-.18,0-.49.28-.71,0,.08.14.26.32.19.54-.71.21.09-.51-.69-.44.36.17.3.75.42,1.14.61.12.37-.67.26-1.06a2.5,2.5,0,0,1,1.51,2c0,.65-.61.06-.53.2-.55,1,1,1.45.13,2.14-.64.17-1-.36-1.4-.41,0-.55.59-.61.69-.94L242,396c-.11-.21-.12-.58.09-.69-.57.13-.77,1.81-1.51,2.5.11.21.19.54.44.49l0-.29c.5-.09.37.71.69.44.15.46.45,1,0,1.45l-.61-.12c.17.05.46-.2.34-.41.18.3-1.07.48-.4,1l.53-.2c.15.47.6,1.14.25,1.52.64,0,0-.13.76-.2-.93,0,.46-1.13-.57-1,.89,0,.54-.44,1.35-.62-.19-.06-.42,0-.19-.32a.89.89,0,0,1-.14-.14l0,0h0s0,0,0,0a.69.69,0,0,1-.36.08c-.37-.35-.13-.94-.28-1.22.17-.19.18.17.43.13l-.22-.43c.43.13.92-.33,1,.29l.19-.46a.81.81,0,0,0,.49-.84c.17-.19-.26-.74,0-.42v-.84l.11,0c.32-.71-.14-1.76.93-2.31a1.26,1.26,0,0,1,.22-1l.39.06c0-.36.72-.81.39-1.09,1.11,0,.78-1.45,1.16-1.94l-.47-.2a3,3,0,0,0,.16-1.33l-.43-.13c-.19-.54.69-.94.89-1.6.14.1,0,.25-.1.33,1.24-.42-.08-1.89.87-2.33a.3.3,0,0,1,.16-.42.07.07,0,0,0,0,.05l0-.07c.1-.05.21-.1.31-.16a1,1,0,0,0-.3.12,1.54,1.54,0,0,0,0-.6l.48.08s0,0,0-.05c.24-.13-.15-.24-.53-.26a1.14,1.14,0,0,0-.17-.37c.79.11,0-.62.81-.54-.33-.28.09-1.11-.67-1.52.11,0,.18,0,.14.1.17-.19.35-.38.2-.66l.61.12-.59-.77c.46-.17.71-.21,1,.25-.41-1,0-.67-.49-1.53l.36.17c.07-.22-.3-.75.05-.77.88-.22,1-2.35,2.1-3.35-1.18-.17.7-.39-.12-.76.28,0,.5-.09.65.19,0-.73.76-.8.21-1.5.29,0,.33.28.51.27,0-.07-.15-.28,0-.29s.18.17.26.32c.2-.66-.57-1-1.3-1.35.48-.2.49-.38.08-.8.29,0,.61-.12.55.32a5.4,5.4,0,0,0,.41-.74c.18-.46.27-.9,0-1,.2-.07.21-.42.16-.51s.15-.34.19-.41a5.36,5.36,0,0,0-.36-1l0,.2c-.86-.11-.36-.51-.62-1l.08,0c.19-1.11-.39-.31-.12-1.43l-.43.21c-1,.26.28-1-.28-1.41l-.19.28c-.44-.17,1-1.28,1-1.61.06-.09.17.05.27.12.3-1-.63.11-1-.4.28-.22.86-.16.78-.56.19-.28-1.43-.73-1-1.47-.2.2-.41.4-.69.21-.23-.37.54-1.42-.37-1.51a.35.35,0,0,1,.17-.14c-.31-.24-.69-.88-1.18-.92,1.46-.84-1.44-1.64,0-2.15l-.42-.92.16,0c-.12-.64-.54-.73-1-.82,0-.18.22-.12.3-.14,0-1-.12-1.05-1.1-1.54l.44-.24c-.34-.1.27-1.54-.58-2.21a.38.38,0,0,1,.24,0c-.9-.78.46-2.8-1.37-2.55l-.65-.49c.17.88-.78.14-.94.58-.22-.29.21-1,.44-.66l-.06.09c.94-.17-.06-1.15.55-1.34-.63-1.62-.71-3.4-1.23-4.95l-.63.42-.15-.55c.11-.2.47-.38.58,0,.32-.34-.56-.52-.71-.48,0-.85.91,0,.84-.23l-.16-.29-.06.1c-.37-.15-.68-.07-.81-.54,0-.34.37-.3.36-.43s.06-.06,0-.18l-.18-.7-.45.46c-.38-.2-.2-.65-.7-.11.79-.8-.56-2.64-.37-3a1.59,1.59,0,0,1-.82-1.22c-.07.17-.65.46-.73,0,1.32-.29.26-1,1-1.69-.49.53-.6-1.2-1.27-.4,0-.41.46-.19.66-.58-.8-.7-.38-2-.93-3.07-.17,0-.36.31-.69.17l.62-.87c-.16-.19-1,.15-.59-.45-.12.11-.3.26-.4.14,0-2.41-2.22-4.11-1.48-6.81-.22.41-.32.22-.41,0,0,.17-.41.14-.62.25l.3-1.13c-.68.06-.39-1-1-.83l.21.25c-.84-.13-1.37,1.09-2.29,1.36,1,.14-.78,1.55.61,1.84-.13.22-.34,0-.52.13.45,0,.61.22.58.68h-.11c.49,1.08.28,1.69.48,3L235,325a.87.87,0,0,1-.15.56c.79.07-.23-.77.61-.76-.78.68.67,1.9-.28,2.51.14.42.47-.31.61.11l-.24.21.4,0c0,.29-.26.55-.49.65,0-.08-.13-.16-.18-.23-.2.47.47,1,.4,1.11l0-.46c.67,1,.79,2.55,1.75,3.43l.18-.16c.69.69,0,.75.52,1.6l-.06,0a.85.85,0,0,1,.53.57c-.33-.14-.32.61-.7.4.74.75.49.33,1.48.65l-.3.26c.39.09.56,0,.82.47-.43-.27-.43.48-1,.2-.42,1.23,1.28,1.15.32,2,1.12.09.24-1,.53-.85.24-.32.85.1.86.44s-1,1-.75,1.73c0-.08-.1-.06-.12-.14-.14.38.54.45.26.94.66,0,.13.47.9.26l-.43-.64c.34.33,1.35.39,1.16,1.21a1.42,1.42,0,0,1-.6-.22c-.15.27.28.32.13.6-.77.21-.47-.8-1.19-1-.24.32.83.62-.05.69,1.14-.06.14.81,1.11,1l-.46.13c.1.06.37.15.42.31l-.68-.07c.65.25-.14,1,.27,1.28-.32-.84.47-.38.67-.86,1,.83-1,1-.32,2.11-.12-.14.05-.69.35-.52a1.48,1.48,0,0,1-.26.83c.37.74.42-.28.81-.05-.45.46.36.3.65.58l-.45.17c0,1,1-.1,1,.82l-.75-.11.31.36-.55.1c.55.31.5.49.51,1,.28-.22.84-.24,1,.15-.17.36-.49,0-.22.54-.33,0-.73,0-.4-.42-.16,0-.33,0-.48,0-.21.4.19.75.26.95a.38.38,0,0,1,0-.26l.92.58c-.13.19-.3.14-.47.09.11.15.36.18.48.41-.39.07-.77.22-1.06-.06l.68.62c-.14.11-.3.55-.47.5-.06.5,1.09.79,1,1.45a.39.39,0,0,1,.27.14c.11.56-.18,1.19.55,1.64l-.53.59c.33.44.66-.78,1.2-.05.42.5-.49.42-.6.69.44.17,1.3.43.95,1.15C245.54,356.79,245.58,356.61,245.48,356.47Zm2.47,6c-.14-.08-.52-.21-.28-.39C248.23,362,248,362.17,247.94,362.43Zm2.11,8.11c-.12-.14,0-.25.23-.34A.4.4,0,0,1,250,370.53Zm-6.38,26.74,0,0C243.93,397.05,243.83,397.12,243.67,397.27Zm-.4.47a.18.18,0,0,0,.18.1c-.1-.08-.06-.2,0-.33C243.34,397.5,243.23,397.54,243.28,397.74Zm.3-59.71-.08.15C243.28,338,243.42,338,243.57,338Z"/><path class="cls-2" d="M249.82,369.26a.85.85,0,0,1,.26,0A.19.19,0,0,0,249.82,369.26Z"/><path class="cls-2" d="M243.89,352.78s0,0,0,0h0Z"/><path class="cls-2" d="M242.57,387.92a.56.56,0,0,1,.31-.13C242.77,387.74,242.66,387.76,242.57,387.92Z"/><path class="cls-2" d="M243,400.89v-.39c0,.18-.16.2-.26.26C242.83,400.79,243,400.78,243,400.89Z"/><path class="cls-2" d="M239.05,402.86c0,.07,0,.11,0,.18l.22.06C239.34,402.89,239.23,402.67,239.05,402.86Z"/><path class="cls-2" d="M241.35,400.66c-.39-.11-.34.15-.36.42a.11.11,0,0,1,0,0C241.51,401.3,241.43,401,241.35,400.66Z"/><path class="cls-2" d="M241,401.14a.51.51,0,0,1-.07.23C241.11,401.47,241,401.29,241,401.14Z"/><path class="cls-2" d="M243.27,398.52c-.14.08.46.25.28.26C244,399.09,243.25,397.79,243.27,398.52Z"/><polygon class="cls-2" points="240.03 400.39 240.53 400.47 240.2 400.2 240.03 400.39"/><path class="cls-2" d="M241.09,398.59l-.27.34a.18.18,0,0,1,.12.16C241,398.86,241.23,398.64,241.09,398.59Z"/><path class="cls-2" d="M240.93,399.1a.4.4,0,0,0,0,.34A.86.86,0,0,0,240.93,399.1Z"/><polygon class="cls-2" points="240.08 399.8 240.22 399.72 240.36 399.46 240.08 399.8"/><path class="cls-2" d="M242.73,394.45l0-.47c-.14-.1-.29,0-.28.16S242.55,394.46,242.73,394.45Z"/><path class="cls-2" d="M241,395.26a.83.83,0,0,1,.43-.05l-.58-.23Z"/><path class="cls-2" d="M241.29,394c-.15-.1-.23-.79-.4-.24C241,393.83,241,394.31,241.29,394Z"/><polygon class="cls-2" points="244.41 387.86 244.38 387.97 245.34 388.31 244.41 387.86"/><path class="cls-2" d="M244.22,381.37c-.42.42.54.34.09.69.18.2.37-.28.52-.09C244.71,381.58,244.9,381.47,244.22,381.37Z"/><path class="cls-2" d="M244.83,382a1.18,1.18,0,0,0,.09.21A.55.55,0,0,0,244.83,382Z"/><polygon class="cls-2" points="236.96 318.04 237.04 317.64 236.79 317.97 236.96 318.04"/><path class="cls-2" d="M236,317.67l.58-.3H236C236,317.44,236.14,317.57,236,317.67Z"/><path class="cls-2" d="M247,363.77l.16,0c.14-.11.13-.19.1-.35Z"/><polygon class="cls-2" points="245.91 359.2 245.93 359.28 246.43 358.94 245.91 359.2"/><path class="cls-2" d="M243.89,355.76c0,.16.22.29.25.45C243.92,355.92,244.56,355.47,243.89,355.76Z"/><path class="cls-2" d="M194.17,306.44c.09.1.27-.28.33-.34C194.26,306.07,194.12,306.54,194.17,306.44Z"/><polygon class="cls-2" points="191.84 306.14 191.96 306.01 191.47 306.21 191.84 306.14"/><path class="cls-2" d="M190.12,305.09c-.21.71.68.28.86.68l0,.17.44-.41C191,305.39,190.28,305.42,190.12,305.09Z"/><path class="cls-2" d="M190,303.21c-.09.27-.32.08.17.2a.54.54,0,0,1,0-.08A.69.69,0,0,1,190,303.21Z"/><path class="cls-2" d="M190.17,303.33c.19.09,0-.27,0,0Z"/><path class="cls-2" d="M189.25,303l.37-.07c0-.17-.16-.33,0-.39C189.28,302.48,189.25,302.65,189.25,303Z"/><path class="cls-2" d="M188.75,303.27h.18C188.94,303.18,188.92,303.14,188.75,303.27Z"/><path class="cls-2" d="M189.31,303.22l-.38,0c0,.12-.14.32.16,0C189,303.43,189.12,303.28,189.31,303.22Z"/><path class="cls-2" d="M189.4,303.41c.05.21.18.4-.19.47C189.71,304.07,189.91,303.6,189.4,303.41Z"/><path class="cls-2" d="M189.65,305.67l.07.29.28-.11C189.86,305.9,189.75,305.47,189.65,305.67Z"/><path class="cls-2" d="M187.95,301.74a4.17,4.17,0,0,0-.21.57l.27,0C188,302.13,187.84,301.94,187.95,301.74Z"/><path class="cls-2" d="M187.74,302.31l-.4.06C187.56,302.55,187.66,302.47,187.74,302.31Z"/><polygon class="cls-2" points="188.3 303.92 189.01 303.71 188.21 303.88 188.3 303.92"/><polygon class="cls-2" points="186.95 301.11 187.28 300.9 186.74 301.2 186.95 301.11"/><path class="cls-2" d="M186.25,300.76c.26-.18.1-.51.31-.6a1.26,1.26,0,0,0-.75.16C186,300.31,186.17,300.43,186.25,300.76Z"/><path class="cls-2" d="M185.41,300.47a1.88,1.88,0,0,0,.4-.14A1,1,0,0,0,185.41,300.47Z"/><path class="cls-2" d="M186.93,302a.67.67,0,0,0,0-.5l-.12.43Z"/><path class="cls-2" d="M186.82,302h0l-.21-.16Z"/><path class="cls-2" d="M187,302.06l0,0S186.91,302.1,187,302.06Z"/><path class="cls-2" d="M187.8,303.17c-.28.11-.74.13-.61.63C187.46,303.62,187.38,303.34,187.8,303.17Z"/><path class="cls-2" d="M186.8,302.59l.23.25c.05-.1.09-.27.23-.33Z"/><polygon class="cls-2" points="186.6 302.63 186.8 302.59 186.72 302.5 186.6 302.63"/><path class="cls-2" d="M185.68,301.1a.62.62,0,0,1-.52,0,1.38,1.38,0,0,0,.42.4C185.67,301.35,185.86,301.19,185.68,301.1Z"/><path class="cls-2" d="M186.22,301.56h0S186.18,301.63,186.22,301.56Z"/><path class="cls-2" d="M183.68,300.16l0,.08,0-.06Z"/><path class="cls-2" d="M185.56,301.54c.08.14.2.1.34,0a1,1,0,0,1-.33-.11S185.51,301.53,185.56,301.54Z"/><path class="cls-2" d="M184.89,300.39a1.62,1.62,0,0,0,.09.33C185,300.56,185,300.31,184.89,300.39Z"/><path class="cls-2" d="M186.2,301.44h0C186.23,301.33,186.21,301.37,186.2,301.44Z"/><path class="cls-2" d="M186.2,301.44a1.1,1.1,0,0,0-.3.13.75.75,0,0,0,.27,0A.6.6,0,0,1,186.2,301.44Z"/><path class="cls-2" d="M181.82,302.23c.23-.33.73-.45.79.08.42-.09.92-1.31,1.06-2.08a.62.62,0,0,1-.58.31c0,.24.35.81-.07,1-.47,0-.23-.3-.3-.59-.1.51-.84.33-1.14,1l.45,0C182,302,181.78,302.09,181.82,302.23Z"/><path class="cls-2" d="M184.18,300.59l.14,0a1.35,1.35,0,0,1-.12-.7.69.69,0,0,0-.49.26l.53.39Z"/><path class="cls-2" d="M184.83,300.93c-.31.31-.68.31-.76.81.35.18.42-.17.72-.2-.6-.24.28-.11,0-.56a.94.94,0,0,1,.35.08,1.68,1.68,0,0,1-.18-.34v0h0c0,.06,0,.09,0,.05h0l-.11.12c-.11-.17,0-.11.11-.12l0-.05h0l-.66-.13A1.08,1.08,0,0,0,184.83,300.93Z"/><path class="cls-2" d="M186.42,304.42a.21.21,0,0,1,0-.1C186.4,304.35,186.36,304.37,186.42,304.42Z"/><path class="cls-2" d="M186.34,304.07c.07,0,.19-.16.3,0s-.11.18-.18.3c.14-.05.43-.1.3-.43l-.07,0a1.45,1.45,0,0,1-.07-.92A4.26,4.26,0,0,0,186.34,304.07Z"/><path class="cls-2" d="M185.51,302.58l-.56-.09,0,.46.1-.2C185.3,303,185.39,302.71,185.51,302.58Z"/><polygon class="cls-2" points="183.74 299.94 184.04 299.59 183.45 299.98 183.74 299.94"/><polygon class="cls-2" points="183.13 299.63 183.36 299.31 183.08 299.42 183.13 299.63"/><path class="cls-2" d="M166,274.63l0-.19A.45.45,0,0,0,166,274.63Z"/><path class="cls-2" d="M165.49,275.65l.17.1C165.58,275.66,165.51,275.61,165.49,275.65Z"/><path class="cls-2" d="M168.72,291c0-.43.08-1.05-.13-.66l-.17.41A.31.31,0,0,1,168.72,291Z"/><path class="cls-2" d="M164,285h-.15l.32.3Z"/><path class="cls-2" d="M162.38,284.14l.37-.16A1,1,0,0,0,162.38,284.14Z"/><path class="cls-2" d="M168,268.83l-.33-.34C167.52,268.75,167.77,268.72,168,268.83Z"/><path class="cls-2" d="M177,296.13a1,1,0,0,0-.28-.48C176.84,296,176.81,296.41,177,296.13Z"/><path class="cls-2" d="M170,276.86a.32.32,0,0,0-.19-.23A.26.26,0,0,0,170,276.86Z"/><path class="cls-2" d="M176.29,295.37a1.32,1.32,0,0,0,0,.14.73.73,0,0,1,.45.15C176.72,295.41,176.61,295.21,176.29,295.37Z"/><path class="cls-2" d="M177.09,248.58l.07,0C177.1,248.52,177.09,248.54,177.09,248.58Z"/><path class="cls-2" d="M183.67,244.37a1,1,0,0,1-.07.26S183.67,244.52,183.67,244.37Z"/><path class="cls-2" d="M180.87,298c.14.05,0,0,0,0Z"/><path class="cls-2" d="M180.59,299.88a.4.4,0,0,0-.16.15A.51.51,0,0,1,180.59,299.88Z"/><path class="cls-2" d="M173.65,296.93h0C173.63,297,173.63,297,173.65,296.93Z"/><path class="cls-2" d="M181,298.32a.66.66,0,0,0-.09-.21A.7.7,0,0,0,181,298.32Z"/><path class="cls-2" d="M181,298.13l.09.1C181.18,298.18,181.19,298.14,181,298.13Z"/><path class="cls-2" d="M180.69,298a.5.5,0,0,1,.18.16s0-.07,0-.08Z"/><path class="cls-2" d="M173.44,260h.05C173.38,259.74,173.38,259.81,173.44,260Z"/><path class="cls-2" d="M162.79,292.63h0l0,0Z"/><path class="cls-2" d="M161.85,292.44c.73-.19.82-.06,1,.16q.32-.54.7-1A14.26,14.26,0,0,1,161.85,292.44Z"/><path class="cls-2" d="M166.9,272.12l-.5.18c-.41-.66-.08-.87-.72-.77,1.23.59-.44,1.36.79,1.95l-.36.11c0-.06,0-.1,0-.16-.78.17.76.71.35,1.19-.18.15-.42.21-.51,0l.12.56c-.08.11-.28,0-.2-.12l-.18.7,0,0a4.52,4.52,0,0,1,.45.68c-.25.09-.1-.14-.27-.17l.14.49a.45.45,0,0,1-.42-.66c-1.39-.2.18.44-.86.86v-.41c-.8-.08-.66.3-1.27.49.27,0,1.45-.3,1.59.23-.14.07-.25.2-.09.52-.44-.19-.43.07-.51.34l-.58-.27c0,.35.36.46.55.74-.19.29-.68.16-1.09.07-.31.46.88,0,.73.61-.41.32-.29.72-.16,1.37-.33.21-.34-.21-.55-.17l.36.46c0,.06-.17,0-.24-.07.09.3.58.27.59.68.61.37-1.25.3-.7,1-.21,0-.34-.21-.58-.27a3.75,3.75,0,0,0,.58,1.41l-.56.24c.57-.11.93.5,1.21,1a5.92,5.92,0,0,0,.6,0l.08.67c-.12,0-.3-.12-.51-.31l.1.16c-.3.1-.6-.15-.86-.43l.45,0a3,3,0,0,0-1-.7.4.4,0,0,1,.08.24.5.5,0,0,0-.22-.15c-.07,0,0,.1.15.26l-.71-.16.25.14-.71.52c.22.4.54.79.76,1.25a3.08,3.08,0,0,1,.38,1.33c-.45-.28-.86-.17-1.49-.26.4-.11.41-.31.39-.59a1.34,1.34,0,0,1,.1-.9.28.28,0,0,1-.5,0q0,.69.11,1.26c-.5-.12-.48.16-.83.44,1.14-.11.37.83.54,1.2-.4.07-.74,0-.42-.54-.54.31-.31.51,0,.64s.59.23.1.56c0-.12.13-.19-.05-.2.24.21-.34.94-.64.9l0-.12-.19.35c.79.53,2.26,1.22,3,.77a9.42,9.42,0,0,1-1.19.68,9.35,9.35,0,0,0,3.31-1.34,11.86,11.86,0,0,0-1,1.25c-.35.47-.71.88-1.2.82a1,1,0,0,0,.88.5c-.09-.18.3-1.06.49-1a7.6,7.6,0,0,0,.11,1.38c-.05-.22.69-1.1.88-.94a9.53,9.53,0,0,1-.71,1l1.11-.64c-.24.09-.52.8-.56,1.14.06-.22.45.29.64.28l-.09-.36c.51.51,1.41-1,2-.59-.19.16-.92,1.12-.69,1.42.44-.41,2-2,2.8-2.06l-.07.34.6-.08a22.54,22.54,0,0,1-3.1,2.1c.09.36-.14.37.21.55,0,.34-.42.29-.53.25l.68.64c.31-.6.94-.22,1.21-.71l-1.21.08c.31-.59,1.48-1.34,2-.9,0,.31-.73,1-.83,1.16.19-.15.75-.06.72.11l-.42.17c.18.4,1-.46,1,.31.11.11-.07,1,.16.64a11.64,11.64,0,0,1,1.82-3.24,5.66,5.66,0,0,1,.24,1.44c-.1.64-1.06,1-1.15,1.59a1.06,1.06,0,0,1,.42-.31c.05.22-.35.45,0,.56.4-.55.56.41.44-.41.39,0,.23.3.58.48a2.25,2.25,0,0,1,1.46-1.09,1.29,1.29,0,0,0-.18.48c.55.41.7.86,1.24,1.19,0,.17.12.5-.14.68.14-.06.33-.21.51-.12,0,.7-.42-.15-.54.61.23-.33.72-.2,1.08-.27.24-.57-.49-.43-.86-.37a2.56,2.56,0,0,1,2.08-1.22c.56.09-.09.59.05.53.77.64,1.49-.82,1.87.12,0,.63-.54.92-.68,1.29-.47,0-.39-.63-.65-.77l.17.4c-.21.08-.53,0-.58-.17,0,.55,1.38.95,1.81,1.73.21-.08.51-.12.52-.36l-.25-.06c0-.49.7-.28.54-.61.44-.09,1-.31,1.26.13l-.24.57c.08-.16-.07-.47-.27-.37.3-.13.17,1.07.76.49l-.05-.53c.44-.09,1.12-.44,1.37-.07.16-.61-.12,0,0-.74-.24.88-.87-.57-1,.43.17-.86-.26-.56-.22-1.36-.09.18-.08.4-.32.14a1,1,0,0,1-.16.11v0s0,0,0,0a.71.71,0,0,1,0,.35c-.39.31-.84,0-1.12.13-.12-.19.19-.15.21-.4l-.42.17c.21-.4-.07-.92.47-.89l-.36-.24c-.08-.35-.33-.61-.61-.56-.12-.19-.69.16-.36,0l-.72-.11.05-.1c-.54-.39-1.55-.07-1.78-1.16a.93.93,0,0,1-.77-.32l.14-.37c-.31,0-.53-.78-.85-.5.28-1.05-1.07-.92-1.4-1.33l-.28.42a2.23,2.23,0,0,0-1.11-.3l-.21.4c-.51.12-.65-.77-1.18-1,.12-.13.23,0,.26.13-.07-1.23-1.65-.14-1.81-1.1-.22.06-.29,0-.33-.2h0l-.05,0c0-.1,0-.22-.06-.32a.93.93,0,0,0,0,.3,1.17,1.17,0,0,0-.51-.1l.18-.45h0c-.06-.24-.24.12-.35.48a1.09,1.09,0,0,0-.36.12c.28-.74-.54,0-.28-.83-.31.28-.94-.21-1.46.46.05-.1,0-.17.12-.13-.12-.19-.25-.38-.53-.26a5.53,5.53,0,0,1,.26-.56,4.56,4.56,0,0,1-.72.53c.06-.4.2-.57.62-.87a1.4,1.4,0,0,1-.62.21,3.86,3.86,0,0,0-.69.16l.37-.24c-.1,0-.81.15-.56-.08s.1-.39-.12-.55A2,2,0,0,1,165,288c-.63,0-.46-.07-.26-.13s.43-.09,0-.22a1.31,1.31,0,0,1,.66.16.12.12,0,0,1,0-.16l.06,0,.1-.11c.12-.16.18-.32-.1-.65.28,0,.32.27.5.28,0-.07-.15-.26,0-.25s.18.17.25.3c.19-.56-.57-.95-1.28-1.3.46-.12.47-.28.08-.68.28,0,.6,0,.54.33.12-.17.85-1,.27-1.27.17,0,.16-.24.11-.32a3.09,3.09,0,0,0,.41-.86l-.15.07c-.64-.47,0-.41,0-.78l.07,0c.84-.55-.1-.44.81-.94l-.46-.15c-.92-.48.85-.43.67-1l-.32,0c-.22-.38,1.58-.11,1.8-.3.11,0,.1.14.13.24.83-.39-.54-.33-.47-.86.35,0,.74.45.94.16.32,0-.62-1.35.17-1.52-.28,0-.56,0-.65-.31s1.3-.51.67-1.14a.39.39,0,0,1,.21,0c-.08-.34,0-1-.31-1.3,1.62.42-.06-1.91,1.35-1.3l.26-.82.13.08c.31-.46,0-.78-.21-1.11.15-.07.24.07.31.11.6-.61.57-.71.14-1.63l.48.13c-.19-.28,1.17-.75,1-1.7a.42.42,0,0,1,.17.17c-.18-1,2.1-1.39.57-2.4l-.18-.71c-.43.64-.67-.41-1.07-.25,0-.31.8-.49.74-.12l-.11,0c.81.5.68-.73,1.26-.45.54-1.38,1.59-2.5,2.18-3.75l-.73-.14L176,261c.21,0,.59.07.43.38.45,0-.09-.67-.23-.74.54-.5.68.58.78.4l.06-.28-.1,0c-.18-.33-.47-.47-.27-.84.24-.18.47.06.53,0s.08,0,.08-.14l.3-.53h-.63c-.15-.36.25-.51-.46-.52,1.09,0,1.23-1.94,1.62-2.05a1.21,1.21,0,0,1,.15-1.26c-.16.06-.78-.14-.55-.47,1.17.66.82-.44,1.84-.35-.7,0,.3-1.1-.71-1,.23-.26.47.18.86.07-.16-.93,1-1.47,1.23-2.44-.16-.08-.47,0-.62-.34l1-.13c0-.21-.86-.57-.16-.65-.16,0-.39,0-.39-.17,1.55-1.42.91-3.88,3.16-5-.42.11-.38-.07-.31-.26-.13.09-.4-.17-.63-.25l.93-.49c-.55-.4.31-.82-.24-1.15V243c-.55-.61-1.71-.22-2.57-.64.63.69-1.56.43-.69,1.49-.23.05-.24-.23-.47-.25.31.31.32.52,0,.78l-.08-.08c-.31,1-.85,1.2-1.54,2.13l.47.11c-.15.2-.31.19-.46.24.55.54.31-.61.93-.06-1-.09-.69,1.57-1.78,1.33-.15.34.55.12.39.46l-.31,0,.31.24c-.15.2-.54.17-.78.08.05,0,0-.18,0-.25-.45.15-.25.87-.39.92l.31-.26c-.15,1-1,2-.84,3.18l.24,0c.08.85-.46.46-.62,1.29l0,0a.67.67,0,0,1,0,.68c-.16-.3-.62.16-.78-.21.08.92.16.51.71,1.33l-.39,0c.24.3.39.39.32.8-.16-.44-.62,0-.86-.5-1.09.47.24,1.5-1,1.4.79.77.82-.46.93-.17.38,0,.57.61.37.81s-1.39-.09-1.65.56c0-.06,0-.1,0-.16-.34.14.12.61-.39.73.5.41-.2.37.51.73l.08-.66c0,.41.76,1.09.11,1.46a1.4,1.4,0,0,1-.31-.51c-.28.07,0,.37-.28.44-.71-.36.15-.78-.25-1.38-.38,0,.24.9-.47.38.89.69-.4.57.18,1.34l-.42-.22c0,.1.18.33.12.45l-.47-.47c.33.56-.71.49-.6.94.29-.71.59.07,1-.09.21,1.12-1.35,0-1.56,1.07,0-.16.47-.38.59-.09a1.3,1.3,0,0,1-.72.33c-.19.68.49.09.64.48-.63,0,.08.41.13.76l-.44-.19c-.6.61.84.59.21,1.1l-.49-.54v.41l-.47-.29c.21.54.07.61-.23.92.35,0,.78.39.66.73-.36.11-.37-.31-.5.18-.23-.22-.53-.49,0-.51-.14-.08-.23-.22-.37-.31-.41.11-.33.57-.4.74a.31.31,0,0,1,.18-.14l.33.93c-.21,0-.31-.11-.4-.25,0,.16.15.34.11.55-.34-.21-.71-.35-.76-.71l.13.81c-.17,0-.57.14-.67,0-.36.26.33,1.17-.16,1.51a.36.36,0,0,1,.11.25c-.27.4-.88.6-.61,1.34l-.77,0c0,.47,1,0,.94.73,0,.57-.63-.06-.88,0,.22.38.71,1.08,0,1.3C166.75,272.35,166.89,272.27,166.9,272.12ZM165,277.27c-.05-.14-.25-.46,0-.41C165.52,277.18,165.24,277.17,165,277.27Zm-2.23,8.1c-.12-.14,0-.22.23-.27C163,285.21,163,285.31,162.79,285.37Zm16.51,12.18h0C179.18,297.28,179.21,297.39,179.31,297.55Zm.31.43a.21.21,0,0,0,.13-.16c-.09.09-.19,0-.28-.06C179.43,297.9,179.44,298,179.62,298ZM177,259.82l-.15,0C176.84,259.61,176.93,259.71,177,259.82Z"/><path class="cls-2" d="M162.56,284.24a1,1,0,0,1,.26.06A.21.21,0,0,0,162.56,284.24Z"/><path class="cls-2" d="M168,268.89h0l-.07,0Z"/><path class="cls-2" d="M171,297.54a.54.54,0,0,1,0-.31A.22.22,0,0,0,171,297.54Z"/><path class="cls-2" d="M182.27,298.64l-.33-.06c.14.06.13.18.16.28C182.15,298.76,182.18,298.59,182.27,298.64Z"/><path class="cls-2" d="M183.06,302.61c.07,0,.09,0,.16,0l.11-.2C183.15,302.34,182.94,302.42,183.06,302.61Z"/><path class="cls-2" d="M181.69,300.16c-.19.36.05.34.28.39l0,0C182.28,300.08,182,300.12,181.69,300.16Z"/><path class="cls-2" d="M182,300.57a.37.37,0,0,1,.18.1C182.34,300.48,182.15,300.58,182,300.57Z"/><path class="cls-2" d="M180.29,298.08c0,.14.33-.41.29-.24C180.95,297.46,179.66,298,180.29,298.08Z"/><polygon class="cls-2" points="181.15 301.39 181.34 300.92 181.03 301.2 181.15 301.39"/><path class="cls-2" d="M179.85,300.18l.23.3a.18.18,0,0,1,.17-.1C180.07,300.25,179.92,300,179.85,300.18Z"/><path class="cls-2" d="M180.25,300.38a.3.3,0,0,0,.29.08A.64.64,0,0,0,180.25,300.38Z"/><polygon class="cls-2" points="180.66 301.27 180.62 301.13 180.43 300.97 180.66 301.27"/><path class="cls-2" d="M176.66,298.13l-.4-.08c-.12.13-.09.27.07.29S176.62,298.3,176.66,298.13Z"/><path class="cls-2" d="M176.94,299.91a.88.88,0,0,1,.05-.41l-.33.53Z"/><path class="cls-2" d="M175.91,299.45c-.12.13-.73.13-.3.35C175.73,299.68,176.14,299.75,175.91,299.45Z"/><polygon class="cls-2" points="171.36 295.77 171.45 295.82 171.96 294.94 171.36 295.77"/><path class="cls-2" d="M165.73,295.21c.26.45.42-.48.61,0,.22-.15-.16-.39,0-.51C166,294.77,166,294.57,165.73,295.21Z"/><path class="cls-2" d="M166.38,294.69l.2-.06A.52.52,0,0,0,166.38,294.69Z"/><polygon class="cls-2" points="184.6 243.6 184.91 243.41 184.52 243.45 184.6 243.6"/><path class="cls-2" d="M184.13,242.78l.62.19-.47-.39C184.28,242.65,184.28,242.79,184.13,242.78Z"/><path class="cls-2" d="M163.5,277.5l.13.08c.17,0,.21,0,.29-.15Z"/><polygon class="cls-2" points="165.52 274.04 165.48 274.1 166.07 274.21 165.52 274.04"/><path class="cls-2" d="M166.15,270.68c-.08.12,0,.31-.1.43C166.08,270.8,166.84,270.94,166.15,270.68Z"/><path class="cls-2" d="M250,301.95c-.11,0,.19.34.22.41C250.35,302.17,250,301.87,250,301.95Z"/><polygon class="cls-2" points="250.92 300 251 300.15 250.95 299.65 250.92 300"/><path class="cls-2" d="M252.31,298.86c-.58-.44-.43.5-.84.51l-.14-.09.25.54C251.82,299.5,252,298.88,252.31,298.86Z"/><path class="cls-2" d="M254,299.45c-.22-.18,0-.32-.23.07l.08,0A.55.55,0,0,1,254,299.45Z"/><path class="cls-2" d="M253.87,299.55c-.13.14.24.1,0,0Z"/><path class="cls-2" d="M254.45,298.88l0,.35c.14.09.34,0,.35.13C254.87,299.09,254.73,299,254.45,298.88Z"/><path class="cls-2" d="M254.3,298.33l0,.16C254.33,298.53,254.37,298.52,254.3,298.33Z"/><path class="cls-2" d="M254.19,298.83l.07-.34c-.1-.07-.25-.24,0,.14C254.1,298.45,254.19,298.64,254.19,298.83Z"/><path class="cls-2" d="M254,298.85c-.21,0-.41,0-.37-.34C253.33,298.88,253.7,299.23,254,298.85Z"/><path class="cls-2" d="M251.91,298.24l-.28,0,0,.29C251.65,298.34,252.06,298.4,251.91,298.24Z"/><path class="cls-2" d="M255.88,298.18a4.62,4.62,0,0,0-.46-.4l0,.25C255.53,298.05,255.72,298,255.88,298.18Z"/><path class="cls-2" d="M255.42,297.78l0-.38C255.26,297.54,255.3,297.66,255.42,297.78Z"/><polygon class="cls-2" points="253.83 297.69 253.83 298.39 253.89 297.62 253.83 297.69"/><polygon class="cls-2" points="256.7 297.53 256.8 297.9 256.68 297.31 256.7 297.53"/><path class="cls-2" d="M257.2,297c.1.3.43.28.45.5a1.18,1.18,0,0,0,0-.72C257.66,297,257.52,297.09,257.2,297Z"/><path class="cls-2" d="M257.68,296.4a1.86,1.86,0,0,0,0,.41A1,1,0,0,0,257.68,296.4Z"/><path class="cls-2" d="M255.87,297.17a.7.7,0,0,0,.44.2l-.35-.26Z"/><path class="cls-2" d="M256,297.09h0l.2-.13Z"/><path class="cls-2" d="M255.85,297.18l0,0S255.83,297.13,255.85,297.18Z"/><path class="cls-2" d="M254.63,297.53c0-.29.07-.7-.41-.77C254.31,297.05,254.59,297.09,254.63,297.53Z"/><path class="cls-2" d="M255.41,296.86l-.29.11c.08.08.22.18.23.32Z"/><polygon class="cls-2" points="255.43 296.66 255.41 296.86 255.52 296.81 255.43 296.66"/><path class="cls-2" d="M257,296.41a.53.53,0,0,1,.18-.45,1.12,1.12,0,0,0-.47.22C256.82,296.31,256.91,296.54,257,296.41Z"/><path class="cls-2" d="M256.49,296.72v0S256.44,296.66,256.49,296.72Z"/><path class="cls-2" d="M258.41,295l-.07,0,0,.06Z"/><path class="cls-2" d="M256.68,296.14c-.15,0-.14.14-.11.29a.78.78,0,0,1,.18-.25C256.72,296.14,256.7,296.1,256.68,296.14Z"/><path class="cls-2" d="M257.89,296a1.53,1.53,0,0,0-.32,0C257.71,296,257.94,296.08,257.89,296Z"/><path class="cls-2" d="M256.6,296.74a.11.11,0,0,1,0,0C256.69,296.81,256.66,296.78,256.6,296.74Z"/><path class="cls-2" d="M256.6,296.74a1.11,1.11,0,0,0,0-.31.66.66,0,0,0-.07.24Z"/><path class="cls-2" d="M257,292.58c.23.32.21.81-.28.67,0,.41.94,1.3,1.59,1.71a.64.64,0,0,1-.13-.63c-.22-.1-.82,0-.86-.42.17-.4.33-.09.61,0-.44-.28-.08-.86-.61-1.37l-.1.41C257.18,292.82,257.16,292.6,257,292.58Z"/><path class="cls-2" d="M257.89,295.27l-.06.11a1.31,1.31,0,0,1,.66.15.72.72,0,0,0-.1-.52l-.49.33Z"/><path class="cls-2" d="M257.42,295.72c-.2-.39-.1-.71-.53-1-.25.24,0,.43,0,.71.37-.44,0,.29.5.22a.77.77,0,0,1-.16.28,1.48,1.48,0,0,1,.35,0h0c-.05,0-.08,0,0,0s0,0,0,0a1,1,0,0,1-.08-.14c.18,0,.09.07.08.14l0,.05h0l.29-.54C257.7,295.41,257.59,295.52,257.42,295.72Z"/><path class="cls-2" d="M253.86,295.85a.24.24,0,0,1,.08.07C253.93,295.85,253.92,295.81,253.86,295.85Z"/><path class="cls-2" d="M254.21,295.9c0,.07.09.23,0,.28s-.13-.16-.23-.27c0,.14,0,.42.31.42v-.07a1.47,1.47,0,0,1,.84.27A4.64,4.64,0,0,0,254.21,295.9Z"/><path class="cls-2" d="M255.75,295.72l.23-.46-.42-.14.15.17C255.45,295.39,255.67,295.56,255.75,295.72Z"/><polygon class="cls-2" points="258.59 295.13 258.83 295.52 258.63 294.85 258.59 295.13"/><polygon class="cls-2" points="259.02 294.7 259.26 295.02 259.23 294.73 259.02 294.7"/><path class="cls-2" d="M266.62,269.38l-.17-.06A.41.41,0,0,0,266.62,269.38Z"/><path class="cls-2" d="M267.1,270.25l.18-.08C267.16,270.19,267.08,270.21,267.1,270.25Z"/><path class="cls-2" d="M270.56,285.16c.39.16.93.46.63.13l-.32-.3A.26.26,0,0,1,270.56,285.16Z"/><path class="cls-2" d="M273.21,276.13l-.09.1.46,0Z"/><path class="cls-2" d="M271.51,276.78a2.74,2.74,0,0,0,.18-.25A1.42,1.42,0,0,0,271.51,276.78Z"/><path class="cls-2" d="M263.47,264.91,263,265C263.13,265.21,263.27,265,263.47,264.91Z"/><path class="cls-2" d="M263.74,290.61a.84.84,0,0,0,.5-.07C263.92,290.48,263.56,290.3,263.74,290.61Z"/><path class="cls-2" d="M270.79,267.39a.34.34,0,0,0-.29,0A.28.28,0,0,0,270.79,267.39Z"/><path class="cls-2" d="M264.63,290.22l-.14,0a.59.59,0,0,1-.25.34C264.48,290.59,264.69,290.56,264.63,290.22Z"/><path class="cls-2" d="M253.8,247.67a.48.48,0,0,1,0-.06C253.77,247.63,253.77,247.65,253.8,247.67Z"/><path class="cls-2" d="M254.67,240.49a.76.76,0,0,1,.15.19C254.82,240.63,254.78,240.57,254.67,240.49Z"/><path class="cls-2" d="M261,293.29c-.08.1,0,.05,0,0Z"/><path class="cls-2" d="M259.46,292.36a.44.44,0,0,0-.09-.2A.56.56,0,0,1,259.46,292.36Z"/><path class="cls-2" d="M263.91,287.32h0C263.84,287.27,263.85,287.28,263.91,287.32Z"/><path class="cls-2" d="M260.76,293.26a.59.59,0,0,0,.21,0A.63.63,0,0,0,260.76,293.26Z"/><path class="cls-2" d="M260.91,293.4l-.11,0C260.83,293.51,260.87,293.53,260.91,293.4Z"/><path class="cls-2" d="M261.16,293.16a.4.4,0,0,1-.19.1s.06,0,.07,0Z"/><path class="cls-2" d="M260.15,256.22l0,0C259.95,256.16,260,256.19,260.15,256.22Z"/><path class="cls-2" d="M270.3,279.55s0,0,0,0h0Z"/><path class="cls-2" d="M270.45,279c.19.54.06.56-.13.57l.91.87Z"/><path class="cls-2" d="M265.3,267.38l-.17.48c-.75,0-.71-.37-1,.17,1.2-.65.76,1,2,.38l-.14.33c0-.06-.09,0-.11-.09-.35.69,1-.23,1.11.33,0,.21-.1.43-.3.4l.5.19c0,.12-.18.21-.22.09l.42.5,0,0a4.59,4.59,0,0,1,.79,0c-.09.24-.17,0-.29.12l.46.14a.45.45,0,0,1-.75,0c-1,1,.44.08.12,1.09l-.32-.2c-.56.57-.18.66-.41,1.23.17-.2.66-1.26,1.15-1.1,0,.15,0,.29.34.33-.42.25-.21.36-.06.56l-.56.31c.3.14.57,0,.9,0,.1.29-.3.6-.62.87.16.47.52-.69.91-.25,0,.47.36.59.94.81,0,.36-.36.15-.47.34l.57,0c0,.06-.12.12-.2.15.28.08.56-.31.88-.11.65-.28-.54,1.11.36,1.06-.11.18-.36.16-.56.31a3.58,3.58,0,0,0,1.42.27,3,3,0,0,1-.18.53,1.55,1.55,0,0,1,1.52-.4,2.68,2.68,0,0,0,.35-.45l.62.38c-.06.1-.31.11-.61.13l.2,0c-.13.25-.55.26-.95.29l.29-.29a3.21,3.21,0,0,0-1.18.34.36.36,0,0,1,.21,0,.84.84,0,0,0-.26.08c-.06,0,.09,0,.27,0l-.64.31.28-.08a1.74,1.74,0,0,1-.28.41,5,5,0,0,1,3,1,9.7,9.7,0,0,0-1.89-.31c.38,0,.24-.11,0-.21s-.51-.2-.49-.3c0,.1-.38.08-.51.06a6.8,6.8,0,0,1,.9.35c-.63-.08-.43,0-.66,0a3.35,3.35,0,0,1,.8.17c.25.12-.06.26.08.41-.39-.11-.75-.26-.52-.35-.54,0-.22.07.07.23s.56.35.12.3c0,0,.12,0-.05-.12.21.21-.3.32-.51.12l0,0c-.38.15-.72.58-.32,1.35-.08-.08-.59-.84-.68-1l1,2.86c-.39-.62-1.77-1.75-1.66-2.37-.17,0-.38,0-.44.4.14,0,.85.67.79.8a4.4,4.4,0,0,0-1.24-.44c.21,0,.81,1,.62,1.13a10.73,10.73,0,0,1-.75-1l.29,1.22c0-.24-.59-.75-.88-.92.18.13-.38.29-.42.47l.35.05c-.59.26.53,1.61,0,2-.09-.23-.77-1.22-1.1-1.13.25.54,1.27,2.54,1.13,3.23l-.29-.19-.08.55a24,24,0,0,1-1.08-3.51c-.34-.05-.3-.26-.55,0a.37.37,0,0,1-.08-.56l-.75.36c.45.5-.05.91.33,1.33l.24-1.1c.45.5.82,1.8.3,2.07-.28-.11-.68-1-.83-1.16.09.23-.14.69-.29.59l0-.43c-.41,0,.16,1-.54.77-.13.05-.86-.42-.62-.1a13.06,13.06,0,0,1,2.45,2.8,5.53,5.53,0,0,1-1.36-.32c-.55-.33-.66-1.32-1.13-1.6a1.13,1.13,0,0,1,.17.49c-.21,0-.32-.48-.5-.22.39.56-.51.35.26.54-.1.34-.33.09-.58.33a2.4,2.4,0,0,1,.6,1.69,1.43,1.43,0,0,0-.38-.34c-.51.34-1,.3-1.4.66-.14-.09-.48-.08-.58-.38,0,.14.1.37,0,.49-.63-.24.24-.32-.41-.7.23.32,0,.71,0,1.06.45.42.52-.27.55-.62a2.66,2.66,0,0,1,.55,2.29c-.23.46-.5-.29-.49-.15-.78.45.35,1.62-.6,1.61-.57-.23-.69-.82-1-1.08.17-.4.67-.11.86-.29H261c0-.22.09-.48.3-.45-.49-.22-1.21.87-2,1,0,.22,0,.49.19.6l.12-.19c.43.21.07.72.41.7,0,.42,0,1-.45,1.06l-.45-.43c.12.13.44.11.41-.1,0,.32-1-.25-.64.49l.49.15c0,.42.11,1.15-.29,1.23.51.36,0-.11.67.28-.73-.54.74-.56-.13-1,.72.47.57,0,1.28.3-.14-.15-.34-.22,0-.34a1,1,0,0,1-.06-.18h0s0,0,0,0a.74.74,0,0,1-.31-.14c-.18-.45.2-.75.18-1,.2,0,.09.23.3.33l0-.43c.3.33.84.27.68.75l.31-.23c.33.05.63-.07.66-.33.2,0,0-.67.14-.3l.28-.59.08.08c.49-.33.46-1.34,1.5-1.15a.76.76,0,0,1,.49-.56l.3.26c.11-.27.84-.18.67-.57.88.63,1.1-.61,1.56-.75l-.31-.4a1.82,1.82,0,0,0,.56-.87l-.3-.33c0-.49.86-.29,1.23-.66.08.16,0,.2-.19.18,1.12.39.55-1.4,1.45-1.19,0-.22.12-.24.27-.21a0,0,0,0,0,0,0l0,0,.3.06a.92.92,0,0,0-.28-.08,1,1,0,0,0,.22-.41l.36.33,0,0c.24,0,0-.26-.34-.48a1.07,1.07,0,0,0,0-.36c.59.52.16-.47.82.06-.17-.38.43-.75,0-1.46.07.08.14.09.08.15.2,0,.4-.08.37-.37l.45.42L272,282c.42.14.64.24.75.76,0-.92.19-.51.11-1.37l.23.32c.17-.16.09-.78.42-.63s1-.29,1.57-.75a9.87,9.87,0,0,1,2.15-1.4,1.19,1.19,0,0,1,0-.19c-.67,0-.59-.11-.49-.26s.2-.37-.36-.43c.29,0,.36-.23.78,0a1.68,1.68,0,0,1-.48-.86c-.08-.24-.23-.47-.77-.63.24-.13.52.08.65,0-.1-.05-.39-.18-.26-.29s.3.06.5.16c-.52-.79-1.39-.6-2.19-.39.19-.42,0-.6-.56-.57.18-.21.3-.54.62-.18-.16-.34-.3-1.27-.87-1,.11-.13-.09-.24-.18-.25a2.45,2.45,0,0,0-.4-.75l0,.15c-.75.25-.32-.2-.56-.43l.07,0c.11-.92-.39-.14-.21-1.09l-.39.28c-.92.46.2-.87-.36-1l-.16.27c-.42,0,.88-1.27.88-1.53.05-.09.16,0,.26,0,.22-.83-.58.25-.94-.07.25-.24.8-.34.7-.64.16-.27-1.4-.21-1-.9-.18.21-.36.42-.63.34s.41-1.25-.45-1.09a.42.42,0,0,1,.15-.15c-.31-.11-.71-.52-1.17-.42,1.31-1-1.47-.92-.15-1.69l-.46-.61.14-.06c-.16-.47-.56-.43-1-.4,0-.15.2-.15.27-.18-.09-.77-.18-.8-1.14-.93l.4-.3c-.33,0,.15-1.28-.7-1.59a.45.45,0,0,1,.23,0c-.9-.38.24-2.31-1.46-1.65l-.65-.22c.22.65-.73.31-.85.7-.22-.17.13-.86.37-.63l-.05.09c.87-.37-.13-.89.43-1.19-.71-1.11-.9-2.48-1.49-3.57l-.56.49-.18-.39c.09-.18.42-.42.55-.14.28-.35-.56-.27-.7-.2,0-.67.85-.23.78-.4l-.17-.19,0,.09c-.36,0-.64.12-.8-.22,0-.28.33-.33.31-.42s.05-.06-.05-.13l-.22-.5-.39.48c-.37-.06-.23-.46-.67.09.69-.83-.71-1.93-.55-2.28a1,1,0,0,1-.86-.75c-.05.15-.58.53-.69.18,1.22-.56.17-.85.86-1.59-.42.54-.65-.79-1.23,0-.06-.31.42-.27.58-.62-.8-.35-.49-1.51-1.09-2.18-.16.08-.32.34-.64.31l.53-.84c-.16-.1-1,.38-.59-.2-.11.11-.26.28-.37.21-.12-1.91-2.37-2.66-1.85-5-.18.37-.28.26-.39.11,0,.14-.38.22-.57.36l.2-1c-.64.22-.43-.65-1-.4l.21.14c-.8.11-1.22,1.21-2.07,1.65.91-.13-.63,1.41.7,1.28-.11.21-.32.06-.48.23.43-.08.59,0,.59.39l-.11,0c.54.72.38,1.26.66,2.26l.37-.3c.05.22-.05.33-.1.48.75-.15-.27-.54.53-.75-.69.73.76,1.32-.09,2,.16.29.42-.36.59-.07l-.21.23.37-.12c.06.22-.21.5-.42.64,0-.06-.14-.09-.18-.13-.16.42.51.63.46.77v-.37c.7.64.92,1.8,1.88,2.25l.16-.17c.69.37.06.59.6,1.12h-.06a.58.58,0,0,1,.54.31c-.32,0-.26.56-.64.49.75.4.48.13,1.44.13l-.26.28c.37,0,.53-.11.8.16-.43-.1-.37.49-.9.41-.31,1.07,1.28.57.44,1.48,1.06-.21.16-.86.44-.8a.52.52,0,0,1,.84.13c.1.22-.92,1-.59,1.55,0-.06-.1,0-.12-.08-.11.33.54.21.31.67.62-.18.16.34.86,0l-.44-.4c.34.17,1.29,0,1.17.65a1.41,1.41,0,0,1-.58,0c-.12.25.28.18.16.44-.71.36-.5-.51-1.19-.5-.2.31.82.27,0,.56,1.07-.34.19.6,1.12.54l-.42.22c.1,0,.36,0,.41.14l-.64.12c.62,0-.07.8.35.93-.36-.58.42-.42.57-.84,1,.4-.83,1-.16,1.74-.12-.08,0-.56.29-.5a1.22,1.22,0,0,1-.19.72c.4.49.37-.33.76-.25-.39.48.36.15.66.29l-.42.25c.09.77,1-.35,1,.4l-.71.1.32.2-.51.22c.53.11.5.26.55.64.25-.24.78-.4,1-.14-.14.33-.46.13-.17.48-.31.07-.69.16-.41-.23-.15.06-.31.07-.46.13-.17.37.23.54.31.68a.27.27,0,0,1,0-.21l.9.22a.44.44,0,0,1-.43.19c.11.09.35.05.48.2-.36.16-.71.37-1,.23l.69.31c-.13.12-.24.51-.41.51,0,.41,1.08.34,1,.88a.35.35,0,0,1,.26,0c.14.41-.09,1,.63,1.14l-.46.6c.34.26.57-.78,1.13-.35s-.43.45-.52.69c.42,0,1.25,0,1,.66C265.38,267.61,265.41,267.46,265.3,267.38Zm2.73,4c-.13,0-.5,0-.29-.24C268.28,271,268.09,271.2,268,271.42Zm4.58,5.53c-.19,0-.14-.09,0-.22C272.68,276.78,272.7,276.85,272.62,277Zm-10.73,15.13v0C262.16,292.07,262.05,292.06,261.88,292.09Zm-.47.12a.23.23,0,0,0,.11.17c-.05-.11,0-.18.12-.23C261.54,292.07,261.44,292,261.41,292.2Zm.84-38.81-.07.14C262,253.43,262.1,253.41,262.25,253.39Z"/><path class="cls-2" d="M271.7,276.7l.23-.13A.36.36,0,0,0,271.7,276.7Z"/><path class="cls-2" d="M263.55,264.89s0,0,0,0l-.08,0Z"/><path class="cls-2" d="M264,284.74a.53.53,0,0,1,.29.08A.22.22,0,0,0,264,284.74Z"/><path class="cls-2" d="M260.14,294.31l.14-.27c-.09.1-.19.05-.3,0C260.06,294.15,260.2,294.24,260.14,294.31Z"/><path class="cls-2" d="M256.37,293.54c0,.07-.06.06-.06.13l.15.17C256.59,293.72,256.57,293.5,256.37,293.54Z"/><path class="cls-2" d="M258.92,293.23c-.27-.3-.32-.08-.43.1l0,0C258.84,293.79,258.88,293.51,258.92,293.23Z"/><path class="cls-2" d="M258.47,293.37a.29.29,0,0,1-.13.12C258.46,293.69,258.42,293.49,258.47,293.37Z"/><path class="cls-2" d="M261.15,292.76c-.14,0,.28.44.14.34C261.54,293.57,261.37,292.23,261.15,292.76Z"/><polygon class="cls-2" points="257.95 292.3 258.32 292.64 258.15 292.26 257.95 292.3"/><path class="cls-2" d="M259.38,291.6l-.33.09a.19.19,0,0,1,0,.19C259.26,291.77,259.48,291.71,259.38,291.6Z"/><path class="cls-2" d="M259.1,291.88a.25.25,0,0,0-.14.22A.53.53,0,0,0,259.1,291.88Z"/><polygon class="cls-2" points="258.19 291.91 258.33 291.93 258.52 291.82 258.19 291.91"/><path class="cls-2" d="M262,289.54l.17-.33c-.08-.15-.22-.18-.28,0S261.9,289.44,262,289.54Z"/><path class="cls-2" d="M260.38,289.13a.94.94,0,0,1,.36.2l-.39-.49Z"/><path class="cls-2" d="M261.06,288.39c-.08-.15.07-.7-.24-.39C260.9,288.15,260.72,288.48,261.06,288.39Z"/><polygon class="cls-2" points="265.54 285.72 265.48 285.78 266.13 286.56 265.54 285.72"/><path class="cls-2" d="M267.5,281c-.47.07.32.55-.15.54.08.25.39,0,.45.22C267.83,281.37,268,281.4,267.5,281Z"/><path class="cls-2" d="M267.8,281.72a1.06,1.06,0,0,0,0,.2A.5.5,0,0,0,267.8,281.72Z"/><polygon class="cls-2" points="254.66 239.39 254.71 239.06 254.5 239.38 254.66 239.39"/><path class="cls-2" d="M253.75,239.34l.53-.38-.59.16C253.75,239.16,253.85,239.23,253.75,239.34Z"/><path class="cls-2" d="M267.27,272.71l.14-.06a.22.22,0,0,0,.07-.3Z"/><polygon class="cls-2" points="265.9 269.41 265.92 269.47 266.37 269.08 265.9 269.41"/><path class="cls-2" d="M263.76,267.23c0,.12.23.17.26.29C263.8,267.35,264.37,266.83,263.76,267.23Z"/><path class="cls-3" d="M246.44,177.22c-.06.33.77.21.93.26C247.15,176.92,246.22,177.24,246.44,177.22Z"/><polygon class="cls-3" points="244.08 172.13 244.43 172.17 243.49 171.56 244.08 172.13"/><path class="cls-3" d="M243,167.44c-1.24.84.66,1.61.39,2.58l-.28.21,1.22.13C243.91,169.36,242.84,168.26,243,167.44Z"/><path class="cls-3" d="M245,163.89c-.46.37-.65-.39.06.67a1.13,1.13,0,0,1,.09-.16A2.36,2.36,0,0,1,245,163.89Z"/><path class="cls-3" d="M245.17,164.4c.23.51.31-.51,0,0Z"/><path class="cls-3" d="M243.89,162.19l.76.45c.24-.27,0-.9.34-.77C244.42,161.29,244.2,161.58,243.89,162.19Z"/><path class="cls-3" d="M242.66,162l.35.24C243.1,162.15,243.1,162,242.66,162Z"/><path class="cls-3" d="M243.74,162.79l-.74-.52c-.16.19-.58.39.3.25C242.89,162.64,243.33,162.61,243.74,162.79Z"/><path class="cls-3" d="M243.73,163.27c-.1.48-.12,1-.83.57C243.55,165,244.45,164.46,243.73,163.27Z"/><path class="cls-3" d="M241.54,167.67c-.08.19-.15.38-.25.58l.56.26C241.58,168.37,242,167.5,241.54,167.67Z"/><path class="cls-3" d="M242.37,157.85c-.28.12-.56.64-.86.89l.57.27C242.12,158.67,242,158.13,242.37,157.85Z"/><path class="cls-3" d="M241.51,158.74l-.85-.39C241,159,241.25,159,241.51,158.74Z"/><path class="cls-3" d="M241.18,162.62q.76.3,1.53.65-.83-.45-1.64-.85Z"/><polygon class="cls-3" points="240.65 155.28 241.49 155.23 240.15 155.21 240.65 155.28"/><path class="cls-3" d="M239.29,153.73c.68-.12.44-1,1-.95a3.08,3.08,0,0,0-1.79-.41C238.95,152.54,239.23,153,239.29,153.73Z"/><path class="cls-3" d="M237.49,152.28a4.58,4.58,0,0,0,1,.08A2.08,2.08,0,0,0,237.49,152.28Z"/><path class="cls-3" d="M240.05,157.17a1.23,1.23,0,0,0,.34-1l-.51.75Z"/><path class="cls-3" d="M239.86,156.94l0,0-.36-.56Z"/><path class="cls-3" d="M240.09,157.23l0-.06C240,157.24,240,157.27,240.09,157.23Z"/><path class="cls-3" d="M241,160.52c-.65-.15-1.55-.64-1.73.46C239.9,161,240,160.31,241,160.52Z"/><path class="cls-3" d="M239.44,158.14c.1.25.18.52.26.78.18-.14.38-.44.7-.38C240.07,158.41,239.77,158.26,239.44,158.14Z"/><polygon class="cls-3" points="238.98 157.98 239.44 158.14 239.32 157.86 238.98 157.98"/><path class="cls-3" d="M237.87,153.89a1.78,1.78,0,0,1-1.14-.57,4.28,4.28,0,0,0,.76,1.22C237.73,154.41,238.24,154.25,237.87,153.89Z"/><path class="cls-3" d="M238.83,155.39l-.09,0C238.71,155.44,238.72,155.49,238.83,155.39Z"/><path class="cls-3" d="M233.6,150.33l0,.17.11-.1Z"/><path class="cls-3" d="M237.42,154.7c.11.37.41.39.74.37a3,3,0,0,1-.68-.53C237.37,154.6,237.31,154.65,237.42,154.7Z"/><path class="cls-3" d="M236.34,151.67a7.3,7.3,0,0,0,.11.77C236.53,152.11,236.55,151.55,236.34,151.67Z"/><path class="cls-3" d="M238.85,155.11l.06,0C239,154.93,238.92,155,238.85,155.11Z"/><path class="cls-3" d="M238.85,155.11a2.07,2.07,0,0,0-.69,0,2,2,0,0,0,.58.29A1.15,1.15,0,0,1,238.85,155.11Z"/><path class="cls-3" d="M229.21,153.87c.5-.59,1.67-.71,1.62.44.89,0,2.31-2.23,2.72-3.81-.24.26-.43.47-1.36.37,0,.48.65,1.88-.29,2-1-.34-.45-.72-.57-1.36-.29,1-1.88.39-2.56,1.69l1,.08C229.61,153.47,229.16,153.58,229.21,153.87Z"/><path class="cls-3" d="M234.64,151.59l.31.15a3.24,3.24,0,0,1-.15-1.59,1.27,1.27,0,0,0-1.15.24l1.15,1.19Z"/><path class="cls-3" d="M236,152.77c-.78.4-1.62.17-1.92,1.14.7.6,1,0,1.62.11-1.19-1,.65,0,.24-1.17a2.66,2.66,0,0,1,.74.47,5,5,0,0,1-.27-.88v.06h0c0,.13-.06.19-.07.09h0a1.51,1.51,0,0,1-.28.18c-.18-.46.11-.21.28-.18l.1-.08h0c-.47-.29-1-.51-1.48-.76C235.12,152.07,235.46,152.31,236,152.77Z"/><path class="cls-3" d="M237.25,161.29a.4.4,0,0,1,.15-.14C237.26,161.12,237.18,161.13,237.25,161.29Z"/><path class="cls-3" d="M237.39,160.52c.15,0,.49-.09.59.25-.07.39-.35.22-.58.38.3,0,.9.28.92-.48l-.15,0a3.27,3.27,0,0,1,.6-1.88A9.23,9.23,0,0,0,237.39,160.52Z"/><path class="cls-3" d="M236.78,156.79a11,11,0,0,0-1.12-.67l-.16.94.32-.31C236.13,157.39,236.45,156.94,236.78,156.79Z"/><path class="cls-3" d="M233.76,149.9l.72-.58c-.46.14-1,.34-1.42.51Z"/><polygon class="cls-3" points="232.31 148.94 232.84 148.35 232.18 148.45 232.31 148.94"/><path class="cls-3" d="M188.78,190.63l.34.13A.85.85,0,0,0,188.78,190.63Z"/><path class="cls-3" d="M187.85,188.8l-.37.13C187.72,188.92,187.88,188.88,187.85,188.8Z"/><path class="cls-3" d="M192.29,147.26c-.87-.34-2.08-.94-1.52-.23l.63.63A1,1,0,0,1,192.29,147.26Z"/><path class="cls-3" d="M181.2,171.51l.28-.09-.73-.49C180.89,171.1,181,171.3,181.2,171.51Z"/><path class="cls-3" d="M184.68,172.51,184,173A2.07,2.07,0,0,0,184.68,172.51Z"/><path class="cls-3" d="M196.91,198l.75-.55C197.26,197.21,197.19,197.69,196.91,198Z"/><path class="cls-3" d="M216,142.54a2.74,2.74,0,0,0-1.15-.7C215.4,142.42,215.76,143.23,216,142.54Z"/><path class="cls-3" d="M180.3,194.39a.63.63,0,0,0,.63,0C180.67,194.28,180.46,194.24,180.3,194.39Z"/><path class="cls-3" d="M213.44,141.74a3.25,3.25,0,0,0,.25.22,2,2,0,0,1,1.18-.12C214.47,141.41,214,141.18,213.44,141.74Z"/><path class="cls-3" d="M232.25,191.82a1,1,0,0,1,.13,0C232.29,191.72,232.26,191.76,232.25,191.82Z"/><path class="cls-3" d="M245,182.06a2.77,2.77,0,0,1,0,.65A.87.87,0,0,0,245,182.06Z"/><path class="cls-3" d="M226.51,145c.36.11.09-.06,0,0Z"/><path class="cls-3" d="M226.5,148.8a.74.74,0,0,0-.32.31A.94.94,0,0,1,226.5,148.8Z"/><path class="cls-3" d="M209.94,147.08h0C210,147.24,210,147.21,209.94,147.08Z"/><path class="cls-3" d="M226.84,145.59a1.69,1.69,0,0,0-.31-.44A1.88,1.88,0,0,0,226.84,145.59Z"/><path class="cls-3" d="M227,145.19l.25.22C227.32,145.3,227.32,145.2,227,145.19Z"/><path class="cls-3" d="M226,144.81a1.57,1.57,0,0,1,.5.34c0-.08,0-.14,0-.16Z"/><path class="cls-3" d="M214.66,205.17l.07.07C215,204.84,214.85,204.92,214.66,205.17Z"/><path class="cls-3" d="M191.55,159.44s0,0,0-.05h0Z"/><path class="cls-3" d="M191.37,160.59c-.54-1-.26-1.11.11-1.19L189.41,158Q190.37,159.31,191.37,160.59Z"/><path class="cls-3" d="M191.87,194.44l.15-1c1.5-.26,1.51.4,1.94-.75-1,.87-1.54.49-2,0s-.84-.9-2-.15l.2-.68c.05.11.2,0,.25.15.56-1.4-2,.61-2.28-.6,0-.45.17-.88.58-.82l-1-.41c-.08-.25.36-.41.45-.18-.29-.35-.52-.73-.78-1.09l.08,0a7.43,7.43,0,0,1-1.61-.19c.2-.48.34,0,.61-.18-.31-.14-.63-.28-.93-.43a.92.92,0,0,1,.91-.26.8.8,0,0,1,.63.51c1.09-.87.87-.91.48-1s-.91-.28-.42-1.24l.55.51c1.29-1,.6-1.22,1.26-2.18-.43.27-1.78,2.16-2.68,1.66.12-.28.1-.58-.56-.83.92-.29.6-.62.42-1.11l1.24-.3c-.49-.42-1.11-.23-1.76-.41,0-.64.89-1,1.7-1.27.06-1-1.46,1-1.87-.14.39-.92-.3-1.37-1.11-2.35.41-.64.78,0,1.14-.2l-1-.46c0-.13.33-.11.49-.09-.42-.43-1.28,0-1.66-.69-.7-.08-.23-.49.27-.95s1-1,.23-1.46c.37-.2.78.15,1.28.11a12.64,12.64,0,0,0-2-2.25l1-.74c-1,.48-2-.49-2.84-1.47a8.7,8.7,0,0,0-1.14.41,11.47,11.47,0,0,1-.42-1.43c.24-.11.64.12,1.11.44-.08-.11-.16-.21-.24-.29.58-.34,1.23.07,1.85.52l-.88.27a5.56,5.56,0,0,0,2.27,1,.83.83,0,0,1-.28-.44,1,1,0,0,0,.5.19c.14,0-.13-.19-.4-.44l1.46.05-.54-.18,1.23-1.19-.93-1.08a13.69,13.69,0,0,1-.87-1.17,4.34,4.34,0,0,1-.84-2.72c.76.83,1.53.76,2.65,1.27-1.4-.07.06,1.45-.48,2.14.29-.38.81-.09,1,.08q-.31-.9-.59-1.86c.92.42.81,0,1.38-.2-2-.53-.71-1.59-1-2.46.61.28,1.16.73.68,1.35,1.71,0-1.65-2.1,0-2.23-.09.17-.23.21,0,.44-.28-.68.7-1.39,1.06-.86l-.09.17a5.15,5.15,0,0,0,.65-.92,6.38,6.38,0,0,0,.6-1.14,2.15,2.15,0,0,0-.24-2.29c.17.13,1.46,1.43,1.69,1.71A43.62,43.62,0,0,1,187.7,155c.92,1.16,3.93,3,3.84,4.35.36-.07.73-.19.82-1-.29,0-1.87-1.15-1.75-1.44a12,12,0,0,0,2.66.64c-.43,0-1.72-2-1.28-2.26a21.06,21.06,0,0,1,1.53,2,25.1,25.1,0,0,1-.5-2.51c0,.51,1.15,1.52,1.75,1.87-.37-.28.83-.57.94-.93l-.7-.12c1.24-.53-.68-3.39.66-4.08.07.5,1.12,2.66,1.84,2.56a25.4,25.4,0,0,1-.74-3.4,6.13,6.13,0,0,1,.32-3.61l.52.48a12.29,12.29,0,0,1,.72-1.13l-.07,3.89c0,1.46,0,2.85,0,3.66.69.24.49.62,1.11.26a.72.72,0,0,1-.09,1.12l1.62-.34a1.58,1.58,0,0,1,0-1.47,1.37,1.37,0,0,0,.15-1.28,16.91,16.91,0,0,0-1.13,2,4.45,4.45,0,0,1-.4-2.45c.09-.91.49-1.66,1.17-1.77.5.39.61,2.32.81,2.73,0-.48.8-1.23,1-1l-.25.86c.4.12.5-.39.68-.83s.43-.73,1-.22c.31,0,1.23,1.47,1.08.69-.77-1.38-2.12-5.94-2-7.15.07,0,.61.28,1.17.59a5,5,0,0,1,1.41,1.12c.71,1.11-.25,2.94.38,3.89a2,2,0,0,1,.22-1c.36.26.07,1.14.69.88-.1-1.36,1.36-.09.14-1.19.61-.47.73.13,1.5,0a4,4,0,0,1,1.23-3.45,2.42,2.42,0,0,0,.24,1,6,6,0,0,1,1,.12c.3.08.58.19.85.29a5.7,5.7,0,0,0,1.73.42c.1.33.69.77.36,1.33.21-.22.43-.65.83-.62.61,1.29-.9,0-.49,1.54.13-.78,1.13-.93,1.79-1.33,0-1.23-1.31-.44-1.92,0a4.54,4.54,0,0,1,3.12-3.8c1.31-.19.3,1.18.56,1,1.06.42,1.71-.17,2.32-.65s1.18-.88,1.92.06c.38,1.28-.67,2-.77,2.82a1.19,1.19,0,0,1-1-.57c-.25-.29-.47-.61-.79-.67l.63.69c-.4.27-1.07.37-1.32,0a1.21,1.21,0,0,0,.7.65c.18.09.39.16.61.24l.69.29a5.59,5.59,0,0,1,2.59,1.58c.41-.2,1-.32,1-.81l-.54-.09c-.09-1,1.43-.64,1-1.31a8.72,8.72,0,0,1,1.52-.32,1.91,1.91,0,0,1,.75.09,1.44,1.44,0,0,1,.61.51l-.44,1.17c.16-.32-.23-1-.67-.82.67-.24.53,2.26,1.77,1.14l-.2-1.11c1-.12,2.57-.74,3.14.22.32-1.26-.25,0,0-1.62-.44,1.79-2.2-1.44-2.32.66.21-1.78-.7-1.29-.92-3-.16.37,0,.84-.73.28a1.82,1.82,0,0,1-.33.24l0-.05,0,.06c-.06,0-.07,0,0,0a1.31,1.31,0,0,1,.11.74c-.8.64-2,.05-2.55.3-.36-.38.37-.34.3-.85-.3.12-.59.25-.89.4.3-.85-.7-1.85.62-1.92l-1-.41a1.84,1.84,0,0,0-1.85-1c-.45-.32-1.53.63-.91.06l-1.78.12,0-.22a6.89,6.89,0,0,0-2.62,0,3.32,3.32,0,0,1-2.66-.95,2.9,2.9,0,0,1-2.09.14l-.17-.79c-.72.23-2.24-.7-2.52.11a1.8,1.8,0,0,0-2.36-.87,9.78,9.78,0,0,1-2.62.64l.14,1a6,6,0,0,0-2.58,1.28l.3.85c-.67.88-2.41.09-3.77.69,0-.35.35-.4.67-.3a1.64,1.64,0,0,0-1.5-.13,3.46,3.46,0,0,0-1.06,1c-.63.81-1.18,1.57-2.21,1.34a.65.65,0,0,1-.82.48.15.15,0,0,0,.06-.09l-.14.07a7.24,7.24,0,0,0-.72-.12,2.09,2.09,0,0,0,.65.17,3.28,3.28,0,0,0-.85.93l-.69-.7-.08.08c-.58-.06-.05.57.55,1a2,2,0,0,0-.15.81c-1.18-1.06-.61,1.11-2,.07.12.41-.23.87-.5,1.4a1.85,1.85,0,0,0,.09,1.92c-.16-.16-.32-.15-.16-.32-.48.17-1,.36-1,1l-1-.74c.11.63.25,1.26.42,1.9-1-.06-1.47-.14-1.71-1.27,0,2.14-.47,1.32-.23,3.21l-.57-.55c-.26.4.14,1.63-.55,1.45-.91,0-1.77,1-2.54,2.26s-1.58,2.79-2.83,3.75c1.19.23.8.4.35.64s-1,.56-.15.93c-.57-.05-1,.21-1.29-.39,0,1.52-1.62,1.77-.38,3.16-.57,0-.7-.52-1.05-.47.08.15.35.57,0,.63s-.39-.33-.57-.62c-.29,1.5,1.33,2,2.86,2.48-.45.25-.68.48-.67.72s.27.52.75.86c-.55.14-1.15.46-1.2-.43-.14.45-1.23,2.89.07,3.07-.33.12-.13.67,0,.8a8.4,8.4,0,0,0-.18,2.24L178,177c1.5.43.34.86.57,1.71l-.16,0c-.51,1-.36,1.21-.24,1.4s.18.39-.29,1.42l.94-.22c1,0,.8.4.42,1s-.89,1.37-.41,1.84l.47-.5c.38.23-.2.76-.89,1.37s-1.49,1.28-1.54,1.63c-.14.19-.34-.15-.51-.31-.74,2,1.27-.1,1.87,1-.58.42-1.75.2-1.61,1.08-.19.29.56.73,1.23,1.25s1.25,1.13.93,1.91c.37-.45.74-.87,1.35-.51.27.35.08,1.09.06,1.77s.11,1.28,1.05,1.21a.67.67,0,0,1-.27.34c.72.38,1.75,1.52,2.69,1.35-1.22,1.18-.23,1.81.68,2.31s1.83.83.68,1.83l1.52,1.43-.26.18a1.93,1.93,0,0,0,2.5.63c.08.36-.27.42-.4.52,1,1.77,1.36,1.77,3.5,1.5l-.44.9c.34-.1.66.64,1.26,1.35a3.06,3.06,0,0,0,2.52,1.44.77.77,0,0,1-.4.3c1.25-.06,2.07,1.17,3,1.93s1.86,1.17,2.78-.42a16,16,0,0,0,1.58-.47c-1.61-.71.68-1.44.16-2.19.67,0,1.37,1.48.53,1.45l-.08-.21c-.78,1.73,1.93,1.2,1.63,2.41,3.47.59,6.95,1.7,10.42,1.46l-.53-1.41c.38,0,.76-.05,1.15-.08.34.29.57,1.07-.28,1.14.56.76,1.31-.9,1.27-1.22,1.72.33-.35,1.78.14,1.74l.68-.22-.19-.14c.45-.7.39-1.25,1.37-1.44.68.13.52.8.78.79,0,.1.12.13.39-.06l1.5-.26-.9-1c.47-.7,1.33-.3.32-1.37.75.84,2.1.52,3.34.07s2.26-1.24,2.69-1.09a3.66,3.66,0,0,1,2.15-2.07c-.36-.06-1.17-1.09-.32-1.42.58,1.2,1.12,1.25,1.7,1.07a2.21,2.21,0,0,1,2.11,0c-.67-.3-.16-.78.25-1.27s.68-1.07-.3-1.4c.72-.36.68.73,1.55.8.35-1.06,1.29-1.57,2.21-2.25a7.3,7.3,0,0,0,2.6-2.4c-.26-.24-.92-.26-1-1q1.07,0,2.17,0c.14-.5-1.38-1.48.07-1.53-.31-.06-.78-.15-.71-.48,2-1.47,2.8-3.79,3.48-6,.33-1.14.74-2.24,1.17-3.35a9.45,9.45,0,0,1,.9-1.62,13.82,13.82,0,0,1,1.23-1.61c-.77.54-.77.09-.72-.4-.21.29-.86-.14-1.34-.15.52-.57,1.09-1.15,1.58-1.77-1.3-.47,0-2.13-1.23-2.38l.2.62a2.94,2.94,0,0,0-2.47.12,6.37,6.37,0,0,1-2.8.5c.41.22.46.46.33.7a3.64,3.64,0,0,1-.79.71c-.62.49-1.14,1,0,1.83-.42.2-.57-.35-1-.29.78.46.83.88.3,1.47l-.18-.12c-.26,2-1.36,2.53-2.65,4.24l.93.24c-.32.37-.63.33-.94.42,1.06,1.1.64-1.14,1.88-.05-1-.1-1.39.63-1.77,1.34s-.91,1.3-1.93.91c-.37.59,1,.4.66,1l-.59-.16.55.57c-.34.34-1.13.08-1.54-.19.11-.05.07-.33.11-.44-.92.06-.79,1.44-1.09,1.47l.68-.31a5.21,5.21,0,0,1-.73,1.32l-1,1.18c-.17.2-.34.4-.5.61a6.46,6.46,0,0,0-.5.6,4.41,4.41,0,0,0-.71,1.43l.4.24c-.61,1.59-1.23.33-2.27,1.61v-.12a1.18,1.18,0,0,1-.66,1.17c.06-.65-1.19-.47-1-1.23-.87,1.55-.26,1-.4,3l-.57-.55c0,.75.11,1.08-.58,1.63.34-.87-.95-.8-.63-1.88a1.27,1.27,0,0,0-1.17.05,2.32,2.32,0,0,0-.65.65c-.36.47-.68.82-1.4-.18-.08,2.22,1.74.57,1.48,1.14.6.5-.09,1.67-.7,1.67-.56.19-1.7-2.24-2.94-1.87.13,0,.1-.18.23-.2-.59-.41-.77,1-1.55.21-.12,1.27-.78,0-.63,1.62l1.18-.55c-.59.51-1,2.45-2.37,1.74a3.17,3.17,0,0,1,.58-1.07c-.4-.42-.62.43-1,0-.06-1.55,1.47-.57,2-1.86-.44-.61-1.19,1.34-1.07-.41-.1,1.12-.45,1.1-.82,1s-.8-.29-1.2.56v-1c-.13.16-.4.62-.66.61l.41-1.25c-.67,1.08-1.35-.82-2-.31.68,0,.76.31.74.68s-.15.85.16,1.18c-1.85,1.22-1-2.52-2.85-2.16.26-.1.91.61.47,1a2.06,2.06,0,0,1-1-1.17c-1.26,0,.06,1-.55,1.49-.27-1.21-.7.37-1.36.64l.17-.95c-1.33-.88-.81,1.89-2,.83q.45-.57.88-1.15l-.76.16.41-1c-.92.58-1.13.38-1.72-.17,0,.71-.63,1.63-1.3,1.42-.24-.7.56-.77-.39-1,.43-.49.89-1.12,1-.15.14-.28.39-.5.53-.78-.22-.78-1-.54-1.36-.64a.52.52,0,0,1,.25.33,13.51,13.51,0,0,1-1.76.7c0-.42.23-.61.5-.8-.28,0-.64.3-1,.19.44-.66.78-1.4,1.41-1.5l-1.49.25c.07-.33-.12-1.1.16-1.29-.3-.75-2.19.47-2.63-.56a.65.65,0,0,1-.5.13c-.3-.33-.45-.81-.71-1.16a1.24,1.24,0,0,0-.5-.41,1.48,1.48,0,0,0-.83-.13q.25-.73.52-1.43c-.8-.3-.61,1.84-2,1.31-1-.34.57-1.09.62-1.6-.79.17-2.45.49-2.19-.91C191.61,194,191.61,194.3,191.87,194.44Zm-5.6-8.31c.26.12,1,.26.49.6C185.66,186.9,186.09,186.54,186.27,186.12Zm-2.86-15.84c.27.24.06.43-.37.62A.63.63,0,0,1,183.41,170.28Zm39.07-26.1,0,0C222,143.66,222.16,143.87,222.49,144.18Zm1,.81a.36.36,0,0,0,.2-.35c-.17.2-.43.12-.7-.05C223,144.86,223.07,145.08,223.49,145Zm-4.26,65.91-.29-.19C219.39,210.32,219.31,210.6,219.23,210.91Z"/><path class="cls-3" d="M184.27,172.39a2,2,0,0,1-.53,0A.42.42,0,0,0,184.27,172.39Z"/><path class="cls-3" d="M196.77,198.13l0,0,.12-.13Z"/><path class="cls-3" d="M206.38,151.26a1.15,1.15,0,0,1-.46-.44A.45.45,0,0,0,206.38,151.26Z"/><path class="cls-3" d="M230.12,146.47l-.82-.21c.36.16.37.42.46.65C229.85,146.71,229.89,146.35,230.12,146.47Z"/><path class="cls-3" d="M231.68,155.12c.15,0,.17.13.32.11l.29-.34C231.95,154.62,231.49,154.69,231.68,155.12Z"/><path class="cls-3" d="M229,149.55c-.4.72.17.69.65.89a.22.22,0,0,1-.07-.05C230.37,149.54,229.71,149.51,229,149.55Z"/><path class="cls-3" d="M229.79,150.49a1,1,0,0,1,.39.27C230.49,150.43,230.08,150.57,229.79,150.49Z"/><path class="cls-3" d="M225.14,145.08c.15.3.57-.88.57-.51C226.39,143.73,223.61,145,225.14,145.08Z"/><polygon class="cls-3" points="227.9 152 228.3 151.07 227.63 151.61 227.9 152"/><path class="cls-3" d="M224.94,149.47l.58.59a.38.38,0,0,1,.35-.21C225.45,149.6,225.06,149.19,224.94,149.47Z"/><path class="cls-3" d="M225.87,149.84a.76.76,0,0,0,.63.18A1.36,1.36,0,0,0,225.87,149.84Z"/><polygon class="cls-3" points="226.85 151.71 226.76 151.42 226.34 151.07 226.85 151.71"/><path class="cls-3" d="M217,146.56l-.9.15c-.14.33.05.57.38.48S217.1,146.9,217,146.56Z"/><path class="cls-3" d="M218.82,149.81a1.78,1.78,0,0,1-.14-.82l-.35,1.19Z"/><path class="cls-3" d="M216.54,149.55c-.15.33-1.27.81-.31.87C216.36,150.08,217.18,150,216.54,149.55Z"/><polygon class="cls-3" points="204.55 148.14 204.75 148.07 204.3 146.08 204.55 148.14"/><path class="cls-3" d="M197.22,156.41c1,0-.51-1.16.46-1-.08-.52-.79-.1-.84-.56C196.67,155.52,196.29,155.41,197.22,156.41Z"/><path class="cls-3" d="M196.85,154.82a2.24,2.24,0,0,0,.07-.4A1,1,0,0,0,196.85,154.82Z"/><polygon class="cls-3" points="246.38 179.51 246.84 178.79 246.13 179.24 246.38 179.51"/><path class="cls-3" d="M244.94,178.07l1.31-.15-1.16-.44C245.14,177.64,245.24,178,244.94,178.07Z"/><path class="cls-3" d="M188.32,184l-.31,0a.46.46,0,0,0-.3.53Z"/><polygon class="cls-3" points="190.21 190.53 190.17 190.41 189.29 191.24 190.21 190.53"/><path class="cls-3" d="M194.89,194c-.14-.17-.5-.19-.61-.39C194.74,193.82,193.92,195.07,194.89,194Z"/><path class="cls-4" d="M160,132l17.89,37.7.29.36,53.68-22.37C233.38,147,233,140,233,139c0-3,.76-8.23-.79-11L212.37,92.86c-.53-.95-.79.73-.85,1L207.69,113l.56-1.37L184.6,91.86a1.77,1.77,0,0,0-.56,1.37l-4.47,24.92.56-1.37-19.81-4.47c-.18,0-2.93,19.34,0,20l19.81,4.47a1.77,1.77,0,0,0,.56-1.37l4.47-24.92-.56,1.37,23.64,19.81a1.77,1.77,0,0,0,.56-1.37l3.83-19.17-.85,1,19.81,35.15.29-19.64-39.62,16.51-9.91,4.13c-.53.22-4,1.9-4,1.89-.28-.08-2-4.26-2.42-5.2l-5.75-12.11-9.58-20.2c-.58-1.23-1.34,6.43-1.35,7C159.15,123.18,158.44,128.61,160,132Z"/><text class="cls-5" transform="translate(270.39 65.44) rotate(-0.89)">It is I, A<tspan class="cls-6" x="182.4" y="0">r</tspan><tspan class="cls-7" x="204.75" y="0">thur</tspan><tspan class="cls-8"><tspan x="35.66" y="84">son of Uther </tspan><tspan class="cls-9" x="172.74" y="84">P</tspan><tspan x="183.98" y="84">end</tspan><tspan class="cls-10" x="221.24" y="84">ra</tspan><tspan x="240.94" y="84">gon,</tspan><tspan x="3.26" y="108"> </tspan><tspan class="cls-11" x="10.26" y="108">f</tspan><tspan class="cls-12" x="18.24" y="108">r</tspan><tspan x="27.1" y="108" xml:space="preserve">om the castle of Camelot.  </tspan><tspan x="60.01" y="132">King of all Briton</tspan><tspan class="cls-13" x="236.35" y="132">s</tspan><tspan x="245.69" y="132">, </tspan><tspan x="38.83" y="156">de</tspan><tspan class="cls-14" x="62.77" y="156">f</tspan><tspan x="70.91" y="156">eator of the Saxon</tspan><tspan class="cls-13" x="264.53" y="156">s</tspan><tspan x="273.87" y="156">,</tspan><tspan x="33.29" y="180">s</tspan><tspan class="cls-15" x="43.51" y="180">o</tspan><tspan class="cls-16" x="54.75" y="180">v</tspan><tspan x="66.13" y="180">ereign of all </tspan><tspan class="cls-17" x="200.67" y="180">E</tspan><tspan x="211.77" y="180">ng</tspan><tspan class="cls-18" x="235.87" y="180">l</tspan><tspan x="242.91" y="180">and!</tspan></tspan></text></svg>